<?xml version="1.0" standalone="no"?>
<!DOCTYPE svg PUBLIC "-//W3C//DTD SVG 1.1//EN" "http://www.w3.org/Graphics/SVG/1.1/DTD/svg11.dtd" >
<svg xmlns="http://www.w3.org/2000/svg" xmlns:xlink="http://www.w3.org/1999/xlink" version="1.1">
<metadata>
Created by FontForge 20170731 at Wed Jun 28 16:29:03 2023
 By Aleksey,,,
Copyright (c) 2017 Monotype Imaging Inc. All rights reserved.
</metadata>
<defs>
<font id="AlbertusNova-Bold" horiz-adv-x="0" >
  <font-face
    font-family="Albertus Nova"
    font-weight="700"
    font-stretch="normal"
    units-per-em="2048"
    panose-1="2 14 8 3 4 3 4 2 3 4"
    ascent="1638"
    descent="-410"
    x-height="1165"
    cap-height="1677"
    bbox="-1622 -653 2886 2253"
    underline-thickness="102"
    underline-position="-307"
    unicode-range="U+000D-FEFF"
  />
<missing-glyph horiz-adv-x="1269"
d="M72 0v1677h1126v-1677h-1126zM205 133h860v1411h-860v-1411zM459 618q-21 116 -21 189q0 46 18.5 65.5t80.5 38.5q75 23 113 73t38 118q0 72 -48 120t-122 48q-104 0 -194 -72l-5 2l17 250q92 37 203 37q189 0 308.5 -104.5t119.5 -270.5q0 -135 -77 -230.5t-218 -138.5
q-84 -25 -122 -50.5t-71 -74.5h-20zM496 184q-78 0 -129.5 51t-51.5 130t51.5 129.5t129.5 50.5q80 0 130 -50.5t50 -129.5q0 -80 -50.5 -130.5t-129.5 -50.5z" />
    <glyph glyph-name="uniFB00" unicode="ff" horiz-adv-x="1478"
d="M1339 1694q125 0 256 -31l-36 -289l-7 -2q-127 127 -221 127q-125 0 -125 -176v-158h269v-188h-269v-649q0 -94 13.5 -168t46.5 -160h-410q32 85 45.5 159t13.5 169v649h-432v-649q0 -94 13.5 -168t46.5 -160h-410q33 86 46.5 160t13.5 168v649h-166v8l166 191v98
q0 197 116.5 308.5t306.5 111.5q125 0 256 -31l-36 -289l-7 -2q-68 67 -120.5 97t-102.5 30q-123 0 -123 -176v-158h432v109q0 197 117 308.5t307 111.5z" />
    <glyph glyph-name=".notdef" horiz-adv-x="1269"
d="M72 0v1677h1126v-1677h-1126zM205 133h860v1411h-860v-1411zM459 618q-21 116 -21 189q0 46 18.5 65.5t80.5 38.5q75 23 113 73t38 118q0 72 -48 120t-122 48q-104 0 -194 -72l-5 2l17 250q92 37 203 37q189 0 308.5 -104.5t119.5 -270.5q0 -135 -77 -230.5t-218 -138.5
q-84 -25 -122 -50.5t-71 -74.5h-20zM496 184q-78 0 -129.5 51t-51.5 130t51.5 129.5t129.5 50.5q80 0 130 -50.5t50 -129.5q0 -80 -50.5 -130.5t-129.5 -50.5z" />
    <glyph glyph-name=".null"
 />
    <glyph glyph-name="nonmarkingreturn" horiz-adv-x="682"
 />
    <glyph glyph-name="NULL"
 />
    <glyph glyph-name="NULL"
 />
    <glyph glyph-name="CR" unicode="&#xd;" horiz-adv-x="501"
 />
    <glyph glyph-name="space" unicode=" " horiz-adv-x="501"
 />
    <glyph glyph-name="exclam" unicode="!" horiz-adv-x="665"
d="M571 1677q-56 -92 -74 -203t-18 -335v-236q0 -107 -26 -183t-107 -214h-24q-81 137 -107.5 213t-26.5 184v236q0 222 -19 334t-75 204h477zM332 408q94 0 154.5 -59.5t60.5 -153.5t-60.5 -154.5t-154.5 -60.5q-92 0 -152.5 60.5t-60.5 154.5q0 93 60 153t153 60z" />
    <glyph glyph-name="quotedbl" unicode="&#x22;" horiz-adv-x="1001"
d="M457 1677q-46 -258 -58 -587h-256q-9 335 -57 587h371zM918 1677q-46 -258 -58 -587h-256q-9 335 -57 587h371z" />
    <glyph glyph-name="numbersign" unicode="#" horiz-adv-x="1617"
d="M1464 995h-211l-94 -311h209l-80 -262h-209l-129 -422h-266l129 422h-256l-129 -422h-266l129 422h-217l80 262h217l94 311h-215l80 262h215l127 420h266l-127 -420h256l127 420h266l-127 -420h211zM893 684l94 311h-256l-94 -311h256z" />
    <glyph glyph-name="dollar" unicode="$" horiz-adv-x="1226"
d="M1143 453q0 -190 -117.5 -310t-310.5 -147v-270h-197v264q-183 5 -354 39l-12 397h8q123 -161 358 -184v446q-52 21 -90 38.5t-85 44t-80.5 52.5t-67 62t-54.5 75t-34 90t-13 109q0 186 114.5 303t309.5 129v92h197v-98q34 -2 82.5 -6t80.5 -6t56 -2q42 0 65 4l13 -375
h-8q-136 114 -289 137v-397q53 -21 91 -38.5t85.5 -44t81 -53t68 -64t55.5 -78t34 -94.5t13 -115zM373 1190q0 -57 33.5 -94.5t111.5 -73.5v319q-145 -22 -145 -151zM715 248q157 33 157 168q0 62 -40.5 106.5t-116.5 81.5v-356z" />
    <glyph glyph-name="percent" unicode="%" horiz-adv-x="1882"
d="M430 1688q176 0 285.5 -115t109.5 -293q0 -195 -111 -308.5t-278 -113.5q-162 0 -275.5 114t-113.5 312q0 166 107 285t276 119zM1575 1677q-91 -99 -156 -215l-682 -1226q-75 -140 -94 -236h-336q93 106 154 215l682 1227q77 138 96 235h336zM440 1475q-63 0 -100 -54.5
t-37 -142.5t36 -146.5t95 -58.5q65 0 100 59t35 148q0 90 -35 142.5t-94 52.5zM1440 817q176 0 285.5 -114.5t109.5 -292.5q0 -195 -111 -308.5t-278 -113.5q-162 0 -275.5 114t-113.5 312q0 107 46.5 198.5t135 148t201.5 56.5zM1450 604q-64 0 -100.5 -54t-36.5 -142
t36 -146.5t95 -58.5q65 0 100 59t35 148q0 90 -35 142t-94 52z" />
    <glyph glyph-name="ampersand" unicode="&#x26;" horiz-adv-x="1941"
d="M1401 481q287 -249 545 -313v-6l-301 -176q-82 17 -186 89.5t-206 178.5q-113 -129 -263.5 -198.5t-330.5 -69.5q-283 0 -436 120t-153 324q0 124 59 213.5t193 161.5q-132 97 -132 278q0 157 116.5 269t287.5 112q164 0 272.5 -96t108.5 -264q0 -143 -107 -236
q187 -79 338 -209q82 203 82 449q0 61 -2 88q-147 -7 -219 -35v275h748l-3 -293q-114 50 -284 53q0 -13 1 -41.5t1 -44.5q0 -359 -129 -629zM584 1212q-62 0 -101 -38t-39 -91q0 -55 36.5 -91t121.5 -60q113 58 113 153q0 57 -35.5 92t-95.5 35zM666 262q230 0 391 164
q-180 169 -514 272q-88 -47 -128 -102.5t-40 -128.5q0 -90 78 -147.5t213 -57.5z" />
    <glyph glyph-name="quotesingle" unicode="'" horiz-adv-x="542"
d="M457 1677q-46 -258 -58 -587h-256q-9 335 -57 587h371z" />
    <glyph glyph-name="parenleft" unicode="(" horiz-adv-x="851"
d="M662 1694q100 0 180 -25v-18q-104 -30 -169.5 -89.5t-108 -176t-59 -288t-16.5 -435.5q0 -211 11 -361t35 -262.5t66.5 -184t100 -115t140.5 -67.5v-18q-80 -25 -180 -25q-179 0 -284.5 96t-156.5 321.5t-51 615.5t51 615.5t156.5 321t284.5 95.5z" />
    <glyph glyph-name="parenright" unicode=")" horiz-adv-x="851"
d="M190 1694q179 0 284.5 -95.5t156.5 -321t51 -615.5t-51 -615.5t-156.5 -321.5t-284.5 -96q-100 0 -180 25v18q83 24 140.5 67.5t99.5 115t66 184t35 262t11 361.5t-11 361.5t-35 261.5t-66 183.5t-99.5 115t-140.5 67.5v18q80 25 180 25z" />
    <glyph glyph-name="asterisk" unicode="*" horiz-adv-x="1130"
d="M573 1759q53 -156 148 -319q175 -6 348 33l8 -15q-124 -141 -203 -282q87 -152 203 -281l-8 -14q-162 36 -348 30q-101 -172 -148 -319h-16q-51 159 -145 319q-189 7 -351 -30l-8 14q119 129 203 281q-77 143 -203 282l8 15q174 -39 351 -33q88 151 145 319h16zM565 1321
q-59 0 -101 -43t-42 -102t41.5 -101.5t101.5 -42.5t103 42.5t43 101.5t-43 102t-103 43z" />
    <glyph glyph-name="plus" unicode="+" horiz-adv-x="1220"
d="M852 807q173 0 287 20v-297q-120 21 -287 21h-113v-115q0 -166 21 -286h-297q20 114 20 286v115h-114q-167 0 -287 -21v297q114 -20 287 -20h114v113q0 172 -20 286h297q-21 -120 -21 -286v-113h113z" />
    <glyph glyph-name="comma" unicode="," horiz-adv-x="628"
d="M539 408q-32 -192 -119 -368t-254 -421h-199q189 382 189 623q0 84 -27 166h410z" />
    <glyph glyph-name="hyphen" unicode="-" horiz-adv-x="688"
d="M618 836v-340q-133 26 -274 26t-274 -26v340q155 -27 274 -27t274 27z" />
    <glyph glyph-name="period" unicode="." horiz-adv-x="581"
d="M291 410q97 0 156 -59t59 -156t-59 -156t-156 -59t-156 59t-59 156t59 156t156 59z" />
    <glyph glyph-name="slash" unicode="/" horiz-adv-x="837"
d="M891 1677q-72 -110 -125 -252l-524 -1433q-62 -170 -68 -275h-309q72 110 125 252l524 1434q62 170 68 274h309z" />
    <glyph glyph-name="zero" unicode="0" horiz-adv-x="1427"
d="M705 1698q192 0 342 -109.5t231.5 -303t81.5 -437.5q0 -202 -50.5 -367.5t-138.5 -274t-205 -167.5t-251 -59q-130 0 -246.5 58t-206 165.5t-142 276t-52.5 374.5q0 168 45.5 321t126.5 269t202 185t263 69zM715 1430q-144 0 -226.5 -159.5t-82.5 -420.5
q0 -170 36.5 -306t106 -215t160.5 -79q101 0 173 83t106 216.5t34 302.5q0 267 -84.5 422.5t-222.5 155.5z" />
    <glyph glyph-name="one" unicode="1" horiz-adv-x="849"
d="M203 0q46 91 65 180.5t19 216.5v928h-205v10l500 363h6v-1403q0 -96 11 -162t38 -133h-434z" />
    <glyph glyph-name="two" unicode="2" horiz-adv-x="1236"
d="M1171 385h7l-33 -385h-1116v10q249 339 608 869q93 144 124.5 216t31.5 140q0 85 -58.5 141t-152.5 56q-103 0 -165.5 -71.5t-62.5 -174.5q0 -80 23 -139l-6 -5l-256 154q-2 12 -2 37q0 93 36 178t98.5 148.5t153.5 101t195 37.5q226 0 358.5 -128.5t132.5 -324.5
q0 -109 -45 -216.5t-176 -293.5l-350 -499h186q163 0 264.5 33.5t204.5 115.5z" />
    <glyph glyph-name="three" unicode="3" horiz-adv-x="1204"
d="M739 969q178 -46 286 -174.5t108 -290.5q0 -150 -77.5 -270t-215.5 -187t-310 -67q-328 0 -516 188l166 317h6q78 -268 349 -268q121 0 196.5 72t75.5 196q0 127 -95.5 212t-265.5 85q-73 0 -129 -16l-2 6l367 676q-33 2 -109 2q-202 0 -301.5 -32t-173.5 -118h-6l6 377
h1024z" />
    <glyph glyph-name="four" unicode="4" horiz-adv-x="1288"
d="M1268 537q-97 43 -281 43v-99q0 -152 16.5 -260.5t55.5 -220.5h-434q39 111 55 220t16 261v99h-676v208q142 142 261 308l292 397q102 142 127 184h287v-886q184 0 281 43v-297zM309 791h387v532z" />
    <glyph glyph-name="five" unicode="5" horiz-adv-x="1157"
d="M500 1028q158 0 285.5 -63t200.5 -179t73 -264q0 -108 -41.5 -206t-115.5 -172.5t-185.5 -119t-243.5 -44.5q-277 0 -467 151l156 303h6q107 -186 299 -186q111 0 186.5 75.5t75.5 190.5q0 123 -87.5 202t-223.5 79q-129 0 -230 -66v682q0 174 -32 266h917l-147 -309
q-62 42 -137.5 62t-190.5 20h-125v-422h27z" />
    <glyph glyph-name="six" unicode="6" horiz-adv-x="1241"
d="M623 1030q244 0 400.5 -146.5t156.5 -373.5q0 -107 -40 -203t-111.5 -168.5t-177.5 -115.5t-230 -43t-230 43t-177 115.5t-111 168.5t-40 203q0 94 31.5 189t114.5 237l264 461q56 99 78 172.5t14 107.5h467v-6q-70 -64 -128.5 -142t-131.5 -202l-176 -297h27zM623 252
q113 0 183.5 71.5t70.5 186.5q0 114 -70.5 185t-183.5 71q-114 0 -185 -71t-71 -185q0 -115 71 -186.5t185 -71.5z" />
    <glyph glyph-name="seven" unicode="7" horiz-adv-x="1173"
d="M1165 1677l-522 -1300q-76 -192 -76 -299q0 -48 6 -78h-462v6q107 144 176 313l467 1121h-289q-143 0 -234 -28.5t-178 -94.5v360h1112z" />
    <glyph glyph-name="eight" unicode="8" horiz-adv-x="1247"
d="M911 891q111 -50 180.5 -163t69.5 -236q0 -106 -38.5 -200t-107.5 -163t-170 -109t-220 -40q-239 0 -389 145t-150 373q0 119 67 225.5t177 165.5q-195 137 -195 362q0 87 33 167t93.5 142.5t154.5 100t207 37.5q112 0 205.5 -38.5t153.5 -103t93 -145.5t33 -168
q0 -109 -57 -204t-140 -148zM623 1434q-87 0 -147 -61t-60 -148q0 -88 60 -149.5t147 -61.5q85 0 144.5 61.5t59.5 149.5q0 86 -59.5 147.5t-144.5 61.5zM625 246q101 0 173 74.5t72 177.5q0 104 -72 178t-173 74q-103 0 -175.5 -74t-72.5 -178q0 -103 73 -177.5t175 -74.5z
" />
    <glyph glyph-name="nine" unicode="9" horiz-adv-x="1241"
d="M623 1698q124 0 230 -42.5t177 -114.5t110.5 -167.5t39.5 -202.5q0 -92 -32 -187t-114 -239l-266 -464q-101 -174 -88 -281h-459v6q114 117 246 344l174 295h-20q-244 0 -401 148.5t-157 377.5q0 107 40 203t112 167.5t178 114t230 42.5zM621 909q110 0 183 74t73 186
t-72.5 185t-183.5 73q-110 0 -182 -73t-72 -185q0 -113 72 -186.5t182 -73.5z" />
    <glyph glyph-name="colon" unicode=":" horiz-adv-x="581"
d="M291 1186q97 0 156 -59t59 -156t-59 -156t-156 -59t-156 59t-59 156t59 156t156 59zM291 410q97 0 156 -59t59 -156t-59 -156t-156 -59t-156 59t-59 156t59 156t156 59z" />
    <glyph glyph-name="uni003B" unicode=";" horiz-adv-x="643"
d="M334 1186q97 0 156 -59t59 -156t-59 -156t-156 -59t-156 59t-59 156t59 156t156 59zM549 408q-32 -192 -119 -368t-254 -421h-209q189 382 189 623q0 84 -27 166h420z" />
    <glyph glyph-name="less" unicode="&#x3c;" horiz-adv-x="1220"
d="M1139 1249v-305l-785 -266l785 -266v-306q-120 76 -260 127l-797 283v324l797 284q136 47 260 125z" />
    <glyph glyph-name="equal" unicode="=" horiz-adv-x="1220"
d="M1139 1073v-297q-120 21 -287 21h-483q-167 0 -287 -21v297q114 -20 287 -20h483q173 0 287 20zM1139 582v-297q-114 20 -287 20h-483q-173 0 -287 -20v297q120 -21 287 -21h483q167 0 287 21z" />
    <glyph glyph-name="greater" unicode="&#x3e;" horiz-adv-x="1220"
d="M342 1124l797 -284v-324l-797 -283q-140 -51 -260 -127v306l784 266l-784 266v305q124 -78 260 -125z" />
    <glyph glyph-name="question" unicode="?" horiz-adv-x="970"
d="M268 522q-20 133 -20 234q0 60 23.5 85t103.5 48q117 34 178 110.5t61 178.5q0 113 -74.5 187.5t-185.5 74.5q-141 0 -260 -92l-6 2l21 297q123 47 268 47q249 0 405 -139.5t156 -362.5q0 -182 -102.5 -309.5t-290.5 -188.5q-107 -34 -157 -69.5t-93 -102.5h-27zM311 -20
q-92 0 -152.5 60.5t-60.5 154.5q0 93 60 153t153 60q94 0 154.5 -59.5t60.5 -153.5t-60.5 -154.5t-154.5 -60.5z" />
    <glyph glyph-name="at" unicode="@" horiz-adv-x="2162"
d="M1298 156q-96 0 -211 16l23 141q-105 -60 -219 -153q-141 12 -218 99t-77 241q0 131 54 254t148.5 217t232 150.5t294.5 56.5q125 0 225 -19q-54 -125 -101 -397t-54 -428q174 8 279.5 136t105.5 341q0 277 -173 434.5t-472 157.5q-222 0 -391.5 -98t-262 -277
t-92.5 -412q0 -333 191.5 -526.5t521.5 -193.5q208 0 387 63l2 -6l-154 -234q-131 -45 -317 -45q-285 0 -490.5 111.5t-311 315.5t-105.5 481q0 228 78.5 425.5t216 337.5t333 220t420.5 80q265 0 467 -101t312 -286t110 -429q0 -304 -202 -488.5t-550 -184.5zM1030 365
q40 0 90 18l90 596q-30 6 -45 6q-116 0 -197 -126t-81 -314q0 -90 38.5 -135t104.5 -45z" />
    <glyph glyph-name="A" unicode="A" horiz-adv-x="1660"
d="M1511 387q53 -124 103 -208t123 -173v-6h-465q6 21 6 55q0 53 -18.5 118.5t-63.5 174.5l-37 90h-655l-43 -96q-82 -188 -82 -287q0 -27 4 -55h-459v6q120 141 234 387l403 871q121 258 162 413h264q36 -143 152 -413zM612 682h449l-215 526z" />
    <glyph glyph-name="B" unicode="B" horiz-adv-x="1280"
d="M901 899q153 -90 225 -189.5t72 -232.5q0 -139 -84.5 -249t-225.5 -169t-310 -59h-459q39 111 55 220t16 261v715q0 152 -16 261t-55 220h454q243 0 393 -122t150 -312q0 -101 -56.5 -189.5t-158.5 -154.5zM492 1509v-606q147 30 233 121t86 201q0 118 -94 201t-225 83z
M492 170q179 0 287 90t108 221q0 139 -110 249t-285 140v-700z" />
    <glyph glyph-name="C" unicode="C" horiz-adv-x="1542"
d="M932 -20q-188 0 -347 64t-268.5 175t-171 264t-61.5 328q0 161 49 302.5t137.5 247.5t208.5 182.5t265 115.5t303 39q205 0 393 -58v-305l-6 -2q-92 59 -211.5 94t-237.5 35q-245 0 -407 -175.5t-162 -444.5q0 -173 70.5 -313t196.5 -220t282 -80t289.5 52t222.5 137
l6 -2l-17 -310q-225 -126 -534 -126z" />
    <glyph glyph-name="D" unicode="D" horiz-adv-x="1601"
d="M119 0q39 111 55 220t16 261v715q0 151 -19.5 258.5t-64.5 218.5q217 17 328 17q260 0 466 -61t341 -171.5t206 -264.5t71 -341q0 -159 -49.5 -296t-140 -238.5t-215 -173t-277 -108t-324.5 -36.5h-393zM508 207q198 10 343.5 80.5t229.5 209t84 334.5q0 286 -177 461.5
t-484 190.5q-12 -120 -12 -301v-650q0 -197 16 -325z" />
    <glyph glyph-name="E" unicode="E" horiz-adv-x="1175"
d="M119 0q39 111 55 220t16 261v715q0 152 -16 261t-55 220h962l-145 -317q-177 104 -444 110v-507h532l-170 -289q-146 65 -362 74v-531q203 0 362.5 29t312.5 94l4 -4l-139 -336h-913z" />
    <glyph glyph-name="F" unicode="F" horiz-adv-x="1099"
d="M119 0q39 111 55 220t16 261v715q0 152 -16 261t-55 220h977l-152 -293q-72 40 -195.5 63t-256.5 23v-538h550l-145 -291q-135 76 -405 76v-236q0 -152 16 -261t55 -220h-444z" />
    <glyph glyph-name="G" unicode="G" horiz-adv-x="1722"
d="M1030 1698q245 0 463 -51v-308l-6 -2q-240 144 -490 144q-254 0 -417.5 -171t-163.5 -450q0 -190 79 -337t219.5 -227.5t319.5 -80.5q152 0 260 51v131q0 258 -112 449h465q-23 -53 -37.5 -134.5t-14.5 -164.5v-189q0 -176 31 -270q-281 -108 -600 -108q-196 0 -356 44.5
t-267.5 120t-180.5 180t-105.5 221t-32.5 245.5q0 199 69 368t192.5 287.5t300 185t384.5 66.5z" />
    <glyph glyph-name="H" unicode="H" horiz-adv-x="1665"
d="M1475 1196v-715q0 -152 16 -261t55 -220h-444q39 112 55.5 220.5t16.5 260.5v238h-682v-238q0 -152 16 -261t55 -220h-444q39 111 55 220t16 261v715q0 152 -16 261t-55 220h444q-39 -111 -55 -220t-16 -261v-233h682v233q0 152 -16.5 260.5t-55.5 220.5h444
q-39 -111 -55 -220t-16 -261z" />
    <glyph glyph-name="I" unicode="I" horiz-adv-x="681"
d="M119 0q39 111 55 220t16 261v715q0 152 -16 261t-55 220h444q-39 -111 -55 -220t-16 -261v-715q0 -152 16 -261t55 -220h-444z" />
    <glyph glyph-name="J" unicode="J" horiz-adv-x="794"
d="M676 1677q-28 -102 -39.5 -223t-11.5 -334v-690q0 -411 -133 -603t-400 -192q-69 0 -133 21v8q54 28 96.5 58t86 74t75 101.5t56.5 132.5t38 175t13 221v1018q-40 4 -82 4q-135 0 -258 -27l75 256h617z" />
    <glyph glyph-name="K" unicode="K" horiz-adv-x="1548"
d="M1319 319q151 -197 291 -311v-8h-514q-4 60 -49.5 149.5t-116.5 182.5l-438 577v-428q0 -152 16 -261t55 -220h-444q39 111 55 220t16 261v715q0 152 -16 261t-55 220h444q-39 -111 -55 -220t-16 -261v-262l395 506q52 67 71.5 117.5t22.5 119.5h526v-8
q-220 -177 -391 -397l-264 -338z" />
    <glyph glyph-name="L" unicode="L" horiz-adv-x="1112"
d="M119 0q39 111 55 220t16 261v715q0 152 -16 261t-55 220h444q-39 -111 -55 -220t-16 -261v-971q159 12 347.5 58.5t293.5 99.5l4 -4l-156 -379h-862z" />
    <glyph glyph-name="M" unicode="M" horiz-adv-x="2058"
d="M1995 1671q-77 -97 -102 -176.5t-25 -216.5v-797q0 -155 16 -263.5t55 -217.5h-444q40 110 56 218.5t16 262.5v672l-533 -659l-542 669v-682q0 -152 16 -261t55 -220h-442q38 110 53.5 218.5t15.5 262.5v1004q-71 96 -172 186v6h453q22 -60 53 -109.5t99 -131.5l413 -510
l463 573q84 104 117 178h379v-6z" />
    <glyph glyph-name="N" unicode="N" horiz-adv-x="1863"
d="M1673 1130v-583q0 -314 53 -547h-395q-22 78 -131 223l-676 891v-567q0 -186 15 -304.5t55 -242.5h-432q39 126 54 244.5t15 302.5v891q-60 77 -108.5 127t-114.5 104v8h494q23 -65 58 -122.5t116 -165.5l704 -930v671q0 184 -15 302.5t-54 244.5h434
q-40 -126 -56 -244.5t-16 -302.5z" />
    <glyph glyph-name="O" unicode="O" horiz-adv-x="1953"
d="M975 1698q146 0 280.5 -38t246 -111.5t194 -174.5t128.5 -234t46 -282q0 -189 -70 -353t-190.5 -278.5t-287.5 -180.5t-355 -66q-159 0 -300.5 46t-246.5 127.5t-181.5 188.5t-115.5 232.5t-39 256.5q0 176 69 336t187.5 276.5t284 185.5t350.5 69zM918 1468
q-101 0 -192 -39.5t-160 -110.5t-109.5 -178t-40.5 -233q0 -137 44.5 -263t122.5 -222t194 -153.5t251 -57.5q149 0 267 76.5t181.5 205.5t63.5 285q0 138 -48.5 265t-131.5 220.5t-198.5 149t-243.5 55.5z" />
    <glyph glyph-name="P" unicode="P" horiz-adv-x="1245"
d="M539 1677q157 0 282.5 -40.5t204.5 -111t120.5 -161.5t41.5 -195q0 -239 -165.5 -378.5t-444.5 -139.5q-46 0 -86 4v-174q0 -152 16 -261t55 -220h-444q39 111 55 220t16 261v715q0 152 -16 261t-55 220h420zM492 786q179 20 283 122t104 245t-101.5 238t-277.5 104
q-8 -90 -8 -221v-488z" />
    <glyph glyph-name="Q" unicode="Q" horiz-adv-x="1953"
d="M1481 125q238 -340 403 -451v-8q-80 -26 -192 -26q-96 0 -176 31t-183 112q-107 83 -229 205q-90 -8 -137 -8q-159 0 -300.5 46t-246.5 127.5t-181.5 188.5t-115.5 232.5t-39 256.5q0 176 69 336t187.5 276.5t284 185.5t350.5 69q146 0 280.5 -38t246 -111.5t194 -174.5
t128.5 -234t46 -282q0 -233 -104 -424t-285 -309zM416 907q0 -137 44.5 -263t122.5 -222t194 -153.5t251 -57.5q149 0 267 76.5t181.5 205.5t63.5 285q0 138 -48.5 265t-131.5 220.5t-198.5 149t-243.5 55.5q-101 0 -192 -39.5t-160 -110.5t-109.5 -178t-40.5 -233z" />
    <glyph glyph-name="R" unicode="R" horiz-adv-x="1370"
d="M889 741q100 -177 212 -336t298 -397v-8h-262q-97 38 -232 201q-181 220 -413 569v-289q0 -152 16 -261t55 -220h-444q39 111 55 220t16 261v715q0 152 -16 261t-55 220h411q161 0 289.5 -38.5t209 -106t123 -155t42.5 -187.5q0 -294 -305 -449zM492 801
q193 45 293 138.5t100 215.5q0 153 -112.5 246.5t-280.5 93.5v-694z" />
    <glyph glyph-name="S" unicode="S" horiz-adv-x="1140"
d="M481 -20q-203 0 -366 65v401h8q111 -134 192.5 -184.5t180.5 -50.5q97 0 161 60t64 149q0 80 -59.5 142.5t-233.5 164.5q-178 104 -251 215.5t-73 267.5q0 94 37.5 182t104 156t166 109t215.5 41q177 0 331 -74v-303l-6 -2q-84 76 -157 106.5t-158 30.5
q-103 0 -164 -58.5t-61 -140.5q0 -83 61.5 -156.5t216.5 -162.5q196 -112 276.5 -210.5t80.5 -254.5q0 -153 -77.5 -266.5t-204.5 -170t-284 -56.5z" />
    <glyph glyph-name="T" unicode="T" horiz-adv-x="1337"
d="M430 0q40 110 56 218.5t16 262.5v973q-304 0 -537 -129l-4 4l102 348h1313l-141 -329q-175 103 -432 106v-973q0 -152 16 -261t55 -220h-444z" />
    <glyph glyph-name="U" unicode="U" horiz-adv-x="1648"
d="M684 -14q-247 0 -378.5 169t-131.5 494v547q0 152 -16.5 260.5t-55.5 220.5h445q-39 -112 -55.5 -220.5t-16.5 -260.5v-551q0 -200 86 -301.5t234 -101.5t255 101t107 261v592q0 152 -16.5 260.5t-55.5 220.5h445q-39 -112 -55.5 -220.5t-16.5 -260.5v-715
q0 -152 16.5 -260.5t55.5 -220.5h-375q14 55 14 168q-257 -182 -485 -182z" />
    <glyph glyph-name="V" unicode="V" horiz-adv-x="1640"
d="M1212 1677h494v-6q-74 -87 -124.5 -172.5t-111.5 -232.5l-532 -1266h-281l-485 1235q-59 148 -124 267.5t-114 168.5v6h498q-26 -80 -12 -188.5t74 -263.5l313 -799l317 756q59 140 85 237t24.5 152.5t-21.5 105.5z" />
    <glyph glyph-name="W" unicode="W" horiz-adv-x="2123"
d="M1731 1677h426q-83 -162 -164 -452l-334 -1225h-287l-307 889l-309 -889h-287l-336 1225q-83 309 -168 452h430q-31 -179 43 -452l197 -723l424 1188h10l422 -1182l197 717q74 276 43 452z" />
    <glyph glyph-name="X" unicode="X" horiz-adv-x="1509"
d="M1112 496q94 -163 194 -294t175 -196v-6h-533q17 75 -0.5 149.5t-77.5 178.5l-141 247l-178 -292q-54 -88 -68.5 -160t0.5 -123h-479v6q124 134 348 494l215 356l-198 348q-90 159 -164.5 266t-159.5 201v6h479q-27 -106 56 -252l182 -319l151 246q113 183 82 325h475v-6
q-132 -166 -307 -454l-239 -394z" />
    <glyph glyph-name="Y" unicode="Y" horiz-adv-x="1304"
d="M948 1677h422v-6q-72 -75 -166 -244l-385 -677v-269q0 -152 16.5 -260.5t55.5 -220.5h-445q40 110 56 218.5t16 262.5v260l-383 666q-106 184 -201 264v6h461q-4 -24 -4 -51q0 -93 66 -209l217 -381l217 387q63 115 63 213q0 26 -6 41z" />
    <glyph glyph-name="Z" unicode="Z" horiz-adv-x="1259"
d="M1276 365l4 -5l-141 -360h-1119q124 203 364 693.5t351 766.5q-27 2 -82 2q-174 0 -342.5 -40.5t-267.5 -112.5l-4 4l129 364h1014q-124 -244 -337 -701t-339 -751q23 -2 67 -2q502 0 703 142z" />
    <glyph glyph-name="bracketleft" unicode="[" horiz-adv-x="712"
d="M690 1677v-192q-74 10 -227 10v-1667q153 0 227 10v-192h-518v2031h518z" />
    <glyph glyph-name="backslash" unicode="\" horiz-adv-x="837"
d="M-53 1677h309q6 -104 68 -274l524 -1434q53 -142 125 -252h-309q-6 105 -68 275l-524 1433q-53 142 -125 252z" />
    <glyph glyph-name="bracketright" unicode="]" horiz-adv-x="712"
d="M23 -354v192q74 -10 227 -10v1667q-153 0 -227 -10v192h518v-2031h-518z" />
    <glyph glyph-name="asciicircum" unicode="^" horiz-adv-x="999"
d="M938 1075h-291l-147 346l-148 -346h-291l287 602h303z" />
    <glyph glyph-name="underscore" unicode="_" horiz-adv-x="1024"
d="M1024 -195v-233h-1024v233h1024z" />
    <glyph glyph-name="grave" unicode="`" horiz-adv-x="612"
d="M102 1671h306q21 -202 102 -375h-129q-186 128 -279 375z" />
    <glyph glyph-name="a" unicode="a" horiz-adv-x="1036"
d="M494 1184q201 0 303 -96t102 -275v-485q0 -102 15 -174.5t51 -153.5h-357v133q-90 -53 -184 -137q-10 -2 -41 -2q-164 0 -256 77.5t-92 213.5q0 99 62.5 172t224.5 149q129 62 286 125v27q0 94 -51.5 144t-142.5 50q-140 0 -281 -88l-4 4l86 269q120 47 279 47zM608 514
h-237q-29 -69 -29 -137q0 -93 50.5 -136.5t160.5 -43.5q34 0 55 6v311z" />
    <glyph glyph-name="b" unicode="b" horiz-adv-x="1247"
d="M498 1692q-52 -203 -52 -547v-213l185 211q61 37 153 37q174 0 288 -129.5t114 -348.5q0 -165 -55 -298.5t-151 -221.5t-225.5 -135t-279.5 -47h-379q60 180 60 371v870q0 137 -14 219t-46 156zM616 918q-91 0 -170 -56v-657q59 -15 125 -15q135 0 221.5 99t86.5 284
q0 92 -23.5 161.5t-62.5 108t-83.5 57t-93.5 18.5z" />
    <glyph glyph-name="c" unicode="c" horiz-adv-x="976"
d="M688 1184q122 0 248 -29l-25 -317l-6 -2q-141 133 -266 133q-112 0 -186 -87t-74 -259q0 -193 100 -302.5t262 -109.5q107 0 211 43l4 -4l-129 -242q-71 -22 -180 -22q-116 0 -218.5 33.5t-186 101t-132.5 181.5t-49 261q0 131 43.5 244.5t123 197t198 131.5t262.5 48z
" />
    <glyph glyph-name="d" unicode="d" horiz-adv-x="1251"
d="M506 -14q-127 0 -229.5 69.5t-159 187t-56.5 259.5q0 124 49.5 247t131 217.5t195.5 154t235 59.5q71 0 135 -23v84q0 138 -14 219.5t-45 155.5l399 76q-49 -180 -49 -547v-817q0 -95 13.5 -169t45.5 -159h-350v172q-80 -101 -143.5 -143.5t-157.5 -42.5zM727 217
q39 0 80 23v651q-97 84 -229 84q-89 0 -138 -37q-67 -125 -67 -307q0 -193 98.5 -303.5t255.5 -110.5z" />
    <glyph glyph-name="e" unicode="e" horiz-adv-x="1060"
d="M999 711q0 -89 -6 -144l-624 -16q8 -87 36 -150t70.5 -98t92 -51t108.5 -16q132 0 305 108l4 -4l-84 -297q-129 -57 -283 -57q-261 0 -409 147t-148 436q0 146 42 264.5t114 194t166.5 116t202.5 40.5q202 0 307.5 -126t105.5 -347zM371 715h401q0 278 -197 278
q-89 0 -140.5 -65.5t-63.5 -212.5z" />
    <glyph glyph-name="f" unicode="f" horiz-adv-x="755"
d="M133 0q33 86 46.5 160t13.5 168v649h-166v8l166 191v98q0 197 116.5 308.5t306.5 111.5q125 0 256 -31l-36 -289l-7 -2q-68 67 -120.5 97t-102.5 30q-123 0 -123 -176v-158h269v-188h-269v-649q0 -94 13.5 -168t46.5 -160h-410z" />
    <glyph glyph-name="g" unicode="g" horiz-adv-x="1165"
d="M1124 1194v-262q-96 13 -206 55q81 -102 81 -209q0 -166 -130 -271.5t-341 -105.5q-55 0 -120 7q-41 -44 -41 -84q0 -58 98 -58q64 0 197.5 2t187.5 2q97 -16 172.5 -95.5t75.5 -182.5q0 -133 -154 -254q-207 -160 -469 -160q-194 0 -301.5 66t-107.5 176q0 42 18 80
q155 78 246 155q-116 6 -177 43t-61 97q0 36 18 61t64 55l184 115q-141 61 -210.5 142t-69.5 190q0 181 130.5 303.5t338.5 122.5q144 0 248 -58q171 12 329 68zM561 541q70 0 111 52t41 146q0 125 -54 208t-143 83q-69 0 -110 -60t-41 -157q0 -123 53.5 -197.5t142.5 -74.5
zM653 59q-41 0 -136.5 -2t-125.5 -2q-43 -64 -43 -121q0 -67 52.5 -106t162.5 -39q126 0 217 33q33 46 33 110q0 127 -160 127z" />
    <glyph glyph-name="h" unicode="h" horiz-adv-x="1282"
d="M96 0q33 86 46.5 160t13.5 168v913q0 137 -14 219t-46 156l402 76q-52 -203 -52 -547v-213q110 147 188.5 199.5t186.5 52.5q141 0 230.5 -94.5t89.5 -280.5v-481q0 -95 13.5 -169t45.5 -159h-412q34 85 48 159t14 169v358q0 121 -53.5 179.5t-149.5 58.5t-201 -62v-534
q0 -94 13.5 -168t46.5 -160h-410z" />
    <glyph glyph-name="i" unicode="i" horiz-adv-x="610"
d="M307 1677q76 0 130.5 -54.5t54.5 -131.5t-54.5 -131.5t-130.5 -54.5q-78 0 -133 54.5t-55 131.5t55 131.5t133 54.5zM510 1165q-32 -83 -45.5 -156.5t-13.5 -168.5v-512q0 -95 13.5 -169t45.5 -159h-410q33 86 46.5 160t13.5 168v512q0 94 -13.5 167.5t-46.5 157.5h410z
" />
    <glyph glyph-name="j" unicode="j" horiz-adv-x="604"
d="M305 1305q-79 0 -134.5 54.5t-55.5 131.5t55.5 131.5t134.5 54.5q76 0 129 -54.5t53 -131.5t-53 -131.5t-129 -54.5zM-10 -406q92 116 129 232.5t37 308.5v705q0 94 -13.5 167.5t-46.5 157.5h410q-33 -84 -46.5 -157.5t-13.5 -167.5v-705q0 -352 -182 -541h-274z" />
    <glyph glyph-name="k" unicode="k" horiz-adv-x="1181"
d="M446 1145v-817q0 -94 13.5 -168t46.5 -160h-410q33 86 46.5 160t13.5 168v913q0 137 -14 219t-46 156l402 76q-52 -203 -52 -547zM944 348q86 -144 236 -342v-6h-439q10 101 -69 240l-223 391l262 360q35 49 48.5 86t16.5 88h391v-8q-69 -55 -128 -119t-132 -166
l-149 -202z" />
    <glyph glyph-name="l" unicode="l" horiz-adv-x="602"
d="M96 0q33 86 46.5 160t13.5 168v913q0 137 -14 219t-46 156l402 76q-52 -203 -52 -547v-817q0 -94 13.5 -168t46.5 -160h-410z" />
    <glyph glyph-name="m" unicode="m" horiz-adv-x="1890"
d="M1399 0q32 85 45.5 159t13.5 169v379q0 223 -196 223q-79 0 -162 -56q2 -18 2 -59v-487q0 -95 13.5 -169t45.5 -159h-411q34 84 47.5 158t13.5 170v374q0 114 -48.5 169t-133.5 55q-83 0 -178 -62v-536q0 -95 13.5 -169t45.5 -159h-410q33 86 46.5 160t13.5 168v522
q0 162 -49 315h352q-12 -70 -12 -151v-82l61 106q83 146 268 146q118 0 200.5 -63t109.5 -187l61 106q82 144 266 144q148 0 240 -92.5t92 -274.5v-489q0 -95 13.5 -169t45.5 -159h-409z" />
    <glyph glyph-name="n" unicode="n" horiz-adv-x="1286"
d="M100 0q33 86 46.5 160t13.5 168v522q0 162 -49 315h352q-12 -70 -12 -151v-82l182 215q67 37 172 37q150 0 245 -94.5t95 -280.5v-481q0 -95 13.5 -169t45.5 -159h-411q34 84 47.5 158t13.5 170v409q0 86 -55 136.5t-148 50.5q-95 0 -200 -62v-534q0 -95 13.5 -169
t45.5 -159h-410z" />
    <glyph glyph-name="o" unicode="o" horiz-adv-x="1267"
d="M645 1184q256 0 408.5 -157.5t152.5 -432.5q0 -169 -83.5 -310t-219 -219.5t-289.5 -78.5q-86 0 -166 21t-151 66.5t-123 111t-82.5 159.5t-30.5 207q0 139 50 259.5t132 201t187 126.5t215 46zM612 983q-100 0 -163.5 -96.5t-63.5 -274.5q0 -184 75 -297.5t197 -128.5
q104 15 166 117t62 270q0 178 -78 294t-195 116z" />
    <glyph glyph-name="p" unicode="p" horiz-adv-x="1277"
d="M96 -406q60 155 60 326v930q0 159 -50 315h353q-13 -63 -13 -125v-122q85 136 172 200t193 64q73 0 142.5 -40.5t123 -111.5t86.5 -176.5t33 -226.5q0 -128 -35 -242.5t-99 -203.5t-163.5 -141t-220.5 -52q-61 0 -124 18.5t-108 50.5v-137q0 -171 60 -326h-410zM578 160
q133 0 219 101.5t86 279.5q0 187 -67 289t-177 102q-114 0 -193 -98v-648q67 -26 132 -26z" />
    <glyph glyph-name="q" unicode="q" horiz-adv-x="1245"
d="M739 -406q60 155 60 326v248q-80 -91 -161 -136.5t-179 -45.5q-78 0 -149.5 34.5t-127 97.5t-88.5 160.5t-33 215.5q0 147 53 272.5t152 218.5t251.5 146t340.5 53q138 0 260 -17q-28 -83 -28 -295v-952q0 -174 59 -326h-410zM696 215q65 0 103 23v716q-59 27 -127 27
q-141 0 -222 -99.5t-81 -279.5q0 -168 90.5 -277.5t236.5 -109.5z" />
    <glyph glyph-name="r" unicode="r" horiz-adv-x="892"
d="M100 0q33 86 46.5 160t13.5 168v522q0 162 -49 315h352q-12 -70 -12 -151v-140q92 169 170.5 237.5t175.5 68.5q45 0 82 -15l-41 -352q-94 61 -174 61q-111 0 -213 -92v-454q0 -95 13.5 -169t45.5 -159h-410z" />
    <glyph glyph-name="s" unicode="s" horiz-adv-x="854"
d="M377 -14q-151 0 -305 43l16 344h8q68 -116 125.5 -161.5t138.5 -45.5q63 0 97.5 31.5t34.5 89.5q0 59 -35.5 103t-141.5 114q-114 73 -160 149.5t-46 182.5q0 151 111 249.5t290 98.5q130 0 242 -35v-238h-9q-64 53 -113 75t-102 22q-61 0 -94 -29.5t-33 -81.5
q0 -54 37.5 -99.5t130.5 -105.5q117 -74 168 -152t51 -184q0 -178 -113 -274t-298 -96z" />
    <glyph glyph-name="t" unicode="t" horiz-adv-x="819"
d="M463 1436v-271h309v-188h-309v-617q0 -75 35 -107t112 -32q92 0 189 31l4 -4l-162 -240q-90 -20 -172 -20q-156 0 -226.5 67.5t-70.5 220.5v701h-143v8l426 451h8z" />
    <glyph glyph-name="u" unicode="u" horiz-adv-x="1269"
d="M453 -16q-117 0 -196.5 55.5t-115.5 155.5v645q0 95 -13.5 168.5t-45.5 156.5h412q-34 -84 -48 -157t-14 -168v-385q0 -111 45 -161t139 -50q96 0 203 55v541q0 95 -13.5 168.5t-45.5 156.5h409q-32 -83 -45.5 -156.5t-13.5 -168.5v-512q0 -95 13.5 -169t45.5 -159h-366
q16 71 16 231l-157 -204q-87 -43 -209 -43z" />
    <glyph glyph-name="v" unicode="v" horiz-adv-x="1083"
d="M784 1165h332v-6q-50 -67 -78 -128t-67 -183l-281 -848h-309l-244 811q-66 216 -170 348v6h439q-17 -56 -17 -112q0 -77 35 -193l160 -536l182 548q33 100 33 195q0 47 -15 98z" />
    <glyph glyph-name="w" unicode="w" horiz-adv-x="1716"
d="M1384 1165h365v-6q-54 -70 -86.5 -141.5t-67.5 -196.5l-233 -821h-318l-200 723l-199 -723h-317l-195 778q-65 257 -166 381v6h445q-27 -73 -27 -149q0 -74 23 -162l122 -489l220 800h268l227 -819l129 457q33 108 33 225q0 62 -23 137z" />
    <glyph glyph-name="x" unicode="x" horiz-adv-x="1095"
d="M918 276q79 -136 194 -270v-6h-459q4 24 4 53q0 106 -79 240l-54 92l-78 -125q-67 -108 -67 -190q0 -42 12 -70h-395v6q134 131 244 309l166 269l-205 344q-83 138 -176 231v6h454q-10 -33 -10 -69t16.5 -77.5t59.5 -113.5l41 -69l45 71q61 98 61 187q0 38 -8 71h383v-6
q-91 -81 -182 -231l-180 -293z" />
    <glyph glyph-name="y" unicode="y" horiz-adv-x="1081"
d="M729 1165h385v-6q-85 -123 -160 -340l-311 -864q-56 -156 -104.5 -242t-100.5 -119h-329v9q85 69 165.5 185t137.5 259l-287 789q-79 214 -158 323v6h436q-22 -52 -22 -114q0 -69 29 -154l155 -434l148 407q35 99 35 187q0 49 -19 108z" />
    <glyph glyph-name="z" unicode="z" horiz-adv-x="880"
d="M860 303l4 -4l-86 -299h-760q147 260 271 575l149 377h-145q-170 0 -256 -80l-4 5l61 288h750q-128 -271 -252 -583l-146 -365h60q116 0 199.5 19t154.5 67z" />
    <glyph glyph-name="braceleft" unicode="{" horiz-adv-x="735"
d="M551 1690q84 0 160 -27v-18q-111 -34 -155 -115t-44 -260v-281q0 -145 -65 -224t-175 -101v-5q109 -20 174.5 -99.5t65.5 -225.5v-281q0 -122 20 -196t62.5 -115.5t116.5 -63.5v-18q-76 -27 -160 -27q-161 0 -245.5 86.5t-84.5 255.5v459q0 95 -35 145t-112 72v21
q77 24 112 73.5t35 143.5v459q0 169 84.5 255.5t245.5 86.5z" />
    <glyph glyph-name="bar" unicode="|" horiz-adv-x="563"
d="M154 1683h256v-2089h-256v2089z" />
    <glyph glyph-name="braceright" unicode="}" horiz-adv-x="735"
d="M184 -367q-83 0 -159 27v18q110 34 154 115t44 260v281q0 145 65 224t175 101v5q-110 22 -175 101t-65 224v281q0 122 -19.5 196t-62 115.5t-116.5 63.5v18q76 27 159 27q161 0 245.5 -86.5t84.5 -255.5v-459q0 -95 35.5 -145t112.5 -72v-21q-77 -22 -112.5 -72
t-35.5 -145v-459q0 -169 -84.5 -255.5t-245.5 -86.5z" />
    <glyph glyph-name="asciitilde" unicode="~" horiz-adv-x="1220"
d="M84 444q-2 12 -2 35q0 156 89 265.5t232 109.5q65 0 127.5 -25.5t102.5 -55.5t88 -55.5t88 -25.5q55 0 89 36t34 89q0 17 -4 37h209q2 -12 2 -37q0 -156 -88.5 -264.5t-233.5 -108.5q-64 0 -126 25.5t-102 55.5t-87.5 55.5t-87.5 25.5q-56 0 -90.5 -36.5t-34.5 -90.5
q0 -20 6 -35h-211z" />
    <glyph glyph-name="uni00A0" unicode="&#xa0;" horiz-adv-x="501"
 />
    <glyph glyph-name="exclamdown" unicode="&#xa1;" horiz-adv-x="665"
d="M334 848q-94 0 -154.5 60.5t-60.5 154.5q0 92 60.5 152.5t154.5 60.5q92 0 152.5 -60.5t60.5 -152.5q0 -94 -60.5 -154.5t-152.5 -60.5zM94 -422q56 91 74 203t18 336v235q0 108 26.5 185.5t106.5 214.5h25q80 -135 106.5 -213t26.5 -187v-235q0 -222 19 -334.5
t75 -204.5h-477z" />
    <glyph glyph-name="cent" unicode="&#xa2;" horiz-adv-x="1079"
d="M981 502l4 -4l-127 -236q-82 -22 -178 -22q-26 0 -76 4l-61 -244h-205l74 291q-146 62 -232 193.5t-86 332.5q0 127 41 238t116 194t187.5 133t249.5 56l60 239h206l-65 -252q72 -14 80 -16l-27 -301l-6 -2q-52 52 -96 76l-178 -711q50 -12 102 -12q110 0 217 43z
M393 877q0 -182 90 -293l162 645q-110 -8 -181 -97t-71 -255z" />
    <glyph glyph-name="sterling" unicode="&#xa3;" horiz-adv-x="1257"
d="M1253 344l4 -4l-118 -340h-1108q226 345 252 745q-156 -3 -244 -47v318q92 -48 248 -51q7 220 39 340q50 188 181 286.5t318 98.5q176 0 332 -70l-33 -317q-138 127 -276 127q-93 0 -155 -50.5t-83 -150.5q-23 -113 -30 -262h2q126 1 180.5 10.5t116.5 38.5l-17 -316
q-79 45 -287 45h-2q-17 -279 -118 -530h57q404 0 741 129z" />
    <glyph glyph-name="currency" unicode="&#xa4;" horiz-adv-x="1386"
d="M1241 784q0 -157 -84 -290l172 -172l-172 -172l-172 172q-133 -84 -291 -84q-155 0 -288 84l-175 -175l-174 175l172 172q-84 133 -84 290q0 160 86 291l-174 174l172 172l174 -174q131 86 291 86q158 0 291 -84l172 172l172 -172l-172 -172q84 -136 84 -293zM692 485
q125 0 213 88.5t88 210.5q0 126 -87.5 213.5t-213.5 87.5q-124 0 -211.5 -87.5t-87.5 -213.5q0 -122 88 -210.5t211 -88.5z" />
    <glyph glyph-name="yen" unicode="&#xa5;" horiz-adv-x="1296"
d="M1282 1669q-76 -79 -168 -242l-291 -509h86q142 0 275 26v-248q-138 27 -275 27h-102v-180h102q142 0 275 26v-247q-133 26 -275 26h-100q8 -241 65 -348h-423q57 107 65 348h-102q-142 0 -275 -26v247q133 -26 275 -26h104v180h-104q-137 0 -275 -27v248
q133 -26 275 -26h88l-283 489q-62 107 -107 165.5t-94 96.5v8h447q-4 -24 -4 -51q0 -91 67 -209l144 -250l143 256q64 117 64 213q0 16 -5 41h408v-8z" />
    <glyph glyph-name="brokenbar" unicode="&#xa6;" horiz-adv-x="563"
d="M410 1683v-737h-256v737h256zM410 332v-738h-256v738h256z" />
    <glyph glyph-name="section" unicode="&#xa7;" horiz-adv-x="1052"
d="M705 463q53 -30 91.5 -59.5t73 -70.5t52.5 -93.5t18 -116.5q0 -122 -65 -213t-174 -137.5t-246 -46.5q-193 0 -344 86l39 301q146 -168 315 -168q86 0 134 39.5t48 107.5q0 43 -31 79t-80.5 63.5t-109.5 55.5t-119.5 62t-109 75.5t-80.5 103.5t-31 139q0 126 43 202
l205 82q-51 32 -88.5 62t-71.5 70t-52 89t-18 105q0 85 33.5 159t98 130.5t166 88.5t229.5 32q135 0 233 -37v-297q-122 106 -254 106q-88 0 -135 -41t-47 -114q0 -41 23 -76.5t61 -61t86.5 -53t99 -51.5t99 -57t86.5 -69t61 -89t23 -115q0 -109 -52 -196zM328 807
q0 -33 9 -62t22 -52t36.5 -46t44.5 -38.5t55 -35.5t57.5 -32t63 -32t62.5 -32q47 70 47 150q0 35 -16.5 67.5t-39.5 56t-64.5 51t-74 45.5t-87 46.5t-85.5 46.5q-30 -56 -30 -133z" />
    <glyph glyph-name="dieresis" unicode="&#xa8;" horiz-adv-x="983"
d="M455 1653q-17 -158 -113 -336h-240q80 178 86 336h267zM881 1653q-17 -160 -115 -336h-238q79 181 84 336h269z" />
    <glyph glyph-name="copyright" unicode="&#xa9;" horiz-adv-x="1882"
d="M942 -20q-140 0 -271.5 43.5t-237 123t-185 185t-123 237t-43.5 271.5q0 174 68 333t183 274t274.5 183t334.5 68q174 0 333 -68t274 -183t183 -274t68 -333q0 -175 -68 -334.5t-183 -274.5t-274 -183t-333 -68zM942 164q137 0 262 53.5t215 144t143.5 216t53.5 262.5
q0 183 -90 338t-245 245t-339 90t-339.5 -90t-246 -245t-90.5 -338q0 -137 53.5 -262.5t144 -216t216 -144t262.5 -53.5zM977 328q-234 0 -380 142t-146 357q0 160 80.5 282t215 185.5t300.5 63.5q129 0 235 -33v-260l-4 -2q-56 41 -127 65.5t-141 24.5q-121 0 -200 -85
t-79 -216q0 -128 79.5 -212.5t199.5 -84.5q91 0 168.5 32.5t128.5 86.5l4 -2l-13 -269q-138 -75 -321 -75z" />
    <glyph glyph-name="ordfeminine" unicode="&#xaa;" horiz-adv-x="757"
d="M358 1567q154 0 231 -71.5t77 -203.5v-321q0 -128 49 -234h-279v94q-63 -37 -121 -92q-18 -6 -39 -6q-119 0 -187.5 53t-68.5 148q0 68 47 119.5t166 105.5q56 26 203 84v17q0 61 -36.5 93.5t-104.5 32.5q-101 0 -211 -65l-2 4l61 199q93 43 215 43zM436 1094h-147
q-31 -42 -31 -93q0 -66 30 -96.5t97 -30.5q30 0 51 9v211z" />
    <glyph glyph-name="guillemotleft" unicode="&#xab;" horiz-adv-x="1159"
d="M608 1122l-250 -460l250 -461h-289l-278 461l278 460h289zM1104 1122l-250 -460l250 -461h-289l-278 461l278 460h289z" />
    <glyph glyph-name="logicalnot" unicode="&#xac;" horiz-adv-x="1220"
d="M842 262q20 114 20 287v227h-493q-173 0 -287 -20v297q120 -21 287 -21h749v-483q0 -167 21 -287h-297z" />
    <glyph glyph-name="uni00AD" unicode="&#xad;" horiz-adv-x="688"
d="M618 836v-340q-133 26 -274 26t-274 -26v340q155 -27 274 -27t274 27z" />
    <glyph glyph-name="registered" unicode="&#xae;" horiz-adv-x="1249"
d="M625 1782q147 0 272 -73t197.5 -198t72.5 -272t-72.5 -272t-197.5 -198t-272 -73t-272 73t-198 198t-73 272t73 272t198 198t272 73zM625 819q173 0 296 123.5t123 296.5t-123 296.5t-296 123.5t-296.5 -123.5t-123.5 -296.5t123.5 -296.5t296.5 -123.5zM872 1350
q0 -105 -116 -160q54 -105 155 -242v-6h-157q-28 12 -70 70q-53 73 -121 190v-92q0 -92 27 -168h-215q26 66 26 168v250q0 101 -26 170h205q140 0 216 -51t76 -129zM563 1227q71 14 108.5 44.5t37.5 67.5q0 41 -42 68t-104 27v-207z" />
    <glyph glyph-name="macron" unicode="&#xaf;" horiz-adv-x="923"
d="M821 1616v-244q-127 19 -286 19h-146q-160 0 -287 -19v244q113 -17 287 -17h146q173 0 286 17z" />
    <glyph glyph-name="degree" unicode="&#xb0;" horiz-adv-x="677"
d="M340 1694q120 0 201.5 -81t81.5 -202q0 -120 -81.5 -201.5t-201.5 -81.5q-119 0 -202 82t-83 201q0 121 83 202t202 81zM340 1556q-62 0 -103.5 -42t-41.5 -103t41.5 -103t103.5 -42q61 0 102 41.5t41 103.5t-41 103.5t-102 41.5z" />
    <glyph glyph-name="plusminus" unicode="&#xb1;" horiz-adv-x="1220"
d="M852 944q167 0 287 21v-297q-114 20 -287 20h-113q0 -151 21 -262h-297q20 106 20 262h-114q-173 0 -287 -20v297q120 -21 287 -21h114q0 156 -20 262h297q-21 -111 -21 -262h113zM369 346h483q167 0 287 21v-297q-114 20 -287 20h-483q-173 0 -287 -20v297
q120 -21 287 -21z" />
    <glyph glyph-name="uni00B2" unicode="&#xb2;" horiz-adv-x="745"
d="M696 1014h6l-22 -277h-660v6q159 227 320 476q50 78 66 113t16 65q0 38 -24 63t-64 25q-44 0 -72.5 -34t-28.5 -81q0 -42 13 -74l-4 -4l-185 109q-2 8 -2 20q0 110 82.5 188.5t210.5 78.5q139 0 221 -76t82 -193q0 -61 -23.5 -119.5t-92.5 -160.5l-154 -221h43
q94 0 152.5 21.5t119.5 74.5z" />
    <glyph glyph-name="uni00B3" unicode="&#xb3;" horiz-adv-x="745"
d="M485 1292q96 -31 153.5 -102.5t57.5 -159.5q0 -133 -104.5 -219t-267.5 -86q-198 0 -314 119l113 217h8q50 -158 176 -158q62 0 100.5 33t38.5 88q0 63 -47 103t-133 40q-46 0 -84 -10l-2 2l187 348h-33q-116 0 -173 -19.5t-100 -72.5h-6l2 262h633z" />
    <glyph glyph-name="acute" unicode="&#xb4;" horiz-adv-x="612"
d="M510 1671q-93 -247 -279 -375h-129q83 176 103 375h305z" />
    <glyph glyph-name="uni00B5" unicode="&#xb5;" horiz-adv-x="1294"
d="M1137 840v-514q0 -171 59 -326h-362q12 82 12 240q-59 -138 -121 -197t-150 -59t-139 69v-102q0 -103 16 -184t54 -173h-410q60 155 60 326v920q0 94 -13.5 167.5t-46.5 157.5h410q-33 -84 -46.5 -157.5t-13.5 -167.5v-387q0 -117 46 -169.5t143 -52.5q55 0 103.5 16.5
t107.5 59.5v533q0 94 -13.5 167.5t-46.5 157.5h410q-32 -83 -45.5 -156.5t-13.5 -168.5z" />
    <glyph glyph-name="paragraph" unicode="&#xb6;" horiz-adv-x="1382"
d="M786 1677v-2083h-280q36 70 51.5 181.5t15.5 300.5v530q-243 0 -378.5 141.5t-135.5 395.5q0 253 135.5 393.5t378.5 140.5h213zM1231 1677q-36 -70 -52 -181.5t-16 -299.5v-1120q0 -188 16 -300t52 -182h-281v2083h281z" />
    <glyph glyph-name="periodcentered" unicode="&#xb7;" horiz-adv-x="581"
d="M291 801q97 0 156 -59t59 -156t-59 -156t-156 -59t-156 59t-59 156t59 156t156 59z" />
    <glyph glyph-name="cedilla" unicode="&#xb8;" horiz-adv-x="643"
d="M346 -66q95 -7 145 -60t50 -128q0 -84 -69.5 -138t-184.5 -54q-94 0 -185 24l45 121q42 -10 89 -10q116 0 116 67q0 30 -26 48t-72 18q-32 0 -68 -4l60 192h123z" />
    <glyph glyph-name="uni00B9" unicode="&#xb9;" horiz-adv-x="602"
d="M129 737q33 50 46 100.5t13 123.5v469h-131v10l361 248h4v-785q0 -99 33 -166h-326z" />
    <glyph glyph-name="ordmasculine" unicode="&#xba;" horiz-adv-x="919"
d="M469 1567q191 0 302.5 -111t111.5 -303q0 -177 -131.5 -301.5t-307.5 -124.5q-81 0 -153 25.5t-129.5 73.5t-91 126.5t-33.5 177.5q0 125 62.5 226.5t161 156t208.5 54.5zM444 1409q-70 0 -114.5 -62.5t-44.5 -181.5q0 -123 51 -196t139 -84q75 11 118.5 75.5t43.5 176.5
q0 121 -54.5 196.5t-138.5 75.5z" />
    <glyph glyph-name="guillemotright" unicode="&#xbb;" horiz-adv-x="1159"
d="M55 201l250 461l-250 460h291l279 -460l-279 -461h-291zM551 201l250 461l-250 460h291l278 -460l-278 -461h-291z" />
    <glyph glyph-name="onequarter" unicode="&#xbc;" horiz-adv-x="1748"
d="M129 737q33 50 46 100.5t13 123.5v469h-131v10l361 248h4v-785q0 -99 33 -166h-326zM1438 1677q-91 -99 -156 -215l-682 -1226q-77 -138 -96 -236h-334q93 106 154 215l682 1227q77 138 96 235h336zM1735 270q-61 25 -152 25v-25q0 -153 47 -270h-317q47 110 47 270v25
h-381v158q71 68 151 172l162 211q64 82 76 104h215v-496q98 3 152 25v-199zM1167 444h193v248z" />
    <glyph glyph-name="onehalf" unicode="&#xbd;" horiz-adv-x="1751"
d="M129 737q33 50 46 100.5t13 123.5v469h-131v10l361 248h4v-785q0 -99 33 -166h-326zM1438 1677q-91 -99 -156 -215l-682 -1226q-77 -138 -96 -236h-334q93 106 154 215l682 1227q77 138 96 235h336zM1702 276h6l-22 -276h-660v6q168 240 320 475q50 77 65.5 112.5
t15.5 65.5q0 38 -24 63.5t-64 25.5q-44 0 -72 -34t-28 -81q0 -44 12 -74l-4 -4l-184 109q-2 8 -2 20q0 110 82.5 188t210.5 78q139 0 221 -75.5t82 -192.5q0 -61 -23.5 -120t-93.5 -161l-154 -221h44q94 0 152.5 21.5t119.5 74.5z" />
    <glyph glyph-name="threequarters" unicode="&#xbe;" horiz-adv-x="1892"
d="M696 1030q0 -133 -104.5 -219t-267.5 -86q-198 0 -314 119l113 217h8q50 -158 176 -158q62 0 100.5 33t38.5 88q0 63 -47 103t-133 40q-46 0 -84 -10l-2 2l187 348h-33q-116 0 -173 -19.5t-100 -72.5h-6l2 262h633l-205 -385q96 -31 153.5 -102.5t57.5 -159.5zM1581 1677
q-91 -99 -156 -215l-682 -1226q-77 -138 -96 -236h-334q93 106 154 215l682 1227q77 138 96 235h336zM1878 270q-61 25 -152 25v-25q0 -151 48 -270h-318q47 110 47 270v25h-381v158q75 72 152 172l162 211q61 78 75 104h215v-496q98 3 152 25v-199zM1311 444h192v248z" />
    <glyph glyph-name="questiondown" unicode="&#xbf;" horiz-adv-x="970"
d="M659 1292q92 0 152.5 -60.5t60.5 -152.5q0 -94 -60.5 -154.5t-152.5 -60.5q-94 0 -154.5 60.5t-60.5 154.5q0 92 60.5 152.5t154.5 60.5zM702 752q21 -144 21 -236q0 -58 -23.5 -83.5t-103.5 -49.5q-118 -35 -179 -110.5t-61 -178.5q0 -113 74.5 -187.5t185.5 -74.5
q142 0 261 92l6 -2l-21 -297q-123 -47 -268 -47q-249 0 -405 139.5t-156 362.5q0 184 102.5 311.5t290.5 186.5q108 36 158 71.5t92 102.5h26z" />
    <glyph glyph-name="Agrave" unicode="&#xc0;" horiz-adv-x="1660"
d="M850 1747q-186 128 -279 375h306q21 -202 102 -375h-129zM1511 387q53 -124 103 -208t123 -173v-6h-465q6 21 6 55q0 53 -18.5 118.5t-63.5 174.5l-37 90h-655l-43 -96q-82 -188 -82 -287q0 -27 4 -55h-459v6q120 141 234 387l403 871q121 258 162 413h264
q36 -143 152 -413zM612 682h449l-215 526z" />
    <glyph glyph-name="Aacute" unicode="&#xc1;" horiz-adv-x="1660"
d="M1126 2122q-93 -248 -278 -375h-129q81 173 102 375h305zM1511 387q53 -124 103 -208t123 -173v-6h-465q6 21 6 55q0 53 -18.5 118.5t-63.5 174.5l-37 90h-655l-43 -96q-82 -188 -82 -287q0 -27 4 -55h-459v6q120 141 234 387l403 871q121 258 162 413h264
q36 -143 152 -413zM612 682h449l-215 526z" />
    <glyph glyph-name="Acircumflex" unicode="&#xc2;" horiz-adv-x="1660"
d="M854 1954q-98 -121 -227 -207h-121q111 162 156 375h385q43 -218 153 -375h-121q-134 89 -225 207zM1511 387q53 -124 103 -208t123 -173v-6h-465q6 21 6 55q0 53 -18.5 118.5t-63.5 174.5l-37 90h-655l-43 -96q-82 -188 -82 -287q0 -27 4 -55h-459v6q120 141 234 387
l403 871q121 258 162 413h264q36 -143 152 -413zM612 682h449l-215 526z" />
    <glyph glyph-name="Atilde" unicode="&#xc3;" horiz-adv-x="1660"
d="M596 1798q0 -21 2 -31h-178q0 141 68 235.5t198 94.5q59 0 121.5 -27t119 -54t99.5 -27q40 0 64 22t24 57q0 13 -4 29h178q0 -141 -69 -235.5t-197 -94.5q-47 0 -97 17t-85.5 37.5t-79 37.5t-78.5 17q-40 0 -63 -21.5t-23 -56.5zM1511 387q53 -124 103 -208t123 -173v-6
h-465q6 21 6 55q0 53 -18.5 118.5t-63.5 174.5l-37 90h-655l-43 -96q-82 -188 -82 -287q0 -27 4 -55h-459v6q120 141 234 387l403 871q121 258 162 413h264q36 -143 152 -413zM612 682h449l-215 526z" />
    <glyph glyph-name="Adieresis" unicode="&#xc4;" horiz-adv-x="1660"
d="M848 2103q-17 -158 -113 -336h-239q80 178 86 336h266zM1294 2103q-17 -162 -114 -336h-238q79 181 84 336h268zM1511 387q53 -124 103 -208t123 -173v-6h-465q6 21 6 55q0 53 -18.5 118.5t-63.5 174.5l-37 90h-655l-43 -96q-82 -188 -82 -287q0 -27 4 -55h-459v6
q120 141 234 387l403 871q121 258 162 413h264q36 -143 152 -413zM612 682h449l-215 526z" />
    <glyph glyph-name="Aring" unicode="&#xc5;" horiz-adv-x="1660"
d="M854 1714q-92 0 -156.5 63.5t-64.5 155.5t64.5 156.5t156.5 64.5q91 0 155 -64.5t64 -156.5t-64 -155.5t-155 -63.5zM854 2046q-47 0 -80 -33t-33 -80t33 -79.5t80 -32.5t80 32.5t33 79.5t-33 80t-80 33zM1511 387q53 -124 103 -208t123 -173v-6h-465q6 21 6 55
q0 53 -18.5 118.5t-63.5 174.5l-37 90h-655l-43 -96q-82 -188 -82 -287q0 -27 4 -55h-459v6q120 141 234 387l403 871q121 258 162 413h264q36 -143 152 -413zM612 682h449l-215 526z" />
    <glyph glyph-name="AE" unicode="&#xc6;" horiz-adv-x="2043"
d="M2038 330l4 -4l-141 -326h-914q40 110 56 218.5t16 262.5v193h-432l-113 -207q-78 -146 -107 -254.5t-24 -212.5h-483v6q123 150 213 318l587 1085q85 157 101 268h1147l-144 -317q-177 104 -444 110v-514h532l-168 -313q-150 86 -364 92v-518q202 0 362.5 27t315.5 86z
M752 905h307v568z" />
    <glyph glyph-name="Ccedilla" unicode="&#xc7;" horiz-adv-x="1542"
d="M1466 106q-220 -123 -526 -126l-12 -46q95 -7 144.5 -60t49.5 -128q0 -84 -69.5 -138t-184.5 -54q-93 0 -184 24l45 121q42 -10 88 -10q117 0 117 67q0 30 -26 48t-72 18q-32 0 -68 -4l51 168q-220 24 -387.5 137.5t-257.5 292t-90 395.5q0 161 49 302.5t137.5 247.5
t208.5 182.5t265 115.5t303 39q205 0 393 -58v-305l-6 -2q-92 59 -211.5 94t-237.5 35q-245 0 -407 -175.5t-162 -444.5q0 -173 70.5 -313t196.5 -220t282 -80t289.5 52t222.5 137l6 -2z" />
    <glyph glyph-name="Egrave" unicode="&#xc8;" horiz-adv-x="1175"
d="M313 2122h305q20 -199 103 -375h-129q-186 128 -279 375zM119 0q39 111 55 220t16 261v715q0 152 -16 261t-55 220h962l-145 -317q-177 104 -444 110v-507h532l-170 -289q-146 65 -362 74v-531q203 0 362.5 29t312.5 94l4 -4l-139 -336h-913z" />
    <glyph glyph-name="Eacute" unicode="&#xc9;" horiz-adv-x="1175"
d="M868 2122q-93 -248 -278 -375h-129q81 173 102 375h305zM119 0q39 111 55 220t16 261v715q0 152 -16 261t-55 220h962l-145 -317q-177 104 -444 110v-507h532l-170 -289q-146 65 -362 74v-531q203 0 362.5 29t312.5 94l4 -4l-139 -336h-913z" />
    <glyph glyph-name="Ecircumflex" unicode="&#xca;" horiz-adv-x="1175"
d="M596 1954q-98 -121 -227 -207h-121q110 160 155 375h385q43 -216 154 -375h-121q-134 89 -225 207zM1167 340l4 -4l-139 -336h-913q39 111 55 220t16 261v715q0 152 -16 261t-55 220h962l-145 -317q-177 104 -444 110v-507h532l-170 -289q-146 65 -362 74v-531
q203 0 362.5 29t312.5 94z" />
    <glyph glyph-name="Edieresis" unicode="&#xcb;" horiz-adv-x="1175"
d="M590 2103q-17 -158 -113 -336h-239q80 178 86 336h266zM1036 2103q-17 -162 -114 -336h-238q79 181 84 336h268zM119 0q39 111 55 220t16 261v715q0 152 -16 261t-55 220h962l-145 -317q-177 104 -444 110v-507h532l-170 -289q-146 65 -362 74v-531q203 0 362.5 29
t312.5 94l4 -4l-139 -336h-913z" />
    <glyph glyph-name="Igrave" unicode="&#xcc;" horiz-adv-x="681"
d="M59 2122h306q21 -202 102 -375h-129q-186 128 -279 375zM119 0q39 111 55 220t16 261v715q0 152 -16 261t-55 220h444q-39 -111 -55 -220t-16 -261v-715q0 -152 16 -261t55 -220h-444z" />
    <glyph glyph-name="Iacute" unicode="&#xcd;" horiz-adv-x="681"
d="M614 2122q-93 -248 -278 -375h-129q81 173 102 375h305zM119 0q39 111 55 220t16 261v715q0 152 -16 261t-55 220h444q-39 -111 -55 -220t-16 -261v-715q0 -152 16 -261t55 -220h-444z" />
    <glyph glyph-name="Icircumflex" unicode="&#xce;" horiz-adv-x="681"
d="M535 2122q43 -218 153 -375h-121q-134 89 -225 207q-98 -121 -227 -207h-121q111 162 156 375h385zM563 1677q-39 -111 -55 -220t-16 -261v-715q0 -152 16 -261t55 -220h-444q39 111 55 220t16 261v715q0 152 -16 261t-55 220h444z" />
    <glyph glyph-name="Idieresis" unicode="&#xcf;" horiz-adv-x="681"
d="M373 2103q-17 -160 -115 -336h-233q80 178 86 336h262zM741 2103q-17 -162 -114 -336h-234q80 178 86 336h262zM119 0q39 111 55 220t16 261v715q0 152 -16 261t-55 220h444q-39 -111 -55 -220t-16 -261v-715q0 -152 16 -261t55 -220h-444z" />
    <glyph glyph-name="Eth" unicode="&#xd0;" horiz-adv-x="1601"
d="M434 1690q260 0 466 -61t341 -171.5t206 -264.5t71 -341q0 -159 -49.5 -296t-140 -238.5t-215 -173t-277 -108t-324.5 -36.5h-393q39 111 55 220t16 261v260q-135 -3 -210 -18v231q86 -17 210 -20v262q0 151 -19.5 258.5t-64.5 218.5q217 17 328 17zM508 207
q198 10 343.5 80.5t229.5 209t84 334.5q0 286 -177 461.5t-484 190.5q-12 -120 -12 -301v-248h77q166 0 277 20v-231q-100 18 -277 18h-77v-209q0 -197 16 -325z" />
    <glyph glyph-name="Ntilde" unicode="&#xd1;" horiz-adv-x="1863"
d="M676 1798q0 -21 2 -31h-178q0 141 68 235.5t198 94.5q59 0 121.5 -27t119 -54t99.5 -27q40 0 64 22t24 57q0 13 -4 29h178q0 -141 -69 -235.5t-197 -94.5q-47 0 -97 17t-85.5 37.5t-79 37.5t-78.5 17q-40 0 -63 -21.5t-23 -56.5zM1673 1130v-583q0 -314 53 -547h-395
q-22 78 -131 223l-676 891v-567q0 -186 15 -304.5t55 -242.5h-432q39 126 54 244.5t15 302.5v891q-60 77 -108.5 127t-114.5 104v8h494q23 -65 58 -122.5t116 -165.5l704 -930v671q0 184 -15 302.5t-54 244.5h434q-40 -126 -56 -244.5t-16 -302.5z" />
    <glyph glyph-name="Ograve" unicode="&#xd2;" horiz-adv-x="1953"
d="M694 2122h305q20 -199 103 -375h-129q-186 128 -279 375zM975 1698q146 0 280.5 -38t246 -111.5t194 -174.5t128.5 -234t46 -282q0 -189 -70 -353t-190.5 -278.5t-287.5 -180.5t-355 -66q-159 0 -300.5 46t-246.5 127.5t-181.5 188.5t-115.5 232.5t-39 256.5
q0 176 69 336t187.5 276.5t284 185.5t350.5 69zM918 1468q-101 0 -192 -39.5t-160 -110.5t-109.5 -178t-40.5 -233q0 -137 44.5 -263t122.5 -222t194 -153.5t251 -57.5q149 0 267 76.5t181.5 205.5t63.5 285q0 138 -48.5 265t-131.5 220.5t-198.5 149t-243.5 55.5z" />
    <glyph glyph-name="Oacute" unicode="&#xd3;" horiz-adv-x="1953"
d="M1249 2122q-93 -248 -278 -375h-129q81 173 102 375h305zM975 1698q146 0 280.5 -38t246 -111.5t194 -174.5t128.5 -234t46 -282q0 -189 -70 -353t-190.5 -278.5t-287.5 -180.5t-355 -66q-159 0 -300.5 46t-246.5 127.5t-181.5 188.5t-115.5 232.5t-39 256.5
q0 176 69 336t187.5 276.5t284 185.5t350.5 69zM918 1468q-101 0 -192 -39.5t-160 -110.5t-109.5 -178t-40.5 -233q0 -137 44.5 -263t122.5 -222t194 -153.5t251 -57.5q149 0 267 76.5t181.5 205.5t63.5 285q0 138 -48.5 265t-131.5 220.5t-198.5 149t-243.5 55.5z" />
    <glyph glyph-name="Ocircumflex" unicode="&#xd4;" horiz-adv-x="1953"
d="M977 1954q-98 -121 -227 -207h-121q110 160 155 375h385q43 -216 154 -375h-121q-134 89 -225 207zM975 1698q146 0 280.5 -38t246 -111.5t194 -174.5t128.5 -234t46 -282q0 -189 -70 -353t-190.5 -278.5t-287.5 -180.5t-355 -66q-159 0 -300.5 46t-246.5 127.5
t-181.5 188.5t-115.5 232.5t-39 256.5q0 176 69 336t187.5 276.5t284 185.5t350.5 69zM1028 211q149 0 267 76.5t181.5 205.5t63.5 285q0 138 -48.5 265t-131.5 220.5t-198.5 149t-243.5 55.5q-101 0 -192 -39.5t-160 -110.5t-109.5 -178t-40.5 -233q0 -137 44.5 -263
t122.5 -222t194 -153.5t251 -57.5z" />
    <glyph glyph-name="Otilde" unicode="&#xd5;" horiz-adv-x="1953"
d="M1411 2097q0 -91 -28 -164t-89.5 -119.5t-148.5 -46.5q-47 0 -97 17t-85.5 37.5t-79 37.5t-78.5 17q-40 0 -63 -21.5t-23 -56.5q0 -21 2 -31h-178q0 141 68 235.5t198 94.5q59 0 121.5 -27t119 -54t99.5 -27q40 0 64 22t24 57q0 13 -4 29h178zM975 1698q146 0 280.5 -38
t246 -111.5t194 -174.5t128.5 -234t46 -282q0 -189 -70 -353t-190.5 -278.5t-287.5 -180.5t-355 -66q-159 0 -300.5 46t-246.5 127.5t-181.5 188.5t-115.5 232.5t-39 256.5q0 176 69 336t187.5 276.5t284 185.5t350.5 69zM918 1468q-101 0 -192 -39.5t-160 -110.5
t-109.5 -178t-40.5 -233q0 -137 44.5 -263t122.5 -222t194 -153.5t251 -57.5q149 0 267 76.5t181.5 205.5t63.5 285q0 138 -48.5 265t-131.5 220.5t-198.5 149t-243.5 55.5z" />
    <glyph glyph-name="Odieresis" unicode="&#xd6;" horiz-adv-x="1953"
d="M971 2103q-17 -158 -113 -336h-240q81 181 87 336h266zM1417 2103q-17 -162 -114 -336h-238q79 181 84 336h268zM975 1698q146 0 280.5 -38t246 -111.5t194 -174.5t128.5 -234t46 -282q0 -189 -70 -353t-190.5 -278.5t-287.5 -180.5t-355 -66q-159 0 -300.5 46
t-246.5 127.5t-181.5 188.5t-115.5 232.5t-39 256.5q0 176 69 336t187.5 276.5t284 185.5t350.5 69zM918 1468q-101 0 -192 -39.5t-160 -110.5t-109.5 -178t-40.5 -233q0 -137 44.5 -263t122.5 -222t194 -153.5t251 -57.5q149 0 267 76.5t181.5 205.5t63.5 285
q0 138 -48.5 265t-131.5 220.5t-198.5 149t-243.5 55.5z" />
    <glyph glyph-name="multiply" unicode="&#xd7;" horiz-adv-x="1220"
d="M791 680l79 -82q119 -119 220 -186l-211 -211q-60 88 -189 217l-80 80l-80 -80q-126 -126 -188 -217l-211 211q92 61 217 186l82 82l-82 80q-123 123 -217 188l211 209q62 -91 188 -217l80 -80l80 80q129 129 189 217l211 -209q-104 -72 -220 -188z" />
    <glyph glyph-name="Oslash" unicode="&#xd8;" horiz-adv-x="1953"
d="M1571 1499q141 -114 220 -278t79 -363q0 -189 -70 -353t-190.5 -278.5t-287.5 -180.5t-355 -66q-199 0 -371 71q-39 -70 -76 -164l-303 86q64 75 168 209q-144 121 -222.5 291.5t-78.5 357.5q0 176 69 336t187.5 276.5t284 185.5t350.5 69q204 0 381 -74q51 94 76 168
l305 -86q-127 -155 -166 -207zM416 907q0 -130 39.5 -252t113.5 -217q1 2 24 34.5t34 49.5l561 836l20 31q-133 79 -290 79q-101 0 -192 -39.5t-160 -110.5t-109.5 -178t-40.5 -233zM1028 211q149 0 267 76.5t181.5 205.5t63.5 285q0 261 -160 461q-3 -4 -53 -80l-561 -837
q-22 -33 -23 -35q133 -76 285 -76z" />
    <glyph glyph-name="Ugrave" unicode="&#xd9;" horiz-adv-x="1648"
d="M522 2122h305q20 -199 103 -375h-129q-186 128 -279 375zM684 -14q-247 0 -378.5 169t-131.5 494v547q0 152 -16.5 260.5t-55.5 220.5h445q-39 -112 -55.5 -220.5t-16.5 -260.5v-551q0 -200 86 -301.5t234 -101.5t255 101t107 261v592q0 152 -16.5 260.5t-55.5 220.5h445
q-39 -112 -55.5 -220.5t-16.5 -260.5v-715q0 -152 16.5 -260.5t55.5 -220.5h-375q14 55 14 168q-257 -182 -485 -182z" />
    <glyph glyph-name="Uacute" unicode="&#xda;" horiz-adv-x="1648"
d="M1077 2122q-93 -248 -278 -375h-129q81 173 102 375h305zM684 -14q-247 0 -378.5 169t-131.5 494v547q0 152 -16.5 260.5t-55.5 220.5h445q-39 -112 -55.5 -220.5t-16.5 -260.5v-551q0 -200 86 -301.5t234 -101.5t255 101t107 261v592q0 152 -16.5 260.5t-55.5 220.5h445
q-39 -112 -55.5 -220.5t-16.5 -260.5v-715q0 -152 16.5 -260.5t55.5 -220.5h-375q14 55 14 168q-257 -182 -485 -182z" />
    <glyph glyph-name="Ucircumflex" unicode="&#xdb;" horiz-adv-x="1648"
d="M805 1954q-98 -121 -227 -207h-121q110 160 155 375h385q43 -216 154 -375h-121q-134 89 -225 207zM1458 1196v-715q0 -152 16.5 -260.5t55.5 -220.5h-375q14 55 14 168q-257 -182 -485 -182q-247 0 -378.5 169t-131.5 494v547q0 152 -16.5 260.5t-55.5 220.5h445
q-39 -112 -55.5 -220.5t-16.5 -260.5v-551q0 -200 86 -301.5t234 -101.5t255 101t107 261v592q0 152 -16.5 260.5t-55.5 220.5h445q-39 -112 -55.5 -220.5t-16.5 -260.5z" />
    <glyph glyph-name="Udieresis" unicode="&#xdc;" horiz-adv-x="1648"
d="M799 2103q-17 -158 -113 -336h-240q80 178 86 336h267zM1245 2103q-17 -160 -115 -336h-237q79 181 84 336h268zM684 -14q-247 0 -378.5 169t-131.5 494v547q0 152 -16.5 260.5t-55.5 220.5h445q-39 -112 -55.5 -220.5t-16.5 -260.5v-551q0 -200 86 -301.5t234 -101.5
t255 101t107 261v592q0 152 -16.5 260.5t-55.5 220.5h445q-39 -112 -55.5 -220.5t-16.5 -260.5v-715q0 -152 16.5 -260.5t55.5 -220.5h-375q14 55 14 168q-257 -182 -485 -182z" />
    <glyph glyph-name="Yacute" unicode="&#xdd;" horiz-adv-x="1304"
d="M926 2122q-93 -247 -279 -375h-129q83 176 103 375h305zM948 1677h422v-6q-72 -75 -166 -244l-385 -677v-269q0 -152 16.5 -260.5t55.5 -220.5h-445q40 110 56 218.5t16 262.5v260l-383 666q-106 184 -201 264v6h461q-4 -24 -4 -51q0 -93 66 -209l217 -381l217 387
q63 115 63 213q0 26 -6 41z" />
    <glyph glyph-name="Thorn" unicode="&#xde;" horiz-adv-x="1245"
d="M539 1362q157 0 282.5 -40.5t204.5 -111t120.5 -161.5t41.5 -195q0 -240 -165 -379t-445 -139q-42 0 -82 4q11 -181 67 -340h-444q39 111 55 220t16 261v715q0 152 -16 261t-55 220h444q-54 -148 -65 -315h41zM492 451q179 20 283 127t104 258q0 145 -103.5 241.5
t-283.5 102.5v-699v-30z" />
    <glyph glyph-name="germandbls" unicode="&#xdf;" horiz-adv-x="1275"
d="M901 997q62 -13 116 -46t99 -86t71.5 -134.5t26.5 -181.5q0 -125 -42.5 -230.5t-114 -176t-166 -109.5t-199.5 -39q-38 0 -71 8l-82 225l4 4q68 -14 110 -14q118 0 183 68.5t65 195.5q0 152 -90 239t-256 87q-27 0 -59 -4l-4 4l88 215q116 22 176.5 87.5t60.5 168.5
q0 86 -50.5 141.5t-141.5 55.5q-183 0 -183 -232v-915q0 -94 13.5 -168t46.5 -160h-410q33 86 46.5 160t13.5 168v848q0 253 127 386.5t385 133.5q202 0 334 -109t132 -276q0 -199 -229 -314z" />
    <glyph glyph-name="agrave" unicode="&#xe0;" horiz-adv-x="1036"
d="M248 1671h305q21 -202 102 -375h-129q-185 127 -278 375zM494 1184q201 0 303 -96t102 -275v-485q0 -102 15 -174.5t51 -153.5h-357v133q-90 -53 -184 -137q-10 -2 -41 -2q-164 0 -256 77.5t-92 213.5q0 99 62.5 172t224.5 149q129 62 286 125v27q0 94 -51.5 144
t-142.5 50q-140 0 -281 -88l-4 4l86 269q120 47 279 47zM608 514h-237q-29 -69 -29 -137q0 -93 50.5 -136.5t160.5 -43.5q34 0 55 6v311z" />
    <glyph glyph-name="aacute" unicode="&#xe1;" horiz-adv-x="1036"
d="M793 1671q-93 -247 -279 -375h-129q81 173 102 375h306zM494 1184q201 0 303 -96t102 -275v-485q0 -102 15 -174.5t51 -153.5h-357v133q-90 -53 -184 -137q-10 -2 -41 -2q-164 0 -256 77.5t-92 213.5q0 99 62.5 172t224.5 149q129 62 286 125v27q0 94 -51.5 144
t-142.5 50q-140 0 -281 -88l-4 4l86 269q120 47 279 47zM608 514h-237q-29 -69 -29 -137q0 -93 50.5 -136.5t160.5 -43.5q34 0 55 6v311z" />
    <glyph glyph-name="acircumflex" unicode="&#xe2;" horiz-adv-x="1036"
d="M520 1503q-98 -121 -227 -207h-121q111 162 156 375h385q43 -218 153 -375h-121q-134 89 -225 207zM965 0h-357v133q-90 -53 -184 -137q-10 -2 -41 -2q-164 0 -256 77.5t-92 213.5q0 99 62.5 172t224.5 149q129 62 286 125v27q0 94 -51.5 144t-142.5 50q-140 0 -281 -88
l-4 4l86 269q120 47 279 47q201 0 303 -96t102 -275v-485q0 -102 15 -174.5t51 -153.5zM553 197q34 0 55 6v311h-237q-29 -69 -29 -137q0 -93 50.5 -136.5t160.5 -43.5z" />
    <glyph glyph-name="atilde" unicode="&#xe3;" horiz-adv-x="1036"
d="M934 1647q0 -141 -69 -235.5t-197 -94.5q-54 0 -111 26t-108.5 52t-90.5 26q-40 0 -63 -21.5t-23 -56.5q0 -18 2 -26h-168q0 141 68.5 235.5t198.5 94.5q54 0 111 -26.5t108 -52.5t90 -26q40 0 64 22.5t24 57.5q0 9 -4 25h168zM494 1184q201 0 303 -96t102 -275v-485
q0 -102 15 -174.5t51 -153.5h-357v133q-90 -53 -184 -137q-10 -2 -41 -2q-164 0 -256 77.5t-92 213.5q0 99 62.5 172t224.5 149q129 62 286 125v27q0 94 -51.5 144t-142.5 50q-140 0 -281 -88l-4 4l86 269q120 47 279 47zM608 514h-237q-29 -69 -29 -137q0 -93 50.5 -136.5
t160.5 -43.5q34 0 55 6v311z" />
    <glyph glyph-name="adieresis" unicode="&#xe4;" horiz-adv-x="1036"
d="M524 1653q-17 -160 -112 -336h-240q80 178 86 336h266zM950 1653q-17 -162 -114 -336h-238q79 181 84 336h268zM494 1184q201 0 303 -96t102 -275v-485q0 -102 15 -174.5t51 -153.5h-357v133q-90 -53 -184 -137q-10 -2 -41 -2q-164 0 -256 77.5t-92 213.5q0 99 62.5 172
t224.5 149q129 62 286 125v27q0 94 -51.5 144t-142.5 50q-140 0 -281 -88l-4 4l86 269q120 47 279 47zM608 514h-237q-29 -69 -29 -137q0 -93 50.5 -136.5t160.5 -43.5q34 0 55 6v311z" />
    <glyph glyph-name="aring" unicode="&#xe5;" horiz-adv-x="1036"
d="M520 1704q91 0 155 -64.5t64 -156.5t-64 -155.5t-155 -63.5q-92 0 -156.5 63.5t-64.5 155.5t64.5 156.5t156.5 64.5zM520 1595q-47 0 -79.5 -32.5t-32.5 -79.5t32.5 -80t79.5 -33t80 33t33 80t-33 79.5t-80 32.5zM494 1184q201 0 303 -96t102 -275v-485q0 -102 15 -174.5
t51 -153.5h-357v133q-90 -53 -184 -137q-10 -2 -41 -2q-164 0 -256 77.5t-92 213.5q0 99 62.5 172t224.5 149q129 62 286 125v27q0 94 -51.5 144t-142.5 50q-140 0 -281 -88l-4 4l86 269q120 47 279 47zM608 514h-237q-29 -69 -29 -137q0 -93 50.5 -136.5t160.5 -43.5
q34 0 55 6v311z" />
    <glyph glyph-name="ae" unicode="&#xe6;" horiz-adv-x="1589"
d="M1528 711q0 -89 -6 -144l-623 -16q7 -88 34.5 -150t72.5 -97.5t101 -51.5t128 -16q137 0 264 83l4 -4l-73 -272q-129 -57 -281 -57q-310 0 -447 213q-143 -98 -258 -203q-16 -2 -61 -2q-164 0 -256 77.5t-92 213.5q0 98 62 169.5t225 147.5q103 50 286 127v29
q0 94 -51.5 144t-142.5 50q-140 0 -281 -88l-4 4l86 269q120 47 279 47q212 0 307 -115q127 115 315 115q200 0 306 -126t106 -347zM901 715h395q0 278 -196 278q-177 0 -199 -278zM608 203v311h-237q-29 -69 -29 -137q0 -93 50.5 -136.5t160.5 -43.5q34 0 55 6z" />
    <glyph glyph-name="ccedilla" unicode="&#xe7;" horiz-adv-x="976"
d="M647 -14h-31l-14 -52q95 -7 145 -60t50 -128q0 -84 -69.5 -138t-184.5 -54q-94 0 -185 24l45 121q42 -10 89 -10q116 0 116 67q0 30 -26 48t-72 18q-32 0 -68 -4l58 182q-93 19 -170.5 61.5t-138.5 110t-95.5 167.5t-34.5 224q0 131 43.5 244.5t123 197t198 131.5
t262.5 48q122 0 248 -29l-25 -317l-6 -2q-141 133 -266 133q-112 0 -186 -87t-74 -259q0 -193 100 -302.5t262 -109.5q107 0 211 43l4 -4l-129 -242q-71 -22 -180 -22z" />
    <glyph glyph-name="egrave" unicode="&#xe8;" horiz-adv-x="1060"
d="M551 1296q-186 128 -279 375h306q21 -202 102 -375h-129zM999 711q0 -89 -6 -144l-624 -16q8 -87 36 -150t70.5 -98t92 -51t108.5 -16q132 0 305 108l4 -4l-84 -297q-129 -57 -283 -57q-261 0 -409 147t-148 436q0 146 42 264.5t114 194t166.5 116t202.5 40.5
q202 0 307.5 -126t105.5 -347zM371 715h401q0 278 -197 278q-89 0 -140.5 -65.5t-63.5 -212.5z" />
    <glyph glyph-name="eacute" unicode="&#xe9;" horiz-adv-x="1060"
d="M817 1671q-93 -248 -278 -375h-129q81 173 102 375h305zM999 711q0 -89 -6 -144l-624 -16q8 -87 36 -150t70.5 -98t92 -51t108.5 -16q132 0 305 108l4 -4l-84 -297q-129 -57 -283 -57q-261 0 -409 147t-148 436q0 146 42 264.5t114 194t166.5 116t202.5 40.5
q202 0 307.5 -126t105.5 -347zM371 715h401q0 278 -197 278q-89 0 -140.5 -65.5t-63.5 -212.5z" />
    <glyph glyph-name="ecircumflex" unicode="&#xea;" horiz-adv-x="1060"
d="M545 1503q-96 -120 -228 -207h-120q110 160 155 375h385q43 -216 154 -375h-121q-134 89 -225 207zM999 711q0 -89 -6 -144l-624 -16q8 -87 36 -150t70.5 -98t92 -51t108.5 -16q132 0 305 108l4 -4l-84 -297q-129 -57 -283 -57q-261 0 -409 147t-148 436q0 146 42 264.5
t114 194t166.5 116t202.5 40.5q202 0 307.5 -126t105.5 -347zM371 715h401q0 278 -197 278q-89 0 -140.5 -65.5t-63.5 -212.5z" />
    <glyph glyph-name="edieresis" unicode="&#xeb;" horiz-adv-x="1060"
d="M549 1653q-17 -158 -113 -336h-239q80 178 86 336h266zM975 1653q-17 -160 -115 -336h-237q79 181 84 336h268zM999 711q0 -89 -6 -144l-624 -16q8 -87 36 -150t70.5 -98t92 -51t108.5 -16q132 0 305 108l4 -4l-84 -297q-129 -57 -283 -57q-261 0 -409 147t-148 436
q0 146 42 264.5t114 194t166.5 116t202.5 40.5q202 0 307.5 -126t105.5 -347zM371 715h401q0 278 -197 278q-89 0 -140.5 -65.5t-63.5 -212.5z" />
    <glyph glyph-name="igrave" unicode="&#xec;" horiz-adv-x="591"
d="M33 1671h305q21 -202 102 -375h-129q-185 127 -278 375zM510 1165q-32 -83 -45.5 -156.5t-13.5 -168.5v-512q0 -95 13.5 -169t45.5 -159h-410q33 86 46.5 160t13.5 168v512q0 94 -13.5 167.5t-46.5 157.5h410z" />
    <glyph glyph-name="iacute" unicode="&#xed;" horiz-adv-x="591"
d="M578 1671q-93 -247 -279 -375h-129q81 173 102 375h306zM510 1165q-32 -83 -45.5 -156.5t-13.5 -168.5v-512q0 -95 13.5 -169t45.5 -159h-410q33 86 46.5 160t13.5 168v512q0 94 -13.5 167.5t-46.5 157.5h410z" />
    <glyph glyph-name="icircumflex" unicode="&#xee;" horiz-adv-x="591"
d="M498 1671q43 -218 153 -375h-121q-134 89 -225 207q-98 -121 -227 -207h-121q111 162 156 375h385zM510 1165q-32 -83 -45.5 -156.5t-13.5 -168.5v-512q0 -95 13.5 -169t45.5 -159h-410q33 86 46.5 160t13.5 168v512q0 94 -13.5 167.5t-46.5 157.5h410z" />
    <glyph glyph-name="idieresis" unicode="&#xef;" horiz-adv-x="591"
d="M324 1653q-17 -158 -113 -336h-229q80 178 86 336h256zM709 1653q-17 -160 -115 -336h-227q79 181 84 336h258zM510 1165q-32 -83 -45.5 -156.5t-13.5 -168.5v-512q0 -95 13.5 -169t45.5 -159h-410q33 86 46.5 160t13.5 168v512q0 94 -13.5 167.5t-46.5 157.5h410z" />
    <glyph glyph-name="eth" unicode="&#xf0;" horiz-adv-x="1224"
d="M819 1411q157 -198 250.5 -403t93.5 -394q0 -129 -48 -246t-128 -200.5t-188.5 -132.5t-225.5 -49q-232 0 -372 148.5t-140 400.5q0 122 33.5 227t91 179t131.5 123.5t158 70.5l225 -60q-74 127 -176 248l-157 -49q-123 -37 -189 -80l-61 207q80 3 200 39l76 22
q-89 89 -162 146v8l322 82q66 -60 143 -144l146 45q121 36 188 80l62 -206q-81 -3 -201 -39zM754 195q49 65 75.5 160t26.5 200q0 229 -131 475q-350 -95 -350 -471q0 -183 78 -281t219 -98q42 0 82 15z" />
    <glyph glyph-name="ntilde" unicode="&#xf1;" horiz-adv-x="1286"
d="M1059 1647q0 -91 -28 -164t-89.5 -119.5t-148.5 -46.5q-54 0 -111 26t-108.5 52t-90.5 26q-40 0 -63 -21.5t-23 -56.5q0 -18 2 -26h-168q0 141 68.5 235.5t198.5 94.5q54 0 111 -26.5t108 -52.5t90 -26q40 0 64 22.5t24 57.5q0 9 -4 25h168zM100 0q33 86 46.5 160
t13.5 168v522q0 162 -49 315h352q-12 -70 -12 -151v-82l182 215q67 37 172 37q150 0 245 -94.5t95 -280.5v-481q0 -95 13.5 -169t45.5 -159h-411q34 84 47.5 158t13.5 170v409q0 86 -55 136.5t-148 50.5q-95 0 -200 -62v-534q0 -95 13.5 -169t45.5 -159h-410z" />
    <glyph glyph-name="ograve" unicode="&#xf2;" horiz-adv-x="1267"
d="M362 1671h306q21 -202 102 -375h-129q-186 128 -279 375zM645 1184q256 0 408.5 -157.5t152.5 -432.5q0 -169 -83.5 -310t-219 -219.5t-289.5 -78.5q-86 0 -166 21t-151 66.5t-123 111t-82.5 159.5t-30.5 207q0 139 50 259.5t132 201t187 126.5t215 46zM612 983
q-100 0 -163.5 -96.5t-63.5 -274.5q0 -184 75 -297.5t197 -128.5q104 15 166 117t62 270q0 178 -78 294t-195 116z" />
    <glyph glyph-name="oacute" unicode="&#xf3;" horiz-adv-x="1267"
d="M907 1671q-93 -248 -278 -375h-129q81 173 102 375h305zM645 1184q256 0 408.5 -157.5t152.5 -432.5q0 -169 -83.5 -310t-219 -219.5t-289.5 -78.5q-86 0 -166 21t-151 66.5t-123 111t-82.5 159.5t-30.5 207q0 139 50 259.5t132 201t187 126.5t215 46zM612 983
q-100 0 -163.5 -96.5t-63.5 -274.5q0 -184 75 -297.5t197 -128.5q104 15 166 117t62 270q0 178 -78 294t-195 116z" />
    <glyph glyph-name="ocircumflex" unicode="&#xf4;" horiz-adv-x="1267"
d="M635 1503q-98 -121 -227 -207h-121q110 160 155 375h385q43 -216 154 -375h-121q-134 89 -225 207zM645 1184q256 0 408.5 -157.5t152.5 -432.5q0 -169 -83.5 -310t-219 -219.5t-289.5 -78.5q-86 0 -166 21t-151 66.5t-123 111t-82.5 159.5t-30.5 207q0 139 50 259.5
t132 201t187 126.5t215 46zM657 186q104 15 166 117t62 270q0 178 -78 294t-195 116q-100 0 -163.5 -96.5t-63.5 -274.5q0 -184 75 -297.5t197 -128.5z" />
    <glyph glyph-name="otilde" unicode="&#xf5;" horiz-adv-x="1267"
d="M1049 1647q0 -91 -28.5 -164t-90 -119.5t-148.5 -46.5q-54 0 -111 26t-108 52t-90 26q-40 0 -63 -21.5t-23 -56.5q0 -18 2 -26h-168q0 141 68 235.5t198 94.5q43 0 88.5 -16.5t78 -36t72 -36t71.5 -16.5q40 0 64 22.5t24 57.5q0 9 -4 25h168zM645 1184
q256 0 408.5 -157.5t152.5 -432.5q0 -169 -83.5 -310t-219 -219.5t-289.5 -78.5q-86 0 -166 21t-151 66.5t-123 111t-82.5 159.5t-30.5 207q0 139 50 259.5t132 201t187 126.5t215 46zM612 983q-100 0 -163.5 -96.5t-63.5 -274.5q0 -184 75 -297.5t197 -128.5
q104 15 166 117t62 270q0 178 -78 294t-195 116z" />
    <glyph glyph-name="odieresis" unicode="&#xf6;" horiz-adv-x="1267"
d="M639 1653q-17 -158 -113 -336h-239q80 178 86 336h266zM1065 1653q-17 -160 -115 -336h-237q79 181 84 336h268zM645 1184q256 0 408.5 -157.5t152.5 -432.5q0 -169 -83.5 -310t-219 -219.5t-289.5 -78.5q-86 0 -166 21t-151 66.5t-123 111t-82.5 159.5t-30.5 207
q0 139 50 259.5t132 201t187 126.5t215 46zM612 983q-100 0 -163.5 -96.5t-63.5 -274.5q0 -184 75 -297.5t197 -128.5q104 15 166 117t62 270q0 178 -78 294t-195 116z" />
    <glyph glyph-name="divide" unicode="&#xf7;" horiz-adv-x="1220"
d="M612 909q-76 0 -123 46.5t-47 121.5t47 122.5t123 47.5q75 0 121.5 -47.5t46.5 -122.5t-46.5 -121.5t-121.5 -46.5zM82 530v297q114 -20 287 -20h483q173 0 287 20v-297q-120 21 -287 21h-483q-167 0 -287 -21zM612 111q-76 0 -123 46.5t-47 121.5t47 122.5t123 47.5
q75 0 121.5 -47.5t46.5 -122.5t-46.5 -121.5t-121.5 -46.5z" />
    <glyph glyph-name="oslash" unicode="&#xf8;" horiz-adv-x="1267"
d="M1022 1057q89 -76 136.5 -194t47.5 -269q0 -169 -83.5 -310t-219 -219.5t-289.5 -78.5q-102 0 -194 30q-23 -57 -37 -102l-238 51q88 122 105 146q-189 154 -189 440q0 139 50 259.5t132 201t187 126.5t215 46t205 -31q22 47 37 98l237 -51q-71 -94 -102 -143zM610 993
q-103 0 -170 -99t-67 -280q0 -141 41 -237q6 8 14 24l315 547q-64 45 -133 45zM657 176q108 15 173 119.5t65 277.5q0 125 -39 220l-321 -560q-1 -1 -2.5 -4t-2.5 -4q54 -40 127 -49z" />
    <glyph glyph-name="ugrave" unicode="&#xf9;" horiz-adv-x="1269"
d="M348 1671h305q20 -199 103 -375h-129q-186 128 -279 375zM453 -16q-117 0 -196.5 55.5t-115.5 155.5v645q0 95 -13.5 168.5t-45.5 156.5h412q-34 -84 -48 -157t-14 -168v-385q0 -111 45 -161t139 -50q96 0 203 55v541q0 95 -13.5 168.5t-45.5 156.5h409
q-32 -83 -45.5 -156.5t-13.5 -168.5v-512q0 -95 13.5 -169t45.5 -159h-366q16 71 16 231l-157 -204q-87 -43 -209 -43z" />
    <glyph glyph-name="uacute" unicode="&#xfa;" horiz-adv-x="1269"
d="M893 1671q-93 -247 -279 -375h-129q83 176 103 375h305zM453 -16q-117 0 -196.5 55.5t-115.5 155.5v645q0 95 -13.5 168.5t-45.5 156.5h412q-34 -84 -48 -157t-14 -168v-385q0 -111 45 -161t139 -50q96 0 203 55v541q0 95 -13.5 168.5t-45.5 156.5h409
q-32 -83 -45.5 -156.5t-13.5 -168.5v-512q0 -95 13.5 -169t45.5 -159h-366q16 71 16 231l-157 -204q-87 -43 -209 -43z" />
    <glyph glyph-name="ucircumflex" unicode="&#xfb;" horiz-adv-x="1269"
d="M621 1503q-96 -120 -228 -207h-121q111 162 156 375h385q43 -216 154 -375h-121q-134 89 -225 207zM1110 840v-512q0 -95 13.5 -169t45.5 -159h-366q16 71 16 231l-157 -204q-87 -43 -209 -43q-117 0 -196.5 55.5t-115.5 155.5v645q0 95 -13.5 168.5t-45.5 156.5h412
q-34 -84 -48 -157t-14 -168v-385q0 -111 45 -161t139 -50q96 0 203 55v541q0 95 -13.5 168.5t-45.5 156.5h409q-32 -83 -45.5 -156.5t-13.5 -168.5z" />
    <glyph glyph-name="udieresis" unicode="&#xfc;" horiz-adv-x="1269"
d="M625 1653q-17 -158 -113 -336h-240q80 178 86 336h267zM1051 1653q-17 -160 -115 -336h-238q79 181 84 336h269zM453 -16q-117 0 -196.5 55.5t-115.5 155.5v645q0 95 -13.5 168.5t-45.5 156.5h412q-34 -84 -48 -157t-14 -168v-385q0 -111 45 -161t139 -50q96 0 203 55
v541q0 95 -13.5 168.5t-45.5 156.5h409q-32 -83 -45.5 -156.5t-13.5 -168.5v-512q0 -95 13.5 -169t45.5 -159h-366q16 71 16 231l-157 -204q-87 -43 -209 -43z" />
    <glyph glyph-name="yacute" unicode="&#xfd;" horiz-adv-x="1081"
d="M815 1671q-93 -248 -278 -375h-129q81 173 102 375h305zM729 1165h385v-6q-85 -123 -160 -340l-311 -864q-56 -156 -104.5 -242t-100.5 -119h-329v9q85 69 165.5 185t137.5 259l-287 789q-79 214 -158 323v6h436q-22 -52 -22 -114q0 -69 29 -154l155 -434l148 407
q35 99 35 187q0 49 -19 108z" />
    <glyph glyph-name="thorn" unicode="&#xfe;" horiz-adv-x="1277"
d="M96 -406q60 155 60 326v1321q0 137 -14 219t-46 156l402 76q-52 -203 -52 -547v-227q85 136 172 200t193 64q73 0 142.5 -40.5t123 -111.5t86.5 -176.5t33 -226.5q0 -128 -35 -242.5t-99 -203.5t-163.5 -141t-220.5 -52q-58 0 -122.5 16t-109.5 39v-123q0 -171 60 -326
h-410zM578 160q133 0 219 101.5t86 279.5q0 187 -67 289t-177 102q-114 0 -193 -98v-646q64 -28 132 -28z" />
    <glyph glyph-name="ydieresis" unicode="&#xff;" horiz-adv-x="1081"
d="M547 1653q-17 -158 -113 -336h-239q80 178 86 336h266zM973 1653q-17 -160 -115 -336h-237q79 181 84 336h268zM729 1165h385v-6q-85 -123 -160 -340l-311 -864q-56 -156 -104.5 -242t-100.5 -119h-329v9q85 69 165.5 185t137.5 259l-287 789q-79 214 -158 323v6h436
q-22 -52 -22 -114q0 -69 29 -154l155 -434l148 407q35 99 35 187q0 49 -19 108z" />
    <glyph glyph-name="Amacron" unicode="&#x100;" horiz-adv-x="1660"
d="M926 1821h-146q-159 0 -286 -19v244q107 -16 286 -16h146q179 0 286 16v-244q-127 19 -286 19zM1511 387q53 -124 103 -208t123 -173v-6h-465q6 21 6 55q0 53 -18.5 118.5t-63.5 174.5l-37 90h-655l-43 -96q-82 -188 -82 -287q0 -27 4 -55h-459v6q120 141 234 387
l403 871q121 258 162 413h264q36 -143 152 -413zM612 682h449l-215 526z" />
    <glyph glyph-name="amacron" unicode="&#x101;" horiz-adv-x="1036"
d="M879 1616v-244q-127 19 -287 19h-146q-159 0 -286 -19v244q113 -17 286 -17h146q174 0 287 17zM494 1184q201 0 303 -96t102 -275v-485q0 -102 15 -174.5t51 -153.5h-357v133q-90 -53 -184 -137q-10 -2 -41 -2q-164 0 -256 77.5t-92 213.5q0 99 62.5 172t224.5 149
q129 62 286 125v27q0 94 -51.5 144t-142.5 50q-140 0 -281 -88l-4 4l86 269q120 47 279 47zM608 514h-237q-29 -69 -29 -137q0 -93 50.5 -136.5t160.5 -43.5q34 0 55 6v311z" />
    <glyph glyph-name="Abreve" unicode="&#x102;" horiz-adv-x="1660"
d="M854 1741q-158 0 -236.5 98t-78.5 270h139q0 -63 48 -103t128 -40t128 40t48 103h139q0 -171 -80 -269.5t-235 -98.5zM1511 387q53 -124 103 -208t123 -173v-6h-465q6 21 6 55q0 53 -18.5 118.5t-63.5 174.5l-37 90h-655l-43 -96q-82 -188 -82 -287q0 -27 4 -55h-459v6
q120 141 234 387l403 871q121 258 162 413h264q36 -143 152 -413zM612 682h449l-215 526z" />
    <glyph glyph-name="abreve" unicode="&#x103;" horiz-adv-x="1036"
d="M836 1659q0 -171 -80 -270t-236 -99q-158 0 -236.5 98.5t-78.5 270.5h139q0 -63 48 -103t128 -40t128 40t48 103h140zM494 1184q201 0 303 -96t102 -275v-485q0 -102 15 -174.5t51 -153.5h-357v133q-90 -53 -184 -137q-10 -2 -41 -2q-164 0 -256 77.5t-92 213.5
q0 99 62.5 172t224.5 149q129 62 286 125v27q0 94 -51.5 144t-142.5 50q-140 0 -281 -88l-4 4l86 269q120 47 279 47zM608 514h-237q-29 -69 -29 -137q0 -93 50.5 -136.5t160.5 -43.5q34 0 55 6v311z" />
    <glyph glyph-name="Aogonek" unicode="&#x104;" horiz-adv-x="1660"
d="M1737 0h-150q-58 -88 -76 -126t-18 -69q0 -57 53 -57q46 0 92 21l-45 -189q-61 -18 -133 -18q-109 0 -169 48.5t-60 121.5q0 64 52 127.5t165 140.5h-176q6 21 6 55q0 53 -18.5 118.5t-63.5 174.5l-37 90h-655l-43 -96q-82 -188 -82 -287q0 -27 4 -55h-459v6
q120 141 234 387l403 871q121 258 162 413h264q36 -143 152 -413l372 -877q53 -124 103 -208t123 -173v-6zM612 682h449l-215 526z" />
    <glyph glyph-name="aogonek" unicode="&#x105;" horiz-adv-x="1036"
d="M780 -195q0 -57 54 -57q46 0 92 21l-45 -189q-62 -18 -133 -18q-109 0 -169.5 48.5t-60.5 121.5q0 64 52 127.5t165 140.5h-127v133q-90 -53 -184 -137q-10 -2 -41 -2q-164 0 -256 77.5t-92 213.5q0 99 62.5 172t224.5 149q129 62 286 125v27q0 94 -51.5 144t-142.5 50
q-140 0 -281 -88l-4 4l86 269q120 47 279 47q201 0 303 -96t102 -275v-485q0 -102 15 -174.5t51 -153.5h-91q-58 -88 -76 -126t-18 -69zM608 203v311h-237q-29 -69 -29 -137q0 -93 50.5 -136.5t160.5 -43.5q34 0 55 6z" />
    <glyph glyph-name="Cacute" unicode="&#x106;" horiz-adv-x="1542"
d="M1167 2122q-93 -248 -278 -375h-129q81 173 102 375h305zM932 -20q-188 0 -347 64t-268.5 175t-171 264t-61.5 328q0 161 49 302.5t137.5 247.5t208.5 182.5t265 115.5t303 39q205 0 393 -58v-305l-6 -2q-92 59 -211.5 94t-237.5 35q-245 0 -407 -175.5t-162 -444.5
q0 -173 70.5 -313t196.5 -220t282 -80t289.5 52t222.5 137l6 -2l-17 -310q-225 -126 -534 -126z" />
    <glyph glyph-name="cacute" unicode="&#x107;" horiz-adv-x="976"
d="M868 1671q-93 -248 -278 -375h-129q81 173 102 375h305zM688 1184q122 0 248 -29l-25 -317l-6 -2q-141 133 -266 133q-112 0 -186 -87t-74 -259q0 -193 100 -302.5t262 -109.5q107 0 211 43l4 -4l-129 -242q-71 -22 -180 -22q-116 0 -218.5 33.5t-186 101t-132.5 181.5
t-49 261q0 131 43.5 244.5t123 197t198 131.5t262.5 48z" />
    <glyph glyph-name="Ccircumflex" unicode="&#x108;" horiz-adv-x="1542"
d="M895 1954q-98 -121 -227 -207h-121q110 160 155 375h385q43 -216 154 -375h-121q-134 89 -225 207zM1477 418l6 -2l-17 -310q-225 -126 -534 -126q-188 0 -347 64t-268.5 175t-171 264t-61.5 328q0 161 49 302.5t137.5 247.5t208.5 182.5t265 115.5t303 39q205 0 393 -58
v-305l-6 -2q-92 59 -211.5 94t-237.5 35q-245 0 -407 -175.5t-162 -444.5q0 -173 70.5 -313t196.5 -220t282 -80t289.5 52t222.5 137z" />
    <glyph glyph-name="ccircumflex" unicode="&#x109;" horiz-adv-x="976"
d="M596 1503q-98 -121 -227 -207h-121q110 160 155 375h385q43 -216 154 -375h-121q-134 89 -225 207zM952 254l4 -4l-129 -242q-71 -22 -180 -22q-116 0 -218.5 33.5t-186 101t-132.5 181.5t-49 261q0 131 43.5 244.5t123 197t198 131.5t262.5 48q122 0 248 -29l-25 -317
l-6 -2q-141 133 -266 133q-112 0 -186 -87t-74 -259q0 -193 100 -302.5t262 -109.5q107 0 211 43z" />
    <glyph glyph-name="Cdotaccent" unicode="&#x10a;" horiz-adv-x="1542"
d="M899 2128q76 0 129 -54.5t53 -131.5t-53 -132t-129 -55q-79 0 -134.5 55t-55.5 132t55.5 131.5t134.5 54.5zM932 -20q-188 0 -347 64t-268.5 175t-171 264t-61.5 328q0 161 49 302.5t137.5 247.5t208.5 182.5t265 115.5t303 39q205 0 393 -58v-305l-6 -2
q-92 59 -211.5 94t-237.5 35q-245 0 -407 -175.5t-162 -444.5q0 -173 70.5 -313t196.5 -220t282 -80t289.5 52t222.5 137l6 -2l-17 -310q-225 -126 -534 -126z" />
    <glyph glyph-name="cdotaccent" unicode="&#x10b;" horiz-adv-x="976"
d="M600 1677q76 0 129 -54.5t53 -131.5t-53 -131.5t-129 -54.5q-79 0 -134.5 54.5t-55.5 131.5t55.5 131.5t134.5 54.5zM688 1184q122 0 248 -29l-25 -317l-6 -2q-141 133 -266 133q-112 0 -186 -87t-74 -259q0 -193 100 -302.5t262 -109.5q107 0 211 43l4 -4l-129 -242
q-71 -22 -180 -22q-116 0 -218.5 33.5t-186 101t-132.5 181.5t-49 261q0 131 43.5 244.5t123 197t198 131.5t262.5 48z" />
    <glyph glyph-name="Ccaron" unicode="&#x10c;" horiz-adv-x="1542"
d="M1085 1747h-385q-43 218 -153 375h121q134 -89 225 -207q98 121 227 207h121q-111 -162 -156 -375zM1477 418l6 -2l-17 -310q-225 -126 -534 -126q-188 0 -347 64t-268.5 175t-171 264t-61.5 328q0 161 49 302.5t137.5 247.5t208.5 182.5t265 115.5t303 39q205 0 393 -58
v-305l-6 -2q-92 59 -211.5 94t-237.5 35q-245 0 -407 -175.5t-162 -444.5q0 -173 70.5 -313t196.5 -220t282 -80t289.5 52t222.5 137z" />
    <glyph glyph-name="ccaron" unicode="&#x10d;" horiz-adv-x="976"
d="M786 1296h-385q-43 218 -153 375h121q134 -89 225 -207q98 121 227 207h121q-111 -162 -156 -375zM952 254l4 -4l-129 -242q-71 -22 -180 -22q-116 0 -218.5 33.5t-186 101t-132.5 181.5t-49 261q0 131 43.5 244.5t123 197t198 131.5t262.5 48q122 0 248 -29l-25 -317
l-6 -2q-141 133 -266 133q-112 0 -186 -87t-74 -259q0 -193 100 -302.5t262 -109.5q107 0 211 43z" />
    <glyph glyph-name="Dcaron" unicode="&#x10e;" horiz-adv-x="1601"
d="M950 1747h-385q-43 218 -153 375h120q136 -90 226 -207q98 121 227 207h121q-111 -162 -156 -375zM434 1690q260 0 466 -61t341 -171.5t206 -264.5t71 -341q0 -159 -49.5 -296t-140 -238.5t-215 -173t-277 -108t-324.5 -36.5h-393q39 111 55 220t16 261v715
q0 151 -19.5 258.5t-64.5 218.5q217 17 328 17zM508 207q198 10 343.5 80.5t229.5 209t84 334.5q0 286 -177 461.5t-484 190.5q-12 -120 -12 -301v-650q0 -197 16 -325z" />
    <glyph glyph-name="dcaron" unicode="&#x10f;" horiz-adv-x="1382"
d="M506 -14q-127 0 -229.5 69.5t-159 187t-56.5 259.5q0 124 49.5 247t131 217.5t195.5 154t235 59.5q71 0 135 -23v84q0 138 -14 219.5t-45 155.5l399 76q-49 -180 -49 -547v-817q0 -95 13.5 -169t45.5 -159h-350v172q-80 -101 -143.5 -143.5t-157.5 -42.5zM1522 1671
q-73 -268 -224 -416h-118q44 173 57 416h285zM727 217q39 0 80 23v651q-97 84 -229 84q-89 0 -138 -37q-67 -125 -67 -307q0 -193 98.5 -303.5t255.5 -110.5z" />
    <glyph glyph-name="Dcroat" unicode="&#x110;" horiz-adv-x="1601"
d="M434 1690q260 0 466 -61t341 -171.5t206 -264.5t71 -341q0 -159 -49.5 -296t-140 -238.5t-215 -173t-277 -108t-324.5 -36.5h-393q39 111 55 220t16 261v260q-135 -3 -210 -18v231q86 -17 210 -20v262q0 151 -19.5 258.5t-64.5 218.5q217 17 328 17zM508 207
q198 10 343.5 80.5t229.5 209t84 334.5q0 286 -177 461.5t-484 190.5q-12 -120 -12 -301v-248h77q166 0 277 20v-231q-100 18 -277 18h-77v-209q0 -197 16 -325z" />
    <glyph glyph-name="dcroat" unicode="&#x111;" horiz-adv-x="1251"
d="M1102 1311q-4 -106 -4 -166v-817q0 -95 13.5 -169t45.5 -159h-350v172q-80 -101 -143.5 -143.5t-157.5 -42.5q-95 0 -179 41.5t-141.5 111t-91 161.5t-33.5 192q0 116 49.5 233t131 208t195.5 148.5t235 57.5q71 0 135 -23v125v70h-113q-170 0 -276 -19v209
q111 -20 276 -20h94q-15 74 -40 135l399 76q-24 -93 -35 -209q107 3 193 18v-209q-96 16 -203 19zM807 240v610q-97 84 -229 84q-89 0 -138 -37q-67 -115 -67 -287q0 -184 98.5 -288.5t255.5 -104.5q39 0 80 23z" />
    <glyph glyph-name="Emacron" unicode="&#x112;" horiz-adv-x="1175"
d="M954 2046v-244q-127 19 -286 19h-146q-159 0 -286 -19v244q107 -16 286 -16h146q179 0 286 16zM119 0q39 111 55 220t16 261v715q0 152 -16 261t-55 220h962l-145 -317q-177 104 -444 110v-507h532l-170 -289q-146 65 -362 74v-531q203 0 362.5 29t312.5 94l4 -4
l-139 -336h-913z" />
    <glyph glyph-name="emacron" unicode="&#x113;" horiz-adv-x="1060"
d="M616 1391h-145q-160 0 -287 -19v244q113 -17 287 -17h145q174 0 287 17v-244q-127 19 -287 19zM999 711q0 -89 -6 -144l-624 -16q8 -87 36 -150t70.5 -98t92 -51t108.5 -16q132 0 305 108l4 -4l-84 -297q-129 -57 -283 -57q-261 0 -409 147t-148 436q0 146 42 264.5
t114 194t166.5 116t202.5 40.5q202 0 307.5 -126t105.5 -347zM371 715h401q0 278 -197 278q-89 0 -140.5 -65.5t-63.5 -212.5z" />
    <glyph glyph-name="Ebreve" unicode="&#x114;" horiz-adv-x="1175"
d="M911 2109q0 -171 -80 -269.5t-235 -98.5q-158 0 -236.5 98t-78.5 270h139q0 -63 48 -103t128 -40t128 40t48 103h139zM119 0q39 111 55 220t16 261v715q0 152 -16 261t-55 220h962l-145 -317q-177 104 -444 110v-507h532l-170 -289q-146 65 -362 74v-531q203 0 362.5 29
t312.5 94l4 -4l-139 -336h-913z" />
    <glyph glyph-name="ebreve" unicode="&#x115;" horiz-adv-x="1060"
d="M545 1290q-158 0 -237 98.5t-79 270.5h140q0 -63 48 -103t128 -40t128 40t48 103h139q0 -171 -80 -270t-235 -99zM999 711q0 -89 -6 -144l-624 -16q8 -87 36 -150t70.5 -98t92 -51t108.5 -16q132 0 305 108l4 -4l-84 -297q-129 -57 -283 -57q-261 0 -409 147t-148 436
q0 146 42 264.5t114 194t166.5 116t202.5 40.5q202 0 307.5 -126t105.5 -347zM371 715h401q0 278 -197 278q-89 0 -140.5 -65.5t-63.5 -212.5z" />
    <glyph glyph-name="Edotaccent" unicode="&#x116;" horiz-adv-x="1175"
d="M600 2128q76 0 129 -54.5t53 -131.5t-53 -132t-129 -55q-79 0 -134.5 55t-55.5 132t55.5 131.5t134.5 54.5zM119 0q39 111 55 220t16 261v715q0 152 -16 261t-55 220h962l-145 -317q-177 104 -444 110v-507h532l-170 -289q-146 65 -362 74v-531q203 0 362.5 29t312.5 94
l4 -4l-139 -336h-913z" />
    <glyph glyph-name="edotaccent" unicode="&#x117;" horiz-adv-x="1060"
d="M549 1305q-79 0 -135 54.5t-56 131.5t56 131.5t135 54.5q76 0 129 -54.5t53 -131.5t-53 -131.5t-129 -54.5zM999 711q0 -89 -6 -144l-624 -16q8 -87 36 -150t70.5 -98t92 -51t108.5 -16q132 0 305 108l4 -4l-84 -297q-129 -57 -283 -57q-261 0 -409 147t-148 436
q0 146 42 264.5t114 194t166.5 116t202.5 40.5q202 0 307.5 -126t105.5 -347zM371 715h401q0 278 -197 278q-89 0 -140.5 -65.5t-63.5 -212.5z" />
    <glyph glyph-name="Eogonek" unicode="&#x118;" horiz-adv-x="1175"
d="M938 -195q0 -57 53 -57q45 0 92 21l-45 -189q-62 -18 -133 -18q-109 0 -169 48.5t-60 121.5q0 64 52 127.5t165 140.5h-774q39 111 55 220t16 261v715q0 152 -16 261t-55 220h962l-145 -317q-177 104 -444 110v-507h532l-170 -289q-146 65 -362 74v-531q203 0 362.5 29
t312.5 94l4 -4l-139 -336q-58 -88 -76 -126t-18 -69z" />
    <glyph glyph-name="eogonek" unicode="&#x119;" horiz-adv-x="1060"
d="M999 711q0 -89 -6 -144l-624 -16q8 -87 36 -150t70.5 -98t92 -51t108.5 -16q132 0 305 108l4 -4l-84 -297q-85 -107 -112 -154t-27 -84q0 -57 53 -57q45 0 92 21l-45 -189q-62 -18 -133 -18q-109 0 -169 48.5t-60 121.5q0 61 48.5 122.5t153.5 135.5q-54 -4 -84 -4
q-261 0 -409 147t-148 436q0 146 42 264.5t114 194t166.5 116t202.5 40.5q202 0 307.5 -126t105.5 -347zM371 715h401q0 278 -197 278q-89 0 -140.5 -65.5t-63.5 -212.5z" />
    <glyph glyph-name="Ecaron" unicode="&#x11a;" horiz-adv-x="1175"
d="M786 1747h-385q-43 218 -153 375h121q134 -89 225 -207q98 121 227 207h121q-111 -162 -156 -375zM1167 340l4 -4l-139 -336h-913q39 111 55 220t16 261v715q0 152 -16 261t-55 220h962l-145 -317q-177 104 -444 110v-507h532l-170 -289q-146 65 -362 74v-531
q203 0 362.5 29t312.5 94z" />
    <glyph glyph-name="ecaron" unicode="&#x11b;" horiz-adv-x="1060"
d="M735 1296h-385q-43 218 -153 375h120q136 -90 226 -207q98 121 227 207h121q-111 -162 -156 -375zM999 711q0 -89 -6 -144l-624 -16q8 -87 36 -150t70.5 -98t92 -51t108.5 -16q132 0 305 108l4 -4l-84 -297q-129 -57 -283 -57q-261 0 -409 147t-148 436q0 146 42 264.5
t114 194t166.5 116t202.5 40.5q202 0 307.5 -126t105.5 -347zM371 715h401q0 278 -197 278q-89 0 -140.5 -65.5t-63.5 -212.5z" />
    <glyph glyph-name="Gcircumflex" unicode="&#x11c;" horiz-adv-x="1722"
d="M944 1954q-98 -121 -227 -207h-121q111 162 156 375h385q43 -218 153 -375h-121q-134 89 -225 207zM1595 547v-189q0 -176 31 -270q-281 -108 -600 -108q-196 0 -356 44.5t-267.5 120t-180.5 180t-105.5 221t-32.5 245.5q0 199 69 368t192.5 287.5t300 185t384.5 66.5
q245 0 463 -51v-308l-6 -2q-240 144 -490 144q-254 0 -417.5 -171t-163.5 -450q0 -190 79 -337t219.5 -227.5t319.5 -80.5q152 0 260 51v131q0 258 -112 449h465q-23 -53 -37.5 -134.5t-14.5 -164.5z" />
    <glyph glyph-name="gcircumflex" unicode="&#x11d;" horiz-adv-x="1165"
d="M588 1503q-96 -120 -228 -207h-120q110 160 155 375h385q43 -216 154 -375h-121q-134 89 -225 207zM1124 1194v-262q-96 13 -206 55q81 -102 81 -209q0 -166 -130 -271.5t-341 -105.5q-55 0 -120 7q-41 -44 -41 -84q0 -58 98 -58q64 0 197.5 2t187.5 2
q97 -16 172.5 -95.5t75.5 -182.5q0 -133 -154 -254q-207 -160 -469 -160q-194 0 -301.5 66t-107.5 176q0 42 18 80q155 78 246 155q-116 6 -177 43t-61 97q0 36 18 61t64 55l184 115q-141 61 -210.5 142t-69.5 190q0 181 130.5 303.5t338.5 122.5q144 0 248 -58
q171 12 329 68zM561 541q70 0 111 52t41 146q0 125 -54 208t-143 83q-69 0 -110 -60t-41 -157q0 -123 53.5 -197.5t142.5 -74.5zM653 59q-41 0 -136.5 -2t-125.5 -2q-43 -64 -43 -121q0 -67 52.5 -106t162.5 -39q126 0 217 33q33 46 33 110q0 127 -160 127z" />
    <glyph glyph-name="Gbreve" unicode="&#x11e;" horiz-adv-x="1722"
d="M1260 2109q0 -171 -80 -269.5t-236 -98.5q-158 0 -236.5 98t-78.5 270h139q0 -63 48 -103t128 -40t128 40t48 103h140zM1030 1698q245 0 463 -51v-308l-6 -2q-240 144 -490 144q-254 0 -417.5 -171t-163.5 -450q0 -190 79 -337t219.5 -227.5t319.5 -80.5q152 0 260 51
v131q0 258 -112 449h465q-23 -53 -37.5 -134.5t-14.5 -164.5v-189q0 -176 31 -270q-281 -108 -600 -108q-196 0 -356 44.5t-267.5 120t-180.5 180t-105.5 221t-32.5 245.5q0 199 69 368t192.5 287.5t300 185t384.5 66.5z" />
    <glyph glyph-name="gbreve" unicode="&#x11f;" horiz-adv-x="1165"
d="M588 1290q-158 0 -237 98.5t-79 270.5h140q0 -63 48 -103t128 -40t128 40t48 103h139q0 -171 -80 -270t-235 -99zM1124 1194v-262q-96 13 -206 55q81 -102 81 -209q0 -166 -130 -271.5t-341 -105.5q-55 0 -120 7q-41 -44 -41 -84q0 -58 98 -58q64 0 197.5 2t187.5 2
q97 -16 172.5 -95.5t75.5 -182.5q0 -133 -154 -254q-207 -160 -469 -160q-194 0 -301.5 66t-107.5 176q0 42 18 80q155 78 246 155q-116 6 -177 43t-61 97q0 36 18 61t64 55l184 115q-141 61 -210.5 142t-69.5 190q0 181 130.5 303.5t338.5 122.5q144 0 248 -58
q171 12 329 68zM561 541q70 0 111 52t41 146q0 125 -54 208t-143 83q-69 0 -110 -60t-41 -157q0 -123 53.5 -197.5t142.5 -74.5zM653 59q-41 0 -136.5 -2t-125.5 -2q-43 -64 -43 -121q0 -67 52.5 -106t162.5 -39q126 0 217 33q33 46 33 110q0 127 -160 127z" />
    <glyph glyph-name="Gdotaccent" unicode="&#x120;" horiz-adv-x="1722"
d="M948 2128q76 0 129 -54.5t53 -131.5t-53 -132t-129 -55q-79 0 -134.5 55t-55.5 132t55.5 131.5t134.5 54.5zM1030 1698q245 0 463 -51v-308l-6 -2q-240 144 -490 144q-254 0 -417.5 -171t-163.5 -450q0 -190 79 -337t219.5 -227.5t319.5 -80.5q152 0 260 51v131
q0 258 -112 449h465q-23 -53 -37.5 -134.5t-14.5 -164.5v-189q0 -176 31 -270q-281 -108 -600 -108q-196 0 -356 44.5t-267.5 120t-180.5 180t-105.5 221t-32.5 245.5q0 199 69 368t192.5 287.5t300 185t384.5 66.5z" />
    <glyph glyph-name="gdotaccent" unicode="&#x121;" horiz-adv-x="1165"
d="M592 1305q-79 0 -135 54.5t-56 131.5t56 131.5t135 54.5q76 0 129 -54.5t53 -131.5t-53 -131.5t-129 -54.5zM1124 1194v-262q-96 13 -206 55q81 -102 81 -209q0 -166 -130 -271.5t-341 -105.5q-55 0 -120 7q-41 -44 -41 -84q0 -58 98 -58q64 0 197.5 2t187.5 2
q97 -16 172.5 -95.5t75.5 -182.5q0 -133 -154 -254q-207 -160 -469 -160q-194 0 -301.5 66t-107.5 176q0 42 18 80q155 78 246 155q-116 6 -177 43t-61 97q0 36 18 61t64 55l184 115q-141 61 -210.5 142t-69.5 190q0 181 130.5 303.5t338.5 122.5q144 0 248 -58
q171 12 329 68zM561 541q70 0 111 52t41 146q0 125 -54 208t-143 83q-69 0 -110 -60t-41 -157q0 -123 53.5 -197.5t142.5 -74.5zM653 59q-41 0 -136.5 -2t-125.5 -2q-43 -64 -43 -121q0 -67 52.5 -106t162.5 -39q126 0 217 33q33 46 33 110q0 127 -160 127z" />
    <glyph glyph-name="uni0122" unicode="&#x122;" horiz-adv-x="1722"
d="M1030 1698q245 0 463 -51v-308l-6 -2q-240 144 -490 144q-254 0 -417.5 -171t-163.5 -450q0 -190 79 -337t219.5 -227.5t319.5 -80.5q152 0 260 51v131q0 258 -112 449h465q-23 -53 -37.5 -134.5t-14.5 -164.5v-189q0 -176 31 -270q-281 -108 -600 -108q-196 0 -356 44.5
t-267.5 120t-180.5 180t-105.5 221t-32.5 245.5q0 199 69 368t192.5 287.5t300 185t384.5 66.5zM1079 -84q-16 -99 -55.5 -180t-108.5 -174h-204q86 128 86 227q0 67 -31 127h313z" />
    <glyph glyph-name="uni0123" unicode="&#x123;" horiz-adv-x="1165"
d="M633 1403q0 -73 31 -127h-316q18 100 57 181.5t107 172.5h205q-84 -130 -84 -227zM1124 1194v-262q-96 13 -206 55q81 -102 81 -209q0 -166 -130 -271.5t-341 -105.5q-55 0 -120 7q-41 -44 -41 -84q0 -58 98 -58q64 0 197.5 2t187.5 2q97 -16 172.5 -95.5t75.5 -182.5
q0 -133 -154 -254q-207 -160 -469 -160q-194 0 -301.5 66t-107.5 176q0 42 18 80q155 78 246 155q-116 6 -177 43t-61 97q0 36 18 61t64 55l184 115q-141 61 -210.5 142t-69.5 190q0 181 130.5 303.5t338.5 122.5q144 0 248 -58q171 12 329 68zM561 541q70 0 111 52t41 146
q0 125 -54 208t-143 83q-69 0 -110 -60t-41 -157q0 -123 53.5 -197.5t142.5 -74.5zM653 59q-41 0 -136.5 -2t-125.5 -2q-43 -64 -43 -121q0 -67 52.5 -106t162.5 -39q126 0 217 33q33 46 33 110q0 127 -160 127z" />
    <glyph glyph-name="Hcircumflex" unicode="&#x124;" horiz-adv-x="1665"
d="M834 1954q-96 -120 -228 -207h-121q111 162 156 375h385q43 -216 154 -375h-121q-134 89 -225 207zM1475 1196v-715q0 -152 16 -261t55 -220h-444q39 112 55.5 220.5t16.5 260.5v238h-682v-238q0 -152 16 -261t55 -220h-444q39 111 55 220t16 261v715q0 152 -16 261
t-55 220h444q-39 -111 -55 -220t-16 -261v-233h682v233q0 152 -16.5 260.5t-55.5 220.5h444q-39 -111 -55 -220t-16 -261z" />
    <glyph glyph-name="hcircumflex" unicode="&#x125;" horiz-adv-x="1282"
d="M575 1954q-98 -121 -227 -207h-121q111 162 156 375h385q43 -216 154 -375h-121q-136 90 -226 207zM788 0q34 85 48 159t14 169v358q0 121 -53.5 179.5t-149.5 58.5t-201 -62v-534q0 -94 13.5 -168t46.5 -160h-410q33 86 46.5 160t13.5 168v913q0 137 -14 219t-46 156
l402 76q-52 -203 -52 -547v-213q110 147 188.5 199.5t186.5 52.5q141 0 230.5 -94.5t89.5 -280.5v-481q0 -95 13.5 -169t45.5 -159h-412z" />
    <glyph glyph-name="Hbar" unicode="&#x126;" horiz-adv-x="1665"
d="M1475 1196v-715q0 -152 16 -261t55 -220h-444q39 112 55.5 220.5t16.5 260.5v238h-682v-238q0 -152 16 -261t55 -220h-444q39 111 55 220t16 261v715q0 152 -16 261t-55 220h444q-40 -115 -57 -229h653q-17 114 -57 229h444q-39 -111 -55 -220t-16 -261zM492 963h682v233
v59h-682v-59v-233z" />
    <glyph glyph-name="hbar" unicode="&#x127;" horiz-adv-x="1282"
d="M788 0q34 85 48 159t14 169v317q0 121 -53.5 179.5t-149.5 58.5t-201 -62v-493q0 -94 13.5 -168t46.5 -160h-410q33 86 46.5 160t13.5 168v913v70q-109 -3 -205 -19v209q83 -15 186 -18q-15 74 -41 133l402 76q-24 -94 -35 -211h98q166 0 277 20v-209q-106 19 -277 19
h-110q-5 -133 -5 -166v-254q110 147 188.5 199.5t186.5 52.5q141 0 230.5 -94.5t89.5 -280.5v-440q0 -95 13.5 -169t45.5 -159h-412z" />
    <glyph glyph-name="Itilde" unicode="&#x128;" horiz-adv-x="681"
d="M776 2097q0 -141 -69 -235.5t-197 -94.5q-47 0 -97 17t-85.5 37.5t-79 37.5t-78.5 17q-40 0 -63 -21.5t-23 -56.5q0 -21 2 -31h-178q0 141 68 235.5t198 94.5q59 0 121.5 -27t119 -54t99.5 -27q40 0 64 22t24 57q0 13 -4 29h178zM119 0q39 111 55 220t16 261v715
q0 152 -16 261t-55 220h444q-39 -111 -55 -220t-16 -261v-715q0 -152 16 -261t55 -220h-444z" />
    <glyph glyph-name="itilde" unicode="&#x129;" horiz-adv-x="591"
d="M635 1647q0 -140 -57.5 -235t-161.5 -95q-39 0 -75 16.5t-58.5 35.5t-49.5 35.5t-49 16.5q-29 0 -45 -21.5t-16 -56.5q0 -10 4 -26h-152q0 140 58.5 235t163.5 95q38 0 73.5 -16.5t58 -36t49 -36t48.5 -16.5q28 0 44.5 22.5t16.5 57.5q0 9 -4 25h152zM510 1165
q-32 -83 -45.5 -156.5t-13.5 -168.5v-512q0 -95 13.5 -169t45.5 -159h-410q33 86 46.5 160t13.5 168v512q0 94 -13.5 167.5t-46.5 157.5h410z" />
    <glyph glyph-name="Imacron" unicode="&#x12a;" horiz-adv-x="681"
d="M700 2046v-244q-127 19 -286 19h-146q-159 0 -286 -19v244q107 -16 286 -16h146q179 0 286 16zM119 0q39 111 55 220t16 261v715q0 152 -16 261t-55 220h444q-39 -111 -55 -220t-16 -261v-715q0 -152 16 -261t55 -220h-444z" />
    <glyph glyph-name="imacron" unicode="&#x12b;" horiz-adv-x="591"
d="M602 1616v-244q-117 19 -266 19h-64q-149 0 -266 -19v244q105 -17 266 -17h64q161 0 266 17zM510 1165q-32 -83 -45.5 -156.5t-13.5 -168.5v-512q0 -95 13.5 -169t45.5 -159h-410q33 86 46.5 160t13.5 168v512q0 94 -13.5 167.5t-46.5 157.5h410z" />
    <glyph glyph-name="Ibreve" unicode="&#x12c;" horiz-adv-x="681"
d="M657 2109q0 -171 -80 -269.5t-235 -98.5q-158 0 -236.5 98t-78.5 270h139q0 -63 48 -103t128 -40t128 40t48 103h139zM119 0q39 111 55 220t16 261v715q0 152 -16 261t-55 220h444q-39 -111 -55 -220t-16 -261v-715q0 -152 16 -261t55 -220h-444z" />
    <glyph glyph-name="ibreve" unicode="&#x12d;" horiz-adv-x="591"
d="M621 1659q0 -171 -80 -270t-236 -99q-158 0 -236.5 98.5t-78.5 270.5h139q0 -63 48 -103t128 -40t128 40t48 103h140zM510 1165q-32 -83 -45.5 -156.5t-13.5 -168.5v-512q0 -95 13.5 -169t45.5 -159h-410q33 86 46.5 160t13.5 168v512q0 94 -13.5 167.5t-46.5 157.5h410z
" />
    <glyph glyph-name="Iogonek" unicode="&#x12e;" horiz-adv-x="681"
d="M563 0h-82q-58 -88 -76 -126t-18 -69q0 -57 53 -57q46 0 92 21l-45 -189q-62 -18 -133 -18q-109 0 -169 48.5t-60 121.5q0 64 52 127.5t165 140.5h-223q39 111 55 220t16 261v715q0 152 -16 261t-55 220h444q-39 -111 -55 -220t-16 -261v-715q0 -152 16 -261t55 -220z
" />
    <glyph glyph-name="iogonek" unicode="&#x12f;" horiz-adv-x="610"
d="M307 1305q-78 0 -133 54.5t-55 131.5t55 131.5t133 54.5q76 0 130.5 -54.5t54.5 -131.5t-54.5 -131.5t-130.5 -54.5zM510 0h-70q-58 -88 -76 -126t-18 -69q0 -57 53 -57q47 0 93 21l-46 -189q-62 -18 -133 -18q-109 0 -169 48.5t-60 121.5q0 64 52 127.5t165 140.5h-201
q33 86 46.5 160t13.5 168v512q0 94 -13.5 167.5t-46.5 157.5h410q-32 -83 -45.5 -156.5t-13.5 -168.5v-512q0 -95 13.5 -169t45.5 -159z" />
    <glyph glyph-name="Idotaccent" unicode="&#x130;" horiz-adv-x="681"
d="M346 2128q76 0 129 -54.5t53 -131.5t-53 -132t-129 -55q-79 0 -134.5 55t-55.5 132t55.5 131.5t134.5 54.5zM119 0q39 111 55 220t16 261v715q0 152 -16 261t-55 220h444q-39 -111 -55 -220t-16 -261v-715q0 -152 16 -261t55 -220h-444z" />
    <glyph glyph-name="dotlessi" unicode="&#x131;" horiz-adv-x="591"
d="M510 1165q-32 -83 -45.5 -156.5t-13.5 -168.5v-512q0 -95 13.5 -169t45.5 -159h-410q33 86 46.5 160t13.5 168v512q0 94 -13.5 167.5t-46.5 157.5h410z" />
    <glyph glyph-name="IJ" unicode="&#x132;" horiz-adv-x="1476"
d="M119 0q39 111 55 220t16 261v715q0 152 -16 261t-55 220h444q-39 -111 -55 -220t-16 -261v-715q0 -152 16 -261t55 -220h-444zM1358 1677q-28 -102 -39.5 -223t-11.5 -334v-690q0 -411 -133 -603t-400 -192q-68 0 -133 21v8q54 28 96.5 58t86 74t75 101.5t56.5 132.5
t38 175t13 221v1018q-40 4 -82 4q-135 0 -258 -27l75 256h617z" />
    <glyph glyph-name="ij" unicode="&#x133;" horiz-adv-x="1214"
d="M307 1677q76 0 130.5 -54.5t54.5 -131.5t-54.5 -131.5t-130.5 -54.5q-78 0 -133 54.5t-55 131.5t55 131.5t133 54.5zM915 1305q-79 0 -134.5 54.5t-55.5 131.5t55.5 131.5t134.5 54.5q76 0 129.5 -54.5t53.5 -131.5t-53.5 -131.5t-129.5 -54.5zM510 1165
q-32 -83 -45.5 -156.5t-13.5 -168.5v-512q0 -95 13.5 -169t45.5 -159h-410q33 86 46.5 160t13.5 168v512q0 94 -13.5 167.5t-46.5 157.5h410zM600 -406q92 116 129 232.5t37 308.5v705q0 95 -13.5 168.5t-45.5 156.5h409q-32 -83 -45.5 -156.5t-13.5 -168.5v-705
q0 -351 -183 -541h-274z" />
    <glyph glyph-name="Jcircumflex" unicode="&#x134;" horiz-adv-x="794"
d="M399 1954q-98 -121 -227 -207h-121q111 162 156 375h385q43 -218 153 -375h-120q-136 90 -226 207zM-16 1421l75 256h617q-28 -102 -39.5 -223t-11.5 -334v-690q0 -411 -133 -603t-400 -192q-69 0 -133 21v8q54 28 96.5 58t86 74t75 101.5t56.5 132.5t38 175t13 221v1018
q-40 4 -82 4q-135 0 -258 -27z" />
    <glyph glyph-name="jcircumflex" unicode="&#x135;" horiz-adv-x="604"
d="M496 1671q43 -218 153 -375h-121q-134 89 -225 207q-98 -121 -227 -207h-121q111 162 156 375h385zM156 840q0 94 -13.5 167.5t-46.5 157.5h410q-33 -84 -46.5 -157.5t-13.5 -167.5v-705q0 -352 -182 -541h-274q92 116 129 232.5t37 308.5v705z" />
    <glyph glyph-name="uni0136" unicode="&#x136;" horiz-adv-x="1548"
d="M1319 319q151 -197 291 -311v-8h-514q-4 60 -49.5 149.5t-116.5 182.5l-438 577v-428q0 -152 16 -261t55 -220h-444q39 111 55 220t16 261v715q0 152 -16 261t-55 220h444q-39 -111 -55 -220t-16 -261v-262l395 506q52 67 71.5 117.5t22.5 119.5h526v-8
q-220 -177 -391 -397l-264 -338zM647 -211q0 67 -31 127h314q-16 -99 -55.5 -180t-108.5 -174h-205q86 128 86 227z" />
    <glyph glyph-name="uni0137" unicode="&#x137;" horiz-adv-x="1181"
d="M96 0q33 86 46.5 160t13.5 168v913q0 137 -14 219t-46 156l402 76q-52 -203 -52 -547v-817q0 -94 13.5 -168t46.5 -160h-410zM944 348q86 -144 236 -342v-6h-439q10 101 -69 240l-223 391l262 360q35 49 48.5 86t16.5 88h391v-8q-69 -55 -128 -119t-132 -166l-149 -202z
M457 -211q0 67 -31 127h313q-16 -99 -55.5 -180t-108.5 -174h-204q86 128 86 227z" />
    <glyph glyph-name="kgreenlandic" unicode="&#x138;" horiz-adv-x="1185"
d="M451 840v-512q0 -95 13.5 -169t45.5 -159h-410q33 86 46.5 160t13.5 168v512q0 94 -13.5 167.5t-46.5 157.5h410q-32 -83 -45.5 -156.5t-13.5 -168.5zM948 348q86 -144 236 -342v-6h-439q10 101 -69 240l-223 391l262 360q35 49 48.5 86t16.5 88h391v-8
q-69 -55 -128 -119t-132 -166l-149 -202z" />
    <glyph glyph-name="Lacute" unicode="&#x139;" horiz-adv-x="1112"
d="M674 2122q-93 -247 -279 -375h-129q83 176 103 375h305zM119 0q39 111 55 220t16 261v715q0 152 -16 261t-55 220h444q-39 -111 -55 -220t-16 -261v-971q159 12 347.5 58.5t293.5 99.5l4 -4l-156 -379h-862z" />
    <glyph glyph-name="lacute" unicode="&#x13a;" horiz-adv-x="602"
d="M573 2107q-93 -247 -278 -374h-129q81 173 102 374h305zM96 0q33 86 46.5 160t13.5 168v913q0 137 -14 219t-46 156l402 76q-52 -203 -52 -547v-817q0 -94 13.5 -168t46.5 -160h-410z" />
    <glyph glyph-name="uni013B" unicode="&#x13b;" horiz-adv-x="1112"
d="M119 0q39 111 55 220t16 261v715q0 152 -16 261t-55 220h444q-39 -111 -55 -220t-16 -261v-971q159 12 347.5 58.5t293.5 99.5l4 -4l-156 -379h-862zM733 -84q-16 -99 -55.5 -180t-108.5 -174h-204q86 128 86 227q0 67 -31 127h313z" />
    <glyph glyph-name="uni013C" unicode="&#x13c;" horiz-adv-x="602"
d="M96 0q33 86 46.5 160t13.5 168v913q0 137 -14 219t-46 156l402 76q-52 -203 -52 -547v-817q0 -94 13.5 -168t46.5 -160h-410zM457 -84q-16 -99 -55.5 -180t-108.5 -174h-205q86 128 86 227q0 67 -31 127h314z" />
    <glyph glyph-name="Lcaron" unicode="&#x13d;" horiz-adv-x="1112"
d="M119 0q39 111 55 220t16 261v715q0 152 -16 261t-55 220h444q-39 -111 -55 -220t-16 -261v-971q159 12 347.5 58.5t293.5 99.5l4 -4l-156 -379h-862zM1018 1677q-76 -322 -234 -497h-149q62 214 78 497h305z" />
    <glyph glyph-name="lcaron" unicode="&#x13e;" horiz-adv-x="731"
d="M96 0q33 86 46.5 160t13.5 168v913q0 137 -14 219t-46 156l402 76q-52 -203 -52 -547v-817q0 -94 13.5 -168t46.5 -160h-410zM870 1671q-73 -269 -223 -416h-119q45 178 58 416h284z" />
    <glyph glyph-name="Ldot" unicode="&#x13f;" horiz-adv-x="1198"
d="M119 0q39 111 55 220t16 261v715q0 152 -16 261t-55 220h444q-39 -111 -55 -220t-16 -261v-971q159 12 347.5 58.5t293.5 99.5l4 -4l-156 -379h-862zM940 1155q97 0 156 -59t59 -156t-59 -156t-156 -59t-156 59t-59 156t59 156t156 59z" />
    <glyph glyph-name="ldot" unicode="&#x140;" horiz-adv-x="942"
d="M96 0q33 86 46.5 160t13.5 168v913q0 137 -14 219t-46 156l402 76q-52 -203 -52 -547v-817q0 -94 13.5 -168t46.5 -160h-410zM772 1047q97 0 156 -59.5t59 -156.5t-59 -156t-156 -59t-156 59t-59 156t59 156.5t156 59.5z" />
    <glyph glyph-name="Lslash" unicode="&#x141;" horiz-adv-x="1112"
d="M1133 383l4 -4l-156 -379h-862q39 111 55 220t16 261v187q-115 -58 -221 -123v276q81 16 221 70v305q0 152 -16 261t-55 220h444q-39 -111 -55 -220t-16 -261v-172q164 76 319 168v-277q-96 -21 -319 -110v-580q159 12 347.5 58.5t293.5 99.5z" />
    <glyph glyph-name="lslash" unicode="&#x142;" horiz-adv-x="755"
d="M776 854q-94 -14 -252 -82v-444q0 -94 13.5 -168t46.5 -160h-410q32 85 45.5 159t13.5 169v307q-118 -64 -172 -98v266q76 12 172 51v387q0 138 -14 219.5t-45 155.5l401 76q-51 -199 -51 -547v-162q129 63 252 137v-266z" />
    <glyph glyph-name="Nacute" unicode="&#x143;" horiz-adv-x="1863"
d="M1206 2122q-93 -248 -278 -375h-129q81 173 102 375h305zM1673 1130v-583q0 -314 53 -547h-395q-22 78 -131 223l-676 891v-567q0 -186 15 -304.5t55 -242.5h-432q39 126 54 244.5t15 302.5v891q-60 77 -108.5 127t-114.5 104v8h494q23 -65 58 -122.5t116 -165.5
l704 -930v671q0 184 -15 302.5t-54 244.5h434q-40 -126 -56 -244.5t-16 -302.5z" />
    <glyph glyph-name="nacute" unicode="&#x144;" horiz-adv-x="1286"
d="M918 1671q-93 -247 -279 -375h-129q81 173 102 375h306zM100 0q33 86 46.5 160t13.5 168v522q0 162 -49 315h352q-12 -70 -12 -151v-82l182 215q67 37 172 37q150 0 245 -94.5t95 -280.5v-481q0 -95 13.5 -169t45.5 -159h-411q34 84 47.5 158t13.5 170v409
q0 86 -55 136.5t-148 50.5q-95 0 -200 -62v-534q0 -95 13.5 -169t45.5 -159h-410z" />
    <glyph glyph-name="uni0145" unicode="&#x145;" horiz-adv-x="1863"
d="M1673 1130v-583q0 -314 53 -547h-395q-22 78 -131 223l-676 891v-567q0 -186 15 -304.5t55 -242.5h-432q39 126 54 244.5t15 302.5v891q-60 77 -108.5 127t-114.5 104v8h494q23 -65 58 -122.5t116 -165.5l704 -930v671q0 184 -15 302.5t-54 244.5h434
q-40 -126 -56 -244.5t-16 -302.5zM807 -211q0 67 -31 127h314q-16 -99 -55.5 -180t-108.5 -174h-205q86 128 86 227z" />
    <glyph glyph-name="uni0146" unicode="&#x146;" horiz-adv-x="1286"
d="M100 0q33 86 46.5 160t13.5 168v522q0 162 -49 315h352q-12 -70 -12 -151v-82l182 215q67 37 172 37q150 0 245 -94.5t95 -280.5v-481q0 -95 13.5 -169t45.5 -159h-411q34 84 47.5 158t13.5 170v409q0 86 -55 136.5t-148 50.5q-95 0 -200 -62v-534q0 -95 13.5 -169
t45.5 -159h-410zM801 -84q-16 -99 -55.5 -180t-108.5 -174h-205q86 128 86 227q0 67 -31 127h314z" />
    <glyph glyph-name="Ncaron" unicode="&#x147;" horiz-adv-x="1863"
d="M1124 1747h-385q-43 218 -153 375h121q134 -89 225 -207q98 121 227 207h121q-111 -162 -156 -375zM1673 1130v-583q0 -314 53 -547h-395q-22 78 -131 223l-676 891v-567q0 -186 15 -304.5t55 -242.5h-432q39 126 54 244.5t15 302.5v891q-60 77 -108.5 127t-114.5 104v8
h494q23 -65 58 -122.5t116 -165.5l704 -930v671q0 184 -15 302.5t-54 244.5h434q-40 -126 -56 -244.5t-16 -302.5z" />
    <glyph glyph-name="ncaron" unicode="&#x148;" horiz-adv-x="1286"
d="M836 1296h-385q-43 216 -154 375h121q134 -89 225 -207q98 121 227 207h121q-110 -160 -155 -375zM793 0q34 84 47.5 158t13.5 170v409q0 86 -55 136.5t-148 50.5q-95 0 -200 -62v-534q0 -95 13.5 -169t45.5 -159h-410q33 86 46.5 160t13.5 168v522q0 162 -49 315h352
q-12 -70 -12 -151v-82l182 215q67 37 172 37q150 0 245 -94.5t95 -280.5v-481q0 -95 13.5 -169t45.5 -159h-411z" />
    <glyph glyph-name="napostrophe" unicode="&#x149;" horiz-adv-x="1644"
d="M557 1677q-26 -158 -87.5 -287t-168.5 -274h-260q139 218 139 389q0 95 -41 172h418zM459 0q32 85 45.5 159t13.5 169v522q0 162 -49 315h352q-12 -70 -12 -151v-82l182 215q67 37 172 37q150 0 245 -94.5t95 -280.5v-481q0 -94 13.5 -168t46.5 -160h-412q34 84 47.5 158
t13.5 170v409q0 86 -55 136.5t-147 50.5q-96 0 -201 -62v-534q0 -95 13.5 -169t45.5 -159h-409z" />
    <glyph glyph-name="Eng" unicode="&#x14a;" horiz-adv-x="1863"
d="M1311 1677h434q-40 -126 -56 -244.5t-16 -302.5v-915q0 -333 -132.5 -487t-399.5 -154q-67 0 -123 20v9q66 27 116 58t97.5 77.5t80.5 113.5t50 154l-838 1108v-567q0 -186 15 -304.5t55 -242.5h-432q39 126 54 244.5t15 302.5v891q-60 77 -108.5 127t-114.5 104v8h494
q23 -65 58 -122.5t116 -165.5l704 -930v671q0 184 -15 302.5t-54 244.5z" />
    <glyph glyph-name="eng" unicode="&#x14b;" horiz-adv-x="1286"
d="M688 -406q92 116 129 232.5t37 308.5v602q0 86 -55 136.5t-148 50.5q-95 0 -200 -62v-534q0 -95 13.5 -169t45.5 -159h-410q33 86 46.5 160t13.5 168v522q0 162 -49 315h352q-12 -70 -12 -151v-82l182 215q67 37 172 37q150 0 245 -94.5t95 -280.5v-674q0 -352 -182 -541
h-275z" />
    <glyph glyph-name="Omacron" unicode="&#x14c;" horiz-adv-x="1953"
d="M1335 2046v-244q-127 19 -286 19h-146q-160 0 -287 -19v244q107 -16 287 -16h146q179 0 286 16zM975 1698q146 0 280.5 -38t246 -111.5t194 -174.5t128.5 -234t46 -282q0 -189 -70 -353t-190.5 -278.5t-287.5 -180.5t-355 -66q-159 0 -300.5 46t-246.5 127.5
t-181.5 188.5t-115.5 232.5t-39 256.5q0 176 69 336t187.5 276.5t284 185.5t350.5 69zM918 1468q-101 0 -192 -39.5t-160 -110.5t-109.5 -178t-40.5 -233q0 -137 44.5 -263t122.5 -222t194 -153.5t251 -57.5q149 0 267 76.5t181.5 205.5t63.5 285q0 138 -48.5 265
t-131.5 220.5t-198.5 149t-243.5 55.5z" />
    <glyph glyph-name="omacron" unicode="&#x14d;" horiz-adv-x="1267"
d="M993 1616v-244q-127 19 -286 19h-146q-160 0 -287 -19v244q113 -17 287 -17h146q173 0 286 17zM645 1184q256 0 408.5 -157.5t152.5 -432.5q0 -169 -83.5 -310t-219 -219.5t-289.5 -78.5q-86 0 -166 21t-151 66.5t-123 111t-82.5 159.5t-30.5 207q0 139 50 259.5t132 201
t187 126.5t215 46zM612 983q-100 0 -163.5 -96.5t-63.5 -274.5q0 -184 75 -297.5t197 -128.5q104 15 166 117t62 270q0 178 -78 294t-195 116z" />
    <glyph glyph-name="Obreve" unicode="&#x14e;" horiz-adv-x="1953"
d="M1292 2109q0 -171 -80 -269.5t-235 -98.5q-158 0 -236.5 98t-78.5 270h139q0 -63 48 -103t128 -40t128 40t48 103h139zM975 1698q146 0 280.5 -38t246 -111.5t194 -174.5t128.5 -234t46 -282q0 -189 -70 -353t-190.5 -278.5t-287.5 -180.5t-355 -66q-159 0 -300.5 46
t-246.5 127.5t-181.5 188.5t-115.5 232.5t-39 256.5q0 176 69 336t187.5 276.5t284 185.5t350.5 69zM918 1468q-101 0 -192 -39.5t-160 -110.5t-109.5 -178t-40.5 -233q0 -137 44.5 -263t122.5 -222t194 -153.5t251 -57.5q149 0 267 76.5t181.5 205.5t63.5 285
q0 138 -48.5 265t-131.5 220.5t-198.5 149t-243.5 55.5z" />
    <glyph glyph-name="obreve" unicode="&#x14f;" horiz-adv-x="1267"
d="M950 1659q0 -171 -80 -270t-235 -99q-158 0 -237 98.5t-79 270.5h140q0 -63 48 -103t128 -40t128 40t48 103h139zM645 1184q256 0 408.5 -157.5t152.5 -432.5q0 -169 -83.5 -310t-219 -219.5t-289.5 -78.5q-86 0 -166 21t-151 66.5t-123 111t-82.5 159.5t-30.5 207
q0 139 50 259.5t132 201t187 126.5t215 46zM612 983q-100 0 -163.5 -96.5t-63.5 -274.5q0 -184 75 -297.5t197 -128.5q104 15 166 117t62 270q0 178 -78 294t-195 116z" />
    <glyph glyph-name="Ohungarumlaut" unicode="&#x150;" horiz-adv-x="1953"
d="M1061 2122q-90 -247 -273 -375h-118q85 168 106 375h285zM1466 2122q-90 -248 -272 -375h-119q86 171 107 375h284zM975 1698q146 0 280.5 -38t246 -111.5t194 -174.5t128.5 -234t46 -282q0 -189 -70 -353t-190.5 -278.5t-287.5 -180.5t-355 -66q-159 0 -300.5 46
t-246.5 127.5t-181.5 188.5t-115.5 232.5t-39 256.5q0 176 69 336t187.5 276.5t284 185.5t350.5 69zM918 1468q-101 0 -192 -39.5t-160 -110.5t-109.5 -178t-40.5 -233q0 -137 44.5 -263t122.5 -222t194 -153.5t251 -57.5q149 0 267 76.5t181.5 205.5t63.5 285
q0 138 -48.5 265t-131.5 220.5t-198.5 149t-243.5 55.5z" />
    <glyph glyph-name="ohungarumlaut" unicode="&#x151;" horiz-adv-x="1267"
d="M719 1671q-90 -247 -273 -375h-118q85 168 106 375h285zM1124 1671q-90 -248 -272 -375h-119q86 171 107 375h284zM645 1184q256 0 408.5 -157.5t152.5 -432.5q0 -169 -83.5 -310t-219 -219.5t-289.5 -78.5q-86 0 -166 21t-151 66.5t-123 111t-82.5 159.5t-30.5 207
q0 139 50 259.5t132 201t187 126.5t215 46zM612 983q-100 0 -163.5 -96.5t-63.5 -274.5q0 -184 75 -297.5t197 -128.5q104 15 166 117t62 270q0 178 -78 294t-195 116z" />
    <glyph glyph-name="OE" unicode="&#x152;" horiz-adv-x="2256"
d="M971 -14q-199 0 -368.5 69.5t-281.5 185t-174.5 264.5t-62.5 310q0 238 118.5 439t326.5 318.5t458 117.5q50 0 169 -6.5t179 -6.5h826l-146 -317q-177 104 -444 110v-512h534l-170 -301q-141 74 -364 86v-526q203 0 364 27t316 86l4 -4l-144 -326h-659q-74 0 -241 -7
t-240 -7zM1034 197q135 0 238 41v1198q-178 45 -342 45q-103 0 -196.5 -42t-164 -117t-112 -187t-41.5 -244q0 -182 75.5 -339.5t219 -256t323.5 -98.5z" />
    <glyph glyph-name="oe" unicode="&#x153;" horiz-adv-x="1875"
d="M1815 711q0 -79 -7 -144l-622 -16q14 -171 101 -243t235 -72q137 0 264 83l4 -4l-74 -272q-129 -57 -280 -57q-281 0 -422 178q-77 -84 -180.5 -131t-215.5 -47q-110 0 -208 34.5t-177 102t-125.5 178t-46.5 250.5q0 139 50.5 259.5t133.5 201t188.5 126.5t215.5 46
q245 0 391 -162q137 162 363 162q200 0 306 -126t106 -347zM1188 715h395q0 278 -197 278q-86 0 -136 -65.5t-62 -212.5zM662 186q105 15 169 117t64 270q0 178 -80.5 294t-198.5 116q-110 0 -170.5 -94.5t-60.5 -276.5q0 -184 76.5 -297.5t200.5 -128.5z" />
    <glyph glyph-name="Racute" unicode="&#x154;" horiz-adv-x="1370"
d="M958 2122q-93 -248 -278 -375h-129q81 173 102 375h305zM889 741q100 -177 212 -336t298 -397v-8h-262q-97 38 -232 201q-181 220 -413 569v-289q0 -152 16 -261t55 -220h-444q39 111 55 220t16 261v715q0 152 -16 261t-55 220h411q161 0 289.5 -38.5t209 -106t123 -155
t42.5 -187.5q0 -294 -305 -449zM492 801q193 45 293 138.5t100 215.5q0 153 -112.5 246.5t-280.5 93.5v-694z" />
    <glyph glyph-name="racute" unicode="&#x155;" horiz-adv-x="892"
d="M719 1671q-93 -247 -279 -375h-129q83 176 103 375h305zM100 0q33 86 46.5 160t13.5 168v522q0 162 -49 315h352q-12 -70 -12 -151v-140q92 169 170.5 237.5t175.5 68.5q45 0 82 -15l-41 -352q-94 61 -174 61q-111 0 -213 -92v-454q0 -95 13.5 -169t45.5 -159h-410z" />
    <glyph glyph-name="uni0156" unicode="&#x156;" horiz-adv-x="1370"
d="M889 741q100 -177 212 -336t298 -397v-8h-262q-97 38 -232 201q-181 220 -413 569v-289q0 -152 16 -261t55 -220h-444q39 111 55 220t16 261v715q0 152 -16 261t-55 220h411q161 0 289.5 -38.5t209 -106t123 -155t42.5 -187.5q0 -294 -305 -449zM492 801
q193 45 293 138.5t100 215.5q0 153 -112.5 246.5t-280.5 93.5v-694zM621 -211q0 67 -31 127h313q-16 -99 -55.5 -180t-108.5 -174h-204q86 128 86 227z" />
    <glyph glyph-name="uni0157" unicode="&#x157;" horiz-adv-x="892"
d="M100 0q33 86 46.5 160t13.5 168v522q0 162 -49 315h352q-12 -70 -12 -151v-140q92 169 170.5 237.5t175.5 68.5q45 0 82 -15l-41 -352q-94 61 -174 61q-111 0 -213 -92v-454q0 -95 13.5 -169t45.5 -159h-410zM461 -84q-16 -99 -55.5 -180t-108.5 -174h-205q86 128 86 227
q0 67 -31 127h314z" />
    <glyph glyph-name="Rcaron" unicode="&#x158;" horiz-adv-x="1370"
d="M877 1747h-385q-43 216 -154 375h121q134 -89 225 -207q98 121 227 207h121q-110 -160 -155 -375zM889 741q100 -177 212 -336t298 -397v-8h-262q-97 38 -232 201q-181 220 -413 569v-289q0 -152 16 -261t55 -220h-444q39 111 55 220t16 261v715q0 152 -16 261t-55 220
h411q161 0 289.5 -38.5t209 -106t123 -155t42.5 -187.5q0 -294 -305 -449zM492 801q193 45 293 138.5t100 215.5q0 153 -112.5 246.5t-280.5 93.5v-694z" />
    <glyph glyph-name="rcaron" unicode="&#x159;" horiz-adv-x="892"
d="M637 1296h-385q-43 216 -154 375h121q134 -89 225 -207q96 120 228 207h121q-111 -162 -156 -375zM797 1180q45 0 82 -15l-41 -352q-94 61 -174 61q-111 0 -213 -92v-454q0 -95 13.5 -169t45.5 -159h-410q33 86 46.5 160t13.5 168v522q0 162 -49 315h352
q-12 -70 -12 -151v-140q92 169 170.5 237.5t175.5 68.5z" />
    <glyph glyph-name="Sacute" unicode="&#x15a;" horiz-adv-x="1140"
d="M844 2122q-93 -247 -279 -375h-129q83 176 103 375h305zM481 -20q-203 0 -366 65v401h8q111 -134 192.5 -184.5t180.5 -50.5q97 0 161 60t64 149q0 80 -59.5 142.5t-233.5 164.5q-178 104 -251 215.5t-73 267.5q0 94 37.5 182t104 156t166 109t215.5 41q177 0 331 -74
v-303l-6 -2q-84 76 -157 106.5t-158 30.5q-103 0 -164 -58.5t-61 -140.5q0 -83 61.5 -156.5t216.5 -162.5q196 -112 276.5 -210.5t80.5 -254.5q0 -153 -77.5 -266.5t-204.5 -170t-284 -56.5z" />
    <glyph glyph-name="sacute" unicode="&#x15b;" horiz-adv-x="854"
d="M700 1671q-93 -248 -278 -375h-129q81 173 102 375h305zM377 -14q-151 0 -305 43l16 344h8q68 -116 125.5 -161.5t138.5 -45.5q63 0 97.5 31.5t34.5 89.5q0 59 -35.5 103t-141.5 114q-114 73 -160 149.5t-46 182.5q0 151 111 249.5t290 98.5q130 0 242 -35v-238h-9
q-64 53 -113 75t-102 22q-61 0 -94 -29.5t-33 -81.5q0 -54 37.5 -99.5t130.5 -105.5q117 -74 168 -152t51 -184q0 -178 -113 -274t-298 -96z" />
    <glyph glyph-name="Scircumflex" unicode="&#x15c;" horiz-adv-x="1140"
d="M571 1954q-98 -121 -227 -207h-121q111 162 156 375h385q43 -216 154 -375h-121q-136 90 -226 207zM690 938q196 -112 276.5 -210.5t80.5 -254.5q0 -153 -77.5 -266.5t-204.5 -170t-284 -56.5q-203 0 -366 65v401h8q111 -134 192.5 -184.5t180.5 -50.5q97 0 161 60
t64 149q0 80 -59.5 142.5t-233.5 164.5q-178 104 -251 215.5t-73 267.5q0 94 37.5 182t104 156t166 109t215.5 41q177 0 331 -74v-303l-6 -2q-84 76 -157 106.5t-158 30.5q-103 0 -164 -58.5t-61 -140.5q0 -83 61.5 -156.5t216.5 -162.5z" />
    <glyph glyph-name="scircumflex" unicode="&#x15d;" horiz-adv-x="854"
d="M428 1503q-98 -121 -227 -207h-121q111 162 156 375h385q43 -218 153 -375h-121q-134 89 -225 207zM569 692q117 -74 168 -152t51 -184q0 -178 -113 -274t-298 -96q-151 0 -305 43l16 344h8q68 -116 125.5 -161.5t138.5 -45.5q63 0 97.5 31.5t34.5 89.5q0 59 -35.5 103
t-141.5 114q-114 73 -160 149.5t-46 182.5q0 151 111 249.5t290 98.5q130 0 242 -35v-238h-9q-64 53 -113 75t-102 22q-61 0 -94 -29.5t-33 -81.5q0 -54 37.5 -99.5t130.5 -105.5z" />
    <glyph glyph-name="Scedilla" unicode="&#x15e;" horiz-adv-x="1140"
d="M1047 473q0 -138 -64.5 -245.5t-171.5 -167.5t-244 -76l-14 -50q95 -7 145 -60t50 -128q0 -84 -69.5 -138t-184.5 -54q-94 0 -185 24l45 121q42 -10 88 -10q117 0 117 67q0 30 -26 48t-72 18q-32 0 -68 -4l49 162q-180 6 -327 65v401h8q111 -134 192.5 -184.5
t180.5 -50.5q97 0 161 60t64 149q0 80 -59.5 142.5t-233.5 164.5q-178 104 -251 215.5t-73 267.5q0 94 37.5 182t104 156t166 109t215.5 41q177 0 331 -74v-303l-6 -2q-84 76 -157 106.5t-158 30.5q-103 0 -164 -58.5t-61 -140.5q0 -83 61.5 -156.5t216.5 -162.5
q196 -112 276.5 -210.5t80.5 -254.5z" />
    <glyph glyph-name="scedilla" unicode="&#x15f;" horiz-adv-x="854"
d="M788 356q0 -157 -89.5 -251t-241.5 -113l-17 -58q95 -7 145 -60t50 -128q0 -84 -69.5 -138t-184.5 -54q-93 0 -184 24l45 121q42 -10 88 -10q116 0 116 67q0 30 -26 48t-72 18q-31 0 -67 -4l51 168q-127 6 -260 43l16 344h8q68 -116 125.5 -161.5t138.5 -45.5
q63 0 97.5 31.5t34.5 89.5q0 59 -35.5 103t-141.5 114q-114 73 -160 149.5t-46 182.5q0 151 111 249.5t290 98.5q130 0 242 -35v-238h-9q-64 53 -113 75t-102 22q-61 0 -94 -29.5t-33 -81.5q0 -54 37.5 -99.5t130.5 -105.5q117 -74 168 -152t51 -184z" />
    <glyph glyph-name="Scaron" unicode="&#x160;" horiz-adv-x="1140"
d="M762 1747h-385q-43 216 -154 375h121q134 -89 225 -207q96 120 228 207h121q-111 -162 -156 -375zM690 938q196 -112 276.5 -210.5t80.5 -254.5q0 -153 -77.5 -266.5t-204.5 -170t-284 -56.5q-203 0 -366 65v401h8q111 -134 192.5 -184.5t180.5 -50.5q97 0 161 60t64 149
q0 80 -59.5 142.5t-233.5 164.5q-178 104 -251 215.5t-73 267.5q0 94 37.5 182t104 156t166 109t215.5 41q177 0 331 -74v-303l-6 -2q-84 76 -157 106.5t-158 30.5q-103 0 -164 -58.5t-61 -140.5q0 -83 61.5 -156.5t216.5 -162.5z" />
    <glyph glyph-name="scaron" unicode="&#x161;" horiz-adv-x="854"
d="M618 1296h-385q-43 218 -153 375h121q134 -89 225 -207q98 121 227 207h121q-111 -162 -156 -375zM569 692q117 -74 168 -152t51 -184q0 -178 -113 -274t-298 -96q-151 0 -305 43l16 344h8q68 -116 125.5 -161.5t138.5 -45.5q63 0 97.5 31.5t34.5 89.5q0 59 -35.5 103
t-141.5 114q-114 73 -160 149.5t-46 182.5q0 151 111 249.5t290 98.5q130 0 242 -35v-238h-9q-64 53 -113 75t-102 22q-61 0 -94 -29.5t-33 -81.5q0 -54 37.5 -99.5t130.5 -105.5z" />
    <glyph glyph-name="uni0162" unicode="&#x162;" horiz-adv-x="1337"
d="M430 0q40 110 56 218.5t16 262.5v973q-304 0 -537 -129l-4 4l102 348h1313l-141 -329q-175 103 -432 106v-973q0 -152 16 -261t55 -220h-444zM809 -84q-16 -99 -55.5 -180t-108.5 -174h-205q86 128 86 227q0 69 -30 127h313z" />
    <glyph glyph-name="uni0163" unicode="&#x163;" horiz-adv-x="819"
d="M463 1436v-271h309v-188h-309v-617q0 -75 35 -107t112 -32q92 0 189 31l4 -4l-162 -240q-90 -20 -172 -20q-156 0 -226.5 67.5t-70.5 220.5v701h-143v8l426 451h8zM602 -84q-16 -99 -55.5 -180t-108.5 -174h-205q86 128 86 227q0 69 -30 127h313z" />
    <glyph glyph-name="Tcaron" unicode="&#x164;" horiz-adv-x="1337"
d="M860 1747h-385q-43 218 -153 375h120q136 -90 226 -207q98 121 227 207h121q-111 -162 -156 -375zM1235 1348q-175 103 -432 106v-973q0 -152 16 -261t55 -220h-444q40 110 56 218.5t16 262.5v973q-304 0 -537 -129l-4 4l102 348h1313z" />
    <glyph glyph-name="tcaron" unicode="&#x165;" horiz-adv-x="819"
d="M885 1671q-73 -269 -223 -416h-119q44 173 57 416h285zM463 1436v-271h309v-188h-309v-617q0 -75 35 -107t112 -32q92 0 189 31l4 -4l-162 -240q-90 -20 -172 -20q-156 0 -226.5 67.5t-70.5 220.5v701h-143v8l426 451h8z" />
    <glyph glyph-name="Tbar" unicode="&#x166;" horiz-adv-x="1337"
d="M1235 1348q-175 103 -432 106v-520h6q165 0 276 20v-231q-100 18 -276 18h-6v-260q0 -152 16 -261t55 -220h-444q40 110 56 218.5t16 262.5v260h-6q-177 0 -277 -18v231q111 -20 277 -20h6v520q-304 0 -537 -129l-4 4l102 348h1313z" />
    <glyph glyph-name="tbar" unicode="&#x167;" horiz-adv-x="819"
d="M799 252l4 -4l-162 -240q-90 -20 -172 -20q-156 0 -226.5 67.5t-70.5 220.5v283q-49 -2 -121 -14v209q81 -13 121 -15v238h-143v8l426 451h8v-271h309v-188h-309v-244q159 0 276 21v-209q-100 18 -276 18v-203q0 -75 35 -107t112 -32q92 0 189 31z" />
    <glyph glyph-name="Utilde" unicode="&#x168;" horiz-adv-x="1648"
d="M1239 2097q0 -91 -28 -164t-89.5 -119.5t-148.5 -46.5q-47 0 -97 17t-85.5 37.5t-79 37.5t-78.5 17q-40 0 -63 -21.5t-23 -56.5q0 -21 2 -31h-178q0 141 68 235.5t198 94.5q59 0 121.5 -27t119 -54t99.5 -27q40 0 64 22t24 57q0 13 -4 29h178zM684 -14q-247 0 -378.5 169
t-131.5 494v547q0 152 -16.5 260.5t-55.5 220.5h445q-39 -112 -55.5 -220.5t-16.5 -260.5v-551q0 -200 86 -301.5t234 -101.5t255 101t107 261v592q0 152 -16.5 260.5t-55.5 220.5h445q-39 -112 -55.5 -220.5t-16.5 -260.5v-715q0 -152 16.5 -260.5t55.5 -220.5h-375
q14 55 14 168q-257 -182 -485 -182z" />
    <glyph glyph-name="utilde" unicode="&#x169;" horiz-adv-x="1269"
d="M1034 1647q0 -141 -69 -235.5t-197 -94.5q-54 0 -111 26t-108 52t-90 26q-40 0 -63 -21.5t-23 -56.5q0 -18 2 -26h-168q0 141 68 235.5t198 94.5q54 0 111 -26.5t108 -52.5t90 -26q40 0 64 22.5t24 57.5q0 9 -4 25h168zM453 -16q-117 0 -196.5 55.5t-115.5 155.5v645
q0 95 -13.5 168.5t-45.5 156.5h412q-34 -84 -48 -157t-14 -168v-385q0 -111 45 -161t139 -50q96 0 203 55v541q0 95 -13.5 168.5t-45.5 156.5h409q-32 -83 -45.5 -156.5t-13.5 -168.5v-512q0 -95 13.5 -169t45.5 -159h-366q16 71 16 231l-157 -204q-87 -43 -209 -43z" />
    <glyph glyph-name="Umacron" unicode="&#x16a;" horiz-adv-x="1648"
d="M1163 2046v-244q-127 19 -286 19h-146q-160 0 -287 -19v244q107 -16 287 -16h146q179 0 286 16zM684 -14q-247 0 -378.5 169t-131.5 494v547q0 152 -16.5 260.5t-55.5 220.5h445q-39 -112 -55.5 -220.5t-16.5 -260.5v-551q0 -200 86 -301.5t234 -101.5t255 101t107 261
v592q0 152 -16.5 260.5t-55.5 220.5h445q-39 -112 -55.5 -220.5t-16.5 -260.5v-715q0 -152 16.5 -260.5t55.5 -220.5h-375q14 55 14 168q-257 -182 -485 -182z" />
    <glyph glyph-name="umacron" unicode="&#x16b;" horiz-adv-x="1269"
d="M979 1616v-244q-127 19 -287 19h-145q-160 0 -287 -19v244q113 -17 287 -17h145q174 0 287 17zM453 -16q-117 0 -196.5 55.5t-115.5 155.5v645q0 95 -13.5 168.5t-45.5 156.5h412q-34 -84 -48 -157t-14 -168v-385q0 -111 45 -161t139 -50q96 0 203 55v541
q0 95 -13.5 168.5t-45.5 156.5h409q-32 -83 -45.5 -156.5t-13.5 -168.5v-512q0 -95 13.5 -169t45.5 -159h-366q16 71 16 231l-157 -204q-87 -43 -209 -43z" />
    <glyph glyph-name="Ubreve" unicode="&#x16c;" horiz-adv-x="1648"
d="M1120 2109q0 -171 -80 -269.5t-235 -98.5q-158 0 -237 98t-79 270h140q0 -63 48 -103t128 -40t128 40t48 103h139zM684 -14q-247 0 -378.5 169t-131.5 494v547q0 152 -16.5 260.5t-55.5 220.5h445q-39 -112 -55.5 -220.5t-16.5 -260.5v-551q0 -200 86 -301.5t234 -101.5
t255 101t107 261v592q0 152 -16.5 260.5t-55.5 220.5h445q-39 -112 -55.5 -220.5t-16.5 -260.5v-715q0 -152 16.5 -260.5t55.5 -220.5h-375q14 55 14 168q-257 -182 -485 -182z" />
    <glyph glyph-name="ubreve" unicode="&#x16d;" horiz-adv-x="1269"
d="M936 1659q0 -171 -80 -270t-235 -99q-158 0 -237 98.5t-79 270.5h139q0 -63 48.5 -103t128.5 -40t128 40t48 103h139zM453 -16q-117 0 -196.5 55.5t-115.5 155.5v645q0 95 -13.5 168.5t-45.5 156.5h412q-34 -84 -48 -157t-14 -168v-385q0 -111 45 -161t139 -50
q96 0 203 55v541q0 95 -13.5 168.5t-45.5 156.5h409q-32 -83 -45.5 -156.5t-13.5 -168.5v-512q0 -95 13.5 -169t45.5 -159h-366q16 71 16 231l-157 -204q-87 -43 -209 -43z" />
    <glyph glyph-name="Uring" unicode="&#x16e;" horiz-adv-x="1648"
d="M805 2154q91 0 155 -64.5t64 -156.5t-64 -155.5t-155 -63.5q-92 0 -156.5 63.5t-64.5 155.5t64.5 156.5t156.5 64.5zM805 2046q-47 0 -80 -33t-33 -80t33 -79.5t80 -32.5t80 32.5t33 79.5t-33 80t-80 33zM684 -14q-247 0 -378.5 169t-131.5 494v547q0 152 -16.5 260.5
t-55.5 220.5h445q-39 -112 -55.5 -220.5t-16.5 -260.5v-551q0 -200 86 -301.5t234 -101.5t255 101t107 261v592q0 152 -16.5 260.5t-55.5 220.5h445q-39 -112 -55.5 -220.5t-16.5 -260.5v-715q0 -152 16.5 -260.5t55.5 -220.5h-375q14 55 14 168q-257 -182 -485 -182z" />
    <glyph glyph-name="uring" unicode="&#x16f;" horiz-adv-x="1269"
d="M621 1704q91 0 155 -64.5t64 -156.5t-64 -155.5t-155 -63.5q-93 0 -157.5 63.5t-64.5 155.5t65 156.5t157 64.5zM621 1595q-47 0 -80 -32.5t-33 -79.5t33 -80t80 -33t79.5 33t32.5 80t-32.5 79.5t-79.5 32.5zM453 -16q-117 0 -196.5 55.5t-115.5 155.5v645
q0 95 -13.5 168.5t-45.5 156.5h412q-34 -84 -48 -157t-14 -168v-385q0 -111 45 -161t139 -50q96 0 203 55v541q0 95 -13.5 168.5t-45.5 156.5h409q-32 -83 -45.5 -156.5t-13.5 -168.5v-512q0 -95 13.5 -169t45.5 -159h-366q16 71 16 231l-157 -204q-87 -43 -209 -43z" />
    <glyph glyph-name="Uhungarumlaut" unicode="&#x170;" horiz-adv-x="1648"
d="M889 2122q-90 -247 -273 -375h-118q85 168 106 375h285zM1294 2122q-90 -248 -272 -375h-119q86 171 107 375h284zM684 -14q-247 0 -378.5 169t-131.5 494v547q0 152 -16.5 260.5t-55.5 220.5h445q-39 -112 -55.5 -220.5t-16.5 -260.5v-551q0 -200 86 -301.5t234 -101.5
t255 101t107 261v592q0 152 -16.5 260.5t-55.5 220.5h445q-39 -112 -55.5 -220.5t-16.5 -260.5v-715q0 -152 16.5 -260.5t55.5 -220.5h-375q14 55 14 168q-257 -182 -485 -182z" />
    <glyph glyph-name="uhungarumlaut" unicode="&#x171;" horiz-adv-x="1269"
d="M705 1671q-90 -247 -273 -375h-119q86 171 107 375h285zM1110 1671q-90 -248 -272 -375h-119q85 168 106 375h285zM453 -16q-117 0 -196.5 55.5t-115.5 155.5v645q0 95 -13.5 168.5t-45.5 156.5h412q-34 -84 -48 -157t-14 -168v-385q0 -111 45 -161t139 -50q96 0 203 55
v541q0 95 -13.5 168.5t-45.5 156.5h409q-32 -83 -45.5 -156.5t-13.5 -168.5v-512q0 -95 13.5 -169t45.5 -159h-366q16 71 16 231l-157 -204q-87 -43 -209 -43z" />
    <glyph glyph-name="Uogonek" unicode="&#x172;" horiz-adv-x="1648"
d="M1530 0h-98q-58 -89 -76.5 -126.5t-18.5 -68.5q0 -57 54 -57q45 0 92 21l-45 -189q-62 -18 -133 -18q-109 0 -169.5 48.5t-60.5 121.5q0 64 52 127.5t165 140.5h-137q14 55 14 168q-257 -182 -485 -182q-247 0 -378.5 169t-131.5 494v547q0 152 -16.5 260.5t-55.5 220.5
h445q-39 -112 -55.5 -220.5t-16.5 -260.5v-551q0 -200 86 -301.5t234 -101.5t255 101t107 261v592q0 152 -16.5 260.5t-55.5 220.5h445q-39 -112 -55.5 -220.5t-16.5 -260.5v-715q0 -152 16.5 -260.5t55.5 -220.5z" />
    <glyph glyph-name="uogonek" unicode="&#x173;" horiz-adv-x="1269"
d="M1169 0h-77q-58 -89 -76.5 -126.5t-18.5 -68.5q0 -57 54 -57q45 0 92 21l-45 -189q-62 -18 -133 -18q-109 0 -169.5 48.5t-60.5 121.5q0 64 52 127.5t165 140.5h-149q16 71 16 231l-157 -204q-87 -43 -209 -43q-117 0 -196.5 55.5t-115.5 155.5v645q0 95 -13.5 168.5
t-45.5 156.5h412q-34 -84 -48 -157t-14 -168v-385q0 -111 45 -161t139 -50q96 0 203 55v541q0 95 -13.5 168.5t-45.5 156.5h409q-32 -83 -45.5 -156.5t-13.5 -168.5v-512q0 -95 13.5 -169t45.5 -159z" />
    <glyph glyph-name="Wcircumflex" unicode="&#x174;" horiz-adv-x="2123"
d="M1065 1954q-98 -121 -227 -207h-121q110 160 155 375h385q43 -216 154 -375h-121q-134 89 -225 207zM1731 1677h426q-83 -162 -164 -452l-334 -1225h-287l-307 889l-309 -889h-287l-336 1225q-83 309 -168 452h430q-31 -179 43 -452l197 -723l424 1188h10l422 -1182
l197 717q74 276 43 452z" />
    <glyph glyph-name="wcircumflex" unicode="&#x175;" horiz-adv-x="1716"
d="M844 1503q-96 -120 -228 -207h-120q110 160 155 375h385q43 -216 154 -375h-121q-134 89 -225 207zM1384 1165h365v-6q-54 -70 -86.5 -141.5t-67.5 -196.5l-233 -821h-318l-200 723l-199 -723h-317l-195 778q-65 257 -166 381v6h445q-27 -73 -27 -149q0 -74 23 -162
l122 -489l220 800h268l227 -819l129 457q33 108 33 225q0 62 -23 137z" />
    <glyph glyph-name="Ycircumflex" unicode="&#x176;" horiz-adv-x="1304"
d="M653 1954q-98 -121 -227 -207h-121q111 162 156 375h385q43 -218 153 -375h-120q-136 90 -226 207zM948 1677h422v-6q-72 -75 -166 -244l-385 -677v-269q0 -152 16.5 -260.5t55.5 -220.5h-445q40 110 56 218.5t16 262.5v260l-383 666q-106 184 -201 264v6h461
q-4 -24 -4 -51q0 -93 66 -209l217 -381l217 387q63 115 63 213q0 26 -6 41z" />
    <glyph glyph-name="ycircumflex" unicode="&#x177;" horiz-adv-x="1081"
d="M543 1503q-96 -120 -228 -207h-120q110 160 155 375h385q43 -216 154 -375h-121q-134 89 -225 207zM729 1165h385v-6q-85 -123 -160 -340l-311 -864q-56 -156 -104.5 -242t-100.5 -119h-329v9q85 69 165.5 185t137.5 259l-287 789q-79 214 -158 323v6h436
q-22 -52 -22 -114q0 -69 29 -154l155 -434l148 407q35 99 35 187q0 49 -19 108z" />
    <glyph glyph-name="Ydieresis" unicode="&#x178;" horiz-adv-x="1304"
d="M647 2103q-17 -160 -112 -336h-240q80 178 86 336h266zM1094 2103q-17 -160 -115 -336h-238q79 181 84 336h269zM948 1677h422v-6q-72 -75 -166 -244l-385 -677v-269q0 -152 16.5 -260.5t55.5 -220.5h-445q40 110 56 218.5t16 262.5v260l-383 666q-106 184 -201 264v6
h461q-4 -24 -4 -51q0 -93 66 -209l217 -381l217 387q63 115 63 213q0 26 -6 41z" />
    <glyph glyph-name="Zacute" unicode="&#x179;" horiz-adv-x="1259"
d="M909 2122q-93 -248 -278 -375h-129q81 173 102 375h305zM1276 365l4 -5l-141 -360h-1119q124 203 364 693.5t351 766.5q-27 2 -82 2q-174 0 -342.5 -40.5t-267.5 -112.5l-4 4l129 364h1014q-124 -244 -337 -701t-339 -751q23 -2 67 -2q502 0 703 142z" />
    <glyph glyph-name="zacute" unicode="&#x17a;" horiz-adv-x="880"
d="M713 1671q-93 -247 -279 -375h-129q83 176 103 375h305zM860 303l4 -4l-86 -299h-760q147 260 271 575l149 377h-145q-170 0 -256 -80l-4 5l61 288h750q-128 -271 -252 -583l-146 -365h60q116 0 199.5 19t154.5 67z" />
    <glyph glyph-name="Zdotaccent" unicode="&#x17b;" horiz-adv-x="1259"
d="M641 1755q-79 0 -134.5 55t-55.5 132t55.5 131.5t134.5 54.5q76 0 129 -54.5t53 -131.5t-53 -132t-129 -55zM1276 365l4 -5l-141 -360h-1119q124 203 364 693.5t351 766.5q-27 2 -82 2q-174 0 -342.5 -40.5t-267.5 -112.5l-4 4l129 364h1014q-124 -244 -337 -701
t-339 -751q23 -2 67 -2q502 0 703 142z" />
    <glyph glyph-name="zdotaccent" unicode="&#x17c;" horiz-adv-x="880"
d="M444 1305q-79 0 -134.5 54.5t-55.5 131.5t55.5 131.5t134.5 54.5q76 0 129.5 -54.5t53.5 -131.5t-53.5 -131.5t-129.5 -54.5zM860 303l4 -4l-86 -299h-760q147 260 271 575l149 377h-145q-170 0 -256 -80l-4 5l61 288h750q-128 -271 -252 -583l-146 -365h60
q116 0 199.5 19t154.5 67z" />
    <glyph glyph-name="Zcaron" unicode="&#x17d;" horiz-adv-x="1259"
d="M827 1747h-385q-43 218 -153 375h121q134 -89 225 -207q98 121 227 207h121q-111 -162 -156 -375zM1276 365l4 -5l-141 -360h-1119q124 203 364 693.5t351 766.5q-27 2 -82 2q-174 0 -342.5 -40.5t-267.5 -112.5l-4 4l129 364h1014q-124 -244 -337 -701t-339 -751
q23 -2 67 -2q502 0 703 142z" />
    <glyph glyph-name="zcaron" unicode="&#x17e;" horiz-adv-x="880"
d="M631 1296h-385q-43 216 -154 375h121q134 -89 225 -207q96 120 228 207h120q-110 -160 -155 -375zM860 303l4 -4l-86 -299h-760q147 260 271 575l149 377h-145q-170 0 -256 -80l-4 5l61 288h750q-128 -271 -252 -583l-146 -365h60q116 0 199.5 19t154.5 67z" />
    <glyph glyph-name="longs" unicode="&#x17f;" horiz-adv-x="755"
d="M133 0q33 86 46.5 160t13.5 168v649h-166v8l166 191v92q0 197 116.5 308.5t306.5 111.5q125 0 256 -31l-36 -287l-7 -2q-68 66 -120 95.5t-103 29.5q-123 0 -123 -176v-989q0 -94 13.5 -168t46.5 -160h-410z" />
    <glyph glyph-name="uni018F" unicode="&#x18f;" horiz-adv-x="1691"
d="M760 1698q188 0 347 -64t268.5 -175t171 -264.5t61.5 -328.5q0 -201 -65.5 -369t-178.5 -280.5t-264.5 -174.5t-323.5 -62q-331 0 -511.5 203t-180.5 583q0 109 14 197h1170q-34 220 -182.5 358.5t-358.5 138.5q-148 0 -276 -50.5t-215 -131.5l-7 2l37 307
q205 111 494 111zM803 227q179 0 306 135.5t159 356.5h-856q3 -241 104.5 -366.5t286.5 -125.5z" />
    <glyph glyph-name="florin" unicode="&#x192;" horiz-adv-x="1136"
d="M66 -176q-93 0 -175 29l82 235h7q14 -37 41.5 -59.5t62.5 -22.5q59 0 95.5 46t58.5 145l159 759h-164v7l203 174l27 131q48 227 171.5 328.5t330.5 101.5q109 0 184 -35l-78 -231h-6q-53 88 -125 88q-59 0 -101.5 -51t-64.5 -150l-37 -178h150q62 0 121 10l-45 -205
q-51 10 -105 10h-160l-147 -702q-46 -219 -164.5 -324.5t-320.5 -105.5z" />
    <glyph glyph-name="Aringacute" unicode="&#x1fa;" horiz-adv-x="1660"
d="M1511 387q53 -124 103 -208t123 -173v-6h-465q6 21 6 55q0 53 -18.5 118.5t-63.5 174.5l-37 90h-655l-43 -96q-82 -188 -82 -287q0 -27 4 -55h-459v6q120 141 234 387l403 871q116 248 156 395q-84 64 -84 174q0 62 32.5 114.5t86.5 80.5q48 118 61 225h305
q-60 -138 -145 -236q46 -30 73 -78.5t27 -105.5q0 -103 -82 -172q39 -143 148 -397zM854 1946q-47 0 -80 -33t-33 -80t33 -80t80 -33t80 33t33 80t-33 80t-80 33zM612 682h449l-215 526z" />
    <glyph glyph-name="aringacute" unicode="&#x1fb;" horiz-adv-x="1036"
d="M520 1264q-92 0 -156.5 63.5t-64.5 155.5q0 63 32.5 115.5t86.5 80.5q46 107 61 224h305q-63 -142 -145 -234q45 -30 72.5 -79.5t27.5 -106.5q0 -92 -64 -155.5t-155 -63.5zM520 1595q-47 0 -79.5 -32.5t-32.5 -79.5t32.5 -80t79.5 -33t80 33t33 80t-33 79.5t-80 32.5z
M965 0h-357v133q-90 -53 -184 -137q-10 -2 -41 -2q-164 0 -256 77.5t-92 213.5q0 99 62.5 172t224.5 149q129 62 286 125v27q0 94 -51.5 144t-142.5 50q-140 0 -281 -88l-4 4l86 269q120 47 279 47q201 0 303 -96t102 -275v-485q0 -102 15 -174.5t51 -153.5zM553 197
q34 0 55 6v311h-237q-29 -69 -29 -137q0 -93 50.5 -136.5t160.5 -43.5z" />
    <glyph glyph-name="AEacute" unicode="&#x1fc;" horiz-adv-x="2043"
d="M1483 2122q-93 -247 -279 -375h-129q83 176 103 375h305zM2038 330l4 -4l-141 -326h-914q40 110 56 218.5t16 262.5v193h-432l-113 -207q-78 -146 -107 -254.5t-24 -212.5h-483v6q123 150 213 318l587 1085q85 157 101 268h1147l-144 -317q-177 104 -444 110v-514h532
l-168 -313q-150 86 -364 92v-518q202 0 362.5 27t315.5 86zM752 905h307v568z" />
    <glyph glyph-name="aeacute" unicode="&#x1fd;" horiz-adv-x="1589"
d="M1094 1671q-93 -247 -279 -375h-129q81 173 102 375h306zM1528 711q0 -89 -6 -144l-623 -16q7 -88 34.5 -150t72.5 -97.5t101 -51.5t128 -16q137 0 264 83l4 -4l-73 -272q-129 -57 -281 -57q-310 0 -447 213q-143 -98 -258 -203q-16 -2 -61 -2q-164 0 -256 77.5
t-92 213.5q0 98 62 169.5t225 147.5q103 50 286 127v29q0 94 -51.5 144t-142.5 50q-140 0 -281 -88l-4 4l86 269q120 47 279 47q212 0 307 -115q127 115 315 115q200 0 306 -126t106 -347zM901 715h395q0 278 -196 278q-177 0 -199 -278zM608 203v311h-237q-29 -69 -29 -137
q0 -93 50.5 -136.5t160.5 -43.5q34 0 55 6z" />
    <glyph glyph-name="Oslashacute" unicode="&#x1fe;" horiz-adv-x="1953"
d="M1249 2122q-93 -248 -278 -375h-129q81 173 102 375h305zM1571 1499q141 -114 220 -278t79 -363q0 -189 -70 -353t-190.5 -278.5t-287.5 -180.5t-355 -66q-199 0 -371 71q-39 -70 -76 -164l-303 86q64 75 168 209q-144 121 -222.5 291.5t-78.5 357.5q0 176 69 336
t187.5 276.5t284 185.5t350.5 69q204 0 381 -74q51 94 76 168l305 -86q-127 -155 -166 -207zM416 907q0 -130 39.5 -252t113.5 -217q1 2 24 34.5t34 49.5l561 836l20 31q-133 79 -290 79q-101 0 -192 -39.5t-160 -110.5t-109.5 -178t-40.5 -233zM1028 211q149 0 267 76.5
t181.5 205.5t63.5 285q0 261 -160 461q-3 -4 -53 -80l-561 -837q-22 -33 -23 -35q133 -76 285 -76z" />
    <glyph glyph-name="oslashacute" unicode="&#x1ff;" horiz-adv-x="1267"
d="M907 1671q-93 -248 -278 -375h-129q81 173 102 375h305zM1022 1057q89 -76 136.5 -194t47.5 -269q0 -169 -83.5 -310t-219 -219.5t-289.5 -78.5q-102 0 -194 30q-23 -57 -37 -102l-238 51q88 122 105 146q-189 154 -189 440q0 139 50 259.5t132 201t187 126.5t215 46
t205 -31q22 47 37 98l237 -51q-71 -94 -102 -143zM610 993q-103 0 -170 -99t-67 -280q0 -141 41 -237q6 8 14 24l315 547q-64 45 -133 45zM657 176q108 15 173 119.5t65 277.5q0 125 -39 220l-321 -560q-1 -1 -2.5 -4t-2.5 -4q54 -40 127 -49z" />
    <glyph glyph-name="uni0218" unicode="&#x218;" horiz-adv-x="1140"
d="M481 -20q-203 0 -366 65v401h8q111 -134 192.5 -184.5t180.5 -50.5q97 0 161 60t64 149q0 80 -59.5 142.5t-233.5 164.5q-178 104 -251 215.5t-73 267.5q0 94 37.5 182t104 156t166 109t215.5 41q177 0 331 -74v-303l-6 -2q-84 76 -157 106.5t-158 30.5
q-103 0 -164 -58.5t-61 -140.5q0 -83 61.5 -156.5t216.5 -162.5q196 -112 276.5 -210.5t80.5 -254.5q0 -153 -77.5 -266.5t-204.5 -170t-284 -56.5zM676 -84q-16 -99 -55.5 -180t-108.5 -174h-205q86 128 86 227q0 67 -31 127h314z" />
    <glyph glyph-name="uni0219" unicode="&#x219;" horiz-adv-x="854"
d="M377 -14q-151 0 -305 43l16 344h8q68 -116 125.5 -161.5t138.5 -45.5q63 0 97.5 31.5t34.5 89.5q0 59 -35.5 103t-141.5 114q-114 73 -160 149.5t-46 182.5q0 151 111 249.5t290 98.5q130 0 242 -35v-238h-9q-64 53 -113 75t-102 22q-61 0 -94 -29.5t-33 -81.5
q0 -54 37.5 -99.5t130.5 -105.5q117 -74 168 -152t51 -184q0 -178 -113 -274t-298 -96zM563 -84q-16 -99 -55.5 -180t-108.5 -174h-204q86 128 86 227q0 67 -31 127h313z" />
    <glyph glyph-name="uni021A" unicode="&#x21a;" horiz-adv-x="1337"
d="M430 0q40 110 56 218.5t16 262.5v973q-304 0 -537 -129l-4 4l102 348h1313l-141 -329q-175 103 -432 106v-973q0 -152 16 -261t55 -220h-444zM809 -84q-16 -99 -55.5 -180t-108.5 -174h-205q86 128 86 227q0 69 -30 127h313z" />
    <glyph glyph-name="uni021B" unicode="&#x21b;" horiz-adv-x="819"
d="M463 1436v-271h309v-188h-309v-617q0 -75 35 -107t112 -32q92 0 189 31l4 -4l-162 -240q-90 -20 -172 -20q-156 0 -226.5 67.5t-70.5 220.5v701h-143v8l426 451h8zM602 -84q-16 -99 -55.5 -180t-108.5 -174h-205q86 128 86 227q0 69 -30 127h313z" />
    <glyph glyph-name="uni0237" unicode="&#x237;" horiz-adv-x="604"
d="M-10 -406q92 116 129 232.5t37 308.5v705q0 94 -13.5 167.5t-46.5 157.5h410q-33 -84 -46.5 -157.5t-13.5 -167.5v-705q0 -352 -182 -541h-274z" />
    <glyph glyph-name="uni0259" unicode="&#x259;" horiz-adv-x="1048"
d="M451 1180q251 0 393.5 -147.5t142.5 -436.5q0 -144 -41.5 -262t-113.5 -194t-166.5 -117t-202.5 -41q-202 0 -308 127t-106 348q0 134 14 211l611 16q-22 146 -99.5 208t-205.5 62q-136 0 -265 -82l-4 5l68 245q134 58 283 58zM485 180q186 0 197 340h-365q-2 -23 -2 -61
q0 -279 170 -279z" />
    <glyph glyph-name="uni02BC" unicode="&#x2bc;" horiz-adv-x="612"
d="M557 1677q-26 -158 -87.5 -287t-168.5 -274h-260q139 218 139 389q0 95 -41 172h418z" />
    <glyph glyph-name="circumflex" unicode="&#x2c6;" horiz-adv-x="899"
d="M643 1671q43 -216 154 -375h-121q-134 89 -225 207q-96 -120 -228 -207h-121q111 162 156 375h385z" />
    <glyph glyph-name="caron" unicode="&#x2c7;" horiz-adv-x="899"
d="M676 1671h121q-111 -162 -156 -375h-385q-43 216 -154 375h121q136 -90 226 -207q98 121 227 207z" />
    <glyph glyph-name="uni02C9" unicode="&#x2c9;" horiz-adv-x="923"
d="M821 1616v-244q-127 19 -286 19h-146q-160 0 -287 -19v244q113 -17 287 -17h146q173 0 286 17z" />
    <glyph glyph-name="breve" unicode="&#x2d8;" horiz-adv-x="835"
d="M733 1659q0 -171 -80 -270t-235 -99q-158 0 -237 98.5t-79 270.5h140q0 -63 48 -103t128 -40t128 40t48 103h139z" />
    <glyph glyph-name="dotaccent" unicode="&#x2d9;" horiz-adv-x="577"
d="M293 1677q76 0 129 -54.5t53 -131.5t-53 -131.5t-129 -54.5q-79 0 -135 54.5t-56 131.5t56 131.5t135 54.5z" />
    <glyph glyph-name="ring" unicode="&#x2da;" horiz-adv-x="645"
d="M324 1704q91 0 155 -64.5t64 -156.5t-64 -155.5t-155 -63.5q-93 0 -157.5 63.5t-64.5 155.5t65 156.5t157 64.5zM324 1595q-47 0 -80 -32.5t-33 -79.5t33 -80t80 -33t79.5 33t32.5 80t-32.5 79.5t-79.5 32.5z" />
    <glyph glyph-name="ogonek" unicode="&#x2db;" horiz-adv-x="612"
d="M332 -438q-109 0 -169.5 48.5t-60.5 121.5q0 68 60 137t194 156l103 -25q-58 -88 -76 -126t-18 -69q0 -57 53 -57q46 0 92 21l-45 -189q-61 -18 -133 -18z" />
    <glyph glyph-name="tilde" unicode="&#x2dc;" horiz-adv-x="1032"
d="M930 1647q0 -141 -69 -235.5t-197 -94.5q-54 0 -111 26t-108.5 52t-90.5 26q-40 0 -63 -21.5t-23 -56.5q0 -18 2 -26h-168q0 141 68.5 235.5t198.5 94.5q54 0 111 -26.5t108 -52.5t90 -26q40 0 64 22.5t24 57.5q0 9 -4 25h168z" />
    <glyph glyph-name="hungarumlaut" unicode="&#x2dd;" horiz-adv-x="1001"
d="M494 1671q-90 -247 -273 -375h-119q86 171 107 375h285zM899 1671q-90 -248 -272 -375h-119q85 168 106 375h285z" />
    <glyph glyph-name="gravecomb" unicode="&#x300;"
d="M-510 1671h305q20 -199 103 -375h-129q-186 128 -279 375z" />
    <glyph glyph-name="acutecomb" unicode="&#x301;"
d="M-102 1671q-93 -247 -279 -375h-129q81 173 102 375h306z" />
    <glyph glyph-name="uni0302" unicode="&#x302;"
d="M-256 1671q43 -216 154 -375h-121q-136 90 -226 207q-98 -121 -227 -207h-121q111 162 156 375h385z" />
    <glyph glyph-name="tildecomb" unicode="&#x303;"
d="M-102 1647q0 -91 -28.5 -164t-90 -119.5t-148.5 -46.5q-54 0 -111 26t-108 52t-90 26q-40 0 -63 -21.5t-23 -56.5q0 -18 2 -26h-168q0 141 68 235.5t198 94.5q43 0 88.5 -16.5t78 -36t72 -36t71.5 -16.5q40 0 64 22.5t24 57.5q0 9 -4 25h168z" />
    <glyph glyph-name="uni0304" unicode="&#x304;"
d="M-102 1616v-244q-127 19 -287 19h-146q-159 0 -286 -19v244q113 -17 286 -17h146q174 0 287 17z" />
    <glyph glyph-name="uni0306" unicode="&#x306;"
d="M-102 1659q0 -171 -80 -270t-236 -99q-158 0 -236.5 98.5t-78.5 270.5h139q0 -63 48 -103t128 -40t128 40t48 103h140z" />
    <glyph glyph-name="uni0307" unicode="&#x307;"
d="M-285 1677q76 0 129.5 -54.5t53.5 -131.5t-53.5 -131.5t-129.5 -54.5q-79 0 -134.5 54.5t-55.5 131.5t55.5 131.5t134.5 54.5z" />
    <glyph glyph-name="uni0308" unicode="&#x308;"
d="M-528 1653q-17 -158 -113 -336h-240q80 178 86 336h267zM-102 1653q-17 -160 -115 -336h-238q79 181 84 336h269z" />
    <glyph glyph-name="uni030A" unicode="&#x30a;"
d="M-322 1704q91 0 155.5 -64.5t64.5 -156.5t-64.5 -155.5t-155.5 -63.5q-92 0 -156.5 63.5t-64.5 155.5t64.5 156.5t156.5 64.5zM-322 1595q-47 0 -79.5 -32.5t-32.5 -79.5t32.5 -80t79.5 -33t80 33t33 80t-33 79.5t-80 32.5z" />
    <glyph glyph-name="uni030B" unicode="&#x30b;"
d="M-508 1671q-90 -248 -272 -375h-119q85 168 106 375h285zM-102 1671q-90 -247 -273 -375h-119q86 171 107 375h285z" />
    <glyph glyph-name="uni030C" unicode="&#x30c;"
d="M-223 1671h121q-111 -162 -156 -375h-385q-43 216 -154 375h121q134 -89 225 -207q96 120 228 207z" />
    <glyph glyph-name="uni0312" unicode="&#x312;"
d="M-471 1276q18 100 57 181.5t107 172.5h205q-84 -130 -84 -227q0 -75 30 -127h-315z" />
    <glyph glyph-name="uni0313" unicode="&#x313;"
d="M-102 1671q-73 -268 -224 -416h-118q44 173 57 416h285z" />
    <glyph glyph-name="uni0326" unicode="&#x326;"
d="M-102 -84q-16 -99 -55.5 -180t-108.5 -174h-205q86 128 86 227q0 67 -31 127h314z" />
    <glyph glyph-name="uni0327" unicode="&#x327;"
d="M-297 -66q95 -7 145 -60t50 -128q0 -84 -69.5 -138t-184.5 -54q-94 0 -185 24l45 121q42 -10 88 -10q117 0 117 67q0 30 -26 48t-72 18q-32 0 -68 -4l60 192h123z" />
    <glyph glyph-name="uni0328" unicode="&#x328;"
d="M-281 -438q-109 0 -169 48.5t-60 121.5q0 68 60 137t194 156l102 -25q-58 -88 -76 -126t-18 -69q0 -57 53 -57q47 0 93 21l-45 -189q-61 -18 -134 -18z" />
    <glyph glyph-name="uni0337" unicode="&#x337;"
d="M-817 537v266q101 17 282 96l56 25q225 101 377 196v-266q-96 -13 -283 -94l-53 -25q-220 -99 -379 -198z" />
    <glyph glyph-name="uni0338" unicode="&#x338;"
d="M-844 -125l-239 51q139 184 260 396l338 585q110 190 143 305l240 -51q-139 -182 -260 -393l-338 -586q-111 -191 -144 -307z" />
    <glyph glyph-name="uni0374" unicode="&#x374;" horiz-adv-x="540"
d="M500 1677q-112 -352 -269 -583h-190q81 269 102 583h357z" />
    <glyph glyph-name="uni0375" unicode="&#x375;" horiz-adv-x="540"
d="M41 -340q115 363 268 584h191q-82 -269 -103 -584h-356z" />
    <glyph glyph-name="uni037E" unicode="&#x37e;" horiz-adv-x="643"
d="M334 1186q97 0 156 -59t59 -156t-59 -156t-156 -59t-156 59t-59 156t59 156t156 59zM549 408q-32 -192 -119 -368t-254 -421h-209q189 382 189 623q0 84 -27 166h420z" />
    <glyph glyph-name="tonos" unicode="&#x384;" horiz-adv-x="618"
d="M516 1677q-21 -186 -137 -381h-277q80 200 86 381h328z" />
    <glyph glyph-name="dieresistonos" unicode="&#x385;" horiz-adv-x="1159"
d="M752 1677q-20 -184 -138 -381h-198q80 200 86 381h250zM426 1618q-15 -134 -100 -277h-224q68 146 74 277h250zM1057 1618q-14 -132 -101 -277h-223q68 146 74 277h250z" />
    <glyph glyph-name="Alphatonos" unicode="&#x386;" horiz-adv-x="1640"
d="M1511 387q53 -124 103 -208t123 -173v-6h-465q6 21 6 55q0 53 -18.5 118.5t-63.5 174.5l-37 90h-655l-43 -96q-82 -188 -82 -287q0 -27 4 -55h-459v6q120 141 234 387l403 871q121 258 162 413h264q36 -143 152 -413zM473 1677q-21 -219 -139 -442h-215q80 231 86 442
h268zM612 682h449l-215 526z" />
    <glyph glyph-name="anoteleia" unicode="&#x387;" horiz-adv-x="581"
d="M291 1362q97 0 156 -59t59 -156t-59 -156t-156 -59t-156 59t-59 156t59 156t156 59z" />
    <glyph glyph-name="Epsilontonos" unicode="&#x388;" horiz-adv-x="1419"
d="M307 1677q-21 -219 -139 -442h-215q80 231 86 442h268zM365 0q39 111 55 220t16 261v715q0 152 -16 261t-55 220h962l-145 -317q-177 104 -445 110v-507h533l-170 -289q-146 65 -363 74v-531q204 0 363.5 29t312.5 94l4 -4l-139 -336h-913z" />
    <glyph glyph-name="Etatonos" unicode="&#x389;" horiz-adv-x="1908"
d="M-47 1235q80 231 86 442h268q-21 -219 -139 -442h-215zM1720 1196v-715q0 -152 16.5 -260.5t55.5 -220.5h-444q39 111 55 220t16 261v238h-682v-238q0 -152 16.5 -260.5t55.5 -220.5h-444q39 111 55 220t16 261v715q0 152 -16 261t-55 220h444q-39 -112 -55.5 -220.5
t-16.5 -260.5v-233h682v233q0 152 -16 261t-55 220h444q-39 -112 -55.5 -220.5t-16.5 -260.5z" />
    <glyph glyph-name="Iotatonos" unicode="&#x38a;" horiz-adv-x="925"
d="M307 1677q-21 -219 -139 -442h-215q80 231 86 442h268zM365 0q39 111 55 220t16 261v715q0 152 -16 261t-55 220h444q-39 -112 -55.5 -220.5t-16.5 -260.5v-715q0 -152 16.5 -260.5t55.5 -220.5h-444z" />
    <glyph glyph-name="Omicrontonos" unicode="&#x38c;" horiz-adv-x="2115"
d="M1139 1698q146 0 280.5 -38t246 -111.5t194 -174.5t128.5 -234t46 -282q0 -188 -70 -352.5t-191 -279t-288 -180.5t-355 -66q-198 0 -366.5 71.5t-280 190t-173.5 271.5t-62 318q0 176 69 336t187.5 276.5t284 185.5t350.5 69zM307 1677q-21 -219 -139 -442h-215
q80 231 86 442h268zM1081 1468q-101 0 -192 -39.5t-159.5 -110.5t-109 -178t-40.5 -233q0 -137 44.5 -263t122.5 -222t194 -153.5t251 -57.5q149 0 267 76.5t181.5 205.5t63.5 285q0 184 -82.5 343t-226.5 253t-314 94z" />
    <glyph glyph-name="Upsilontonos" unicode="&#x38e;" horiz-adv-x="1693"
d="M-47 1235q80 231 86 442h268q-21 -219 -139 -442h-215zM1337 1677h422v-6q-72 -75 -166 -244l-385 -677v-269q0 -152 16.5 -260.5t55.5 -220.5h-444q39 109 55 217.5t16 263.5v260l-383 666q-107 186 -200 264v6h460q-4 -24 -4 -51q0 -93 66 -209l217 -381l217 387
q63 115 63 213q0 26 -6 41z" />
    <glyph glyph-name="Omegatonos" unicode="&#x38f;" horiz-adv-x="1978"
d="M1948 393l4 -4l-148 -389h-676l58 295q183 158 270.5 309.5t87.5 319.5q0 148 -67.5 274t-185 200.5t-257.5 74.5q-175 0 -294 -123.5t-119 -329.5q0 -199 102.5 -386t273.5 -339l-57 -295h-647l-70 369l4 4q215 -131 535 -131h12q-485 296 -485 721q0 149 61.5 284.5
t166.5 234.5t253 157.5t313 58.5q162 0 306.5 -50.5t252 -140.5t170 -222.5t62.5 -287.5q0 -459 -471 -751q297 17 545 147zM39 1677h268q-21 -219 -139 -442h-215q80 231 86 442z" />
    <glyph glyph-name="iotadieresistonos" unicode="&#x390;" horiz-adv-x="669"
d="M528 1677q-21 -186 -137 -381h-198q80 200 86 381h249zM203 1618q-14 -132 -101 -277h-223q68 146 74 277h250zM834 1618q-14 -132 -101 -277h-223q68 146 74 277h250zM428 -12q-150 0 -218.5 67.5t-68.5 218.5v566q0 95 -13.5 168.5t-45.5 156.5h410
q-33 -84 -46.5 -157.5t-13.5 -167.5v-482q0 -75 31 -108t96 -33q71 0 156 27l4 -4l-121 -232q-79 -20 -170 -20z" />
    <glyph glyph-name="Alpha" unicode="&#x391;" horiz-adv-x="1660"
d="M1511 387q53 -124 103 -208t123 -173v-6h-465q6 21 6 55q0 53 -18.5 118.5t-63.5 174.5l-37 90h-655l-43 -96q-82 -188 -82 -287q0 -27 4 -55h-459v6q120 141 234 387l403 871q121 258 162 413h264q36 -143 152 -413zM612 682h449l-215 526z" />
    <glyph glyph-name="Beta" unicode="&#x392;" horiz-adv-x="1280"
d="M901 899q153 -90 225 -189.5t72 -232.5q0 -139 -84.5 -249t-225.5 -169t-310 -59h-459q39 111 55 220t16 261v715q0 152 -16 261t-55 220h454q243 0 393 -122t150 -312q0 -101 -56.5 -189.5t-158.5 -154.5zM492 1509v-606q147 30 233 121t86 201q0 118 -94 201t-225 83z
M492 170q179 0 287 90t108 221q0 139 -110 249t-285 140v-700z" />
    <glyph glyph-name="Gamma" unicode="&#x393;" horiz-adv-x="1081"
d="M119 0q39 111 55 220t16 261v715q0 152 -16 261t-55 220h1003l-139 -319q-200 93 -491 96v-973q0 -152 16 -261t55 -220h-444z" />
    <glyph glyph-name="uni0394" unicode="&#x394;" horiz-adv-x="1691"
d="M1528 387q53 -126 104 -210t125 -171v-6h-1823v6q65 71 121 159.5t119 227.5l401 871q121 258 162 413h264q42 -159 152 -413zM414 283h823l-393 964z" />
    <glyph glyph-name="Epsilon" unicode="&#x395;" horiz-adv-x="1175"
d="M119 0q39 111 55 220t16 261v715q0 152 -16 261t-55 220h962l-145 -317q-177 104 -444 110v-507h532l-170 -289q-146 65 -362 74v-531q203 0 362.5 29t312.5 94l4 -4l-139 -336h-913z" />
    <glyph glyph-name="Zeta" unicode="&#x396;" horiz-adv-x="1259"
d="M1276 365l4 -5l-141 -360h-1119q124 203 364 693.5t351 766.5q-27 2 -82 2q-174 0 -342.5 -40.5t-267.5 -112.5l-4 4l129 364h1014q-124 -244 -337 -701t-339 -751q23 -2 67 -2q502 0 703 142z" />
    <glyph glyph-name="Eta" unicode="&#x397;" horiz-adv-x="1665"
d="M1475 1196v-715q0 -152 16 -261t55 -220h-444q39 112 55.5 220.5t16.5 260.5v238h-682v-238q0 -152 16 -261t55 -220h-444q39 111 55 220t16 261v715q0 152 -16 261t-55 220h444q-39 -111 -55 -220t-16 -261v-233h682v233q0 152 -16.5 260.5t-55.5 220.5h444
q-39 -111 -55 -220t-16 -261z" />
    <glyph glyph-name="Theta" unicode="&#x398;" horiz-adv-x="1953"
d="M975 1698q146 0 280.5 -38t246 -111.5t194 -174.5t128.5 -234t46 -282q0 -189 -70 -353t-190.5 -278.5t-287.5 -180.5t-355 -66q-159 0 -300.5 46t-246.5 127.5t-181.5 188.5t-115.5 232.5t-39 256.5q0 176 69 336t187.5 276.5t284 185.5t350.5 69zM918 1468
q-101 0 -192 -39.5t-160 -110.5t-109.5 -178t-40.5 -233q0 -137 44.5 -263t122.5 -222t194 -153.5t251 -57.5q149 0 267 76.5t181.5 205.5t63.5 285q0 138 -48.5 265t-131.5 220.5t-198.5 149t-243.5 55.5zM1384 979v-277q-78 17 -194 17h-430q-120 0 -195 -17v277
q71 -16 195 -16h430q121 0 194 16z" />
    <glyph glyph-name="Iota" unicode="&#x399;" horiz-adv-x="681"
d="M119 0q39 111 55 220t16 261v715q0 152 -16 261t-55 220h444q-39 -111 -55 -220t-16 -261v-715q0 -152 16 -261t55 -220h-444z" />
    <glyph glyph-name="Kappa" unicode="&#x39a;" horiz-adv-x="1548"
d="M1319 319q151 -197 291 -311v-8h-514q-4 60 -49.5 149.5t-116.5 182.5l-438 577v-428q0 -152 16 -261t55 -220h-444q39 111 55 220t16 261v715q0 152 -16 261t-55 220h444q-39 -111 -55 -220t-16 -261v-262l395 506q52 67 71.5 117.5t22.5 119.5h526v-8
q-220 -177 -391 -397l-264 -338z" />
    <glyph glyph-name="Lambda" unicode="&#x39b;" horiz-adv-x="1679"
d="M1522 387q54 -127 103 -210.5t120 -170.5v-6h-465q6 21 6 55q0 101 -82 293l-350 832l-383 -838q-82 -179 -82 -287q0 -27 4 -55h-459v6q124 149 234 387l401 871q121 258 162 413h264q42 -159 152 -413z" />
    <glyph glyph-name="Mu" unicode="&#x39c;" horiz-adv-x="2058"
d="M1995 1671q-77 -97 -102 -176.5t-25 -216.5v-797q0 -155 16 -263.5t55 -217.5h-444q40 110 56 218.5t16 262.5v672l-533 -659l-542 669v-682q0 -152 16 -261t55 -220h-442q38 110 53.5 218.5t15.5 262.5v1004q-71 96 -172 186v6h453q22 -60 53 -109.5t99 -131.5l413 -510
l463 573q84 104 117 178h379v-6z" />
    <glyph glyph-name="Nu" unicode="&#x39d;" horiz-adv-x="1863"
d="M1673 1130v-583q0 -314 53 -547h-395q-22 78 -131 223l-676 891v-567q0 -186 15 -304.5t55 -242.5h-432q39 126 54 244.5t15 302.5v891q-60 77 -108.5 127t-114.5 104v8h494q23 -65 58 -122.5t116 -165.5l704 -930v671q0 184 -15 302.5t-54 244.5h434
q-40 -126 -56 -244.5t-16 -302.5z" />
    <glyph glyph-name="Xi" unicode="&#x39e;" horiz-adv-x="1353"
d="M117 1309l-4 4l104 364h1077l-147 -354q-217 94 -520 94q-292 0 -510 -108zM1069 692q-147 39 -422 39q-276 0 -430 -37l-4 4l94 312q153 -27 451 -27q244 0 426 35l4 -4zM14 0l158 369q210 -95 506 -95q200 0 358.5 26.5t311.5 84.5l4 -4l-152 -381h-1186z" />
    <glyph glyph-name="Omicron" unicode="&#x39f;" horiz-adv-x="1953"
d="M975 1698q146 0 280.5 -38t246 -111.5t194 -174.5t128.5 -234t46 -282q0 -189 -70 -353t-190.5 -278.5t-287.5 -180.5t-355 -66q-159 0 -300.5 46t-246.5 127.5t-181.5 188.5t-115.5 232.5t-39 256.5q0 176 69 336t187.5 276.5t284 185.5t350.5 69zM918 1468
q-101 0 -192 -39.5t-160 -110.5t-109.5 -178t-40.5 -233q0 -137 44.5 -263t122.5 -222t194 -153.5t251 -57.5q149 0 267 76.5t181.5 205.5t63.5 285q0 138 -48.5 265t-131.5 220.5t-198.5 149t-243.5 55.5z" />
    <glyph glyph-name="Pi" unicode="&#x3a0;" horiz-adv-x="1624"
d="M119 0q39 111 55 220t16 261v715q0 152 -16 261t-55 220h1386q-39 -111 -55 -220t-16 -261v-715q0 -152 16 -261t55 -220h-444q39 112 55.5 220.5t16.5 260.5v953h-641v-953q0 -152 16 -261t55 -220h-444z" />
    <glyph glyph-name="Rho" unicode="&#x3a1;" horiz-adv-x="1245"
d="M539 1677q157 0 282.5 -40.5t204.5 -111t120.5 -161.5t41.5 -195q0 -239 -165.5 -378.5t-444.5 -139.5q-46 0 -86 4v-174q0 -152 16 -261t55 -220h-444q39 111 55 220t16 261v715q0 152 -16 261t-55 220h420zM492 786q179 20 283 122t104 245t-101.5 238t-277.5 104
q-8 -90 -8 -221v-488z" />
    <glyph glyph-name="Sigma" unicode="&#x3a3;" horiz-adv-x="1337"
d="M1329 336l4 -4l-141 -332h-1188v6q320 448 561 834l-514 831v6h1204l-145 -319q-177 106 -436 106h-150l385 -620q-241 -327 -428 -627h172q202 0 362 28.5t314 90.5z" />
    <glyph glyph-name="Tau" unicode="&#x3a4;" horiz-adv-x="1337"
d="M430 0q40 110 56 218.5t16 262.5v973q-304 0 -537 -129l-4 4l102 348h1313l-141 -329q-175 103 -432 106v-973q0 -152 16 -261t55 -220h-444z" />
    <glyph glyph-name="Upsilon" unicode="&#x3a5;" horiz-adv-x="1304"
d="M948 1677h422v-6q-72 -75 -166 -244l-385 -677v-269q0 -152 16.5 -260.5t55.5 -220.5h-445q40 110 56 218.5t16 262.5v260l-383 666q-106 184 -201 264v6h461q-4 -24 -4 -51q0 -93 66 -209l217 -381l217 387q63 115 63 213q0 26 -6 41z" />
    <glyph glyph-name="Phi" unicode="&#x3a6;" horiz-adv-x="1861"
d="M1786 874q0 -308 -188.5 -508t-497.5 -231q13 -75 47 -176h-436q29 86 47 174q-165 13 -296.5 72t-215 152t-127 209.5t-43.5 248.5q0 292 189 493.5t493 233.5q-13 75 -47 176h436q-34 -101 -47 -176q314 -25 500 -202t186 -466zM401 877q0 -133 41 -243t127 -187.5
t209 -102.5q2 31 2 96v797q0 71 -2 106q-169 -9 -273 -132t-104 -334zM1079 334q180 12 281.5 141.5t101.5 331.5q0 201 -101 342t-282 180q-2 -29 -2 -92v-797q0 -73 2 -106z" />
    <glyph glyph-name="Chi" unicode="&#x3a7;" horiz-adv-x="1509"
d="M1112 496q94 -163 194 -294t175 -196v-6h-533q17 75 -0.5 149.5t-77.5 178.5l-141 247l-178 -292q-54 -88 -68.5 -160t0.5 -123h-479v6q124 134 348 494l215 356l-198 348q-90 159 -164.5 266t-159.5 201v6h479q-27 -106 56 -252l182 -319l151 246q113 183 82 325h475v-6
q-132 -166 -307 -454l-239 -394z" />
    <glyph glyph-name="Psi" unicode="&#x3a8;" horiz-adv-x="1835"
d="M1407 1677h430q-95 -235 -147 -508q-46 -243 -209.5 -400.5t-415.5 -193.5v-94q0 -152 16.5 -260.5t55.5 -220.5h-445q39 112 55.5 220.5t16.5 260.5v86q-139 11 -246.5 58t-181 127t-119.5 182.5t-72 234.5q-31 161 -64 275.5t-83 232.5h430q-29 -86 -29 -198
q0 -344 131 -518q88 -117 234 -142v377q0 152 -16.5 260.5t-55.5 220.5h445q-39 -112 -55.5 -220.5t-16.5 -260.5v-377q194 38 280.5 205.5t86.5 454.5q0 106 -25 198z" />
    <glyph glyph-name="uni03A9" unicode="&#x3a9;" horiz-adv-x="1794"
d="M1763 393l4 -4l-147 -389h-676l57 295q183 158 271 309.5t88 319.5q0 148 -67.5 274t-185 200.5t-257.5 74.5q-175 0 -294.5 -123.5t-119.5 -329.5q0 -199 103 -385.5t274 -339.5l-57 -295h-647l-70 369l4 4q215 -131 535 -131h12q-486 297 -486 721q0 149 61.5 284.5
t167 234.5t253.5 157.5t313 58.5q162 0 306.5 -50.5t252 -140.5t170 -222.5t62.5 -287.5q0 -459 -471 -751q296 17 544 147z" />
    <glyph glyph-name="Iotadieresis" unicode="&#x3aa;" horiz-adv-x="681"
d="M346 2165q-17 -158 -113 -336h-239q80 178 86 336h266zM772 2165q-17 -160 -115 -336h-237q79 181 84 336h268zM119 0q39 111 55 220t16 261v715q0 152 -16 261t-55 220h444q-39 -111 -55 -220t-16 -261v-715q0 -152 16 -261t55 -220h-444z" />
    <glyph glyph-name="Upsilondieresis" unicode="&#x3ab;" horiz-adv-x="1304"
d="M657 2165q-17 -160 -112 -336h-240q80 178 86 336h266zM1083 2165q-17 -162 -114 -336h-238q79 181 84 336h268zM948 1677h422v-6q-72 -75 -166 -244l-385 -677v-269q0 -152 16.5 -260.5t55.5 -220.5h-445q40 110 56 218.5t16 262.5v260l-383 666q-106 184 -201 264v6
h461q-4 -24 -4 -51q0 -93 66 -209l217 -381l217 387q63 115 63 213q0 26 -6 41z" />
    <glyph glyph-name="alphatonos" unicode="&#x3ac;" horiz-adv-x="1275"
d="M836 1677q-20 -184 -138 -381h-276q80 200 86 381h328zM1284 219l4 -4l-131 -221q-53 -6 -102 -6q-131 0 -192.5 62.5t-61.5 195.5v37q-92 -179 -178 -275q-59 -20 -129 -20q-187 0 -310 145t-123 393q0 164 64.5 314t179.5 244t250 94q85 0 145.5 -50.5t100.5 -160.5h4
l22 198h330q-37 -117 -51 -231.5t-14 -319.5v-278q0 -67 28.5 -96t85.5 -29q39 0 78 8zM596 242q59 0 112.5 38t92.5 105v477q-111 99 -277 99q-50 0 -100 -13q-49 -119 -49 -313q0 -188 60.5 -290.5t160.5 -102.5z" />
    <glyph glyph-name="epsilontonos" unicode="&#x3ad;" horiz-adv-x="976"
d="M840 1677q-20 -184 -138 -381h-276q80 200 86 381h328zM952 254l4 -4l-129 -242q-71 -22 -180 -22q-116 0 -218.5 33.5t-186 101t-132.5 181.5t-49 261q0 131 43.5 244.5t123 197t198 131.5t262.5 48q122 0 248 -29l-55 -289l-7 -2q-110 105 -245 105q-98 0 -168.5 -64
t-91.5 -190h481l-82 -252q-127 47 -342 47h-53q29 -143 125 -221t233 -78q112 0 221 43z" />
    <glyph glyph-name="etatonos" unicode="&#x3ae;" horiz-adv-x="1269"
d="M889 1677q-21 -186 -137 -381h-277q80 200 86 381h328zM100 0q33 86 46.5 160t13.5 168v522q0 162 -49 315h352q-12 -70 -12 -151v-82q82 112 134.5 164t98 70t117.5 18q145 0 236 -94.5t91 -280.5v-889q0 -171 60 -326h-412q34 83 48 157t14 169v787q0 106 -52.5 161.5
t-142.5 55.5q-93 0 -192 -62v-534q0 -95 13.5 -169t45.5 -159h-410z" />
    <glyph glyph-name="iotatonos" unicode="&#x3af;" horiz-adv-x="669"
d="M528 1677q-21 -186 -137 -381h-276q80 200 86 381h327zM428 -12q-150 0 -218.5 67.5t-68.5 218.5v566q0 95 -13.5 168.5t-45.5 156.5h410q-33 -84 -46.5 -157.5t-13.5 -167.5v-482q0 -75 31 -108t96 -33q71 0 156 27l4 -4l-121 -232q-79 -20 -170 -20z" />
    <glyph glyph-name="upsilondieresistonos" unicode="&#x3b0;" horiz-adv-x="1267"
d="M854 1677q-21 -186 -137 -381h-199q80 200 86 381h250zM528 1618q-15 -134 -100 -277h-223q68 146 74 277h249zM1159 1618q-15 -134 -100 -277h-223q67 144 73 277h250zM606 -16q-72 0 -139.5 14.5t-128.5 42.5t-102 52t-95 61v686q0 95 -13.5 168.5t-45.5 156.5h410
q-33 -84 -46.5 -157.5t-13.5 -167.5v-494q0 -46 65 -92.5t142 -46.5q97 0 159 98t62 279q0 254 -127 581h316q131 -279 131 -536q0 -164 -43 -289.5t-121 -202t-181 -115t-229 -38.5z" />
    <glyph glyph-name="alpha" unicode="&#x3b1;" horiz-adv-x="1275"
d="M1284 219l4 -4l-131 -221q-53 -6 -102 -6q-131 0 -192.5 62.5t-61.5 195.5v37q-92 -179 -178 -275q-59 -20 -129 -20q-187 0 -310 145t-123 393q0 164 64.5 314t179.5 244t250 94q85 0 145.5 -50.5t100.5 -160.5h4l22 198h330q-37 -117 -51 -231.5t-14 -319.5v-278
q0 -67 28.5 -96t85.5 -29q39 0 78 8zM596 242q59 0 112.5 38t92.5 105v477q-111 99 -277 99q-50 0 -100 -13q-49 -119 -49 -313q0 -188 60.5 -290.5t160.5 -102.5z" />
    <glyph glyph-name="beta" unicode="&#x3b2;" horiz-adv-x="1271"
d="M877 967q65 -11 122 -42.5t105.5 -84t77 -134.5t28.5 -184q0 -158 -73 -280t-190.5 -185t-256.5 -63q-150 0 -248 69v-143q0 -171 60 -326h-410q60 155 60 326v1258q0 252 121 385t364 133q206 0 338.5 -113.5t132.5 -288.5q0 -212 -231 -327zM604 215q139 0 216 68.5
t77 193.5q0 141 -90 220t-254 79q-27 0 -59 -4l-5 4l86 213q107 23 163.5 91.5t56.5 176.5q0 98 -49 160t-138 62q-166 0 -166 -236v-987q72 -41 162 -41z" />
    <glyph glyph-name="gamma" unicode="&#x3b3;" horiz-adv-x="1097"
d="M1114 1165q-38 -97 -88 -280q-50 -192 -148 -426.5t-221 -450.5q25 -162 25 -262q0 -95 -14 -152h-310q25 80 25 187q0 217 -107 571l-137 459q-67 218 -172 348v6h441q-17 -56 -17 -112q0 -77 35 -193l129 -436l31 -107q94 196 143 365t49 279q0 120 -37 204h373z" />
    <glyph glyph-name="delta" unicode="&#x3b4;" horiz-adv-x="1251"
d="M834 1198q200 -149 278 -284t78 -322q0 -133 -49.5 -248.5t-131 -192.5t-186 -121t-215.5 -44q-84 0 -162 19.5t-148.5 62.5t-123 105t-83 153.5t-30.5 201.5q0 117 40 220t107.5 176.5t153.5 123.5t181 70l-353 299v266h930v-284q-83 32 -156.5 45.5t-168.5 13.5h-316z
M639 184q99 0 164 101t65 274q0 148 -44.5 249.5t-151.5 201.5q-137 -26 -212 -141t-75 -298q0 -165 75 -276t179 -111z" />
    <glyph glyph-name="epsilon" unicode="&#x3b5;" horiz-adv-x="976"
d="M952 254l4 -4l-129 -242q-71 -22 -180 -22q-116 0 -218.5 33.5t-186 101t-132.5 181.5t-49 261q0 131 43.5 244.5t123 197t198 131.5t262.5 48q122 0 248 -29l-55 -289l-7 -2q-110 105 -245 105q-98 0 -168.5 -64t-91.5 -190h481l-82 -252q-127 47 -342 47h-53
q29 -143 125 -221t233 -78q112 0 221 43z" />
    <glyph glyph-name="zeta" unicode="&#x3b6;" horiz-adv-x="997"
d="M958 1399q-143 -123 -239.5 -220.5t-174 -203t-114.5 -210.5t-37 -216q0 -124 67 -195t195 -116q142 -49 214.5 -125.5t72.5 -204.5q0 -147 -94 -314h-240l-2 7q64 134 64 223q0 73 -51.5 114.5t-157.5 69.5q-87 23 -154.5 58.5t-122 89t-83.5 132.5t-29 179
q0 124 36 242t93 214t146.5 195t176.5 175.5t203 164.5h-291q-95 0 -168.5 -13.5t-156.5 -45.5v284h847v-284z" />
    <glyph glyph-name="eta" unicode="&#x3b7;" horiz-adv-x="1269"
d="M100 0q33 86 46.5 160t13.5 168v522q0 162 -49 315h352q-12 -70 -12 -151v-82q82 112 134.5 164t98 70t117.5 18q145 0 236 -94.5t91 -280.5v-889q0 -171 60 -326h-412q34 83 48 157t14 169v787q0 106 -52.5 161.5t-142.5 55.5q-93 0 -192 -62v-534q0 -95 13.5 -169
t45.5 -159h-410z" />
    <glyph glyph-name="theta" unicode="&#x3b8;" horiz-adv-x="1325"
d="M670 1692q266 0 419.5 -215t153.5 -605q0 -199 -47 -367.5t-128 -281t-188.5 -175t-228.5 -62.5q-94 0 -177.5 29.5t-155.5 94t-124 159t-82 231t-30 303.5q0 207 49 378.5t131.5 281.5t187.5 169.5t220 59.5zM647 1528q-105 -28 -174.5 -168.5t-81.5 -382.5h539
q-24 234 -101.5 378t-181.5 173zM690 178q104 24 174 182t74 404h-545q17 -257 99.5 -410t197.5 -176z" />
    <glyph glyph-name="iota" unicode="&#x3b9;" horiz-adv-x="669"
d="M428 -12q-150 0 -218.5 67.5t-68.5 218.5v566q0 95 -13.5 168.5t-45.5 156.5h410q-33 -84 -46.5 -157.5t-13.5 -167.5v-482q0 -75 31 -108t96 -33q71 0 156 27l4 -4l-121 -232q-79 -20 -170 -20z" />
    <glyph glyph-name="kappa" unicode="&#x3ba;" horiz-adv-x="1185"
d="M451 840v-512q0 -95 13.5 -169t45.5 -159h-410q33 86 46.5 160t13.5 168v512q0 94 -13.5 167.5t-46.5 157.5h410q-32 -83 -45.5 -156.5t-13.5 -168.5zM948 348q86 -144 236 -342v-6h-439q10 101 -69 240l-223 391l262 360q35 49 48.5 86t16.5 88h391v-8
q-69 -55 -128 -119t-132 -166l-149 -202z" />
    <glyph glyph-name="lambda" unicode="&#x3bb;" horiz-adv-x="1140"
d="M1018 330q72 -205 156 -324v-6h-422q20 52 20 102q0 77 -41 195l-151 444l-193 -446q-49 -115 -49 -193q-3 -55 12 -102h-383v6q80 113 180 342l318 737q-76 211 -138.5 294t-136.5 83q-85 0 -170 -43l-4 4l39 209q124 58 236 58q145 0 240.5 -109t185.5 -371z" />
    <glyph glyph-name="uni03BC" unicode="&#x3bc;" horiz-adv-x="1294"
d="M1137 840v-514q0 -171 59 -326h-362q12 82 12 240q-59 -138 -121 -197t-150 -59t-139 69v-102q0 -103 16 -184t54 -173h-410q60 155 60 326v920q0 94 -13.5 167.5t-46.5 157.5h410q-33 -84 -46.5 -157.5t-13.5 -167.5v-387q0 -117 46 -169.5t143 -52.5q55 0 103.5 16.5
t107.5 59.5v533q0 94 -13.5 167.5t-46.5 157.5h410q-32 -83 -45.5 -156.5t-13.5 -168.5z" />
    <glyph glyph-name="nu" unicode="&#x3bd;" horiz-adv-x="1136"
d="M780 1165h371q-49 -136 -86 -280q-51 -195 -151 -431.5t-226 -453.5h-307l-244 811q-66 216 -170 348v6h439q-17 -56 -17 -112q0 -77 35 -193l176 -590q105 211 160 394t55 297q0 117 -35 204z" />
    <glyph glyph-name="xi" unicode="&#x3be;" horiz-adv-x="931"
d="M657 229q141 -57 214 -132.5t73 -202.5q0 -142 -94 -300h-240l-2 7q64 128 64 219q0 72 -51.5 113t-157.5 71q-385 106 -385 422q0 152 82 274q211 121 260 146q-50 8 -95.5 26t-87.5 48t-73 68.5t-49.5 92t-18.5 115.5q0 148 83 262.5t217 174t294 59.5q126 0 256 -29
l-26 -315l-7 -2q-126 118 -278 118q-107 0 -166 -51t-59 -149q0 -111 77 -175.5t215 -64.5q55 0 86 8l-20 -237q-27 8 -78 8q-137 0 -215 -73.5t-78 -192.5q0 -115 66.5 -186.5t193.5 -121.5z" />
    <glyph glyph-name="omicron" unicode="&#x3bf;" horiz-adv-x="1251"
d="M637 1184q253 0 403 -157t150 -433q0 -127 -48.5 -241t-129 -194t-187 -126.5t-219.5 -46.5q-107 0 -203 34.5t-173.5 102t-123 178t-45.5 250.5q0 139 49.5 259.5t130.5 201t184 126.5t212 46zM604 983q-96 0 -157.5 -96.5t-61.5 -274.5q0 -184 73 -297.5t191 -128.5
q99 15 159 117t60 270q0 179 -75.5 294.5t-188.5 115.5z" />
    <glyph glyph-name="pi" unicode="&#x3c0;" horiz-adv-x="1452"
d="M1376 885q-92 46 -233 55v-604q0 -67 28.5 -96t85.5 -29q39 0 78 8l4 -4l-131 -221q-38 -6 -71 -6q-148 0 -216.5 73.5t-68.5 231.5v647h-307v-614q0 -171 59 -326h-409q59 155 59 326v610q-144 -14 -264 -66l-4 4l75 291h1389z" />
    <glyph glyph-name="rho" unicode="&#x3c1;" horiz-adv-x="1208"
d="M614 1182q239 0 386 -159t147 -417q0 -124 -33.5 -235t-96 -196.5t-159 -136t-213.5 -50.5q-78 0 -129 22l-100 88v-178q0 -174 59 -326h-409q59 152 59 326v809q0 205 135 329t354 124zM520 154q137 0 225.5 113t88.5 308q0 198 -67 305t-179 107q-79 0 -125.5 -60
t-46.5 -175v-578q44 -20 104 -20z" />
    <glyph glyph-name="sigma1" unicode="&#x3c2;" horiz-adv-x="956"
d="M535 -406l-3 7q76 130 76 209q0 52 -30 95t-78.5 76t-106.5 68t-116.5 81t-107 103.5t-78.5 148t-30 202.5q0 171 73.5 306t215.5 214.5t330 79.5q126 0 256 -29l-27 -315l-6 -2q-121 118 -262 118q-115 0 -188.5 -79.5t-73.5 -235.5q0 -86 28.5 -156.5t74.5 -119
t101.5 -91.5t111 -82.5t101.5 -82t74.5 -101t28.5 -129.5q0 -132 -104 -285h-260z" />
    <glyph glyph-name="sigma" unicode="&#x3c3;" horiz-adv-x="1310"
d="M1245 885q-116 55 -297 55h-61q121 -64 186.5 -170.5t65.5 -249.5q0 -120 -50 -222.5t-131.5 -169.5t-183 -104.5t-205.5 -37.5q-224 0 -366 154.5t-142 426.5q0 273 178.5 435.5t512.5 162.5h567zM588 184q102 0 167.5 105.5t65.5 298.5q0 108 -21.5 203.5t-56.5 148.5
q-196 -6 -277 -98t-81 -264q0 -175 58.5 -284.5t144.5 -109.5z" />
    <glyph glyph-name="tau" unicode="&#x3c4;" horiz-adv-x="1001"
d="M623 -12q-148 0 -216.5 73.5t-68.5 231.5v647q-194 0 -348 -70l-4 4l75 291h959l-74 -280q-124 52 -317 55v-604q0 -67 28.5 -96t85.5 -29q53 0 99 10l4 -4l-121 -219q-44 -10 -102 -10z" />
    <glyph glyph-name="upsilon" unicode="&#x3c5;" horiz-adv-x="1267"
d="M606 -16q-72 0 -139.5 14.5t-128.5 42.5t-102 52t-95 61v686q0 95 -13.5 168.5t-45.5 156.5h410q-33 -84 -46.5 -157.5t-13.5 -167.5v-494q0 -46 65 -92.5t142 -46.5q97 0 159 98t62 279q0 254 -127 581h316q131 -279 131 -536q0 -164 -43 -289.5t-121 -202t-181 -115
t-229 -38.5z" />
    <glyph glyph-name="phi" unicode="&#x3c6;" horiz-adv-x="1595"
d="M1534 594q0 -160 -80 -290.5t-213.5 -208.5t-300.5 -101v-74q0 -174 59 -326h-399q59 152 59 326v70q-99 8 -186.5 32.5t-163.5 70.5t-130.5 109t-86 152.5t-31.5 196.5q0 131 48.5 243t131.5 190t190 127t228 65q-1 120 -15 194t-44 143l391 76q-40 -149 -49 -409
q280 -24 436 -175t156 -411zM375 612q0 -168 75.5 -279t208.5 -155v832q-130 -24 -207 -124.5t-77 -273.5zM1225 573q0 161 -78 274t-207 152v-833q133 36 209 139.5t76 267.5z" />
    <glyph glyph-name="chi" unicode="&#x3c7;" horiz-adv-x="1097"
d="M950 -35q95 -183 219 -364v-7h-424q5 25 5 52q0 53 -17 107t-61 132l-146 279l-161 -309q-58 -116 -58 -193q0 -37 8 -68h-366v7q76 92 137 186.5t131 232.5l195 367l-240 459q-97 192 -197 313v6h433q-13 -33 -13 -69q0 -35 14 -75.5t52 -115.5l131 -254l135 256
q55 102 55 187q0 38 -8 71h354v-6q-52 -59 -95.5 -127.5t-104.5 -183.5l-219 -418z" />
    <glyph glyph-name="psi" unicode="&#x3c8;" horiz-adv-x="1660"
d="M1573 637q0 -159 -43.5 -282t-123.5 -201t-187 -120t-240 -48v-66q0 -174 59 -326h-409q59 152 59 326v64q-269 6 -408 135.5t-139 384.5v336q0 95 -13.5 168.5t-45.5 156.5h410q-33 -84 -46.5 -157.5t-13.5 -167.5v-260q0 -184 63 -275t193 -102v936q0 138 -14 219
t-45 155l401 76q-51 -199 -51 -547v-841q136 5 205 97.5t69 291.5q0 251 -127 575h316q131 -279 131 -528z" />
    <glyph glyph-name="omega" unicode="&#x3c9;" horiz-adv-x="1697"
d="M1411 1165q213 -361 213 -624q0 -109 -43.5 -213t-112.5 -178t-155.5 -119t-169.5 -45q-121 0 -212.5 57t-144.5 154q-75 -122 -170 -199q-46 -12 -98 -12q-211 0 -326.5 146.5t-115.5 387.5q0 342 227 645h309v-8q-215 -302 -215 -600q0 -161 46 -239t128 -78
q65 0 99.5 47t34.5 125v159q0 167 -56 326h400q-54 -154 -54 -326v-69q0 -102 50.5 -181t144.5 -110q54 36 82 115.5t28 189.5q0 321 -215 641v8h326z" />
    <glyph glyph-name="iotadieresis" unicode="&#x3ca;" horiz-adv-x="669"
d="M289 1653q-17 -158 -113 -336h-239q80 178 86 336h266zM715 1653q-17 -160 -115 -336h-238q79 181 84 336h269zM428 -12q-150 0 -218.5 67.5t-68.5 218.5v566q0 95 -13.5 168.5t-45.5 156.5h410q-33 -84 -46.5 -157.5t-13.5 -167.5v-482q0 -75 31 -108t96 -33
q71 0 156 27l4 -4l-121 -232q-79 -20 -170 -20z" />
    <glyph glyph-name="upsilondieresis" unicode="&#x3cb;" horiz-adv-x="1267"
d="M614 1653q-17 -160 -112 -336h-240q80 178 86 336h266zM1040 1653q-17 -162 -114 -336h-238q79 181 84 336h268zM606 -16q-72 0 -139.5 14.5t-128.5 42.5t-102 52t-95 61v686q0 95 -13.5 168.5t-45.5 156.5h410q-33 -84 -46.5 -157.5t-13.5 -167.5v-494q0 -46 65 -92.5
t142 -46.5q97 0 159 98t62 279q0 254 -127 581h316q131 -279 131 -536q0 -164 -43 -289.5t-121 -202t-181 -115t-229 -38.5z" />
    <glyph glyph-name="omicrontonos" unicode="&#x3cc;" horiz-adv-x="1251"
d="M870 1677q-21 -186 -137 -381h-276q80 200 86 381h327zM637 1184q253 0 403 -157t150 -433q0 -127 -48.5 -241t-129 -194t-187 -126.5t-219.5 -46.5q-107 0 -203 34.5t-173.5 102t-123 178t-45.5 250.5q0 139 49.5 259.5t130.5 201t184 126.5t212 46zM604 983
q-96 0 -157.5 -96.5t-61.5 -274.5q0 -184 73 -297.5t191 -128.5q99 15 159 117t60 270q0 179 -75.5 294.5t-188.5 115.5z" />
    <glyph glyph-name="upsilontonos" unicode="&#x3cd;" horiz-adv-x="1267"
d="M854 1677q-21 -186 -137 -381h-277q80 200 86 381h328zM606 -16q-72 0 -139.5 14.5t-128.5 42.5t-102 52t-95 61v686q0 95 -13.5 168.5t-45.5 156.5h410q-33 -84 -46.5 -157.5t-13.5 -167.5v-494q0 -46 65 -92.5t142 -46.5q97 0 159 98t62 279q0 254 -127 581h316
q131 -279 131 -536q0 -164 -43 -289.5t-121 -202t-181 -115t-229 -38.5z" />
    <glyph glyph-name="omegatonos" unicode="&#x3ce;" horiz-adv-x="1697"
d="M1094 1677q-20 -184 -138 -381h-276q80 200 86 381h328zM1411 1165q213 -361 213 -624q0 -109 -43.5 -213t-112.5 -178t-155.5 -119t-169.5 -45q-121 0 -212.5 57t-144.5 154q-75 -122 -170 -199q-46 -12 -98 -12q-211 0 -326.5 146.5t-115.5 387.5q0 342 227 645h309v-8
q-215 -302 -215 -600q0 -161 46 -239t128 -78q65 0 99.5 47t34.5 125v159q0 167 -56 326h400q-54 -154 -54 -326v-69q0 -102 50.5 -181t144.5 -110q54 36 82 115.5t28 189.5q0 321 -215 641v8h326z" />
    <glyph glyph-name="uni0400" unicode="&#x400;" horiz-adv-x="1175"
d="M313 2122h305q20 -199 103 -375h-129q-186 128 -279 375zM119 0q39 111 55 220t16 261v715q0 152 -16 261t-55 220h962l-145 -317q-177 104 -444 110v-507h532l-170 -289q-146 65 -362 74v-531q203 0 362.5 29t312.5 94l4 -4l-139 -336h-913z" />
    <glyph glyph-name="uni0401" unicode="&#x401;" horiz-adv-x="1175"
d="M600 2165q-17 -158 -113 -336h-239q80 178 86 336h266zM1026 2165q-17 -160 -115 -336h-237q79 181 84 336h268zM119 0q39 111 55 220t16 261v715q0 152 -16 261t-55 220h962l-145 -317q-177 104 -444 110v-507h532l-170 -289q-146 65 -362 74v-531q203 0 362.5 29
t312.5 94l4 -4l-139 -336h-913z" />
    <glyph glyph-name="uni0402" unicode="&#x402;" horiz-adv-x="1710"
d="M1128 1051q240 0 371 -134t131 -391q0 -273 -145.5 -405.5t-415.5 -132.5q-83 0 -137 22v8q190 72 286.5 186.5t96.5 293.5q0 153 -71.5 226t-217.5 73q-140 0 -270 -62v-254q0 -154 15.5 -262.5t53.5 -218.5h-442q38 110 54 219t16 262v973q-268 0 -488 -104l-4 4
l96 323h1272l-143 -329q-175 103 -430 106v-485q182 82 372 82z" />
    <glyph glyph-name="uni0403" unicode="&#x403;" horiz-adv-x="1081"
d="M893 2122q-93 -247 -279 -375h-129q83 176 103 375h305zM119 0q39 111 55 220t16 261v715q0 152 -16 261t-55 220h1003l-139 -319q-200 93 -491 96v-973q0 -152 16 -261t55 -220h-444z" />
    <glyph glyph-name="uni0404" unicode="&#x404;" horiz-adv-x="1542"
d="M1477 418l6 -2l-17 -310q-225 -126 -534 -126q-188 0 -347 64t-268.5 175t-171 264t-61.5 328q0 161 49 302.5t137.5 247.5t208.5 182.5t265 115.5t303 39q205 0 393 -58v-305l-6 -2q-92 59 -211.5 94t-237.5 35q-210 0 -363 -132t-194 -347h844l-172 -287
q-75 26 -205.5 44t-247.5 18h-227q26 -232 177 -380.5t368 -148.5q156 0 289.5 52t222.5 137z" />
    <glyph glyph-name="uni0405" unicode="&#x405;" horiz-adv-x="1140"
d="M481 -20q-203 0 -366 65v401h8q111 -134 192.5 -184.5t180.5 -50.5q97 0 161 60t64 149q0 80 -59.5 142.5t-233.5 164.5q-178 104 -251 215.5t-73 267.5q0 94 37.5 182t104 156t166 109t215.5 41q177 0 331 -74v-303l-6 -2q-84 76 -157 106.5t-158 30.5
q-103 0 -164 -58.5t-61 -140.5q0 -83 61.5 -156.5t216.5 -162.5q196 -112 276.5 -210.5t80.5 -254.5q0 -153 -77.5 -266.5t-204.5 -170t-284 -56.5z" />
    <glyph glyph-name="uni0406" unicode="&#x406;" horiz-adv-x="681"
d="M119 0q39 111 55 220t16 261v715q0 152 -16 261t-55 220h444q-39 -111 -55 -220t-16 -261v-715q0 -152 16 -261t55 -220h-444z" />
    <glyph glyph-name="uni0407" unicode="&#x407;" horiz-adv-x="681"
d="M373 2103q-17 -160 -115 -336h-233q80 178 86 336h262zM741 2103q-17 -162 -114 -336h-234q80 178 86 336h262zM119 0q39 111 55 220t16 261v715q0 152 -16 261t-55 220h444q-39 -111 -55 -220t-16 -261v-715q0 -152 16 -261t55 -220h-444z" />
    <glyph glyph-name="uni0408" unicode="&#x408;" horiz-adv-x="794"
d="M676 1677q-28 -102 -39.5 -223t-11.5 -334v-690q0 -411 -133 -603t-400 -192q-69 0 -133 21v8q54 28 96.5 58t86 74t75 101.5t56.5 132.5t38 175t13 221v1018q-40 4 -82 4q-135 0 -258 -27l75 256h617z" />
    <glyph glyph-name="uni0409" unicode="&#x409;" horiz-adv-x="2179"
d="M1595 1083q140 0 261 -68t193.5 -188t72.5 -262q0 -166 -91.5 -296t-244 -199.5t-336.5 -69.5h-449q38 110 54 219t16 262v953h-364v-95q0 -298 -35 -531.5t-102.5 -395t-156.5 -266.5t-206 -166l-256 204v6q244 128 361.5 394t117.5 719v57q0 208 -51 317h1065
q-38 -110 -54 -219t-16 -262v-266l174 149q14 4 47 4zM1374 190q96 0 176.5 29.5t133.5 80t82.5 117t29.5 140.5q0 137 -110.5 239.5t-272.5 102.5q-25 0 -39 -2v-707z" />
    <glyph glyph-name="uni040A" unicode="&#x40a;" horiz-adv-x="2177"
d="M1595 1083q139 0 259.5 -68t193 -188t72.5 -262q0 -166 -91.5 -296t-244 -199.5t-336.5 -69.5h-449q39 112 55.5 220.5t16.5 260.5v238h-579v-238q0 -152 16 -261t55 -220h-444q39 111 55 220t16 261v715q0 152 -16 261t-55 220h444q-39 -111 -55 -220t-16 -261v-233h579
v233q0 152 -16.5 260.5t-55.5 220.5h445q-39 -112 -55.5 -220.5t-16.5 -260.5v-266l174 149q14 4 49 4zM1372 190q193 0 308.5 106.5t115.5 260.5q0 137 -111 239.5t-274 102.5q-25 0 -39 -2v-707z" />
    <glyph glyph-name="uni040B" unicode="&#x40b;" horiz-adv-x="1732"
d="M1221 0q39 111 55 220t16 261v25q0 148 -61 217.5t-187 69.5q-148 0 -288 -70v-242q0 -154 15.5 -262.5t53.5 -218.5h-442q38 110 54 219t16 262v973q-268 0 -488 -104l-4 4l96 323h1272l-143 -329q-175 103 -430 106v-493q196 92 389 92q218 0 333 -125.5t115 -370.5
v-76q0 -152 16.5 -260.5t55.5 -220.5h-444z" />
    <glyph glyph-name="uni040C" unicode="&#x40c;" horiz-adv-x="1548"
d="M1047 2122q-93 -247 -279 -375h-129q81 173 102 375h306zM1319 319q151 -197 291 -311v-8h-514q-4 60 -49.5 149.5t-116.5 182.5l-438 577v-428q0 -152 16 -261t55 -220h-444q39 111 55 220t16 261v715q0 152 -16 261t-55 220h444q-39 -111 -55 -220t-16 -261v-262
l395 506q52 67 71.5 117.5t22.5 119.5h526v-8q-220 -177 -391 -397l-264 -338z" />
    <glyph glyph-name="uni040D" unicode="&#x40d;" horiz-adv-x="1685"
d="M840 1747q-186 128 -279 375h305q20 -199 103 -375h-129zM1495 1196v-715q0 -152 16.5 -260.5t55.5 -220.5h-445q39 112 55.5 220.5t16.5 260.5v559l-696 -735q14 -160 65 -305h-444q39 111 55 220t16 261v715q0 152 -16 261t-55 220h444q-39 -111 -55 -220t-16 -261
v-557l696 735q-14 153 -66 303h445q-39 -112 -55.5 -220.5t-16.5 -260.5z" />
    <glyph glyph-name="uni040E" unicode="&#x40e;" horiz-adv-x="1527"
d="M760 1731q-188 0 -281.5 100.5t-93.5 277.5h244q0 -103 35 -162t96 -59q60 0 94.5 59t34.5 162h244q0 -176 -94 -277t-279 -101zM1143 1677h450v-6q-72 -85 -125.5 -172.5t-119.5 -232.5l-371 -809q-119 -260 -255 -368.5t-316 -108.5q-117 0 -181 20l-35 332l7 2
q85 -62 196 -62q87 0 154.5 37t118.5 125l-437 801q-72 134 -157.5 259t-137.5 177v6h502q-12 -34 -12 -84q0 -107 88 -270l305 -563l250 545q86 187 86 299q0 43 -10 73z" />
    <glyph glyph-name="uni040F" unicode="&#x40f;" horiz-adv-x="1648"
d="M1458 481q0 -152 16.5 -260.5t55.5 -220.5h-549q-23 -192 -23 -406h-268q0 222 -22 406h-549q39 111 55 220t16 261v715q0 152 -16 261t-55 220h444q-39 -111 -55 -220t-16 -261v-952h665v952q0 152 -16.5 260.5t-55.5 220.5h445q-39 -112 -55.5 -220.5t-16.5 -260.5
v-715z" />
    <glyph glyph-name="uni0410" unicode="&#x410;" horiz-adv-x="1660"
d="M1511 387q53 -124 103 -208t123 -173v-6h-465q6 21 6 55q0 53 -18.5 118.5t-63.5 174.5l-37 90h-655l-43 -96q-82 -188 -82 -287q0 -27 4 -55h-459v6q120 141 234 387l403 871q121 258 162 413h264q36 -143 152 -413zM612 682h449l-215 526z" />
    <glyph glyph-name="uni0411" unicode="&#x411;" horiz-adv-x="1294"
d="M1122 1677l-139 -319q-200 93 -491 96v-573l176 153q243 0 394.5 -138.5t151.5 -358.5q0 -157 -86 -281t-229 -190t-315 -66h-465q39 111 55 220t16 261v715q0 152 -16 261t-55 220h1003zM492 190q181 0 289 96.5t108 237.5q0 148 -113 236t-284 88v-658z" />
    <glyph glyph-name="uni0412" unicode="&#x412;" horiz-adv-x="1280"
d="M901 899q153 -90 225 -189.5t72 -232.5q0 -139 -84.5 -249t-225.5 -169t-310 -59h-459q39 111 55 220t16 261v715q0 152 -16 261t-55 220h454q243 0 393 -122t150 -312q0 -101 -56.5 -189.5t-158.5 -154.5zM492 1509v-606q147 30 233 121t86 201q0 118 -94 201t-225 83z
M492 170q179 0 287 90t108 221q0 139 -110 249t-285 140v-700z" />
    <glyph glyph-name="uni0413" unicode="&#x413;" horiz-adv-x="1081"
d="M119 0q39 111 55 220t16 261v715q0 152 -16 261t-55 220h1003l-139 -319q-200 93 -491 96v-973q0 -152 16 -261t55 -220h-444z" />
    <glyph glyph-name="uni0414" unicode="&#x414;" horiz-adv-x="1658"
d="M1436 244h254q-37 -154 -53.5 -301t-16.5 -349h-268v406h-1035v-406h-266q0 204 -16.5 351t-54.5 299h172q152 241 215 489.5t63 583.5v43q0 208 -51 317h1126q-38 -110 -53.5 -218.5t-15.5 -262.5v-952zM707 1339q0 -349 -58 -609t-194 -486h678v1190h-426v-95z" />
    <glyph glyph-name="uni0415" unicode="&#x415;" horiz-adv-x="1175"
d="M119 0q39 111 55 220t16 261v715q0 152 -16 261t-55 220h962l-145 -317q-177 104 -444 110v-507h532l-170 -289q-146 65 -362 74v-531q203 0 362.5 29t312.5 94l4 -4l-139 -336h-913z" />
    <glyph glyph-name="uni0416" unicode="&#x416;" horiz-adv-x="2060"
d="M557 1440l324 -518l-357 -590q-58 -94 -94 -183t-37 -149h-456v8q131 124 243 311l371 621l-201 330q-129 212 -323 399v8h460q0 -69 14.5 -119.5t55.5 -117.5zM1174 1196v-715q0 -152 16 -261t55 -220h-430q39 112 55.5 220.5t16.5 260.5v715q0 152 -16.5 260.5
t-55.5 220.5h430q-39 -111 -55 -220t-16 -261zM1880 319q108 -181 242 -311v-8h-455q-1 60 -37 149t-94 183l-356 590l323 518q41 67 55.5 117.5t14.5 119.5h461v-8q-198 -190 -322 -399l-203 -332z" />
    <glyph glyph-name="uni0417" unicode="&#x417;" horiz-adv-x="1161"
d="M676 920q183 -53 293 -169t110 -264q0 -160 -89.5 -276t-239 -173.5t-340.5 -57.5q-185 0 -349 73v299l7 2q73 -58 170.5 -91.5t193.5 -33.5q142 0 230 70t88 186q0 118 -93.5 194.5t-242.5 76.5q-58 0 -148 -11l-4 5l35 237q179 17 283 93.5t104 183.5q0 85 -66 137.5
t-180 52.5q-191 0 -327 -125l-7 2l13 287q170 80 364 80q239 0 383 -112.5t144 -278.5q0 -125 -87 -228t-245 -159z" />
    <glyph glyph-name="uni0418" unicode="&#x418;" horiz-adv-x="1685"
d="M1495 1196v-715q0 -152 16.5 -260.5t55.5 -220.5h-445q39 112 55.5 220.5t16.5 260.5v559l-696 -735q14 -160 65 -305h-444q39 111 55 220t16 261v715q0 152 -16 261t-55 220h444q-39 -111 -55 -220t-16 -261v-557l696 735q-14 153 -66 303h445q-39 -112 -55.5 -220.5
t-16.5 -260.5z" />
    <glyph glyph-name="uni0419" unicode="&#x419;" horiz-adv-x="1685"
d="M844 1792q-193 0 -289 101t-96 278h264q0 -105 30.5 -163t90.5 -58q59 0 89 58t30 163h264q0 -176 -96.5 -277.5t-286.5 -101.5zM1495 1196v-715q0 -152 16.5 -260.5t55.5 -220.5h-445q39 112 55.5 220.5t16.5 260.5v559l-696 -735q14 -160 65 -305h-444q39 111 55 220
t16 261v715q0 152 -16 261t-55 220h444q-39 -111 -55 -220t-16 -261v-557l696 735q-14 153 -66 303h445q-39 -112 -55.5 -220.5t-16.5 -260.5z" />
    <glyph glyph-name="uni041A" unicode="&#x41a;" horiz-adv-x="1548"
d="M1319 319q151 -197 291 -311v-8h-514q-4 60 -49.5 149.5t-116.5 182.5l-438 577v-428q0 -152 16 -261t55 -220h-444q39 111 55 220t16 261v715q0 152 -16 261t-55 220h444q-39 -111 -55 -220t-16 -261v-262l395 506q52 67 71.5 117.5t22.5 119.5h526v-8
q-220 -177 -391 -397l-264 -338z" />
    <glyph glyph-name="uni041B" unicode="&#x41b;" horiz-adv-x="1603"
d="M1415 1196v-715q0 -153 16 -262t54 -219h-443q38 110 54 219t16 262v953h-405v-95q0 -298 -35 -531.5t-102.5 -395t-156.5 -266.5t-206 -166l-256 204v6q244 128 361.5 394t117.5 719v57q0 208 -51 317h1106q-38 -110 -54 -219t-16 -262z" />
    <glyph glyph-name="uni041C" unicode="&#x41c;" horiz-adv-x="2058"
d="M1995 1671q-77 -97 -102 -176.5t-25 -216.5v-797q0 -155 16 -263.5t55 -217.5h-444q40 110 56 218.5t16 262.5v672l-533 -659l-542 669v-682q0 -152 16 -261t55 -220h-442q38 110 53.5 218.5t15.5 262.5v1004q-71 96 -172 186v6h453q22 -60 53 -109.5t99 -131.5l413 -510
l463 573q84 104 117 178h379v-6z" />
    <glyph glyph-name="uni041D" unicode="&#x41d;" horiz-adv-x="1665"
d="M1475 1196v-715q0 -152 16 -261t55 -220h-444q39 112 55.5 220.5t16.5 260.5v238h-682v-238q0 -152 16 -261t55 -220h-444q39 111 55 220t16 261v715q0 152 -16 261t-55 220h444q-39 -111 -55 -220t-16 -261v-233h682v233q0 152 -16.5 260.5t-55.5 220.5h444
q-39 -111 -55 -220t-16 -261z" />
    <glyph glyph-name="uni041E" unicode="&#x41e;" horiz-adv-x="1953"
d="M975 1698q146 0 280.5 -38t246 -111.5t194 -174.5t128.5 -234t46 -282q0 -189 -70 -353t-190.5 -278.5t-287.5 -180.5t-355 -66q-159 0 -300.5 46t-246.5 127.5t-181.5 188.5t-115.5 232.5t-39 256.5q0 176 69 336t187.5 276.5t284 185.5t350.5 69zM918 1468
q-101 0 -192 -39.5t-160 -110.5t-109.5 -178t-40.5 -233q0 -137 44.5 -263t122.5 -222t194 -153.5t251 -57.5q149 0 267 76.5t181.5 205.5t63.5 285q0 138 -48.5 265t-131.5 220.5t-198.5 149t-243.5 55.5z" />
    <glyph glyph-name="uni041F" unicode="&#x41f;" horiz-adv-x="1624"
d="M119 0q39 111 55 220t16 261v715q0 152 -16 261t-55 220h1386q-39 -111 -55 -220t-16 -261v-715q0 -152 16 -261t55 -220h-444q39 112 55.5 220.5t16.5 260.5v953h-641v-953q0 -152 16 -261t55 -220h-444z" />
    <glyph glyph-name="uni0420" unicode="&#x420;" horiz-adv-x="1245"
d="M539 1677q157 0 282.5 -40.5t204.5 -111t120.5 -161.5t41.5 -195q0 -239 -165.5 -378.5t-444.5 -139.5q-46 0 -86 4v-174q0 -152 16 -261t55 -220h-444q39 111 55 220t16 261v715q0 152 -16 261t-55 220h420zM492 786q179 20 283 122t104 245t-101.5 238t-277.5 104
q-8 -90 -8 -221v-488z" />
    <glyph glyph-name="uni0421" unicode="&#x421;" horiz-adv-x="1542"
d="M932 -20q-188 0 -347 64t-268.5 175t-171 264t-61.5 328q0 161 49 302.5t137.5 247.5t208.5 182.5t265 115.5t303 39q205 0 393 -58v-305l-6 -2q-92 59 -211.5 94t-237.5 35q-245 0 -407 -175.5t-162 -444.5q0 -173 70.5 -313t196.5 -220t282 -80t289.5 52t222.5 137
l6 -2l-17 -310q-225 -126 -534 -126z" />
    <glyph glyph-name="uni0422" unicode="&#x422;" horiz-adv-x="1337"
d="M430 0q40 110 56 218.5t16 262.5v973q-304 0 -537 -129l-4 4l102 348h1313l-141 -329q-175 103 -432 106v-973q0 -152 16 -261t55 -220h-444z" />
    <glyph glyph-name="uni0423" unicode="&#x423;" horiz-adv-x="1527"
d="M1143 1677h450v-6q-72 -85 -125.5 -172.5t-119.5 -232.5l-371 -809q-119 -260 -255 -368.5t-316 -108.5q-117 0 -181 20l-35 332l7 2q85 -62 196 -62q87 0 154.5 37t118.5 125l-437 801q-72 134 -157.5 259t-137.5 177v6h502q-12 -34 -12 -84q0 -107 88 -270l305 -563
l250 545q86 187 86 299q0 43 -10 73z" />
    <glyph glyph-name="uni0424" unicode="&#x424;" horiz-adv-x="1882"
d="M1806 874q0 -205 -89.5 -358.5t-246 -238.5t-366.5 -103q14 -102 53 -215h-436q40 114 53 213q-171 11 -304.5 63.5t-219 138t-130 197.5t-44.5 244q0 290 192 475.5t506 210.5q-13 98 -53 217h436q-39 -113 -53 -215q326 -21 514 -181.5t188 -447.5zM401 877
q0 -203 99 -332.5t291 -161.5v57v797v66q-180 -6 -285 -111.5t-105 -314.5zM1087 373q188 11 292 124t104 310t-103.5 324t-292.5 161v-55v-797v-67z" />
    <glyph glyph-name="uni0425" unicode="&#x425;" horiz-adv-x="1509"
d="M1112 496q94 -163 194 -294t175 -196v-6h-533q17 75 -0.5 149.5t-77.5 178.5l-141 247l-178 -292q-54 -88 -68.5 -160t0.5 -123h-479v6q124 134 348 494l215 356l-198 348q-90 159 -164.5 266t-159.5 201v6h479q-27 -106 56 -252l182 -319l151 246q113 183 82 325h475v-6
q-132 -166 -307 -454l-239 -394z" />
    <glyph glyph-name="uni0426" unicode="&#x426;" horiz-adv-x="1683"
d="M1376 -406v406h-1257q39 111 55 220t16 261v715q0 152 -16 261t-55 220h444q-39 -111 -55 -220t-16 -261v-952h665v952q0 152 -16.5 260.5t-55.5 220.5h445q-39 -112 -55.5 -220.5t-16.5 -260.5v-952h256q-38 -153 -55 -300t-17 -350h-266z" />
    <glyph glyph-name="uni0427" unicode="&#x427;" horiz-adv-x="1499"
d="M1311 1196v-715q0 -154 15.5 -262.5t53.5 -218.5h-442q38 110 54 219t16 262v248q-206 -92 -410 -92q-223 0 -341 124t-118 365v70q0 152 -16 261t-55 220h444q-39 -112 -55.5 -220.5t-16.5 -260.5v-49q0 -128 64 -190t194 -62q161 0 310 70v231q0 153 -16 262t-54 219
h442q-38 -110 -53.5 -218.5t-15.5 -262.5z" />
    <glyph glyph-name="uni0428" unicode="&#x428;" horiz-adv-x="2170"
d="M119 0q39 111 55 220t16 261v715q0 152 -16 261t-55 220h444q-39 -111 -55 -220t-16 -261v-952h442v952q0 153 -16 262t-54 219h443q-38 -110 -54 -219t-16 -262v-952h442v952q0 152 -16 261t-55 220h444q-39 -112 -55.5 -220.5t-16.5 -260.5v-715q0 -152 16.5 -260.5
t55.5 -220.5h-1933z" />
    <glyph glyph-name="uni0429" unicode="&#x429;" horiz-adv-x="2205"
d="M1898 -406v406h-1779q39 111 55 220t16 261v715q0 152 -16 261t-55 220h444q-39 -111 -55 -220t-16 -261v-952h442v952q0 153 -16 262t-54 219h443q-38 -110 -54 -219t-16 -262v-952h442v952q0 152 -16 261t-55 220h444q-39 -112 -55.5 -220.5t-16.5 -260.5v-952h256
q-38 -152 -54.5 -299t-16.5 -351h-267z" />
    <glyph glyph-name="uni042A" unicode="&#x42a;" horiz-adv-x="1560"
d="M383 0q38 110 54 219t16 262v973q-268 0 -488 -104l-4 4l96 323h768q-38 -110 -53.5 -218.5t-15.5 -262.5v-266l174 149q14 4 47 4q140 0 261 -68t193 -188t72 -262q0 -166 -91.5 -296t-244 -199.5t-336.5 -69.5h-448zM756 190q96 0 176.5 29.5t133.5 80t82.5 117
t29.5 140.5q0 137 -110.5 239.5t-272.5 102.5q-25 0 -39 -2v-707z" />
    <glyph glyph-name="uni042B" unicode="&#x42b;" horiz-adv-x="1847"
d="M119 0q39 111 55 220t16 261v715q0 152 -16 261t-55 220h444q-39 -111 -55 -220t-16 -261v-287l174 150q14 4 43 4q132 0 245.5 -67t181.5 -184.5t68 -256.5q0 -163 -89 -291t-237 -196t-325 -68h-434zM1284 0q39 112 55.5 220.5t16.5 260.5v715q0 152 -16.5 260.5
t-55.5 220.5h445q-39 -112 -55.5 -220.5t-16.5 -260.5v-715q0 -152 16.5 -260.5t55.5 -220.5h-445zM492 190q177 0 283 103.5t106 253.5q0 133 -101 232.5t-250 99.5q-24 0 -38 -2v-687z" />
    <glyph glyph-name="uni042C" unicode="&#x42c;" horiz-adv-x="1331"
d="M119 0q39 111 55 220t16 261v715q0 152 -16 261t-55 220h444q-39 -111 -55 -220t-16 -261v-246l174 150q32 4 53 4q147 0 274.5 -69.5t204 -192t76.5 -267.5q0 -168 -94.5 -301t-251 -203.5t-344.5 -70.5h-465zM492 190q208 0 332 109t124 268q0 140 -120.5 246.5
t-297.5 106.5q-24 0 -38 -2v-728z" />
    <glyph glyph-name="uni042D" unicode="&#x42d;" horiz-adv-x="1542"
d="M610 1698q188 0 347 -64t268.5 -175t171 -264.5t61.5 -328.5q0 -201 -77.5 -369t-211 -280.5t-312.5 -174.5t-382 -62q-223 0 -414 73v307l7 2q96 -68 219 -106.5t248 -38.5q228 0 389.5 143t193.5 371h-409q-117 0 -247.5 -14.5t-205.5 -36.5l76 276h784
q-34 219 -181.5 355.5t-356.5 136.5q-143 0 -266.5 -47t-205.5 -123l-6 2l17 307q206 111 493 111z" />
    <glyph glyph-name="uni042E" unicode="&#x42e;" horiz-adv-x="2439"
d="M1538 1698q168 0 317 -60.5t260 -168t175.5 -266.5t64.5 -345q0 -188 -64 -352.5t-174.5 -279t-262.5 -180.5t-324 -66q-166 0 -309.5 60t-244 162.5t-164.5 235t-83 281.5h-237v-238q0 -152 16 -261t55 -220h-444q39 111 55 220t16 261v715q0 152 -16 261t-55 220h444
q-39 -111 -55 -220t-16 -261v-233h239q22 154 93 290t176 234t245 154.5t293 56.5zM1593 211q126 0 225.5 76.5t153 205.5t53.5 285q0 138 -43 265t-115 220.5t-173.5 149t-212.5 55.5q-86 0 -163 -39.5t-135 -110.5t-92 -178t-34 -233q0 -184 65 -341.5t189 -256t282 -98.5
z" />
    <glyph glyph-name="uni042F" unicode="&#x42f;" horiz-adv-x="1374"
d="M1184 1196v-715q0 -152 16 -261t55 -220h-444q39 112 55.5 220.5t16.5 260.5v248q-208 -316 -381 -528q-134 -162 -234 -201h-256v8q171 219 274.5 362t192.5 296q-340 165 -340 469q0 89 28 169t85.5 148.5t140 118.5t198.5 78t253 28h411q-39 -111 -55 -220t-16 -261z
M449 1169q0 -141 110.5 -249.5t323.5 -159.5v731q-16 4 -41 4q-168 0 -280.5 -89.5t-112.5 -236.5z" />
    <glyph glyph-name="uni0430" unicode="&#x430;" horiz-adv-x="1036"
d="M494 1184q201 0 303 -96t102 -275v-485q0 -102 15 -174.5t51 -153.5h-357v133q-90 -53 -184 -137q-10 -2 -41 -2q-164 0 -256 77.5t-92 213.5q0 99 62.5 172t224.5 149q129 62 286 125v27q0 94 -51.5 144t-142.5 50q-140 0 -281 -88l-4 4l86 269q120 47 279 47zM608 514
h-237q-29 -69 -29 -137q0 -93 50.5 -136.5t160.5 -43.5q34 0 55 6v311z" />
    <glyph glyph-name="uni0431" unicode="&#x431;" horiz-adv-x="1236"
d="M653 1106q112 0 207.5 -37t166 -106t110 -174t39.5 -234q0 -121 -49 -229t-129.5 -181.5t-184 -116t-211.5 -42.5q-84 0 -161 24.5t-147 79.5t-121 137t-81.5 205t-30.5 275q0 255 75 447t231 316t385 162l366 60l4 -4l-73 -326q-168 -11 -343 -42t-286 -73
q-47 -44 -88 -129t-64 -178q163 166 385 166zM647 186q90 12 149.5 108.5t59.5 246.5q0 160 -76 266t-182 106q-124 0 -229 -151q-4 -50 -4 -80q0 -221 79.5 -348.5t202.5 -147.5z" />
    <glyph glyph-name="uni0432" unicode="&#x432;" horiz-adv-x="1136"
d="M846 627q229 -98 229 -275q0 -103 -76 -184t-202 -124.5t-277 -43.5h-420q33 86 46.5 160t13.5 168v512q0 94 -13.5 167.5t-46.5 157.5h418q218 0 353 -90t135 -229q0 -63 -42.5 -120t-117.5 -99zM451 162q136 0 223.5 61.5t87.5 141.5q0 81 -75.5 144t-205.5 99v13
q215 77 215 202q0 73 -73 127t-172 54v-842z" />
    <glyph glyph-name="uni0433" unicode="&#x433;" horiz-adv-x="843"
d="M100 0q33 86 46.5 160t13.5 168v512q0 94 -13.5 167.5t-46.5 157.5h783l-74 -280q-149 52 -358 55v-612q0 -95 13.5 -169t45.5 -159h-410z" />
    <glyph glyph-name="uni0434" unicode="&#x434;" horiz-adv-x="1284"
d="M1081 217h201q-37 -147 -53.5 -288t-16.5 -335h-256v406h-643v-406h-256q0 195 -16 336t-53 287h155q87 156 123.5 318.5t36.5 379.5v29q0 145 -39 221h877q-33 -84 -46.5 -157.5t-13.5 -167.5v-623zM549 932q0 -224 -34 -395t-112 -320h388v731h-242v-16z" />
    <glyph glyph-name="uni0435" unicode="&#x435;" horiz-adv-x="1060"
d="M999 711q0 -89 -6 -144l-624 -16q8 -87 36 -150t70.5 -98t92 -51t108.5 -16q132 0 305 108l4 -4l-84 -297q-129 -57 -283 -57q-261 0 -409 147t-148 436q0 146 42 264.5t114 194t166.5 116t202.5 40.5q202 0 307.5 -126t105.5 -347zM371 715h401q0 278 -197 278
q-89 0 -140.5 -65.5t-63.5 -212.5z" />
    <glyph glyph-name="uni0436" unicode="&#x436;" horiz-adv-x="1636"
d="M664 631l-191 -391q-70 -148 -61 -240h-410v6q123 176 207 342l164 330l-121 194q-65 103 -116.5 167.5t-110.5 119.5v6h360q1 -49 13.5 -86.5t43.5 -87.5zM958 840v-512q0 -95 14 -169t48 -159h-402q33 86 46.5 160t13.5 168v512q0 94 -13.5 167.5t-46.5 157.5h402
q-34 -84 -48 -157t-14 -168zM1430 348q85 -166 204 -342v-6h-409q9 95 -62 240l-190 391l223 360q30 52 42.5 89t12.5 85h363v-6q-60 -55 -111.5 -120t-116.5 -167l-122 -196z" />
    <glyph glyph-name="uni0437" unicode="&#x437;" horiz-adv-x="880"
d="M551 643q125 -36 199.5 -112t74.5 -173q0 -116 -70.5 -201t-188 -127t-265.5 -42q-137 0 -258 51v270l6 2q53 -40 122 -63t136 -23q87 0 141 39.5t54 102.5q0 66 -64 106.5t-168 40.5q-47 0 -86 -8l-4 4l27 199q117 10 182.5 50.5t65.5 98.5q0 42 -37 69t-99 27
q-72 0 -134.5 -23.5t-104.5 -62.5l-4 2l10 252q128 54 281 54q189 0 297 -77t108 -194q0 -84 -57.5 -153.5t-163.5 -108.5z" />
    <glyph glyph-name="uni0438" unicode="&#x438;" horiz-adv-x="1339"
d="M1180 840v-512q0 -96 13.5 -170t47.5 -158h-412q33 86 46.5 160t13.5 168v338l-428 -482q11 -84 49 -184h-410q33 86 46.5 160t13.5 168v512q0 94 -13.5 167.5t-46.5 157.5h410q-32 -83 -45.5 -156.5t-13.5 -168.5v-340l430 483q-13 79 -52 182h412q-34 -83 -47.5 -156
t-13.5 -169z" />
    <glyph glyph-name="uni0439" unicode="&#x439;" horiz-adv-x="1339"
d="M670 1280q-193 0 -289 101t-96 278h264q0 -105 30.5 -163t90.5 -58q59 0 88.5 58t29.5 163h265q0 -176 -96.5 -277.5t-286.5 -101.5zM1180 840v-512q0 -96 13.5 -170t47.5 -158h-412q33 86 46.5 160t13.5 168v338l-428 -482q11 -84 49 -184h-410q33 86 46.5 160t13.5 168
v512q0 94 -13.5 167.5t-46.5 157.5h410q-32 -83 -45.5 -156.5t-13.5 -168.5v-340l430 483q-13 79 -52 182h412q-34 -83 -47.5 -156t-13.5 -169z" />
    <glyph glyph-name="uni043A" unicode="&#x43a;" horiz-adv-x="1185"
d="M451 840v-512q0 -95 13.5 -169t45.5 -159h-410q33 86 46.5 160t13.5 168v512q0 94 -13.5 167.5t-46.5 157.5h410q-32 -83 -45.5 -156.5t-13.5 -168.5zM948 348q86 -144 236 -342v-6h-439q10 101 -69 240l-223 391l262 360q35 49 48.5 86t16.5 88h391v-8
q-69 -55 -128 -119t-132 -166l-149 -202z" />
    <glyph glyph-name="uni043B" unicode="&#x43b;" horiz-adv-x="1247"
d="M1087 840v-512q0 -94 13.5 -168t46.5 -160h-410q33 86 46.5 160t13.5 168v620h-248v-26q0 -761 -338 -949l-252 181v4q176 92 260 265t84 464v57q0 145 -39 221h883q-33 -84 -46.5 -157.5t-13.5 -167.5z" />
    <glyph glyph-name="uni043C" unicode="&#x43c;" horiz-adv-x="1509"
d="M1440 1159q-55 -66 -72.5 -121t-17.5 -151v-559q0 -96 13.5 -170t47.5 -158h-410q33 86 46.5 160t13.5 168v385l-301 -371l-311 377v-391q0 -95 13.5 -169t45.5 -159h-408q33 86 46.5 160t13.5 168v690q-68 86 -131 141v6h415q11 -38 33 -72t72 -96l211 -258l244 297
q65 81 81 129h355v-6z" />
    <glyph glyph-name="uni043D" unicode="&#x43d;" horiz-adv-x="1325"
d="M1165 840v-512q0 -95 14 -169t48 -159h-412q32 85 45.5 159t13.5 169v155h-423v-155q0 -95 13.5 -169t45.5 -159h-410q33 86 46.5 160t13.5 168v512q0 94 -13.5 167.5t-46.5 157.5h410q-32 -83 -45.5 -156.5t-13.5 -168.5v-140h423v140q0 95 -13.5 168.5t-45.5 156.5h412
q-34 -84 -48 -157t-14 -168z" />
    <glyph glyph-name="uni043E" unicode="&#x43e;" horiz-adv-x="1267"
d="M645 1184q256 0 408.5 -157.5t152.5 -432.5q0 -169 -83.5 -310t-219 -219.5t-289.5 -78.5q-86 0 -166 21t-151 66.5t-123 111t-82.5 159.5t-30.5 207q0 139 50 259.5t132 201t187 126.5t215 46zM612 983q-100 0 -163.5 -96.5t-63.5 -274.5q0 -184 75 -297.5t197 -128.5
q104 15 166 117t62 270q0 178 -78 294t-195 116z" />
    <glyph glyph-name="uni043F" unicode="&#x43f;" horiz-adv-x="1304"
d="M100 0q33 86 46.5 160t13.5 168v512q0 94 -13.5 167.5t-46.5 157.5h1104q-32 -83 -45.5 -156.5t-13.5 -168.5v-512q0 -95 13.5 -169t45.5 -159h-409q32 85 45.5 159t13.5 169v620h-403v-620q0 -95 13.5 -169t45.5 -159h-410z" />
    <glyph glyph-name="uni0440" unicode="&#x440;" horiz-adv-x="1277"
d="M96 -406q60 155 60 326v930q0 159 -50 315h353q-13 -63 -13 -125v-122q85 136 172 200t193 64q73 0 142.5 -40.5t123 -111.5t86.5 -176.5t33 -226.5q0 -128 -35 -242.5t-99 -203.5t-163.5 -141t-220.5 -52q-61 0 -124 18.5t-108 50.5v-137q0 -171 60 -326h-410zM578 160
q133 0 219 101.5t86 279.5q0 187 -67 289t-177 102q-114 0 -193 -98v-648q67 -26 132 -26z" />
    <glyph glyph-name="uni0441" unicode="&#x441;" horiz-adv-x="976"
d="M688 1184q122 0 248 -29l-25 -317l-6 -2q-141 133 -266 133q-112 0 -186 -87t-74 -259q0 -193 100 -302.5t262 -109.5q107 0 211 43l4 -4l-129 -242q-71 -22 -180 -22q-116 0 -218.5 33.5t-186 101t-132.5 181.5t-49 261q0 131 43.5 244.5t123 197t198 131.5t262.5 48z
" />
    <glyph glyph-name="uni0442" unicode="&#x442;" horiz-adv-x="946"
d="M266 0q33 86 46.5 160t13.5 168v612q-200 0 -357 -70l-4 4l76 291h944l-74 -280q-112 52 -295 55v-612q0 -94 13.5 -168t46.5 -160h-410z" />
    <glyph glyph-name="uni0443" unicode="&#x443;" horiz-adv-x="1081"
d="M729 1165h385v-6q-85 -123 -160 -340l-311 -864q-56 -156 -104.5 -242t-100.5 -119h-329v9q85 69 165.5 185t137.5 259l-287 789q-79 214 -158 323v6h436q-22 -52 -22 -114q0 -69 29 -154l155 -434l148 407q35 99 35 187q0 49 -19 108z" />
    <glyph glyph-name="uni0444" unicode="&#x444;" horiz-adv-x="1595"
d="M1534 594q0 -160 -80 -290.5t-213.5 -208.5t-300.5 -101v-74q0 -174 59 -326h-399q59 152 59 326v70q-99 8 -186.5 32.5t-163.5 70.5t-130.5 109t-86 152.5t-31.5 196.5q0 131 48.5 243t131.5 190t190 127t228 65q-1 120 -15 194t-44 143l391 76q-40 -149 -49 -409
q280 -24 436 -175t156 -411zM375 612q0 -168 75.5 -279t208.5 -155v832q-130 -24 -207 -124.5t-77 -273.5zM1225 573q0 161 -78 274t-207 152v-833q133 36 209 139.5t76 267.5z" />
    <glyph glyph-name="uni0445" unicode="&#x445;" horiz-adv-x="1095"
d="M918 276q79 -136 194 -270v-6h-459q4 24 4 53q0 106 -79 240l-54 92l-78 -125q-67 -108 -67 -190q0 -42 12 -70h-395v6q134 131 244 309l166 269l-205 344q-83 138 -176 231v6h454q-10 -33 -10 -69t16.5 -77.5t59.5 -113.5l41 -69l45 71q61 98 61 187q0 38 -8 71h383v-6
q-91 -81 -182 -231l-180 -293z" />
    <glyph glyph-name="uni0446" unicode="&#x446;" horiz-adv-x="1316"
d="M1004 -406v406h-904q33 86 46.5 160t13.5 168v512q0 94 -13.5 167.5t-46.5 157.5h410q-32 -83 -45.5 -156.5t-13.5 -168.5v-623h387v623q0 94 -13.5 167.5t-46.5 157.5h410q-33 -84 -46.5 -157.5t-13.5 -167.5v-623h201q-37 -146 -53 -287t-16 -336h-256z" />
    <glyph glyph-name="uni0447" unicode="&#x447;" horiz-adv-x="1177"
d="M1018 840v-512q0 -95 13.5 -169t45.5 -159h-405q55 159 55 328v149q-130 -86 -293 -86q-161 0 -247.5 91t-86.5 268v90q0 95 -13.5 168.5t-45.5 156.5h412q-34 -84 -48 -157t-14 -168v-58q0 -143 160 -143q91 0 176 39v162q0 95 -13.5 168.5t-45.5 156.5h409
q-32 -83 -45.5 -156.5t-13.5 -168.5z" />
    <glyph glyph-name="uni0448" unicode="&#x448;" horiz-adv-x="1761"
d="M1602 840v-512q0 -96 13.5 -170t47.5 -158h-1563q33 86 46.5 160t13.5 168v512q0 94 -13.5 167.5t-46.5 157.5h406q-34 -84 -48 -157t-14 -168v-623h293v623q0 95 -13.5 168.5t-45.5 156.5h405q-32 -83 -45.5 -156.5t-13.5 -168.5v-623h293v623q0 94 -13.5 167.5
t-46.5 157.5h406q-34 -83 -47.5 -156t-13.5 -169z" />
    <glyph glyph-name="uni0449" unicode="&#x449;" horiz-adv-x="1792"
d="M1479 -406v406h-1379q33 86 46.5 160t13.5 168v512q0 94 -13.5 167.5t-46.5 157.5h406q-34 -84 -48 -157t-14 -168v-623h293v623q0 95 -13.5 168.5t-45.5 156.5h405q-32 -83 -45.5 -156.5t-13.5 -168.5v-623h293v623q0 94 -13.5 167.5t-46.5 157.5h406
q-34 -83 -47.5 -156t-13.5 -169v-623h200q-35 -147 -51 -288t-16 -335h-256z" />
    <glyph glyph-name="uni044A" unicode="&#x44a;" horiz-adv-x="1214"
d="M238 0q32 85 45.5 159t13.5 169v612q-184 0 -328 -53l-4 4l82 274h600q-32 -83 -45.5 -156.5t-13.5 -168.5v-176l147 141q24 4 43 4q162 0 276.5 -110.5t114.5 -280.5q0 -123 -71 -219.5t-188.5 -147.5t-258.5 -51h-413zM588 170q117 0 194.5 73t77.5 167t-73 163.5
t-181 69.5q-12 0 -18 -2v-471z" />
    <glyph glyph-name="uni044B" unicode="&#x44b;" horiz-adv-x="1552"
d="M100 0q33 86 46.5 160t13.5 168v512q0 94 -13.5 167.5t-46.5 157.5h410q-32 -83 -45.5 -156.5t-13.5 -168.5v-176l149 141q16 4 35 4q156 0 266.5 -110.5t110.5 -280.5q0 -123 -71 -219.5t-188.5 -147.5t-258.5 -51h-394zM1452 1165q-32 -83 -45.5 -156.5t-13.5 -168.5
v-512q0 -95 13.5 -169t45.5 -159h-410q33 86 46.5 160t13.5 168v512q0 94 -13.5 167.5t-46.5 157.5h410zM451 170q108 0 179.5 73t71.5 167t-68.5 163.5t-170.5 69.5q-8 0 -12 -2v-471z" />
    <glyph glyph-name="uni044C" unicode="&#x44c;" horiz-adv-x="1107"
d="M100 0q33 86 46.5 160t13.5 168v512q0 94 -13.5 167.5t-46.5 157.5h410q-32 -83 -45.5 -156.5t-13.5 -168.5v-176l147 141q24 4 43 4q113 0 209.5 -49t154.5 -139.5t58 -202.5q0 -123 -75.5 -219.5t-200 -147.5t-273.5 -51h-414zM451 170q130 0 216.5 73.5t86.5 166.5
q0 94 -81.5 163.5t-203.5 69.5q-12 0 -18 -2v-471z" />
    <glyph glyph-name="uni044D" unicode="&#x44d;" horiz-adv-x="976"
d="M330 1180q92 0 176 -20.5t159 -66t130 -111.5t87.5 -163.5t32.5 -216.5q0 -176 -74 -315.5t-217.5 -222t-334.5 -82.5q-126 0 -248 28l55 289l6 2q107 -94 246 -94q103 0 175.5 70t86.5 208h-450l33 205h405q-32 131 -120.5 203t-211.5 72q-89 0 -178 -47l-6 2l18 231
q116 29 230 29z" />
    <glyph glyph-name="uni044E" unicode="&#x44e;" horiz-adv-x="1785"
d="M1184 1184q248 0 394 -157t146 -433q0 -127 -47 -241t-125.5 -194t-182.5 -126.5t-216 -46.5q-98 0 -187 30.5t-162 90t-120.5 156.5t-58.5 220h-174v-155q0 -95 13.5 -169t45.5 -159h-410q33 86 46.5 160t13.5 168v512q0 94 -13.5 167.5t-46.5 157.5h410
q-32 -83 -45.5 -156.5t-13.5 -168.5v-140h186q31 144 115.5 256t197 170t234.5 58zM1196 186q95 15 152 117t57 270q0 178 -73 294t-181 116q-89 0 -148 -97t-59 -274q0 -184 69.5 -297.5t182.5 -128.5z" />
    <glyph glyph-name="uni044F" unicode="&#x44f;" horiz-adv-x="1107"
d="M973 840v-512q0 -95 13.5 -169t45.5 -159h-409q32 85 45.5 159t13.5 169v178q-161 -252 -250 -367q-92 -115 -166 -139h-260v6q112 147 180.5 245t128.5 202q-211 116 -211 317q0 81 35 151.5t101 125.5t172 86.5t239 31.5h381q-32 -83 -45.5 -156.5t-13.5 -168.5z
M395 799q0 -81 74 -154.5t213 -109.5v460q-10 2 -31 2q-110 0 -183 -54.5t-73 -143.5z" />
    <glyph glyph-name="uni0450" unicode="&#x450;" horiz-adv-x="1060"
d="M551 1296q-186 128 -279 375h306q21 -202 102 -375h-129zM999 711q0 -89 -6 -144l-624 -16q8 -87 36 -150t70.5 -98t92 -51t108.5 -16q132 0 305 108l4 -4l-84 -297q-129 -57 -283 -57q-261 0 -409 147t-148 436q0 146 42 264.5t114 194t166.5 116t202.5 40.5
q202 0 307.5 -126t105.5 -347zM371 715h401q0 278 -197 278q-89 0 -140.5 -65.5t-63.5 -212.5z" />
    <glyph glyph-name="uni0451" unicode="&#x451;" horiz-adv-x="1060"
d="M549 1653q-17 -158 -113 -336h-239q80 178 86 336h266zM975 1653q-17 -160 -115 -336h-237q79 181 84 336h268zM999 711q0 -89 -6 -144l-624 -16q8 -87 36 -150t70.5 -98t92 -51t108.5 -16q132 0 305 108l4 -4l-84 -297q-129 -57 -283 -57q-261 0 -409 147t-148 436
q0 146 42 264.5t114 194t166.5 116t202.5 40.5q202 0 307.5 -126t105.5 -347zM371 715h401q0 278 -197 278q-89 0 -140.5 -65.5t-63.5 -212.5z" />
    <glyph glyph-name="uni0452" unicode="&#x452;" horiz-adv-x="1282"
d="M821 1143q141 0 230.5 -94.5t89.5 -280.5v-633q0 -351 -183 -541h-274q92 116 129 232.5t37 308.5v510q0 121 -53.5 179.5t-149.5 58.5t-201 -62v-493q0 -94 13.5 -168t46.5 -160h-410q33 86 46.5 160t13.5 168v913v70q-109 -3 -205 -19v209q83 -15 186 -18
q-15 74 -41 133l402 76q-24 -94 -35 -211h98q166 0 277 20v-209q-106 19 -277 19h-110q-5 -133 -5 -166v-254q110 147 188.5 199.5t186.5 52.5z" />
    <glyph glyph-name="uni0453" unicode="&#x453;" horiz-adv-x="843"
d="M764 1671q-93 -247 -279 -375h-129q83 176 103 375h305zM100 0q33 86 46.5 160t13.5 168v512q0 94 -13.5 167.5t-46.5 157.5h783l-74 -280q-149 52 -358 55v-612q0 -95 13.5 -169t45.5 -159h-410z" />
    <glyph glyph-name="uni0454" unicode="&#x454;" horiz-adv-x="976"
d="M952 254l4 -4l-129 -242q-71 -22 -180 -22q-116 0 -218.5 33.5t-186 101t-132.5 181.5t-49 261q0 131 43.5 244.5t123 197t198 131.5t262.5 48q122 0 248 -29l-55 -289l-7 -2q-110 105 -245 105q-101 0 -172.5 -68t-89.5 -201h483l-39 -204h-434q30 -135 125 -210
t229 -75q112 0 221 43z" />
    <glyph glyph-name="uni0455" unicode="&#x455;" horiz-adv-x="854"
d="M377 -14q-151 0 -305 43l16 344h8q68 -116 125.5 -161.5t138.5 -45.5q63 0 97.5 31.5t34.5 89.5q0 59 -35.5 103t-141.5 114q-114 73 -160 149.5t-46 182.5q0 151 111 249.5t290 98.5q130 0 242 -35v-238h-9q-64 53 -113 75t-102 22q-61 0 -94 -29.5t-33 -81.5
q0 -54 37.5 -99.5t130.5 -105.5q117 -74 168 -152t51 -184q0 -178 -113 -274t-298 -96z" />
    <glyph glyph-name="uni0456" unicode="&#x456;" horiz-adv-x="610"
d="M307 1677q76 0 130.5 -54.5t54.5 -131.5t-54.5 -131.5t-130.5 -54.5q-78 0 -133 54.5t-55 131.5t55 131.5t133 54.5zM510 1165q-32 -83 -45.5 -156.5t-13.5 -168.5v-512q0 -95 13.5 -169t45.5 -159h-410q33 86 46.5 160t13.5 168v512q0 94 -13.5 167.5t-46.5 157.5h410z
" />
    <glyph glyph-name="uni0457" unicode="&#x457;" horiz-adv-x="591"
d="M324 1653q-17 -158 -113 -336h-229q80 178 86 336h256zM709 1653q-17 -160 -115 -336h-227q79 181 84 336h258zM510 1165q-32 -83 -45.5 -156.5t-13.5 -168.5v-512q0 -95 13.5 -169t45.5 -159h-410q33 86 46.5 160t13.5 168v512q0 94 -13.5 167.5t-46.5 157.5h410z" />
    <glyph glyph-name="uni0458" unicode="&#x458;" horiz-adv-x="604"
d="M305 1305q-79 0 -134.5 54.5t-55.5 131.5t55.5 131.5t134.5 54.5q76 0 129 -54.5t53 -131.5t-53 -131.5t-129 -54.5zM-10 -406q92 116 129 232.5t37 308.5v705q0 94 -13.5 167.5t-46.5 157.5h410q-33 -84 -46.5 -157.5t-13.5 -167.5v-705q0 -352 -182 -541h-274z" />
    <glyph glyph-name="uni0459" unicode="&#x459;" horiz-adv-x="1714"
d="M1278 809q162 0 276.5 -110.5t114.5 -280.5q0 -123 -71 -219.5t-188.5 -147.5t-258.5 -51h-414q33 86 46.5 160t13.5 168v620h-248v-26q0 -761 -338 -949l-252 181v4q176 92 260 265t84 464v57q0 145 -39 221h883q-33 -84 -46.5 -157.5t-13.5 -167.5v-176l148 141
q24 4 43 4zM1087 170q117 0 195 73.5t78 166.5q0 94 -73 163.5t-181 69.5q-13 0 -19 -2v-471z" />
    <glyph glyph-name="uni045A" unicode="&#x45a;" horiz-adv-x="1746"
d="M1311 809q162 0 276.5 -110.5t114.5 -280.5q0 -123 -71 -219.5t-188.5 -147.5t-258.5 -51h-414q32 85 45.5 159t13.5 169v155h-378v-155q0 -95 13.5 -169t45.5 -159h-410q33 86 46.5 160t13.5 168v512q0 94 -13.5 167.5t-46.5 157.5h410q-32 -83 -45.5 -156.5
t-13.5 -168.5v-140h378v140q0 95 -13.5 168.5t-45.5 156.5h410q-33 -84 -46.5 -157.5t-13.5 -167.5v-176l148 141q24 4 43 4zM1120 170q117 0 195 73.5t78 166.5q0 94 -73 163.5t-181 69.5q-13 0 -19 -2v-471z" />
    <glyph glyph-name="uni045B" unicode="&#x45b;" horiz-adv-x="1282"
d="M788 0q34 85 48 159t14 169v317q0 121 -53.5 179.5t-149.5 58.5t-201 -62v-493q0 -94 13.5 -168t46.5 -160h-410q33 86 46.5 160t13.5 168v913v70q-109 -3 -205 -19v209q83 -15 186 -18q-15 74 -41 133l402 76q-24 -94 -35 -211h98q166 0 277 20v-209q-106 19 -277 19
h-110q-5 -133 -5 -166v-254q110 147 188.5 199.5t186.5 52.5q141 0 230.5 -94.5t89.5 -280.5v-440q0 -95 13.5 -169t45.5 -159h-412z" />
    <glyph glyph-name="uni045C" unicode="&#x45c;" horiz-adv-x="1185"
d="M887 1671q-93 -247 -279 -375h-129q83 176 103 375h305zM451 840v-512q0 -95 13.5 -169t45.5 -159h-410q33 86 46.5 160t13.5 168v512q0 94 -13.5 167.5t-46.5 157.5h410q-32 -83 -45.5 -156.5t-13.5 -168.5zM948 348q86 -144 236 -342v-6h-439q10 101 -69 240l-223 391
l262 360q35 49 48.5 86t16.5 88h391v-8q-69 -55 -128 -119t-132 -166l-149 -202z" />
    <glyph glyph-name="uni045D" unicode="&#x45d;" horiz-adv-x="1339"
d="M676 1296q-186 128 -279 375h305q20 -199 103 -375h-129zM1180 840v-512q0 -96 13.5 -170t47.5 -158h-412q33 86 46.5 160t13.5 168v338l-428 -482q11 -84 49 -184h-410q33 86 46.5 160t13.5 168v512q0 94 -13.5 167.5t-46.5 157.5h410q-32 -83 -45.5 -156.5
t-13.5 -168.5v-340l430 483q-13 79 -52 182h412q-34 -83 -47.5 -156t-13.5 -169z" />
    <glyph glyph-name="uni045E" unicode="&#x45e;" horiz-adv-x="1081"
d="M543 1280q-193 0 -289 101t-96 278h264q0 -105 30.5 -163t90.5 -58q59 0 89 58t30 163h264q0 -176 -96.5 -277.5t-286.5 -101.5zM729 1165h385v-6q-85 -123 -160 -340l-311 -864q-56 -156 -104.5 -242t-100.5 -119h-329v9q85 69 165.5 185t137.5 259l-287 789
q-79 214 -158 323v6h436q-22 -52 -22 -114q0 -69 29 -154l155 -434l148 407q35 99 35 187q0 49 -19 108z" />
    <glyph glyph-name="uni045F" unicode="&#x45f;" horiz-adv-x="1288"
d="M1128 328q0 -94 13.5 -168t46.5 -160h-389q-27 -176 -27 -406h-256q0 231 -24 406h-392q33 86 46.5 160t13.5 168v512q0 94 -13.5 167.5t-46.5 157.5h410q-32 -83 -45.5 -156.5t-13.5 -168.5v-623h387v623q0 94 -13.5 167.5t-46.5 157.5h410q-33 -84 -46.5 -157.5
t-13.5 -167.5v-512z" />
    <glyph glyph-name="uni0490" unicode="&#x490;" horiz-adv-x="1081"
d="M1038 1358q-225 93 -546 96v-973q0 -152 16 -261t55 -220h-444q39 111 55 220t16 261v715q0 152 -16 261t-55 220h633q20 123 20 301h266v-620z" />
    <glyph glyph-name="uni0491" unicode="&#x491;" horiz-adv-x="843"
d="M829 872q-160 65 -378 68v-612q0 -95 13.5 -169t45.5 -159h-410q33 86 46.5 160t13.5 168v512q0 94 -13.5 167.5t-46.5 157.5h449q20 111 20 271h260v-564z" />
    <glyph glyph-name="uni0492" unicode="&#x492;" horiz-adv-x="1081"
d="M983 1358q-200 93 -491 96v-520h77q166 0 277 20v-231q-100 18 -277 18h-77v-260q0 -152 16 -261t55 -220h-444q39 111 55 220t16 261v260q-135 -3 -210 -18v231q86 -17 210 -20v262q0 152 -16 261t-55 220h1003z" />
    <glyph glyph-name="uni0493" unicode="&#x493;" horiz-adv-x="843"
d="M809 885q-149 52 -358 55v-293h12q159 0 276 21v-219q-100 18 -276 18h-12v-139q0 -95 13.5 -169t45.5 -159h-410q33 86 46.5 160t13.5 168v135q-68 -7 -109 -14v219q55 -10 109 -15v187q0 94 -13.5 167.5t-46.5 157.5h783z" />
    <glyph glyph-name="uni0496" unicode="&#x496;" horiz-adv-x="2101"
d="M557 1440l324 -518l-357 -590q-58 -94 -94 -183t-37 -149h-456v8q131 124 243 311l371 621l-201 330q-129 212 -323 399v8h460q0 -69 14.5 -119.5t55.5 -117.5zM1174 1196v-715q0 -152 16 -261t55 -220h-430q39 112 55.5 220.5t16.5 260.5v715q0 152 -16.5 260.5
t-55.5 220.5h430q-39 -111 -55 -220t-16 -261zM1927 244h244q-37 -154 -53.5 -301t-16.5 -349h-268v406h-166q-1 60 -37 149t-94 183l-356 590l323 518q41 67 55.5 117.5t14.5 119.5h461v-8q-198 -190 -322 -399l-203 -332l371 -619q7 -12 23 -37t24 -38z" />
    </font>
</defs>
</svg>
