<?xml version="1.0" standalone="no"?>
<!DOCTYPE svg PUBLIC "-//W3C//DTD SVG 1.1//EN" "http://www.w3.org/Graphics/SVG/1.1/DTD/svg11.dtd" >
<svg xmlns="http://www.w3.org/2000/svg" xmlns:xlink="http://www.w3.org/1999/xlink" version="1.1">
<metadata>
Created by FontForge 20170731 at Fri Jun 24 17:39:14 2022
 By Aleksey,,,
(c) 2019 Klim Type Foundry. All Rights Reserved.
</metadata>
<defs>
<font id="SohneBreit-Halbfett" horiz-adv-x="1638" >
  <font-face 
    font-family="So:hne Breit Halbfett"
    font-weight="600"
    font-stretch="expanded"
    units-per-em="2048"
    panose-1="2 11 7 5 3 2 2 6 2 3"
    ascent="1597"
    descent="-451"
    x-height="1077"
    cap-height="1470"
    bbox="-553 -424 2843 2019"
    underline-thickness="225"
    underline-position="-503"
    unicode-range="U+0020-FB04"
  />
<missing-glyph horiz-adv-x="1228" 
d="M0 0h1229v1470h-1229v-1470zM270 496l240 241l-240 240l105 104l239 -239l242 239l102 -104l-237 -240l237 -241l-102 -105l-242 240l-239 -240z" />
    <glyph glyph-name="ff" unicode="ff" horiz-adv-x="1775" 
d="M254 1096q0 202 129 299.5t360 97.5q162 0 250 -35l-41 -235q-96 24 -198 24q-112 0 -165.5 -37.5t-53.5 -122.5v-10h526v19q0 202 129 299.5t360 97.5q160 0 258 -37l-43 -235q-101 26 -204 26q-112 0 -166 -37.5t-54 -122.5v-10h412v-239h-410v-838h-282v838h-524v-838
h-283v838h-258v239h258v19z" />
    <glyph glyph-name="fi" unicode="fi" horiz-adv-x="1490" 
d="M254 1096q0 202 129 299.5t360 97.5q134 0 230 -29l-49 -235q-73 18 -170 18q-112 0 -165.5 -37.5t-53.5 -122.5v-10h387v-239h-385v-838h-283v838h-258v239h258v19zM1057 1204v266h293v-266h-293zM1348 1077v-1077h-287v1077h287z" />
    <glyph glyph-name="fl" unicode="fl" horiz-adv-x="1490" 
d="M254 1096q0 202 129 299.5t360 97.5q134 0 230 -29l-49 -235q-73 18 -170 18q-112 0 -165.5 -37.5t-53.5 -122.5v-10h387v-239h-385v-838h-283v838h-258v239h258v19zM1348 1470v-1470h-287v1470h287z" />
    <glyph glyph-name="ffi" unicode="ffi" horiz-adv-x="2263" 
d="M254 1096q0 202 129 299.5t360 97.5q162 0 250 -35l-41 -235q-96 24 -198 24q-112 0 -165.5 -37.5t-53.5 -122.5v-10h526v19q0 202 129 299.5t360 97.5q134 0 230 -29l-49 -235q-73 18 -170 18q-112 0 -166 -37.5t-54 -122.5v-10h388v-239h-386v-838h-282v838h-524v-838
h-283v838h-258v239h258v19zM1864 1204v266h293v-266h-293zM2154 1077v-1077h-286v1077h286z" />
    <glyph glyph-name="ffl" unicode="ffl" horiz-adv-x="2263" 
d="M254 1096q0 202 129 299.5t360 97.5q162 0 250 -35l-41 -235q-96 24 -198 24q-112 0 -165.5 -37.5t-53.5 -122.5v-10h526v19q0 202 129 299.5t360 97.5q134 0 230 -29l-49 -235q-73 18 -170 18q-112 0 -166 -37.5t-54 -122.5v-10h388v-239h-386v-838h-282v838h-524v-838
h-283v838h-258v239h258v19zM2154 1470v-1470h-286v1470h286z" />
    <glyph glyph-name="f_b" unicode="fb" horiz-adv-x="2385" 
d="M254 1096q0 202 129 299.5t360 97.5q134 0 230 -29l-49 -235q-73 18 -170 18q-112 0 -165.5 -37.5t-53.5 -122.5v-10h387v-239h-385v-838h-283v838h-258v239h258v19zM1348 129v-129h-287v1470h287v-524q60 66 165 109t238 43q179 0 314 -76.5t203.5 -202.5t68.5 -280
q0 -155 -68.5 -281.5t-203.5 -203.5t-314 -77q-133 0 -238 43t-165 109zM1335 545v-15q0 -136 105.5 -227.5t259.5 -91.5q153 0 257.5 88t104.5 240q0 151 -104.5 238t-257.5 87q-155 0 -260 -91t-105 -228z" />
    <glyph glyph-name="f_h" unicode="fh" horiz-adv-x="2314" 
d="M254 1096q0 202 129 299.5t360 97.5q134 0 230 -29l-49 -235q-73 18 -170 18q-112 0 -165.5 -37.5t-53.5 -122.5v-10h387v-239h-385v-838h-283v838h-258v239h258v19zM1061 0v1470h287v-528q62 70 163 113t230 43q217 0 343 -136t126 -362v-600h-287v532q0 142 -70.5 225
t-205.5 83q-143 0 -221 -83t-78 -229v-528h-287z" />
    <glyph glyph-name="f_idieresis" unicode="f&#xef;" horiz-adv-x="1462" 
d="M254 1096q0 202 129 299.5t360 97.5q160 0 258 -37l-43 -235q-101 26 -204 26q-112 0 -165.5 -37.5t-53.5 -122.5v-10h411v-239h-409v-838h-283v838h-258v239h258v19zM1313 1204v266h297v-266h-297zM1354 1077v-1077h-287v1077h287z" />
    <glyph glyph-name="f_j" unicode="fj" horiz-adv-x="1458" 
d="M254 1096q0 202 129 299.5t360 97.5q134 0 230 -29l-49 -235q-73 18 -170 18q-112 0 -165.5 -37.5t-53.5 -122.5v-10h387v-239h-385v-838h-283v838h-258v239h258v19zM1057 1204v266h293v-266h-293zM1348 37q0 -215 -120.5 -317.5t-336.5 -102.5q-127 0 -232 37l43 223
q94 -27 168 -27q97 0 144 40.5t47 140.5v1046h287v-1040z" />
    <glyph glyph-name="f_k" unicode="fk" horiz-adv-x="2312" 
d="M254 1096q0 202 129 299.5t360 97.5q134 0 230 -29l-49 -235q-73 18 -170 18q-112 0 -165.5 -37.5t-53.5 -122.5v-10h387v-239h-385v-838h-283v838h-258v239h258v19zM1348 1470v-890l581 497h395l-557 -463l574 -614h-361l-417 442l-215 -178v-264h-287v1470h287z" />
    <glyph glyph-name=".notdef" horiz-adv-x="1228" 
d="M0 0h1229v1470h-1229v-1470zM270 496l240 241l-240 240l105 104l239 -239l242 239l102 -104l-237 -240l237 -241l-102 -105l-242 240l-239 -240z" />
    <glyph glyph-name=".null" horiz-adv-x="0" 
 />
    <glyph glyph-name="nonmarkingreturn" horiz-adv-x="682" 
 />
    <glyph glyph-name="space" unicode=" " horiz-adv-x="548" 
 />
    <glyph glyph-name="exclam" unicode="!" horiz-adv-x="626" 
d="M203 457l-74 1013h367l-74 -1013h-219zM143 0v326h340v-326h-340z" />
    <glyph glyph-name="quotedbl" unicode="&#x22;" horiz-adv-x="806" 
d="M104 862l-65 608h332l-68 -608h-199zM502 862l-66 608h332l-68 -608h-198z" />
    <glyph glyph-name="numbersign" unicode="#" horiz-adv-x="1536" 
d="M180 0l94 379h-219v217h275l67 278h-280v218h336l94 378h250l-95 -378h342l95 378h250l-95 -378h187v-218h-240l-67 -278h247v-217h-301l-94 -379h-254l94 379h-342l-94 -379h-250zM580 596h342l67 278h-342z" />
    <glyph glyph-name="dollar" unicode="$" horiz-adv-x="1648" 
d="M-20 336l204 196q92 -114 230.5 -185t302.5 -93v379q-75 8 -133 16t-121 20.5t-109.5 28t-92 36.5t-77 49t-56 62.5t-36.5 79.5t-12 99q0 190 173.5 309.5t463.5 134.5v211h244v-217q205 -23 368.5 -96.5t249.5 -181.5l-203 -187q-130 164 -415 213v-346
q91 -10 159 -19.5t139.5 -25.5t121.5 -36t96.5 -50t74 -67.5t44 -88t16.5 -112.5q0 -207 -173 -323.5t-478 -137.5v-217h-244v217q-238 21 -439 110t-298 222zM367 1047q0 -48 29 -75.5t102.5 -46.5t218.5 -36v336q-350 -11 -350 -178zM1317 438q0 83 -70.5 114.5
t-285.5 53.5v-356q174 10 265 59t91 129z" />
    <glyph glyph-name="percent" unicode="%" horiz-adv-x="1990" 
d="M49 1106q0 167 121.5 277t306.5 110q183 0 304.5 -110t121.5 -277q0 -168 -121.5 -278.5t-304.5 -110.5q-185 0 -306.5 110t-121.5 279zM1708 1470l-1165 -1470h-258l1165 1470h258zM279 1106q0 -90 54.5 -142.5t143.5 -52.5q88 0 142.5 53t54.5 142q0 88 -55 141
t-142 53q-89 0 -143.5 -53t-54.5 -141zM1942 365q0 -167 -121.5 -277.5t-304.5 -110.5q-185 0 -307 110.5t-122 277.5q0 168 122 278.5t307 110.5q183 0 304.5 -110.5t121.5 -278.5zM1319 365q0 -88 55 -141.5t142 -53.5t141.5 53.5t54.5 141.5q0 89 -54 141.5t-142 52.5
t-142.5 -52.5t-54.5 -141.5z" />
    <glyph glyph-name="ampersand" unicode="&#x26;" horiz-adv-x="1830" 
d="M1466 823l277 -59q-68 -262 -262 -459q81 -45 152 -57t173 -2v-244q-164 -22 -292 15.5t-248 119.5q-272 -160 -590 -160q-298 0 -470.5 122t-172.5 323q0 149 99 256.5t267 152.5q-96 120 -96 256q0 174 137 290t371 116q124 0 221 -31t157 -84t91 -121.5t31 -146.5
q0 -141 -102.5 -244.5t-272.5 -150.5l328 -254q147 154 202 362zM580 1104q0 -59 32 -109.5t107 -111.5q321 33 321 219q0 75 -57.5 124.5t-173.5 49.5q-109 0 -169 -51t-60 -121zM328 453q0 -104 102.5 -167t274.5 -63q176 0 339 80l-456 361q-124 -13 -192 -68.5
t-68 -142.5z" />
    <glyph glyph-name="quotesingle" unicode="'" horiz-adv-x="407" 
d="M104 862l-65 608h332l-68 -608h-199z" />
    <glyph glyph-name="parenleft" unicode="(" horiz-adv-x="802" 
d="M340 655q0 -490 463 -856h-299q-215 139 -340 364.5t-125 491.5t125 491.5t340 364.5h299q-463 -369 -463 -856z" />
    <glyph glyph-name="parenright" unicode=")" horiz-adv-x="802" 
d="M463 655q0 487 -463 856h299q215 -139 340 -364.5t125 -491.5t-125 -491.5t-340 -364.5h-299q463 366 463 856z" />
    <glyph glyph-name="asterisk" unicode="*" horiz-adv-x="927" 
d="M639 668l-174 239l-176 -239l-160 116l174 242l-283 90l62 189l283 -91v297h198v-297l285 91l59 -189l-284 -90l176 -242z" />
    <glyph glyph-name="plus" unicode="+" 
d="M1516 602h-576v-573h-244v573h-573v246h573v573h244v-573h576v-246z" />
    <glyph glyph-name="comma" unicode="," horiz-adv-x="491" 
d="M78 0v332h336v-326q0 -143 -91 -225t-245 -82v151q141 9 141 136v14h-141z" />
    <glyph glyph-name="hyphen" unicode="-" horiz-adv-x="753" 
d="M82 471v256h590v-256h-590z" />
    <glyph glyph-name="period" unicode="." horiz-adv-x="491" 
d="M78 0v332h336v-332h-336z" />
    <glyph glyph-name="slash" unicode="/" horiz-adv-x="1146" 
d="M25 -201l792 1712h305l-792 -1712h-305z" />
    <glyph glyph-name="zero" unicode="0" horiz-adv-x="1777" 
d="M889 1493q237 0 430 -98t302.5 -271.5t109.5 -388.5t-109.5 -388.5t-302.5 -271.5t-430 -98q-238 0 -431 98t-302 271.5t-109 388.5t109 388.5t302 271.5t431 98zM889 1229q-238 0 -387.5 -136.5t-149.5 -357.5t149.5 -357t387.5 -136q236 0 384 135.5t148 357.5
t-148 358t-384 136z" />
    <glyph glyph-name="one" unicode="1" horiz-adv-x="950" 
d="M592 1479h229v-1479h-301v985h-506v229l285 13q147 7 214 65.5t79 186.5z" />
    <glyph glyph-name="two" unicode="2" horiz-adv-x="1533" 
d="M59 240l705 383q193 106 239 137q114 75 143 154q13 35 13 77q0 109 -98.5 177.5t-259.5 68.5q-196 0 -328.5 -103.5t-163.5 -273.5l-274 70q22 119 84 221t159 178.5t235 120t302 43.5q185 0 332 -60.5t230 -172.5t83 -256q0 -72 -23 -135.5t-62 -114t-103 -101.5
t-131.5 -92t-161.5 -90l-393 -211h909v-260h-1436v240z" />
    <glyph glyph-name="three" unicode="3" horiz-adv-x="1597" 
d="M809 -23q-309 0 -522 120.5t-279 318.5l273 116q47 -133 190 -218t338 -85q192 0 315 57.5t123 157.5q0 66 -55.5 109t-142.5 60.5t-203 17.5h-271v246h265q171 0 265.5 44t94.5 132q0 86 -103 136t-276 50q-188 0 -321 -78t-176 -198l-267 100q66 187 272 308.5
t505 121.5q313 0 498.5 -116.5t185.5 -301.5q0 -113 -70 -197t-193 -116q148 -36 228 -121t80 -219q0 -185 -207.5 -315t-546.5 -130z" />
    <glyph glyph-name="four" unicode="4" horiz-adv-x="1685" 
d="M1284 0h-289v352h-975v234l873 884h391v-872h381v-246h-381v-352zM371 598h624v627z" />
    <glyph glyph-name="five" unicode="5" horiz-adv-x="1576" 
d="M338 616l-234 64l97 790h1226v-260h-999l-43 -319q191 108 457 108q202 0 361 -60t251 -175.5t92 -267.5q0 -153 -99 -272t-269.5 -183t-382.5 -64q-303 0 -518.5 118.5t-276.5 320.5l270 114q59 -148 192.5 -224.5t334.5 -76.5q126 0 225.5 29.5t160 90t60.5 143.5
q0 122 -125.5 193t-333.5 71q-264 0 -446 -140z" />
    <glyph glyph-name="six" unicode="6" horiz-adv-x="1677" 
d="M1628 1180l-211 -185q-65 115 -203 181.5t-317 66.5q-247 0 -404.5 -128t-162.5 -318q88 93 238 145.5t341 52.5q214 0 381 -64.5t257.5 -177.5t90.5 -255q0 -151 -98 -269.5t-274 -185t-400 -66.5q-200 0 -358 55.5t-257.5 154t-151.5 230.5t-52 290q0 171 59.5 315.5
t168.5 249t271.5 163t360.5 58.5q247 0 437.5 -85t283.5 -228zM1339 489q0 118 -133 191.5t-344 73.5q-214 0 -347.5 -73.5t-133.5 -191.5q0 -120 131.5 -192t345.5 -72q213 0 347 72.5t134 191.5z" />
    <glyph glyph-name="seven" unicode="7" horiz-adv-x="1513" 
d="M1171 1214h-892v-288h-259v544h1473v-268q-290 -270 -427.5 -555t-137.5 -647h-307q0 700 550 1214z" />
    <glyph glyph-name="eight" unicode="8" horiz-adv-x="1658" 
d="M829 1493q196 0 351.5 -46t250.5 -141.5t95 -226.5q0 -112 -69.5 -186.5t-194.5 -126.5q79 -20 142.5 -50t115 -72.5t80 -102t28.5 -131.5q0 -139 -108 -238.5t-286 -147t-405 -47.5t-405 47.5t-285.5 147t-107.5 238.5q0 72 28.5 131.5t80 102t115 72.5t142.5 50
q-125 53 -195.5 127t-70.5 186q0 99 54.5 178.5t150 130.5t221.5 78t272 27zM829 881q185 0 293.5 48t108.5 140q0 91 -108.5 138.5t-293.5 47.5q-184 0 -292.5 -47.5t-108.5 -138.5q0 -93 108 -140.5t293 -47.5zM829 645q-227 0 -361 -54.5t-134 -156.5
q0 -106 133.5 -161.5t361.5 -55.5q227 0 361.5 55.5t134.5 161.5q0 102 -135 156.5t-361 54.5z" />
    <glyph glyph-name="nine" unicode="9" horiz-adv-x="1677" 
d="M49 291l211 184q65 -115 203 -181.5t317 -66.5q247 0 405 128.5t163 318.5q-88 -93 -238.5 -146t-341.5 -53q-214 0 -381 65t-257.5 178t-90.5 255q0 151 98 269.5t274 184.5t400 66q200 0 357.5 -55t257.5 -153.5t152 -230.5t52 -290q0 -171 -59.5 -315.5t-168.5 -249
t-271.5 -163.5t-360.5 -59q-247 0 -437.5 85.5t-283.5 228.5zM338 981q0 -118 132.5 -191t344.5 -73q214 0 347.5 73t133.5 191q0 120 -131.5 192t-345.5 72q-213 0 -347 -72.5t-134 -191.5z" />
    <glyph glyph-name="colon" unicode=":" horiz-adv-x="491" 
d="M78 0v332h336v-332h-336zM78 694v332h336v-332h-336z" />
    <glyph glyph-name="semicolon" unicode=";" horiz-adv-x="491" 
d="M78 0v332h336v-326q0 -143 -91 -225t-245 -82v151q141 9 141 136v14h-141zM78 694v332h336v-332h-336z" />
    <glyph glyph-name="less" unicode="&#x3c;" 
d="M121 539v379l1397 497v-301l-1158 -387l1158 -387v-301z" />
    <glyph glyph-name="equal" unicode="=" 
d="M123 870v246h1393v-246h-1393zM123 322v245h1393v-245h-1393z" />
    <glyph glyph-name="greater" unicode="&#x3e;" 
d="M1518 539l-1397 -500v301l1157 387l-1157 387v301l1397 -497v-379z" />
    <glyph glyph-name="question" unicode="?" horiz-adv-x="1447" 
d="M735 1237q-175 0 -290.5 -70.5t-135.5 -185.5l-305 45q35 204 232.5 335.5t515.5 131.5q201 0 353.5 -55.5t237 -159.5t84.5 -244q0 -121 -72 -213.5t-190.5 -145.5t-275.5 -73v-145h-291v348q122 0 212 10.5t159 34.5t104 66t35 102q0 108 -94.5 163.5t-278.5 55.5z
M586 0v326h338v-326h-338z" />
    <glyph glyph-name="at" unicode="@" horiz-adv-x="2174" 
d="M1538 412q-22 -121 92 -121q111 0 191 94t80 250q0 243 -198.5 379.5t-539.5 136.5q-203 0 -369.5 -52t-276.5 -144t-170 -217.5t-60 -272.5q0 -281 214 -436.5t601 -155.5q198 0 386.5 42t319.5 114l107 -181q-151 -92 -365 -141t-450 -49q-317 0 -553.5 93.5t-368 277
t-131.5 436.5q0 190 79 354.5t221.5 284.5t353.5 189t462 69q281 0 499 -85.5t342 -249t124 -382.5q0 -131 -43.5 -238.5t-118.5 -176.5t-174 -106t-211 -36q-97 0 -171 32.5t-112 86.5q-52 -58 -145 -87.5t-190 -29.5q-197 0 -312.5 102.5t-115.5 272.5q0 98 38 186.5
t104.5 154.5t164.5 105t211 39q101 0 181.5 -30.5t129.5 -83.5l20 96h256zM1030 303q120 0 196.5 73.5t76.5 176.5q0 86 -55.5 135t-155.5 49q-120 0 -196.5 -73.5t-76.5 -176.5q0 -85 56 -134.5t155 -49.5z" />
    <glyph glyph-name="A" unicode="A" horiz-adv-x="1794" 
d="M727 1470h338l741 -1470h-325l-170 342h-832l-172 -342h-321zM895 1174l-289 -576h576z" />
    <glyph glyph-name="B" unicode="B" horiz-adv-x="1669" 
d="M129 0v1470h965q238 0 367.5 -101t129.5 -290q0 -120 -63 -198.5t-152 -116.5q115 -38 187.5 -130.5t72.5 -221.5q0 -192 -136.5 -302t-371.5 -110h-999zM418 872h645q116 0 180 44.5t64 130.5q0 85 -64 129.5t-180 44.5h-645v-349zM418 629v-377h690q111 0 174.5 51
t63.5 137q0 85 -63.5 137t-174.5 52h-690z" />
    <glyph glyph-name="C" unicode="C" horiz-adv-x="1710" 
d="M47 735q0 215 112.5 388.5t311 271.5t444.5 98q287 0 491.5 -122.5t289.5 -340.5l-260 -131q-64 158 -196 244t-322 86q-160 0 -288.5 -61t-202 -174t-73.5 -259t73.5 -259t202 -173.5t288.5 -60.5q191 0 322.5 85.5t195.5 243.5l260 -131q-85 -218 -289.5 -340.5
t-491.5 -122.5q-246 0 -444.5 98t-311 271.5t-112.5 388.5z" />
    <glyph glyph-name="D" unicode="D" horiz-adv-x="1767" 
d="M129 0v1470h752q387 0 614 -199t227 -536t-227 -536t-614 -199h-752zM424 258h457q250 0 392 129t142 348q0 220 -142 348.5t-392 128.5h-457v-954z" />
    <glyph glyph-name="E" unicode="E" horiz-adv-x="1615" 
d="M129 1470h1423v-260h-1126v-327h1010v-258h-1010v-365h1126v-260h-1423v1470z" />
    <glyph glyph-name="F" unicode="F" horiz-adv-x="1576" 
d="M426 0h-297v1470h1401v-260h-1104v-366h987v-260h-987v-584z" />
    <glyph glyph-name="G" unicode="G" horiz-adv-x="1837" 
d="M934 1493q287 0 494 -120.5t292 -334.5l-264 -127q-64 153 -197.5 235.5t-326.5 82.5q-165 0 -296 -60.5t-205.5 -173.5t-74.5 -260q0 -221 160 -358t408 -137q208 0 365.5 88.5t172.5 222.5h-661v254h942v-805h-283v172q-66 -83 -213 -139t-325 -56q-188 0 -351 57.5
t-278 158t-180.5 242t-65.5 304.5q0 215 114 387.5t316.5 269.5t456.5 97z" />
    <glyph glyph-name="H" unicode="H" horiz-adv-x="1804" 
d="M1374 1470h303v-1470h-303v625h-944v-625h-301v1470h301v-585h944v585z" />
    <glyph glyph-name="I" unicode="I" horiz-adv-x="557" 
d="M430 1470v-1470h-301v1470h301z" />
    <glyph glyph-name="J" unicode="J" horiz-adv-x="1468" 
d="M1380 561q0 -263 -188.5 -423.5t-497.5 -160.5q-248 0 -438.5 119.5t-255.5 309.5l274 155q35 -137 150 -228t272 -91q180 0 281.5 86t101.5 247v895h301v-909z" />
    <glyph glyph-name="K" unicode="K" horiz-adv-x="1697" 
d="M430 1470v-704l825 704h424l-751 -622l798 -848h-397l-622 664l-277 -230v-434h-301v1470h301z" />
    <glyph glyph-name="L" unicode="L" horiz-adv-x="1507" 
d="M129 0v1470h301v-1210h1034v-260h-1335z" />
    <glyph glyph-name="M" unicode="M" horiz-adv-x="2156" 
d="M1200 0h-244l-534 1184v-1184h-293v1470h459l493 -1101l494 1101h453v-1470h-295v1184z" />
    <glyph glyph-name="N" unicode="N" horiz-adv-x="1773" 
d="M1647 1470v-1470h-267l-960 1087v-1087h-291v1470h307l918 -1038v1038h293z" />
    <glyph glyph-name="O" unicode="O" horiz-adv-x="1830" 
d="M915 1493q248 0 446.5 -98t310.5 -271.5t112 -388.5t-112 -388.5t-310.5 -271.5t-446.5 -98q-186 0 -347.5 57.5t-276 157.5t-179.5 241t-65 302t65 302t179.5 241t276 157.5t347.5 57.5zM915 1229q-249 0 -404 -136t-155 -358t155 -357.5t404 -135.5t404.5 135.5
t155.5 357.5t-155.5 358t-404.5 136z" />
    <glyph glyph-name="P" unicode="P" horiz-adv-x="1640" 
d="M430 541v-541h-301v1470h920q258 0 407.5 -120t149.5 -344q0 -223 -150 -344t-407 -121h-619zM430 797h602q130 0 203.5 55.5t73.5 153.5q0 99 -73 153.5t-204 54.5h-602v-417z" />
    <glyph glyph-name="Q" unicode="Q" horiz-adv-x="1830" 
d="M1585 -211q-106 28 -204.5 92t-153.5 142q-149 -46 -312 -46q-186 0 -347.5 57.5t-276 157.5t-179.5 241t-65 302t65 302t179.5 241t276 157.5t347.5 57.5q248 0 446.5 -98t310.5 -271.5t112 -388.5q0 -180 -79.5 -331t-221.5 -254q90 -103 268 -144zM915 1229
q-249 0 -404 -136t-155 -358t155 -357.5t404 -135.5t404.5 135.5t155.5 357.5t-155.5 358t-404.5 136z" />
    <glyph glyph-name="R" unicode="R" horiz-adv-x="1654" 
d="M430 547v-547h-301v1470h924q257 0 408 -120t151 -342q0 -166 -90 -277.5t-250 -155.5l375 -575h-347l-346 547h-524zM430 799h606q132 0 204.5 54.5t72.5 152.5q0 100 -72.5 154t-204.5 54h-606v-415z" />
    <glyph glyph-name="S" unicode="S" horiz-adv-x="1589" 
d="M-25 319l203 211q60 -81 140.5 -140.5t168 -91.5t172 -47t170.5 -15q187 0 303.5 52t116.5 140q0 98 -96.5 129t-437.5 68q-85 10 -149.5 20t-133.5 26t-119 36.5t-97 50.5t-75.5 67t-45.5 87.5t-17 111.5q0 210 189 339.5t501 129.5q245 0 450.5 -80t305.5 -213
l-201 -192q-85 109 -234.5 169t-336.5 60t-284 -51.5t-97 -130.5q0 -27 8.5 -46.5t31.5 -36t54.5 -28t89 -23t122 -20t165.5 -20.5q78 -9 135 -16.5t123 -19t113 -24t97.5 -30.5t84.5 -39.5t66.5 -51t51.5 -64t30 -79t11 -96.5q0 -118 -56.5 -211t-156.5 -152t-233 -90
t-291 -31q-265 0 -500.5 94t-341.5 248z" />
    <glyph glyph-name="T" unicode="T" horiz-adv-x="1675" 
d="M1638 1210h-649v-1210h-303v1210h-649v260h1601v-260z" />
    <glyph glyph-name="U" unicode="U" horiz-adv-x="1687" 
d="M844 -20q-190 0 -335 51t-237 146t-138 225t-46 292v776h301v-759q0 -467 455 -467q452 0 452 467v759h303v-776q0 -162 -46.5 -292.5t-138 -225t-236.5 -145.5t-334 -51z" />
    <glyph glyph-name="V" unicode="V" horiz-adv-x="1804" 
d="M1073 0h-344l-743 1470h327l592 -1173l590 1173h322z" />
    <glyph glyph-name="W" unicode="W" horiz-adv-x="2420" 
d="M1057 1470h313l367 -1138l387 1138h309l-514 -1470h-350l-359 1124l-362 -1124h-348l-514 1470h315l387 -1138z" />
    <glyph glyph-name="X" unicode="X" horiz-adv-x="1740" 
d="M412 1470l460 -507l463 507h369l-647 -704l704 -766h-379l-514 567l-520 -567h-368l702 764l-647 706h377z" />
    <glyph glyph-name="Y" unicode="Y" horiz-adv-x="1736" 
d="M872 868l527 602h358l-737 -845v-625h-301v625l-739 845h366z" />
    <glyph glyph-name="Z" unicode="Z" horiz-adv-x="1628" 
d="M1550 260v-260h-1476v229l1038 981h-1030v260h1460v-229l-1040 -981h1048z" />
    <glyph glyph-name="bracketleft" unicode="[" horiz-adv-x="745" 
d="M358 1286v-1263h367v-224h-643v1712h643v-225h-367z" />
    <glyph glyph-name="backslash" unicode="\" horiz-adv-x="1146" 
d="M1122 -201h-305l-792 1712h305z" />
    <glyph glyph-name="bracketright" unicode="]" horiz-adv-x="745" 
d="M387 1286h-367v225h644v-1712h-644v224h367v1263z" />
    <glyph glyph-name="asciicircum" unicode="^" horiz-adv-x="1196" 
d="M461 1470h274l432 -634h-299l-270 405l-272 -405h-297z" />
    <glyph glyph-name="underscore" unicode="_" horiz-adv-x="933" 
d="M86 -340v234h762v-234h-762z" />
    <glyph glyph-name="grave" unicode="`" horiz-adv-x="1228" 
d="M877 1174h-242l-340 296h369z" />
    <glyph glyph-name="a" unicode="a" horiz-adv-x="1357" 
d="M498 -23q-200 0 -326.5 88t-126.5 246q0 145 114 230t314 106l449 47v8q0 72 -67.5 118t-201.5 46q-117 0 -206 -46t-117 -118l-248 84q51 140 212.5 226t369.5 86q256 0 395 -102.5t139 -297.5v-424q0 -48 29 -62t121 3v-215q-165 -33 -263 6.5t-135 126.5
q-76 -72 -194 -114t-258 -42zM922 416v73l-406 -45q-100 -11 -146 -39t-46 -86q0 -60 55.5 -91t157.5 -31q92 0 178 24t146.5 75.5t60.5 119.5z" />
    <glyph glyph-name="b" unicode="b" horiz-adv-x="1435" 
d="M397 129v-129h-286v1470h286v-524q60 66 165.5 109t238.5 43q135 0 246.5 -44.5t185 -121t113.5 -177.5t40 -216t-40 -217t-113.5 -179t-185 -121.5t-246.5 -44.5q-133 0 -238.5 43t-165.5 109zM385 545v-15q0 -136 105.5 -227.5t259.5 -91.5q153 0 257.5 88t104.5 240
q0 151 -104.5 238t-257.5 87q-155 0 -260 -91t-105 -228z" />
    <glyph glyph-name="c" unicode="c" horiz-adv-x="1265" 
d="M47 539q0 163 83.5 291t229 198t326.5 70q109 0 206 -29t167.5 -78t120 -109.5t73.5 -127.5l-239 -117q-31 94 -120.5 158.5t-209.5 64.5q-157 0 -257.5 -86.5t-100.5 -234.5q0 -149 100.5 -236.5t257.5 -87.5q120 0 209.5 64.5t120.5 158.5l237 -121
q-51 -140 -201.5 -240t-363.5 -100q-181 0 -326.5 70t-229 199t-83.5 293z" />
    <glyph glyph-name="d" unicode="d" horiz-adv-x="1435" 
d="M1038 129q-60 -66 -165 -109t-238 -43q-179 0 -314 77t-203.5 203.5t-68.5 281.5q0 154 68.5 280t203.5 202.5t314 76.5q133 0 238 -43t165 -109v524h287v-1470h-287v129zM1051 545q0 137 -105 228t-260 91q-153 0 -257.5 -87t-104.5 -238q0 -152 104.5 -240t257.5 -88
q154 0 259.5 91.5t105.5 227.5v15z" />
    <glyph glyph-name="e" unicode="e" horiz-adv-x="1325" 
d="M684 211q118 0 206.5 53.5t125.5 143.5l244 -105q-56 -139 -213 -232.5t-363 -93.5q-280 0 -458.5 156.5t-178.5 405.5q0 240 179 399.5t456 159.5q137 0 250 -42.5t188.5 -117t116.5 -174.5t41 -215v-90h-954q26 -116 123.5 -182t236.5 -66zM672 868q-122 0 -213.5 -56
t-124.5 -159h661q-13 82 -102.5 148.5t-220.5 66.5z" />
    <glyph glyph-name="f" unicode="f" horiz-adv-x="968" 
d="M254 1096q0 202 129 299.5t360 97.5q160 0 258 -37l-43 -235q-101 26 -204 26q-112 0 -165.5 -37.5t-53.5 -122.5v-10h411v-239h-409v-838h-283v838h-258v239h258v19z" />
    <glyph glyph-name="g" unicode="g" horiz-adv-x="1425" 
d="M1315 152q0 -164 -87 -287.5t-236.5 -187.5t-338.5 -64q-218 0 -379 74.5t-227 208.5l227 139q41 -92 141.5 -144.5t233.5 -52.5q161 0 270 76t109 211v41q-146 -150 -401 -150q-135 0 -246.5 43t-185.5 117t-114 172.5t-40 210.5q0 109 40.5 207t113.5 172t185 117
t247 43q255 0 401 -146v125h287v-925zM1042 563q0 137 -105.5 221t-258.5 84q-152 0 -255.5 -83.5t-103.5 -225.5q0 -143 103.5 -227t255.5 -84q153 0 258.5 84.5t105.5 222.5v8z" />
    <glyph glyph-name="h" unicode="h" horiz-adv-x="1361" 
d="M111 0v1470h286v-528q62 70 163.5 113t230.5 43q217 0 343 -136t126 -362v-600h-287v532q0 142 -71 225t-206 83q-143 0 -221 -83t-78 -229v-528h-286z" />
    <glyph glyph-name="i" unicode="i" horiz-adv-x="505" 
d="M106 1204v266h293v-266h-293zM397 1077v-1077h-286v1077h286z" />
    <glyph glyph-name="j" unicode="j" horiz-adv-x="505" 
d="M106 1204v266h293v-266h-293zM397 37q0 -215 -120 -317.5t-336 -102.5q-127 0 -232 37l43 223q95 -27 168 -27q97 0 144 40.5t47 140.5v1046h286v-1040z" />
    <glyph glyph-name="k" unicode="k" horiz-adv-x="1361" 
d="M397 1470v-890l582 497h395l-557 -463l574 -614h-361l-418 442l-215 -178v-264h-286v1470h286z" />
    <glyph glyph-name="l" unicode="l" horiz-adv-x="505" 
d="M397 1470v-1470h-286v1470h286z" />
    <glyph glyph-name="m" unicode="m" horiz-adv-x="2168" 
d="M111 0v1077h286v-133q137 154 373 154q124 0 222.5 -51t152.5 -142q171 193 434 193q234 0 360.5 -136t126.5 -370v-592h-286v537q0 142 -65 223.5t-197 81.5q-140 0 -212.5 -82t-72.5 -228v-532h-287v537q0 142 -65 223.5t-197 81.5q-142 0 -214.5 -82t-72.5 -228v-532
h-286z" />
    <glyph glyph-name="n" unicode="n" horiz-adv-x="1361" 
d="M111 0v1077h286v-135q62 70 163.5 113t230.5 43q217 0 343 -136t126 -362v-600h-287v532q0 142 -71 225t-206 83q-143 0 -221 -83t-78 -229v-528h-286z" />
    <glyph glyph-name="o" unicode="o" horiz-adv-x="1353" 
d="M678 1098q175 0 317.5 -69t226 -197.5t83.5 -292.5q0 -124 -49 -230t-133 -178.5t-199.5 -113t-245.5 -40.5q-176 0 -319 69t-227.5 198.5t-84.5 294.5q0 164 84.5 292.5t227.5 197.5t319 69zM678 217q150 0 250 86.5t100 235.5q0 148 -100 233.5t-250 85.5
q-153 0 -252.5 -85.5t-99.5 -233.5q0 -149 99.5 -235.5t252.5 -86.5z" />
    <glyph glyph-name="p" unicode="p" horiz-adv-x="1435" 
d="M397 129v-494h-286v1442h286v-131q60 66 165.5 109t238.5 43q135 0 246.5 -44.5t185 -121t113.5 -177.5t40 -216t-40 -217t-113.5 -179t-185 -121.5t-246.5 -44.5q-133 0 -238.5 43t-165.5 109zM385 545v-15q0 -136 105.5 -227.5t259.5 -91.5q153 0 257.5 88t104.5 240
q0 151 -104.5 238t-257.5 87q-155 0 -260 -91t-105 -228z" />
    <glyph glyph-name="q" unicode="q" horiz-adv-x="1435" 
d="M1038 129q-60 -66 -165 -109t-238 -43q-179 0 -314 77t-203.5 203.5t-68.5 281.5q0 154 68.5 280t203.5 202.5t314 76.5q133 0 238 -43t165 -109v131h287v-1442h-287v494zM1051 545q0 137 -105 228t-260 91q-153 0 -257.5 -87t-104.5 -238q0 -152 104.5 -240t257.5 -88
q154 0 259.5 91.5t105.5 227.5v15z" />
    <glyph glyph-name="r" unicode="r" horiz-adv-x="944" 
d="M922 1069v-283q-69 17 -129 17q-396 0 -396 -344v-459h-286v1077h286v-190q128 196 406 196q65 0 119 -14z" />
    <glyph glyph-name="s" unicode="s" horiz-adv-x="1198" 
d="M-8 203l164 188q175 -190 469 -190q262 0 262 114q0 21 -9.5 36t-29 25t-50.5 17t-73 12.5t-99 12.5q-54 6 -85 10q-77 10 -130.5 19.5t-114.5 25.5t-100.5 38t-73.5 53t-50.5 75t-16.5 100q0 161 144.5 260t388.5 99q185 0 331.5 -56.5t225.5 -146.5l-164 -174
q-68 74 -173.5 115t-234.5 41q-116 0 -176.5 -29t-60.5 -78q0 -46 53.5 -62.5t231.5 -38.5l24 -3q72 -8 119.5 -15t108 -20t99.5 -28t80.5 -39t65 -54t38.5 -72t15 -94q0 -119 -77 -203.5t-201 -124t-281 -39.5q-197 0 -363 60t-257 166z" />
    <glyph glyph-name="t" unicode="t" horiz-adv-x="1071" 
d="M256 360v478h-258v239h258v307h283v-307h458v-239h-458v-430q0 -93 52 -131.5t167 -38.5q105 0 235 45l49 -236q-159 -61 -348 -61q-93 0 -169.5 20t-138 63t-96 117t-34.5 174z" />
    <glyph glyph-name="u" unicode="u" horiz-adv-x="1351" 
d="M1243 1077v-1077h-287v135q-64 -72 -162 -115t-225 -43q-214 0 -340.5 133t-126.5 357v610h287v-561q0 -139 67.5 -213t202.5 -74q141 0 219 81t78 225v542h287z" />
    <glyph glyph-name="v" unicode="v" horiz-adv-x="1347" 
d="M821 0h-295l-530 1077h319l365 -768l364 768h308z" />
    <glyph glyph-name="w" unicode="w" horiz-adv-x="1886" 
d="M825 1077h250l258 -729l262 729h295l-424 -1077h-258l-264 717l-264 -717h-258l-426 1077h305l268 -729z" />
    <glyph glyph-name="x" unicode="x" horiz-adv-x="1370" 
d="M375 1077l311 -346l322 346h348l-494 -522l510 -555h-362l-324 362l-340 -362h-348l512 539l-496 538h361z" />
    <glyph glyph-name="y" unicode="y" horiz-adv-x="1347" 
d="M788 -76q-82 -169 -188.5 -238t-275.5 -69q-61 0 -130 13.5t-104 31.5l51 234q80 -41 158 -41q76 0 131 29.5t86 109.5l10 33l-530 1050h319l369 -768l360 768h308z" />
    <glyph glyph-name="z" unicode="z" horiz-adv-x="1280" 
d="M1212 240v-240h-1142v213l737 625h-731v239h1130v-215l-733 -622h739z" />
    <glyph glyph-name="braceleft" unicode="{" horiz-adv-x="864" 
d="M41 541v229h100q113 0 113 154v233q0 167 103 260.5t292 93.5h195v-225h-146q-98 0 -142 -46t-44 -144v-183q0 -112 -39.5 -170.5t-107.5 -87.5q68 -29 107.5 -87.5t39.5 -170.5v-182q0 -98 44 -144t142 -46h146v-226h-195q-189 0 -292 94t-103 261v233q0 154 -113 154
h-100z" />
    <glyph glyph-name="bar" unicode="|" horiz-adv-x="552" 
d="M135 -201v1712h283v-1712h-283z" />
    <glyph glyph-name="braceright" unicode="}" horiz-adv-x="864" 
d="M823 541h-100q-113 0 -113 -154v-233q0 -167 -103 -261t-292 -94h-195v226h146q98 0 142 46t44 144v182q0 111 40 170t108 88q-68 29 -108 88t-40 170v183q0 98 -44 144t-142 46h-146v225h195q189 0 292 -93.5t103 -260.5v-233q0 -154 113 -154h100v-229z" />
    <glyph glyph-name="asciitilde" unicode="~" horiz-adv-x="1036" 
d="M360 846q42 0 84 -19t69.5 -42.5t61.5 -42.5t62 -19q42 0 65.5 28t36.5 97h215q-9 -180 -82 -292t-196 -112q-42 0 -83.5 19t-69.5 42.5t-61 42.5t-61 19q-43 0 -66.5 -28t-35.5 -95h-217q9 178 82 290t196 112z" />
    <glyph glyph-name="uni00A0" unicode="&#xa0;" horiz-adv-x="548" 
 />
    <glyph glyph-name="exclamdown" unicode="&#xa1;" horiz-adv-x="626" 
d="M203 1014h219l74 -1014h-367zM143 1470h340v-325h-340v325z" />
    <glyph glyph-name="cent" unicode="&#xa2;" horiz-adv-x="1343" 
d="M53 553q0 227 156.5 382.5t404.5 186.5v219h228v-219q181 -24 310 -116.5t179 -217.5l-211 -122q-35 83 -105.5 141.5t-172.5 79.5v-670q101 23 173 82.5t105 142.5l209 -129q-50 -123 -177.5 -214t-309.5 -115v-195h-228v195q-248 31 -404.5 186.5t-156.5 382.5z
M315 553q0 -129 82 -218.5t217 -117.5v672q-135 -28 -217 -117.5t-82 -218.5z" />
    <glyph glyph-name="sterling" unicode="&#xa3;" horiz-adv-x="1802" 
d="M178 584v202h182q-77 108 -77 224q0 97 49.5 184.5t138.5 154t222 105.5t290 39q201 0 357.5 -61.5t246.5 -182.5t90 -284q0 -54 -8 -101h-274q6 38 6 68q0 151 -113 229t-309 78q-186 0 -293.5 -74.5t-107.5 -187.5q0 -50 19.5 -93.5t57.5 -97.5h547v-202h-426
q19 -66 19 -121q0 -28 -7 -72q7 -4 47 -24.5t50 -25t45 -22t49.5 -22.5t45 -17.5t50 -17t46.5 -11.5t51 -9t49 -2q123 0 199 60t83 179h275q2 -223 -142.5 -362.5t-378.5 -139.5q-82 0 -157.5 16.5t-149.5 52.5t-119 63t-120 77q-64 -96 -163.5 -152.5t-221.5 -56.5
q-144 0 -235 74.5t-91 198.5q0 125 97 199.5t247 74.5q100 0 205 -30q-8 34 -39 90h-332zM227 254q0 -35 29 -58.5t80 -23.5q66 0 116 34t78 89q-98 45 -178 45q-56 0 -90.5 -23.5t-34.5 -62.5z" />
    <glyph glyph-name="yen" unicode="&#xa5;" horiz-adv-x="1871" 
d="M225 356v199h568v121h-568v198h377l-604 596h377l565 -569l565 569h369l-602 -596h379v-198h-570v-121h570v-199h-570v-356h-288v356h-568z" />
    <glyph glyph-name="section" unicode="&#xa7;" horiz-adv-x="1642" 
d="M1550 342q0 -167 -181.5 -266t-506.5 -99q-274 0 -501 62.5t-343 171.5l175 203q104 -94 279 -151.5t411 -57.5q164 0 263 32t99 87q0 48 -47 71.5t-145 28.5l-607 37q-164 9 -260 82.5t-96 201.5q0 119 98 205q-75 72 -75 180q0 164 175.5 263.5t497.5 99.5
q263 0 458 -56.5t302 -150.5l-166 -190q-197 161 -622 161q-170 0 -257 -28t-87 -78q0 -41 36.5 -61t118.5 -25l564 -29q436 -24 436 -305q0 -124 -92 -207q73 -76 73 -182zM1087 655q118 -7 191 -28q31 34 31 75q0 52 -47.5 76.5t-161.5 30.5l-594 33q-60 3 -125 16
q-41 -30 -41 -78q0 -84 172 -92z" />
    <glyph glyph-name="dieresis" unicode="&#xa8;" horiz-adv-x="1228" 
d="M215 1204v266h295v-266h-295zM719 1204v266h295v-266h-295z" />
    <glyph glyph-name="copyright" unicode="&#xa9;" horiz-adv-x="1835" 
d="M1759 735q0 -161 -66 -302.5t-178.5 -241t-267.5 -157t-327 -57.5q-174 0 -330.5 57.5t-269.5 157t-179.5 241t-66.5 302.5q0 217 113 391t306 270.5t427 96.5q231 0 422.5 -96.5t304 -271t112.5 -390.5zM1612 735q0 174 -92.5 315.5t-250.5 219.5t-349 78
q-193 0 -352 -78t-252 -219t-93 -316q0 -173 92.5 -313.5t252.5 -219.5t352 -79q191 0 349 79t250.5 219.5t92.5 313.5zM436 737q0 192 138.5 312t353.5 120q170 0 286 -65.5t162 -183.5l-221 -95q-62 138 -227 138q-116 0 -184 -61t-68 -165t68 -164.5t184 -60.5
q167 0 227 137l221 -94q-46 -119 -162 -184.5t-286 -65.5q-215 0 -353.5 120t-138.5 312z" />
    <glyph glyph-name="ordfeminine" unicode="&#xaa;" horiz-adv-x="1044" 
d="M369 684q-145 0 -235.5 63.5t-90.5 174.5q0 108 84.5 168t228.5 73l312 31v4q0 48 -45 78.5t-136 30.5q-78 0 -136.5 -30t-76.5 -77l-202 57q35 104 152 166t274 62q187 0 288 -73t101 -216v-287q0 -33 20 -43.5t80 0.5v-166q-228 -44 -299 86q-54 -47 -137 -74.5
t-182 -27.5zM668 995v45l-279 -28q-65 -6 -95 -24.5t-30 -57.5q0 -38 38 -59t108 -21q99 0 178.5 40t79.5 105zM63 385v193h922v-193h-922z" />
    <glyph glyph-name="guillemotleft" unicode="&#xab;" horiz-adv-x="1116" 
d="M78 399v267l454 278v-276l-208 -136l208 -135v-276zM584 399v267l454 278v-276l-209 -136l209 -135v-276z" />
    <glyph glyph-name="registered" unicode="&#xae;" horiz-adv-x="1110" 
d="M1057 1036q0 -130 -66 -234.5t-181 -163t-255 -58.5t-255 58.5t-181 163t-66 234.5q0 197 144.5 327t357.5 130t357.5 -130t144.5 -327zM952 1036q0 154 -114 257.5t-283 103.5t-283 -103.5t-114 -257.5q0 -153 113.5 -256.5t283.5 -103.5t283.5 103.5t113.5 256.5z
M823 813h-153l-86 150h-119v-150h-137v461h286q88 0 137.5 -39t49.5 -111q0 -87 -90 -127zM659 1112q0 24 -17.5 37.5t-45.5 13.5h-131v-102h131q28 0 45.5 13.5t17.5 37.5z" />
    <glyph glyph-name="macron" unicode="&#xaf;" horiz-adv-x="1228" 
d="M989 1208h-749v217h749v-217z" />
    <glyph glyph-name="degree" unicode="&#xb0;" horiz-adv-x="831" 
d="M416 1493q170 0 274.5 -89t104.5 -226q0 -136 -105 -227t-274 -91q-170 0 -274.5 91t-104.5 227q0 137 104 226t275 89zM416 1038q83 0 131.5 36.5t48.5 103.5q0 66 -48.5 102.5t-131.5 36.5q-81 0 -132 -36.5t-51 -102.5t51 -103t132 -37z" />
    <glyph glyph-name="twosuperior" unicode="&#xb2;" horiz-adv-x="909" 
d="M55 817l346 189q128 66 175 102t47 86q0 44 -40.5 73t-111.5 29q-90 0 -152.5 -49t-76.5 -129l-205 43q20 136 137 229t307 93q164 0 268.5 -73t104.5 -198q0 -93 -57.5 -159.5t-182.5 -124.5l-170 -86h428v-187h-817v162z" />
    <glyph glyph-name="threesuperior" unicode="&#xb3;" horiz-adv-x="950" 
d="M479 643q-177 0 -296 60t-175 169l199 91q30 -62 103.5 -101t168.5 -39q80 0 134.5 22.5t54.5 63.5q0 76 -181 76h-151v168h141q174 0 174 72q0 35 -46.5 55t-125.5 20q-91 0 -157.5 -34.5t-92.5 -89.5l-188 88q48 98 170.5 158.5t284.5 60.5q185 0 293 -67t108 -171
q0 -60 -39.5 -106.5t-103.5 -67.5q161 -50 161 -182q0 -105 -119 -175.5t-317 -70.5z" />
    <glyph glyph-name="acute" unicode="&#xb4;" horiz-adv-x="1228" 
d="M352 1174l213 296h369l-340 -296h-242z" />
    <glyph glyph-name="paragraph" unicode="&#xb6;" horiz-adv-x="1742" 
d="M1178 0v1229h-295v-578h-363q-209 0 -341 109.5t-132 294.5t139 300t365 115h1167v-241h-268v-1229h-272z" />
    <glyph glyph-name="periodcentered" unicode="&#xb7;" horiz-adv-x="499" 
d="M82 430v332h336v-332h-336z" />
    <glyph glyph-name="cedilla" unicode="&#xb8;" horiz-adv-x="1228" 
d="M899 -205q0 -83 -82.5 -131.5t-208.5 -48.5q-182 0 -278 74l88 131q75 -58 178 -58q109 0 109 50q0 31 -49.5 43t-147.5 14l47 156h137l-20 -68q100 -5 163.5 -47.5t63.5 -114.5z" />
    <glyph glyph-name="onesuperior" unicode="&#xb9;" horiz-adv-x="763" 
d="M27 655v189h262v319h-262v168l123 4q94 3 137.5 35t54.5 100h174v-626h234v-189h-723z" />
    <glyph glyph-name="ordmasculine" unicode="&#xba;" horiz-adv-x="999" 
d="M500 1485q197 0 326.5 -111t129.5 -291q0 -179 -129.5 -290t-326.5 -111t-327 111t-130 290q0 180 130 291t327 111zM500 868q102 0 169.5 57.5t67.5 157.5t-67.5 158.5t-169.5 58.5t-169 -58.5t-67 -158.5t67 -157.5t169 -57.5zM55 385v193h889v-193h-889z" />
    <glyph glyph-name="guillemotright" unicode="&#xbb;" horiz-adv-x="1116" 
d="M1038 399l-454 -278v276l209 135l-209 136v276l454 -278v-267zM532 399l-454 -278v276l209 135l-209 136v276l454 -278v-267z" />
    <glyph glyph-name="onequarter" unicode="&#xbc;" horiz-adv-x="2072" 
d="M27 655v189h262v319h-262v168l123 4q94 3 137.5 35t54.5 100h174v-626h234v-189h-723zM1520 1470h252l-1166 -1470h-252zM1855 0h-217v178h-516v166l445 471h288v-461h187v-176h-187v-178zM1372 354h266v281z" />
    <glyph glyph-name="onehalf" unicode="&#xbd;" horiz-adv-x="2127" 
d="M27 655v189h262v319h-262v168l123 4q94 3 137.5 35t54.5 100h174v-626h234v-189h-723zM1520 1470h252l-1166 -1470h-252zM1274 162l346 188q126 65 173.5 102t47.5 87q0 44 -40 73t-111 29q-90 0 -153 -49t-77 -129l-205 43q20 136 137.5 228.5t307.5 92.5
q164 0 268.5 -72.5t104.5 -197.5q0 -93 -58 -160t-182 -125l-170 -86h428v-186h-817v162z" />
    <glyph glyph-name="threequarters" unicode="&#xbe;" horiz-adv-x="2117" 
d="M479 643q-177 0 -296 60t-175 169l199 91q30 -62 103.5 -101t168.5 -39q80 0 134.5 22.5t54.5 63.5q0 76 -181 76h-151v168h141q174 0 174 72q0 35 -46.5 55t-125.5 20q-91 0 -157.5 -34.5t-92.5 -89.5l-188 88q48 98 170.5 158.5t284.5 60.5q185 0 293 -67t108 -171
q0 -60 -39.5 -106.5t-103.5 -67.5q161 -50 161 -182q0 -105 -119 -175.5t-317 -70.5zM1563 1470h252l-1166 -1470h-252zM1901 0h-218v178h-516v166l445 471h289v-461h186v-176h-186v-178zM1417 354h266v281z" />
    <glyph glyph-name="questiondown" unicode="&#xbf;" horiz-adv-x="1447" 
d="M713 254q175 0 290.5 70.5t135.5 185.5l305 -45q-35 -204 -232.5 -335.5t-515.5 -131.5q-201 0 -353.5 55.5t-237.5 159.5t-85 244q0 91 41 167t114.5 128.5t170.5 87t213 49.5v145h291v-348q-122 0 -212 -10.5t-159 -34.5t-104 -66t-35 -102q0 -108 94.5 -163.5
t278.5 -55.5zM862 1491v-326h-338v326h338z" />
    <glyph glyph-name="Agrave" unicode="&#xc0;" horiz-adv-x="1794" 
d="M727 1470h338l741 -1470h-325l-170 342h-832l-172 -342h-321zM895 1174l-289 -576h576zM1044 1554h-258l-389 310h408z" />
    <glyph glyph-name="Aacute" unicode="&#xc1;" horiz-adv-x="1794" 
d="M727 1470h338l741 -1470h-325l-170 342h-832l-172 -342h-321zM895 1174l-289 -576h576zM756 1554l239 310h408l-389 -310h-258z" />
    <glyph glyph-name="Acircumflex" unicode="&#xc2;" horiz-adv-x="1794" 
d="M727 1470h338l741 -1470h-325l-170 342h-832l-172 -342h-321zM895 1174l-289 -576h576zM1055 1864l295 -310h-238l-217 138l-217 -138h-238l295 310h320z" />
    <glyph glyph-name="Atilde" unicode="&#xc3;" horiz-adv-x="1794" 
d="M727 1470h338l741 -1470h-325l-170 342h-832l-172 -342h-321zM895 1174l-289 -576h576zM692 1890q61 0 119.5 -17t96.5 -38t83 -38t82 -17t57 27t31 83h191q-8 -154 -74.5 -245t-177.5 -91q-60 0 -118.5 17.5t-96.5 39t-83 39t-81 17.5q-37 0 -58 -28t-30 -85h-191
q6 154 72.5 245t177.5 91z" />
    <glyph glyph-name="Adieresis" unicode="&#xc4;" horiz-adv-x="1794" 
d="M727 1470h338l741 -1470h-325l-170 342h-832l-172 -342h-321zM895 1174l-289 -576h576zM487 1554v271h295v-271h-295zM1008 1554v271h295v-271h-295z" />
    <glyph glyph-name="Aring" unicode="&#xc5;" horiz-adv-x="1794" 
d="M604 1616q0 110 82.5 184t208.5 74q129 0 211 -74t82 -184q0 -123 -96 -197l714 -1419h-325l-170 342h-832l-172 -342h-321l714 1419q-45 36 -70.5 87.5t-25.5 109.5zM774 1616q0 -46 34.5 -77.5t86.5 -31.5q53 0 87 31.5t34 77.5q0 47 -33.5 77.5t-87.5 30.5
q-53 0 -87 -30.5t-34 -77.5zM895 1174l-289 -576h576z" />
    <glyph glyph-name="AE" unicode="&#xc6;" horiz-adv-x="2906" 
d="M1290 1470h1553v-260h-1127v-327h1010v-258h-1010v-365h1127v-260h-1424v338h-766l-299 -338h-379zM879 592h540v610z" />
    <glyph glyph-name="Ccedilla" unicode="&#xc7;" horiz-adv-x="1710" 
d="M47 735q0 215 112.5 388.5t311 271.5t444.5 98q287 0 491.5 -122.5t289.5 -340.5l-260 -131q-64 158 -196 244t-322 86q-160 0 -288.5 -61t-202 -174t-73.5 -259t73.5 -259t202 -173.5t288.5 -60.5q191 0 322.5 85.5t195.5 243.5l260 -131q-85 -218 -288 -340.5
t-486 -122.5l-7 -20q100 -5 164 -47.5t64 -114.5q0 -83 -82.5 -131.5t-208.5 -48.5q-183 0 -279 74l89 131q75 -58 178 -58q108 0 108 50q0 31 -49 43t-147 14l34 117q-214 24 -382 126t-262.5 264.5t-94.5 358.5z" />
    <glyph glyph-name="Egrave" unicode="&#xc8;" horiz-adv-x="1615" 
d="M129 1470h1423v-260h-1126v-327h1010v-258h-1010v-365h1126v-260h-1423v1470zM1044 1554h-258l-389 310h408z" />
    <glyph glyph-name="Eacute" unicode="&#xc9;" horiz-adv-x="1615" 
d="M129 1470h1423v-260h-1126v-327h1010v-258h-1010v-365h1126v-260h-1423v1470zM670 1554l239 310h408l-389 -310h-258z" />
    <glyph glyph-name="Ecircumflex" unicode="&#xca;" horiz-adv-x="1615" 
d="M129 1470h1423v-260h-1126v-327h1010v-258h-1010v-365h1126v-260h-1423v1470zM995 1864l295 -310h-237l-217 138l-218 -138h-237l295 310h319z" />
    <glyph glyph-name="Edieresis" unicode="&#xcb;" horiz-adv-x="1615" 
d="M129 1470h1423v-260h-1126v-327h1010v-258h-1010v-365h1126v-260h-1423v1470zM428 1554v271h295v-271h-295zM948 1554v271h295v-271h-295z" />
    <glyph glyph-name="Igrave" unicode="&#xcc;" horiz-adv-x="557" 
d="M430 1470v-1470h-301v1470h301zM412 1554h-258l-390 310h408z" />
    <glyph glyph-name="Iacute" unicode="&#xcd;" horiz-adv-x="557" 
d="M430 1470v-1470h-301v1470h301zM147 1554l240 310h408l-389 -310h-259z" />
    <glyph glyph-name="Icircumflex" unicode="&#xce;" horiz-adv-x="557" 
d="M430 1470v-1470h-301v1470h301zM438 1864l295 -310h-237l-217 138l-218 -138h-237l295 310h319z" />
    <glyph glyph-name="Idieresis" unicode="&#xcf;" horiz-adv-x="557" 
d="M430 1470v-1470h-301v1470h301zM-129 1554v271h295v-271h-295zM391 1554v271h295v-271h-295z" />
    <glyph glyph-name="Eth" unicode="&#xd0;" horiz-adv-x="1849" 
d="M211 0v625h-201v256h201v589h752q387 0 614 -199t227 -536t-227 -536t-614 -199h-752zM506 258h457q250 0 392 129t142 348q0 220 -142 348.5t-392 128.5h-457v-331h336v-256h-336v-367z" />
    <glyph glyph-name="Ntilde" unicode="&#xd1;" horiz-adv-x="1773" 
d="M1647 1470v-1470h-267l-960 1087v-1087h-291v1470h307l918 -1038v1038h293zM674 1890q61 0 119.5 -17t96.5 -38t83 -38t82 -17t57 27t31 83h190q-8 -154 -74.5 -245t-177.5 -91q-60 0 -118.5 17.5t-96.5 39t-83 39t-81 17.5q-37 0 -58 -28t-30 -85h-190q6 154 72.5 245
t177.5 91z" />
    <glyph glyph-name="Ograve" unicode="&#xd2;" horiz-adv-x="1830" 
d="M915 1493q248 0 446.5 -98t310.5 -271.5t112 -388.5t-112 -388.5t-310.5 -271.5t-446.5 -98q-186 0 -347.5 57.5t-276 157.5t-179.5 241t-65 302t65 302t179.5 241t276 157.5t347.5 57.5zM915 1229q-249 0 -404 -136t-155 -358t155 -357.5t404 -135.5t404.5 135.5
t155.5 357.5t-155.5 358t-404.5 136zM1079 1554h-258l-389 310h408z" />
    <glyph glyph-name="Oacute" unicode="&#xd3;" horiz-adv-x="1830" 
d="M915 1493q248 0 446.5 -98t310.5 -271.5t112 -388.5t-112 -388.5t-310.5 -271.5t-446.5 -98q-186 0 -347.5 57.5t-276 157.5t-179.5 241t-65 302t65 302t179.5 241t276 157.5t347.5 57.5zM915 1229q-249 0 -404 -136t-155 -358t155 -357.5t404 -135.5t404.5 135.5
t155.5 357.5t-155.5 358t-404.5 136zM758 1554l239 310h408l-389 -310h-258z" />
    <glyph glyph-name="Ocircumflex" unicode="&#xd4;" horiz-adv-x="1830" 
d="M915 1493q248 0 446.5 -98t310.5 -271.5t112 -388.5t-112 -388.5t-310.5 -271.5t-446.5 -98q-186 0 -347.5 57.5t-276 157.5t-179.5 241t-65 302t65 302t179.5 241t276 157.5t347.5 57.5zM915 1229q-249 0 -404 -136t-155 -358t155 -357.5t404 -135.5t404.5 135.5
t155.5 357.5t-155.5 358t-404.5 136zM1075 1864l295 -310h-237l-218 138l-217 -138h-237l295 310h319z" />
    <glyph glyph-name="Otilde" unicode="&#xd5;" horiz-adv-x="1830" 
d="M915 1493q248 0 446.5 -98t310.5 -271.5t112 -388.5t-112 -388.5t-310.5 -271.5t-446.5 -98q-186 0 -347.5 57.5t-276 157.5t-179.5 241t-65 302t65 302t179.5 241t276 157.5t347.5 57.5zM915 1229q-249 0 -404 -136t-155 -358t155 -357.5t404 -135.5t404.5 135.5
t155.5 357.5t-155.5 358t-404.5 136zM711 1890q61 0 119.5 -17t96.5 -38t83 -38t82 -17t57 27t31 83h190q-8 -154 -74.5 -245t-177.5 -91q-60 0 -118.5 17.5t-96.5 39t-83 39t-81 17.5q-37 0 -58 -28t-30 -85h-190q6 154 72.5 245t177.5 91z" />
    <glyph glyph-name="Odieresis" unicode="&#xd6;" horiz-adv-x="1830" 
d="M915 1493q248 0 446.5 -98t310.5 -271.5t112 -388.5t-112 -388.5t-310.5 -271.5t-446.5 -98q-186 0 -347.5 57.5t-276 157.5t-179.5 241t-65 302t65 302t179.5 241t276 157.5t347.5 57.5zM915 1229q-249 0 -404 -136t-155 -358t155 -357.5t404 -135.5t404.5 135.5
t155.5 357.5t-155.5 358t-404.5 136zM508 1554v271h295v-271h-295zM1028 1554v271h295v-271h-295z" />
    <glyph glyph-name="multiply" unicode="&#xd7;" 
d="M1309 66l-490 489l-487 -489l-172 172l489 487l-489 487l172 172l489 -487l486 483l170 -168l-486 -487l488 -487z" />
    <glyph glyph-name="Oslash" unicode="&#xd8;" horiz-adv-x="1828" 
d="M915 1493q298 0 521 -139l155 149l170 -168l-143 -137q166 -203 166 -463q0 -215 -112 -388.5t-310.5 -271.5t-446.5 -98q-283 0 -505 129l-170 -165l-172 170l155 149q-176 205 -176 475q0 161 65 302t179.5 241t276 157.5t347.5 57.5zM915 1237q-255 0 -411 -137.5
t-156 -364.5q0 -170 94 -297l781 729q-134 70 -308 70zM1481 735q0 159 -84 283l-774 -723q134 -62 292 -62q254 0 410 137.5t156 364.5z" />
    <glyph glyph-name="Ugrave" unicode="&#xd9;" horiz-adv-x="1687" 
d="M844 -20q-190 0 -335 51t-237 146t-138 225t-46 292v776h301v-759q0 -467 455 -467q452 0 452 467v759h303v-776q0 -162 -46.5 -292.5t-138 -225t-236.5 -145.5t-334 -51zM1036 1554h-258l-389 310h408z" />
    <glyph glyph-name="Uacute" unicode="&#xda;" horiz-adv-x="1687" 
d="M844 -20q-190 0 -335 51t-237 146t-138 225t-46 292v776h301v-759q0 -467 455 -467q452 0 452 467v759h303v-776q0 -162 -46.5 -292.5t-138 -225t-236.5 -145.5t-334 -51zM674 1554l239 310h408l-389 -310h-258z" />
    <glyph glyph-name="Ucircumflex" unicode="&#xdb;" horiz-adv-x="1687" 
d="M844 -20q-190 0 -335 51t-237 146t-138 225t-46 292v776h301v-759q0 -467 455 -467q452 0 452 467v759h303v-776q0 -162 -46.5 -292.5t-138 -225t-236.5 -145.5t-334 -51zM1004 1864l294 -310h-237l-217 138l-217 -138h-238l295 310h320z" />
    <glyph glyph-name="Udieresis" unicode="&#xdc;" horiz-adv-x="1687" 
d="M844 -20q-190 0 -335 51t-237 146t-138 225t-46 292v776h301v-759q0 -467 455 -467q452 0 452 467v759h303v-776q0 -162 -46.5 -292.5t-138 -225t-236.5 -145.5t-334 -51zM436 1554v271h295v-271h-295zM956 1554v271h295v-271h-295z" />
    <glyph glyph-name="Yacute" unicode="&#xdd;" horiz-adv-x="1736" 
d="M872 868l527 602h358l-737 -845v-625h-301v625l-739 845h366zM707 1554l239 310h408l-389 -310h-258z" />
    <glyph glyph-name="Thorn" unicode="&#xde;" horiz-adv-x="1640" 
d="M430 291v-291h-301v1470h301v-249h619q257 0 407 -120.5t150 -344.5q0 -223 -150 -344t-407 -121h-619zM430 543h602q131 0 204 56t73 157t-73 157t-204 56h-602v-426z" />
    <glyph glyph-name="germandbls" unicode="&#xdf;" horiz-adv-x="1497" 
d="M766 1493q249 0 391.5 -106.5t142.5 -268.5q0 -107 -56 -180t-148 -107q174 -40 267 -142.5t93 -254.5q0 -201 -156.5 -329t-402.5 -128q-142 0 -262 47t-197 132l144 206q138 -151 313 -151q128 0 206.5 64t78.5 163q0 119 -106 178.5t-302 59.5h-217v242h199
q129 0 200.5 44t71.5 123q0 84 -71 130.5t-195 46.5q-177 0 -267 -95.5t-90 -248.5v-918h-284v922q0 116 43 218.5t122.5 181.5t204 125t277.5 46z" />
    <glyph glyph-name="agrave" unicode="&#xe0;" horiz-adv-x="1357" 
d="M498 -23q-200 0 -326.5 88t-126.5 246q0 145 114 230t314 106l449 47v8q0 72 -67.5 118t-201.5 46q-117 0 -206 -46t-117 -118l-248 84q51 140 212.5 226t369.5 86q256 0 395 -102.5t139 -297.5v-424q0 -48 29 -62t121 3v-215q-165 -33 -263 6.5t-135 126.5
q-76 -72 -194 -114t-258 -42zM922 416v73l-406 -45q-100 -11 -146 -39t-46 -86q0 -60 55.5 -91t157.5 -31q92 0 178 24t146.5 75.5t60.5 119.5zM836 1174h-242l-340 296h369z" />
    <glyph glyph-name="aacute" unicode="&#xe1;" horiz-adv-x="1357" 
d="M498 -23q-200 0 -326.5 88t-126.5 246q0 145 114 230t314 106l449 47v8q0 72 -67.5 118t-201.5 46q-117 0 -206 -46t-117 -118l-248 84q51 140 212.5 226t369.5 86q256 0 395 -102.5t139 -297.5v-424q0 -48 29 -62t121 3v-215q-165 -33 -263 6.5t-135 126.5
q-76 -72 -194 -114t-258 -42zM922 416v73l-406 -45q-100 -11 -146 -39t-46 -86q0 -60 55.5 -91t157.5 -31q92 0 178 24t146.5 75.5t60.5 119.5zM522 1174l213 296h369l-340 -296h-242z" />
    <glyph glyph-name="acircumflex" unicode="&#xe2;" horiz-adv-x="1357" 
d="M498 -23q-200 0 -326.5 88t-126.5 246q0 145 114 230t314 106l449 47v8q0 72 -67.5 118t-201.5 46q-117 0 -206 -46t-117 -118l-248 84q51 140 212.5 226t369.5 86q256 0 395 -102.5t139 -297.5v-424q0 -48 29 -62t121 3v-215q-165 -33 -263 6.5t-135 126.5
q-76 -72 -194 -114t-258 -42zM922 416v73l-406 -45q-100 -11 -146 -39t-46 -86q0 -60 55.5 -91t157.5 -31q92 0 178 24t146.5 75.5t60.5 119.5zM803 1470l264 -296h-223l-187 118l-186 -118h-223l264 296h291z" />
    <glyph glyph-name="atilde" unicode="&#xe3;" horiz-adv-x="1357" 
d="M498 -23q-200 0 -326.5 88t-126.5 246q0 145 114 230t314 106l449 47v8q0 72 -67.5 118t-201.5 46q-117 0 -206 -46t-117 -118l-248 84q51 140 212.5 226t369.5 86q256 0 395 -102.5t139 -297.5v-424q0 -48 29 -62t121 3v-215q-165 -33 -263 6.5t-135 126.5
q-76 -72 -194 -114t-258 -42zM922 416v73l-406 -45q-100 -11 -146 -39t-46 -86q0 -60 55.5 -91t157.5 -31q92 0 178 24t146.5 75.5t60.5 119.5zM471 1487q66 0 124.5 -26.5t104.5 -52.5t82 -26q33 0 51 26t27 79h176q-6 -143 -65.5 -228t-157.5 -85q-52 0 -101 16t-79.5 36
t-66 36t-64.5 16q-33 0 -51 -25.5t-27 -78.5h-176q6 143 65.5 228t157.5 85z" />
    <glyph glyph-name="adieresis" unicode="&#xe4;" horiz-adv-x="1357" 
d="M498 -23q-200 0 -326.5 88t-126.5 246q0 145 114 230t314 106l449 47v8q0 72 -67.5 118t-201.5 46q-117 0 -206 -46t-117 -118l-248 84q51 140 212.5 226t369.5 86q256 0 395 -102.5t139 -297.5v-424q0 -48 29 -62t121 3v-215q-165 -33 -263 6.5t-135 126.5
q-76 -72 -194 -114t-258 -42zM922 416v73l-406 -45q-100 -11 -146 -39t-46 -86q0 -60 55.5 -91t157.5 -31q92 0 178 24t146.5 75.5t60.5 119.5zM264 1204v266h295v-266h-295zM768 1204v266h295v-266h-295z" />
    <glyph glyph-name="aring" unicode="&#xe5;" horiz-adv-x="1357" 
d="M498 -23q-200 0 -326.5 88t-126.5 246q0 145 114 230t314 106l449 47v8q0 72 -67.5 118t-201.5 46q-117 0 -206 -46t-117 -118l-248 84q51 140 212.5 226t369.5 86q256 0 395 -102.5t139 -297.5v-424q0 -48 29 -62t121 3v-215q-165 -33 -263 6.5t-135 126.5
q-76 -72 -194 -114t-258 -42zM922 416v73l-406 -45q-100 -11 -146 -39t-46 -86q0 -60 55.5 -91t157.5 -31q92 0 178 24t146.5 75.5t60.5 119.5zM424 1372q0 91 66 156t167 65t167.5 -65t66.5 -156q0 -92 -66.5 -157.5t-167.5 -65.5t-167 65t-66 158zM567 1372q0 -38 26 -65
t64 -27q39 0 65 26.5t26 65.5q0 36 -26 64t-65 28q-37 0 -63.5 -28t-26.5 -64z" />
    <glyph glyph-name="ae" unicode="&#xe6;" horiz-adv-x="2195" 
d="M532 649h390v53q0 72 -67.5 118t-201.5 46q-117 0 -206 -46t-117 -118l-248 84q51 140 212.5 226t369.5 86q315 0 446 -158q176 158 444 158q136 0 249 -42.5t188 -116.5t116 -174.5t41 -215.5v-90h-952q26 -116 121 -182t233 -66q121 0 210 53t126 144l244 -105
q-56 -139 -213 -232.5t-363 -93.5q-166 0 -301.5 60.5t-220.5 167.5q-89 -117 -225.5 -172.5t-302.5 -55.5q-204 0 -331.5 88t-127.5 246q0 152 124.5 245t362.5 93zM1542 870q-121 0 -213 -57.5t-125 -163.5h666q-16 87 -108.5 154t-219.5 67zM922 416v43h-359
q-239 0 -239 -135q0 -61 56 -94t157 -33q93 0 179 24t146 75.5t60 119.5z" />
    <glyph glyph-name="ccedilla" unicode="&#xe7;" horiz-adv-x="1265" 
d="M47 539q0 163 83.5 291t229 198t326.5 70q109 0 206 -29t167.5 -78t120 -109.5t73.5 -127.5l-239 -117q-31 94 -120.5 158.5t-209.5 64.5q-157 0 -257.5 -86.5t-100.5 -234.5q0 -149 100.5 -236.5t257.5 -87.5q120 0 209.5 64.5t120.5 158.5l237 -121
q-50 -136 -194.5 -235t-349.5 -105l-7 -20q100 -5 164 -47.5t64 -114.5q0 -83 -82.5 -131.5t-208.5 -48.5q-183 0 -279 74l88 131q75 -58 179 -58q108 0 108 50q0 31 -49 43t-147 14l34 117q-232 31 -378 182t-146 371z" />
    <glyph glyph-name="egrave" unicode="&#xe8;" horiz-adv-x="1325" 
d="M684 211q118 0 206.5 53.5t125.5 143.5l244 -105q-56 -139 -213 -232.5t-363 -93.5q-280 0 -458.5 156.5t-178.5 405.5q0 240 179 399.5t456 159.5q137 0 250 -42.5t188.5 -117t116.5 -174.5t41 -215v-90h-954q26 -116 123.5 -182t236.5 -66zM672 868q-122 0 -213.5 -56
t-124.5 -159h661q-13 82 -102.5 148.5t-220.5 66.5zM848 1174h-242l-340 296h369z" />
    <glyph glyph-name="eacute" unicode="&#xe9;" horiz-adv-x="1325" 
d="M684 211q118 0 206.5 53.5t125.5 143.5l244 -105q-56 -139 -213 -232.5t-363 -93.5q-280 0 -458.5 156.5t-178.5 405.5q0 240 179 399.5t456 159.5q137 0 250 -42.5t188.5 -117t116.5 -174.5t41 -215v-90h-954q26 -116 123.5 -182t236.5 -66zM672 868q-122 0 -213.5 -56
t-124.5 -159h661q-13 82 -102.5 148.5t-220.5 66.5zM543 1174l213 296h368l-340 -296h-241z" />
    <glyph glyph-name="ecircumflex" unicode="&#xea;" horiz-adv-x="1325" 
d="M684 211q118 0 206.5 53.5t125.5 143.5l244 -105q-56 -139 -213 -232.5t-363 -93.5q-280 0 -458.5 156.5t-178.5 405.5q0 240 179 399.5t456 159.5q137 0 250 -42.5t188.5 -117t116.5 -174.5t41 -215v-90h-954q26 -116 123.5 -182t236.5 -66zM672 868q-122 0 -213.5 -56
t-124.5 -159h661q-13 82 -102.5 148.5t-220.5 66.5zM821 1470l264 -296h-223l-186 118l-187 -118h-223l264 296h291z" />
    <glyph glyph-name="edieresis" unicode="&#xeb;" horiz-adv-x="1325" 
d="M684 211q118 0 206.5 53.5t125.5 143.5l244 -105q-56 -139 -213 -232.5t-363 -93.5q-280 0 -458.5 156.5t-178.5 405.5q0 240 179 399.5t456 159.5q137 0 250 -42.5t188.5 -117t116.5 -174.5t41 -215v-90h-954q26 -116 123.5 -182t236.5 -66zM672 868q-122 0 -213.5 -56
t-124.5 -159h661q-13 82 -102.5 148.5t-220.5 66.5zM270 1204v266h295v-266h-295zM774 1204v266h295v-266h-295z" />
    <glyph glyph-name="igrave" unicode="&#xec;" horiz-adv-x="505" 
d="M397 1077v-1077h-286v1077h286zM385 1174h-242l-340 296h369z" />
    <glyph glyph-name="iacute" unicode="&#xed;" horiz-adv-x="505" 
d="M397 1077v-1077h-286v1077h286zM125 1174l213 296h369l-340 -296h-242z" />
    <glyph glyph-name="icircumflex" unicode="&#xee;" horiz-adv-x="505" 
d="M397 1077v-1077h-286v1077h286zM399 1470l265 -296h-224l-186 118l-186 -118h-224l265 296h290z" />
    <glyph glyph-name="idieresis" unicode="&#xef;" horiz-adv-x="505" 
d="M397 1077v-1077h-286v1077h286zM-145 1204v266h295v-266h-295zM358 1204v266h295v-266h-295z" />
    <glyph glyph-name="eth" unicode="&#xf0;" horiz-adv-x="1351" 
d="M639 1081q171 0 260 -53q-61 84 -170 166l-473 -113v197l252 59q-106 59 -201 101l309 53q106 -47 172 -88l371 88v-197l-168 -39q152 -136 233 -305.5t81 -363.5q0 -187 -83.5 -326.5t-224.5 -211t-319 -71.5q-176 0 -319 69t-227.5 198t-84.5 293q0 120 48 223.5
t129.5 173t189 108.5t225.5 39zM678 217q150 0 250 86.5t100 235.5q0 148 -100 233.5t-250 85.5q-153 0 -252.5 -85.5t-99.5 -233.5q0 -149 99.5 -235.5t252.5 -86.5z" />
    <glyph glyph-name="ntilde" unicode="&#xf1;" horiz-adv-x="1361" 
d="M111 0v1077h286v-135q62 70 163.5 113t230.5 43q217 0 343 -136t126 -362v-600h-287v532q0 142 -71 225t-206 83q-143 0 -221 -83t-78 -229v-528h-286zM514 1487q66 0 124.5 -26.5t104.5 -52.5t82 -26q33 0 51 26t27 79h176q-6 -143 -65.5 -228t-157.5 -85q-52 0 -101 16
t-79.5 36t-66 36t-64.5 16q-33 0 -51 -25.5t-27 -78.5h-176q6 143 65.5 228t157.5 85z" />
    <glyph glyph-name="ograve" unicode="&#xf2;" horiz-adv-x="1353" 
d="M678 1098q175 0 317.5 -69t226 -197.5t83.5 -292.5q0 -124 -49 -230t-133 -178.5t-199.5 -113t-245.5 -40.5q-176 0 -319 69t-227.5 198.5t-84.5 294.5q0 164 84.5 292.5t227.5 197.5t319 69zM678 217q150 0 250 86.5t100 235.5q0 148 -100 233.5t-250 85.5
q-153 0 -252.5 -85.5t-99.5 -233.5q0 -149 99.5 -235.5t252.5 -86.5zM827 1176h-241l-340 297h368z" />
    <glyph glyph-name="oacute" unicode="&#xf3;" horiz-adv-x="1353" 
d="M678 1098q175 0 317.5 -69t226 -197.5t83.5 -292.5q0 -124 -49 -230t-133 -178.5t-199.5 -113t-245.5 -40.5q-176 0 -319 69t-227.5 198.5t-84.5 294.5q0 164 84.5 292.5t227.5 197.5t319 69zM678 217q150 0 250 86.5t100 235.5q0 148 -100 233.5t-250 85.5
q-153 0 -252.5 -85.5t-99.5 -233.5q0 -149 99.5 -235.5t252.5 -86.5zM539 1174l213 296h368l-340 -296h-241z" />
    <glyph glyph-name="ocircumflex" unicode="&#xf4;" horiz-adv-x="1353" 
d="M678 1098q175 0 317.5 -69t226 -197.5t83.5 -292.5q0 -124 -49 -230t-133 -178.5t-199.5 -113t-245.5 -40.5q-176 0 -319 69t-227.5 198.5t-84.5 294.5q0 164 84.5 292.5t227.5 197.5t319 69zM678 217q150 0 250 86.5t100 235.5q0 148 -100 233.5t-250 85.5
q-153 0 -252.5 -85.5t-99.5 -233.5q0 -149 99.5 -235.5t252.5 -86.5zM821 1470l264 -296h-223l-186 118l-187 -118h-223l264 296h291z" />
    <glyph glyph-name="otilde" unicode="&#xf5;" horiz-adv-x="1353" 
d="M678 1098q175 0 317.5 -69t226 -197.5t83.5 -292.5q0 -124 -49 -230t-133 -178.5t-199.5 -113t-245.5 -40.5q-176 0 -319 69t-227.5 198.5t-84.5 294.5q0 164 84.5 292.5t227.5 197.5t319 69zM678 217q150 0 250 86.5t100 235.5q0 148 -100 233.5t-250 85.5
q-153 0 -252.5 -85.5t-99.5 -233.5q0 -149 99.5 -235.5t252.5 -86.5zM506 1487q66 0 124.5 -26.5t104.5 -52.5t82 -26q33 0 51 26t27 79h176q-6 -143 -65.5 -228t-157.5 -85q-52 0 -101 16t-79.5 36t-66 36t-64.5 16q-33 0 -51 -25.5t-27 -78.5h-176q6 143 65.5 228
t157.5 85z" />
    <glyph glyph-name="odieresis" unicode="&#xf6;" horiz-adv-x="1353" 
d="M678 1098q175 0 317.5 -69t226 -197.5t83.5 -292.5q0 -124 -49 -230t-133 -178.5t-199.5 -113t-245.5 -40.5q-176 0 -319 69t-227.5 198.5t-84.5 294.5q0 164 84.5 292.5t227.5 197.5t319 69zM678 217q150 0 250 86.5t100 235.5q0 148 -100 233.5t-250 85.5
q-153 0 -252.5 -85.5t-99.5 -233.5q0 -149 99.5 -235.5t252.5 -86.5zM276 1204v266h295v-266h-295zM780 1204v266h295v-266h-295z" />
    <glyph glyph-name="divide" unicode="&#xf7;" 
d="M664 1055v297h307v-297h-307zM123 602v246h1393v-246h-1393zM664 98v297h307v-297h-307z" />
    <glyph glyph-name="oslash" unicode="&#xf8;" horiz-adv-x="1353" 
d="M678 1098q199 0 350 -88l127 127l141 -138l-114 -114q123 -145 123 -346q0 -124 -49 -230t-133 -178.5t-199.5 -113t-245.5 -40.5q-196 0 -352 89l-125 -125l-144 135l115 117q-123 142 -123 346q0 164 84 292.5t226.5 197.5t318.5 69zM315 539q0 -104 50 -183l481 482
q-72 34 -168 34q-156 0 -259.5 -89.5t-103.5 -243.5zM1038 539q0 101 -49 178l-481 -479q73 -33 170 -33q155 0 257.5 89.5t102.5 244.5z" />
    <glyph glyph-name="ugrave" unicode="&#xf9;" horiz-adv-x="1351" 
d="M1243 1077v-1077h-287v135q-64 -72 -162 -115t-225 -43q-214 0 -340.5 133t-126.5 357v610h287v-561q0 -139 67.5 -213t202.5 -74q141 0 219 81t78 225v542h287zM827 1174h-241l-340 296h368z" />
    <glyph glyph-name="uacute" unicode="&#xfa;" horiz-adv-x="1351" 
d="M1243 1077v-1077h-287v135q-64 -72 -162 -115t-225 -43q-214 0 -340.5 133t-126.5 357v610h287v-561q0 -139 67.5 -213t202.5 -74q141 0 219 81t78 225v542h287zM530 1174l213 296h369l-340 -296h-242z" />
    <glyph glyph-name="ucircumflex" unicode="&#xfb;" horiz-adv-x="1351" 
d="M1243 1077v-1077h-287v135q-64 -72 -162 -115t-225 -43q-214 0 -340.5 133t-126.5 357v610h287v-561q0 -139 67.5 -213t202.5 -74q141 0 219 81t78 225v542h287zM817 1470l264 -296h-223l-186 118l-187 -118h-223l264 296h291z" />
    <glyph glyph-name="udieresis" unicode="&#xfc;" horiz-adv-x="1351" 
d="M1243 1077v-1077h-287v135q-64 -72 -162 -115t-225 -43q-214 0 -340.5 133t-126.5 357v610h287v-561q0 -139 67.5 -213t202.5 -74q141 0 219 81t78 225v542h287zM272 1204v266h295v-266h-295zM776 1204v266h295v-266h-295z" />
    <glyph glyph-name="yacute" unicode="&#xfd;" horiz-adv-x="1347" 
d="M788 -76q-82 -169 -188.5 -238t-275.5 -69q-61 0 -130 13.5t-104 31.5l51 234q80 -41 158 -41q76 0 131 29.5t86 109.5l10 33l-530 1050h319l369 -768l360 768h308zM530 1174l213 296h369l-340 -296h-242z" />
    <glyph glyph-name="thorn" unicode="&#xfe;" horiz-adv-x="1435" 
d="M397 129v-494h-286v1835h286v-524q60 66 165.5 109t238.5 43q135 0 246.5 -44.5t185 -121t113.5 -177.5t40 -216t-40 -217t-113.5 -179t-185 -121.5t-246.5 -44.5q-133 0 -238.5 43t-165.5 109zM385 545v-15q0 -136 105.5 -227.5t259.5 -91.5q153 0 257.5 88t104.5 240
q0 151 -104.5 238t-257.5 87q-155 0 -260 -91t-105 -228z" />
    <glyph glyph-name="ydieresis" unicode="&#xff;" horiz-adv-x="1347" 
d="M788 -76q-82 -169 -188.5 -238t-275.5 -69q-61 0 -130 13.5t-104 31.5l51 234q80 -41 158 -41q76 0 131 29.5t86 109.5l10 33l-530 1050h319l369 -768l360 768h308zM274 1204v266h295v-266h-295zM778 1204v266h295v-266h-295z" />
    <glyph glyph-name="Amacron" unicode="&#x100;" horiz-adv-x="1794" 
d="M727 1470h338l741 -1470h-325l-170 342h-832l-172 -342h-321zM895 1174l-289 -576h576zM1296 1571h-802v223h802v-223z" />
    <glyph glyph-name="amacron" unicode="&#x101;" horiz-adv-x="1357" 
d="M498 -23q-200 0 -326.5 88t-126.5 246q0 145 114 230t314 106l449 47v8q0 72 -67.5 118t-201.5 46q-117 0 -206 -46t-117 -118l-248 84q51 140 212.5 226t369.5 86q256 0 395 -102.5t139 -297.5v-424q0 -48 29 -62t121 3v-215q-165 -33 -263 6.5t-135 126.5
q-76 -72 -194 -114t-258 -42zM922 416v73l-406 -45q-100 -11 -146 -39t-46 -86q0 -60 55.5 -91t157.5 -31q92 0 178 24t146.5 75.5t60.5 119.5zM1024 1208h-750v217h750v-217z" />
    <glyph glyph-name="Abreve" unicode="&#x102;" horiz-adv-x="1794" 
d="M727 1470h338l741 -1470h-325l-170 342h-832l-172 -342h-321zM895 1174l-289 -576h576zM895 1739q87 0 143 35t56 90h211q0 -142 -110 -230t-300 -88t-300 88t-110 230h211q0 -55 56 -90t143 -35z" />
    <glyph glyph-name="abreve" unicode="&#x103;" horiz-adv-x="1357" 
d="M498 -23q-200 0 -326.5 88t-126.5 246q0 145 114 230t314 106l449 47v8q0 72 -67.5 118t-201.5 46q-117 0 -206 -46t-117 -118l-248 84q51 140 212.5 226t369.5 86q256 0 395 -102.5t139 -297.5v-424q0 -48 29 -62t121 3v-215q-165 -33 -263 6.5t-135 126.5
q-76 -72 -194 -114t-258 -42zM922 416v73l-406 -45q-100 -11 -146 -39t-46 -86q0 -60 55.5 -91t157.5 -31q92 0 178 24t146.5 75.5t60.5 119.5zM678 1356q174 0 186 114h197q-2 -143 -101.5 -223t-281.5 -80t-281.5 80t-101.5 223h197q12 -114 186 -114z" />
    <glyph glyph-name="Aogonek" unicode="&#x104;" horiz-adv-x="1794" 
d="M1233 -195q0 75 55 140.5t164 111.5l-141 285h-832l-172 -342h-321l741 1470h338l741 -1470h-151q-128 -39 -178 -72.5t-50 -68.5q0 -29 33.5 -46.5t91.5 -17.5q54 0 103 12v-167q-97 -17 -154 -17q-113 0 -190.5 48t-77.5 134zM895 1174l-289 -576h576z" />
    <glyph glyph-name="aogonek" unicode="&#x105;" horiz-adv-x="1357" 
d="M498 -23q-200 0 -326.5 88t-126.5 246q0 145 114 230t314 106l449 47v8q0 72 -67.5 118t-201.5 46q-117 0 -206 -46t-117 -118l-248 84q51 140 212.5 226t369.5 86q256 0 395 -102.5t139 -297.5v-424q0 -48 29 -62t121 3v-215q-128 -39 -178 -72.5t-50 -68.5
q0 -29 33.5 -46.5t91.5 -17.5q54 0 103 12v-167q-97 -17 -154 -17q-113 0 -190.5 48t-77.5 134q0 124 139 211q-82 36 -115 117q-76 -72 -194 -114t-258 -42zM922 416v73l-406 -45q-100 -11 -146 -39t-46 -86q0 -60 55.5 -91t157.5 -31q92 0 178 24t146.5 75.5t60.5 119.5z
" />
    <glyph glyph-name="Cacute" unicode="&#x106;" horiz-adv-x="1710" 
d="M47 735q0 215 112.5 388.5t311 271.5t444.5 98q287 0 491.5 -122.5t289.5 -340.5l-260 -131q-64 158 -196 244t-322 86q-160 0 -288.5 -61t-202 -174t-73.5 -259t73.5 -259t202 -173.5t288.5 -60.5q191 0 322.5 85.5t195.5 243.5l260 -131q-85 -218 -289.5 -340.5
t-491.5 -122.5q-246 0 -444.5 98t-311 271.5t-112.5 388.5zM766 1554l240 310h407l-389 -310h-258z" />
    <glyph glyph-name="cacute" unicode="&#x107;" horiz-adv-x="1265" 
d="M47 539q0 163 83.5 291t229 198t326.5 70q109 0 206 -29t167.5 -78t120 -109.5t73.5 -127.5l-239 -117q-31 94 -120.5 158.5t-209.5 64.5q-157 0 -257.5 -86.5t-100.5 -234.5q0 -149 100.5 -236.5t257.5 -87.5q120 0 209.5 64.5t120.5 158.5l237 -121
q-51 -140 -201.5 -240t-363.5 -100q-181 0 -326.5 70t-229 199t-83.5 293zM532 1174l213 296h369l-340 -296h-242z" />
    <glyph glyph-name="Ccircumflex" unicode="&#x108;" horiz-adv-x="1710" 
d="M47 735q0 215 112.5 388.5t311 271.5t444.5 98q287 0 491.5 -122.5t289.5 -340.5l-260 -131q-64 158 -196 244t-322 86q-160 0 -288.5 -61t-202 -174t-73.5 -259t73.5 -259t202 -173.5t288.5 -60.5q191 0 322.5 85.5t195.5 243.5l260 -131q-85 -218 -289.5 -340.5
t-491.5 -122.5q-246 0 -444.5 98t-311 271.5t-112.5 388.5zM1071 1864l295 -310h-238l-217 138l-217 -138h-237l295 310h319z" />
    <glyph glyph-name="ccircumflex" unicode="&#x109;" horiz-adv-x="1265" 
d="M47 539q0 163 83.5 291t229 198t326.5 70q109 0 206 -29t167.5 -78t120 -109.5t73.5 -127.5l-239 -117q-31 94 -120.5 158.5t-209.5 64.5q-157 0 -257.5 -86.5t-100.5 -234.5q0 -149 100.5 -236.5t257.5 -87.5q120 0 209.5 64.5t120.5 158.5l237 -121
q-51 -140 -201.5 -240t-363.5 -100q-181 0 -326.5 70t-229 199t-83.5 293zM821 1470l264 -296h-223l-186 118l-187 -118h-223l264 296h291z" />
    <glyph glyph-name="Cdotaccent" unicode="&#x10a;" horiz-adv-x="1710" 
d="M47 735q0 215 112.5 388.5t311 271.5t444.5 98q287 0 491.5 -122.5t289.5 -340.5l-260 -131q-64 158 -196 244t-322 86q-160 0 -288.5 -61t-202 -174t-73.5 -259t73.5 -259t202 -173.5t288.5 -60.5q191 0 322.5 85.5t195.5 243.5l260 -131q-85 -218 -289.5 -340.5
t-491.5 -122.5q-246 0 -444.5 98t-311 271.5t-112.5 388.5zM748 1554v271h307v-271h-307z" />
    <glyph glyph-name="cdotaccent" unicode="&#x10b;" horiz-adv-x="1265" 
d="M47 539q0 163 83.5 291t229 198t326.5 70q109 0 206 -29t167.5 -78t120 -109.5t73.5 -127.5l-239 -117q-31 94 -120.5 158.5t-209.5 64.5q-157 0 -257.5 -86.5t-100.5 -234.5q0 -149 100.5 -236.5t257.5 -87.5q120 0 209.5 64.5t120.5 158.5l237 -121
q-51 -140 -201.5 -240t-363.5 -100q-181 0 -326.5 70t-229 199t-83.5 293zM526 1204v266h295v-266h-295z" />
    <glyph glyph-name="Ccaron" unicode="&#x10c;" horiz-adv-x="1710" 
d="M47 735q0 215 112.5 388.5t311 271.5t444.5 98q287 0 491.5 -122.5t289.5 -340.5l-260 -131q-64 158 -196 244t-322 86q-160 0 -288.5 -61t-202 -174t-73.5 -259t73.5 -259t202 -173.5t288.5 -60.5q191 0 322.5 85.5t195.5 243.5l260 -131q-85 -218 -289.5 -340.5
t-491.5 -122.5q-246 0 -444.5 98t-311 271.5t-112.5 388.5zM1073 1554h-319l-295 310h237l217 -138l217 138h238z" />
    <glyph glyph-name="ccaron" unicode="&#x10d;" horiz-adv-x="1265" 
d="M47 539q0 163 83.5 291t229 198t326.5 70q109 0 206 -29t167.5 -78t120 -109.5t73.5 -127.5l-239 -117q-31 94 -120.5 158.5t-209.5 64.5q-157 0 -257.5 -86.5t-100.5 -234.5q0 -149 100.5 -236.5t257.5 -87.5q120 0 209.5 64.5t120.5 158.5l237 -121
q-51 -140 -201.5 -240t-363.5 -100q-181 0 -326.5 70t-229 199t-83.5 293zM825 1174h-290l-265 296h224l186 -118l186 118h224z" />
    <glyph glyph-name="Dcaron" unicode="&#x10e;" horiz-adv-x="1767" 
d="M129 0v1470h752q387 0 614 -199t227 -536t-227 -536t-614 -199h-752zM424 258h457q250 0 392 129t142 348q0 220 -142 348.5t-392 128.5h-457v-954zM973 1554h-320l-295 310h238l217 -138l217 138h238z" />
    <glyph glyph-name="dcaron" unicode="&#x10f;" horiz-adv-x="1435" 
d="M1038 129q-60 -66 -165 -109t-238 -43q-179 0 -314 77t-203.5 203.5t-68.5 281.5q0 154 68.5 280t203.5 202.5t314 76.5q133 0 238 -43t165 -109v524h287v-1470h-287v129zM1051 545q0 137 -105 228t-260 91q-153 0 -257.5 -87t-104.5 -238q0 -152 104.5 -240t257.5 -88
q154 0 259.5 91.5t105.5 227.5v15zM1419 1130l51 340h314l-170 -340h-195z" />
    <glyph glyph-name="Dcroat" unicode="&#x110;" horiz-adv-x="1849" 
d="M211 0v625h-201v256h201v589h752q387 0 614 -199t227 -536t-227 -536t-614 -199h-752zM506 258h457q250 0 392 129t142 348q0 220 -142 348.5t-392 128.5h-457v-331h336v-256h-336v-367z" />
    <glyph glyph-name="dcroat" unicode="&#x111;" horiz-adv-x="1509" 
d="M1038 129q-60 -66 -165 -109t-238 -43q-179 0 -314 77t-203.5 203.5t-68.5 281.5q0 154 68.5 280t203.5 202.5t314 76.5q133 0 238 -43t165 -109v209h-309v209h309v106h287v-106h148v-209h-148v-1155h-287v129zM1051 545q0 137 -105 228t-260 91q-153 0 -257.5 -87
t-104.5 -238q0 -152 104.5 -240t257.5 -88q154 0 259.5 91.5t105.5 227.5v15z" />
    <glyph glyph-name="Emacron" unicode="&#x112;" horiz-adv-x="1615" 
d="M129 1470h1423v-260h-1126v-327h1010v-258h-1010v-365h1126v-260h-1423v1470zM1237 1571h-803v223h803v-223z" />
    <glyph glyph-name="emacron" unicode="&#x113;" horiz-adv-x="1325" 
d="M684 211q118 0 206.5 53.5t125.5 143.5l244 -105q-56 -139 -213 -232.5t-363 -93.5q-280 0 -458.5 156.5t-178.5 405.5q0 240 179 399.5t456 159.5q137 0 250 -42.5t188.5 -117t116.5 -174.5t41 -215v-90h-954q26 -116 123.5 -182t236.5 -66zM672 868q-122 0 -213.5 -56
t-124.5 -159h661q-13 82 -102.5 148.5t-220.5 66.5zM1044 1208h-749v217h749v-217z" />
    <glyph glyph-name="Ebreve" unicode="&#x114;" horiz-adv-x="1615" 
d="M129 1470h1423v-260h-1126v-327h1010v-258h-1010v-365h1126v-260h-1423v1470zM836 1739q87 0 142.5 35t55.5 90h211q0 -142 -109.5 -230t-299.5 -88t-300 88t-110 230h211q0 -55 56 -90t143 -35z" />
    <glyph glyph-name="ebreve" unicode="&#x115;" horiz-adv-x="1325" 
d="M684 211q118 0 206.5 53.5t125.5 143.5l244 -105q-56 -139 -213 -232.5t-363 -93.5q-280 0 -458.5 156.5t-178.5 405.5q0 240 179 399.5t456 159.5q137 0 250 -42.5t188.5 -117t116.5 -174.5t41 -215v-90h-954q26 -116 123.5 -182t236.5 -66zM672 868q-122 0 -213.5 -56
t-124.5 -159h661q-13 82 -102.5 148.5t-220.5 66.5zM676 1356q174 0 186 114h197q-2 -143 -101.5 -223t-281.5 -80t-281.5 80t-101.5 223h196q12 -114 187 -114z" />
    <glyph glyph-name="Edotaccent" unicode="&#x116;" horiz-adv-x="1615" 
d="M129 1470h1423v-260h-1126v-327h1010v-258h-1010v-365h1126v-260h-1423v1470zM682 1554v271h307v-271h-307z" />
    <glyph glyph-name="edotaccent" unicode="&#x117;" horiz-adv-x="1325" 
d="M684 211q118 0 206.5 53.5t125.5 143.5l244 -105q-56 -139 -213 -232.5t-363 -93.5q-280 0 -458.5 156.5t-178.5 405.5q0 240 179 399.5t456 159.5q137 0 250 -42.5t188.5 -117t116.5 -174.5t41 -215v-90h-954q26 -116 123.5 -182t236.5 -66zM672 868q-122 0 -213.5 -56
t-124.5 -159h661q-13 82 -102.5 148.5t-220.5 66.5zM518 1204v266h295v-266h-295z" />
    <glyph glyph-name="Eogonek" unicode="&#x118;" horiz-adv-x="1615" 
d="M979 -195q0 115 117 195h-967v1470h1423v-260h-1126v-327h1010v-258h-1010v-365h1126v-260h-151q-128 -39 -177.5 -72.5t-49.5 -68.5q0 -29 33 -46.5t91 -17.5q54 0 103 12v-167q-97 -17 -154 -17q-113 0 -190.5 48t-77.5 134z" />
    <glyph glyph-name="eogonek" unicode="&#x119;" horiz-adv-x="1325" 
d="M958 27q-165 -63 -165 -146q0 -39 34 -62.5t95 -23.5q53 0 100 12v-167q-97 -17 -152 -17q-114 0 -191 53.5t-77 149.5q0 85 60 151q-270 6 -442.5 162t-172.5 400q0 240 179 399.5t456 159.5q137 0 250 -42.5t188.5 -117t116.5 -174.5t41 -215v-90h-954
q26 -116 122 -182t234 -66q121 0 210 53t126 144l244 -105q-35 -88 -113.5 -160t-188.5 -116zM672 868q-119 0 -211.5 -56t-126.5 -159h661q-13 81 -104 148t-219 67z" />
    <glyph glyph-name="Ecaron" unicode="&#x11a;" horiz-adv-x="1615" 
d="M129 1470h1423v-260h-1126v-327h1010v-258h-1010v-365h1126v-260h-1423v1470zM995 1554h-319l-295 310h237l218 -138l217 138h237z" />
    <glyph glyph-name="ecaron" unicode="&#x11b;" horiz-adv-x="1325" 
d="M684 211q118 0 206.5 53.5t125.5 143.5l244 -105q-56 -139 -213 -232.5t-363 -93.5q-280 0 -458.5 156.5t-178.5 405.5q0 240 179 399.5t456 159.5q137 0 250 -42.5t188.5 -117t116.5 -174.5t41 -215v-90h-954q26 -116 123.5 -182t236.5 -66zM672 868q-122 0 -213.5 -56
t-124.5 -159h661q-13 82 -102.5 148.5t-220.5 66.5zM821 1174h-291l-264 296h223l187 -118l186 118h223z" />
    <glyph glyph-name="Gcircumflex" unicode="&#x11c;" horiz-adv-x="1837" 
d="M934 1493q287 0 494 -120.5t292 -334.5l-264 -127q-64 153 -197.5 235.5t-326.5 82.5q-165 0 -296 -60.5t-205.5 -173.5t-74.5 -260q0 -221 160 -358t408 -137q208 0 365.5 88.5t172.5 222.5h-661v254h942v-805h-283v172q-66 -83 -213 -139t-325 -56q-188 0 -351 57.5
t-278 158t-180.5 242t-65.5 304.5q0 215 114 387.5t316.5 269.5t456.5 97zM1096 1864l295 -310h-238l-217 138l-217 -138h-238l295 310h320z" />
    <glyph glyph-name="gcircumflex" unicode="&#x11d;" horiz-adv-x="1425" 
d="M1315 152q0 -164 -87 -287.5t-236.5 -187.5t-338.5 -64q-218 0 -379 74.5t-227 208.5l227 139q41 -92 141.5 -144.5t233.5 -52.5q161 0 270 76t109 211v41q-146 -150 -401 -150q-135 0 -246.5 43t-185.5 117t-114 172.5t-40 210.5q0 109 40.5 207t113.5 172t185 117
t247 43q255 0 401 -146v125h287v-925zM1042 563q0 137 -105.5 221t-258.5 84q-152 0 -255.5 -83.5t-103.5 -225.5q0 -143 103.5 -227t255.5 -84q153 0 258.5 84.5t105.5 222.5v8zM836 1470l264 -296h-223l-187 118l-186 -118h-223l264 296h291z" />
    <glyph glyph-name="Gbreve" unicode="&#x11e;" horiz-adv-x="1837" 
d="M934 1493q287 0 494 -120.5t292 -334.5l-264 -127q-64 153 -197.5 235.5t-326.5 82.5q-165 0 -296 -60.5t-205.5 -173.5t-74.5 -260q0 -221 160 -358t408 -137q208 0 365.5 88.5t172.5 222.5h-661v254h942v-805h-283v172q-66 -83 -213 -139t-325 -56q-188 0 -351 57.5
t-278 158t-180.5 242t-65.5 304.5q0 215 114 387.5t316.5 269.5t456.5 97zM936 1739q87 0 143 35t56 90h211q0 -142 -110 -230t-300 -88t-300 88t-110 230h211q0 -55 56 -90t143 -35z" />
    <glyph glyph-name="gbreve" unicode="&#x11f;" horiz-adv-x="1425" 
d="M1315 152q0 -164 -87 -287.5t-236.5 -187.5t-338.5 -64q-218 0 -379 74.5t-227 208.5l227 139q41 -92 141.5 -144.5t233.5 -52.5q161 0 270 76t109 211v41q-146 -150 -401 -150q-135 0 -246.5 43t-185.5 117t-114 172.5t-40 210.5q0 109 40.5 207t113.5 172t185 117
t247 43q255 0 401 -146v125h287v-925zM1042 563q0 137 -105.5 221t-258.5 84q-152 0 -255.5 -83.5t-103.5 -225.5q0 -143 103.5 -227t255.5 -84q153 0 258.5 84.5t105.5 222.5v8zM696 1356q175 0 187 114h196q-2 -143 -101.5 -223t-281.5 -80t-281.5 80t-101.5 223h197
q12 -114 186 -114z" />
    <glyph glyph-name="Gdotaccent" unicode="&#x120;" horiz-adv-x="1837" 
d="M934 1493q287 0 494 -120.5t292 -334.5l-264 -127q-64 153 -197.5 235.5t-326.5 82.5q-165 0 -296 -60.5t-205.5 -173.5t-74.5 -260q0 -221 160 -358t408 -137q208 0 365.5 88.5t172.5 222.5h-661v254h942v-805h-283v172q-66 -83 -213 -139t-325 -56q-188 0 -351 57.5
t-278 158t-180.5 242t-65.5 304.5q0 215 114 387.5t316.5 269.5t456.5 97zM778 1554v271h307v-271h-307z" />
    <glyph glyph-name="gdotaccent" unicode="&#x121;" horiz-adv-x="1425" 
d="M1315 152q0 -164 -87 -287.5t-236.5 -187.5t-338.5 -64q-218 0 -379 74.5t-227 208.5l227 139q41 -92 141.5 -144.5t233.5 -52.5q161 0 270 76t109 211v41q-146 -150 -401 -150q-135 0 -246.5 43t-185.5 117t-114 172.5t-40 210.5q0 109 40.5 207t113.5 172t185 117
t247 43q255 0 401 -146v125h287v-925zM1042 563q0 137 -105.5 221t-258.5 84q-152 0 -255.5 -83.5t-103.5 -225.5q0 -143 103.5 -227t255.5 -84q153 0 258.5 84.5t105.5 222.5v8zM557 1204v266h295v-266h-295z" />
    <glyph glyph-name="Gcommaaccent" unicode="&#x122;" horiz-adv-x="1837" 
d="M934 1493q287 0 494 -120.5t292 -334.5l-264 -127q-64 153 -197.5 235.5t-326.5 82.5q-165 0 -296 -60.5t-205.5 -173.5t-74.5 -260q0 -221 160 -358t408 -137q208 0 365.5 88.5t172.5 222.5h-661v254h942v-805h-283v172q-66 -83 -213 -139t-325 -56q-188 0 -351 57.5
t-278 158t-180.5 242t-65.5 304.5q0 215 114 387.5t316.5 269.5t456.5 97zM756 -244v174h286v-116q0 -118 -78 -178t-208 -60v115q54 0 77.5 16t28.5 49h-106z" />
    <glyph glyph-name="gcommaaccent" unicode="&#x123;" horiz-adv-x="1425" 
d="M1315 152q0 -164 -87 -287.5t-236.5 -187.5t-338.5 -64q-218 0 -379 74.5t-227 208.5l227 139q41 -92 141.5 -144.5t233.5 -52.5q161 0 270 76t109 211v41q-146 -150 -401 -150q-135 0 -246.5 43t-185.5 117t-114 172.5t-40 210.5q0 109 40.5 207t113.5 172t185 117
t247 43q255 0 401 -146v125h287v-925zM1042 563q0 137 -105.5 221t-258.5 84q-152 0 -255.5 -83.5t-103.5 -225.5q0 -143 103.5 -227t255.5 -84q153 0 258.5 84.5t105.5 222.5v8zM848 1348v-174h-287v116q0 118 78 178t209 60v-115q-54 0 -78 -16t-29 -49h107z" />
    <glyph glyph-name="Hcircumflex" unicode="&#x124;" horiz-adv-x="1804" 
d="M1374 1470h303v-1470h-303v625h-944v-625h-301v1470h301v-585h944v585zM1047 1864l294 -310h-237l-217 138l-217 -138h-238l295 310h320z" />
    <glyph glyph-name="hcircumflex" unicode="&#x125;" horiz-adv-x="1361" 
d="M111 0v1470h286v-528q62 70 163.5 113t230.5 43q217 0 343 -136t126 -362v-600h-287v532q0 142 -71 225t-206 83q-143 0 -221 -83t-78 -229v-528h-286zM821 1864l295 -310h-237l-217 138l-218 -138h-237l295 310h319z" />
    <glyph glyph-name="Hbar" unicode="&#x126;" horiz-adv-x="1902" 
d="M1423 1470h303v-264h179v-254h-179v-952h-303v485h-944v-485h-303v952h-168v254h168v264h303v-264h944v264zM479 739h944v213h-944v-213z" />
    <glyph glyph-name="hbar" unicode="&#x127;" horiz-adv-x="1435" 
d="M184 0v1155h-147v209h147v106h287v-106h328v-209h-328v-213q62 70 163 113t230 43q217 0 343 -136t126 -362v-600h-286v532q0 142 -71 225t-206 83q-143 0 -221 -83t-78 -229v-528h-287z" />
    <glyph glyph-name="Itilde" unicode="&#x128;" horiz-adv-x="557" 
d="M430 1470v-1470h-301v1470h301zM74 1890q61 0 119.5 -17t96.5 -38t83 -38t82 -17t57 27t31 83h190q-8 -154 -74.5 -245t-177.5 -91q-60 0 -118.5 17.5t-96.5 39t-83 39t-81 17.5q-37 0 -58 -28t-30 -85h-190q6 154 72.5 245t177.5 91z" />
    <glyph glyph-name="itilde" unicode="&#x129;" horiz-adv-x="505" 
d="M397 1077v-1077h-286v1077h286zM82 1487q66 0 124.5 -26.5t104.5 -52.5t82 -26q33 0 51 26t27 79h176q-6 -143 -65.5 -228t-157.5 -85q-52 0 -101 16t-79.5 36t-66 36t-64.5 16q-33 0 -51 -25.5t-27 -78.5h-176q6 143 65.5 228t157.5 85z" />
    <glyph glyph-name="Imacron" unicode="&#x12a;" horiz-adv-x="557" 
d="M430 1470v-1470h-301v1470h301zM680 1571h-803v223h803v-223z" />
    <glyph glyph-name="imacron" unicode="&#x12b;" horiz-adv-x="505" 
d="M397 1077v-1077h-286v1077h286zM629 1208h-750v217h750v-217z" />
    <glyph glyph-name="Ibreve" unicode="&#x12c;" horiz-adv-x="557" 
d="M430 1470v-1470h-301v1470h301zM279 1739q87 0 142.5 35t55.5 90h211q0 -142 -109.5 -230t-299.5 -88t-300 88t-110 230h211q0 -55 56 -90t143 -35z" />
    <glyph glyph-name="ibreve" unicode="&#x12d;" horiz-adv-x="505" 
d="M397 1077v-1077h-286v1077h286zM254 1356q174 0 186 114h197q-2 -143 -101.5 -223t-281.5 -80t-281.5 80t-101.5 223h197q12 -114 186 -114z" />
    <glyph glyph-name="Iogonek" unicode="&#x12e;" horiz-adv-x="557" 
d="M8 -195q0 115 121 199v1466h301v-1470q-128 -39 -177.5 -72.5t-49.5 -68.5q0 -29 33.5 -46.5t91.5 -17.5q53 0 102 12v-167q-97 -17 -154 -17q-113 0 -190.5 48t-77.5 134z" />
    <glyph glyph-name="iogonek" unicode="&#x12f;" horiz-adv-x="505" 
d="M106 1204v266h293v-266h-293zM-23 -195q0 119 134 207v1065h286v-1075l2 -2q-128 -39 -177.5 -72.5t-49.5 -68.5q0 -29 33.5 -46.5t91.5 -17.5q53 0 102 12v-167q-97 -17 -153 -17q-113 0 -191 48.5t-78 133.5z" />
    <glyph glyph-name="Idotaccent" unicode="&#x130;" horiz-adv-x="557" 
d="M430 1470v-1470h-301v1470h301zM125 1554v271h307v-271h-307z" />
    <glyph glyph-name="dotlessi" unicode="&#x131;" horiz-adv-x="505" 
d="M397 1077v-1077h-286v1077h286z" />
    <glyph glyph-name="Jcircumflex" unicode="&#x134;" horiz-adv-x="1468" 
d="M1380 561q0 -263 -188.5 -423.5t-497.5 -160.5q-248 0 -438.5 119.5t-255.5 309.5l274 155q35 -137 150 -228t272 -91q180 0 281.5 86t101.5 247v895h301v-909zM1384 1864l295 -310h-237l-217 138l-217 -138h-238l295 310h319z" />
    <glyph glyph-name="jcircumflex" unicode="&#x135;" horiz-adv-x="505" 
d="M397 37q0 -215 -120 -317.5t-336 -102.5q-127 0 -232 37l43 223q95 -27 168 -27q97 0 144 40.5t47 140.5v1046h286v-1040zM397 1470l265 -296h-224l-186 118l-186 -118h-224l264 296h291z" />
    <glyph glyph-name="Kcommaaccent" unicode="&#x136;" horiz-adv-x="1697" 
d="M430 1470v-704l825 704h424l-751 -622l798 -848h-397l-622 664l-277 -230v-434h-301v1470h301zM721 -244v174h287v-116q0 -118 -78 -178t-209 -60v115q54 0 77.5 16t28.5 49h-106z" />
    <glyph glyph-name="kcommaaccent" unicode="&#x137;" horiz-adv-x="1361" 
d="M397 1470v-890l582 497h395l-557 -463l574 -614h-361l-418 442l-215 -178v-264h-286v1470h286zM565 -244v174h287v-116q0 -118 -78 -178t-209 -60v115q54 0 78 16t29 49h-107z" />
    <glyph glyph-name="kgreenlandic" unicode="&#x138;" horiz-adv-x="1361" 
d="M397 1077v-497l582 497h395l-557 -463l574 -614h-361l-418 442l-215 -178v-264h-286v1077h286z" />
    <glyph glyph-name="Lacute" unicode="&#x139;" horiz-adv-x="1507" 
d="M129 0v1470h301v-1210h1034v-260h-1335zM150 1554l239 310h408l-389 -310h-258z" />
    <glyph glyph-name="lacute" unicode="&#x13a;" horiz-adv-x="505" 
d="M397 1470v-1470h-286v1470h286zM129 1554l240 310h407l-389 -310h-258z" />
    <glyph glyph-name="Lcommaaccent" unicode="&#x13b;" horiz-adv-x="1507" 
d="M129 0v1470h301v-1210h1034v-260h-1335zM483 -244v174h287v-116q0 -118 -78 -178t-209 -60v115q54 0 78 16t29 49h-107z" />
    <glyph glyph-name="lcommaaccent" unicode="&#x13c;" horiz-adv-x="505" 
d="M397 1470v-1470h-286v1470h286zM111 -244v174h286v-116q0 -118 -78 -178t-208 -60v115q54 0 77.5 16t28.5 49h-106z" />
    <glyph glyph-name="Lcaron" unicode="&#x13d;" horiz-adv-x="1507" 
d="M129 0v1470h301v-1210h1034v-260h-1335zM676 1130l51 340h313l-170 -340h-194z" />
    <glyph glyph-name="lcaron" unicode="&#x13e;" horiz-adv-x="505" 
d="M397 1470v-1470h-286v1470h286zM492 1130l51 340h313l-170 -340h-194z" />
    <glyph glyph-name="Ldot" unicode="&#x13f;" horiz-adv-x="1507" 
d="M129 0v1470h301v-1210h1034v-260h-1335zM885 623v266h295v-266h-295z" />
    <glyph glyph-name="ldot" unicode="&#x140;" horiz-adv-x="872" 
d="M397 1470v-1470h-286v1470h286zM543 610v267h295v-267h-295z" />
    <glyph glyph-name="Lslash" unicode="&#x141;" horiz-adv-x="1560" 
d="M184 0v494l-194 -76v252l194 75v725h301v-624l439 164v-254l-439 -164v-332h1035v-260h-1336z" />
    <glyph glyph-name="lslash" unicode="&#x142;" horiz-adv-x="718" 
d="M711 834l-209 -103v-731h-287v606l-205 -102v258l205 102v606h287v-483l209 105v-258z" />
    <glyph glyph-name="Nacute" unicode="&#x143;" horiz-adv-x="1773" 
d="M1647 1470v-1470h-267l-960 1087v-1087h-291v1470h307l918 -1038v1038h293zM713 1554l239 310h408l-389 -310h-258z" />
    <glyph glyph-name="nacute" unicode="&#x144;" horiz-adv-x="1361" 
d="M111 0v1077h286v-135q62 70 163.5 113t230.5 43q217 0 343 -136t126 -362v-600h-287v532q0 142 -71 225t-206 83q-143 0 -221 -83t-78 -229v-528h-286zM559 1174l213 296h369l-340 -296h-242z" />
    <glyph glyph-name="Ncommaaccent" unicode="&#x145;" horiz-adv-x="1773" 
d="M1647 1470v-1470h-267l-960 1087v-1087h-291v1470h307l918 -1038v1038h293zM735 -244v174h287v-116q0 -118 -78 -178t-209 -60v115q54 0 78 16t29 49h-107z" />
    <glyph glyph-name="ncommaaccent" unicode="&#x146;" horiz-adv-x="1361" 
d="M111 0v1077h286v-135q62 70 163.5 113t230.5 43q217 0 343 -136t126 -362v-600h-287v532q0 142 -71 225t-206 83q-143 0 -221 -83t-78 -229v-528h-286zM541 -244v174h286v-116q0 -118 -78 -178t-208 -60v115q54 0 77.5 16t28.5 49h-106z" />
    <glyph glyph-name="Ncaron" unicode="&#x147;" horiz-adv-x="1773" 
d="M1647 1470v-1470h-267l-960 1087v-1087h-291v1470h307l918 -1038v1038h293zM1038 1554h-319l-295 310h238l217 -138l217 138h237z" />
    <glyph glyph-name="ncaron" unicode="&#x148;" horiz-adv-x="1361" 
d="M111 0v1077h286v-135q62 70 163.5 113t230.5 43q217 0 343 -136t126 -362v-600h-287v532q0 142 -71 225t-206 83q-143 0 -221 -83t-78 -229v-528h-286zM836 1174h-291l-264 296h223l186 -118l187 118h223z" />
    <glyph glyph-name="Eng" unicode="&#x14a;" horiz-adv-x="1773" 
d="M1358 12v13l-938 1052v-1077h-291v1470h307l918 -1038v1038h293v-1433q0 -110 -32.5 -192t-94 -131.5t-144 -73t-186.5 -23.5q-127 0 -232 37l43 225q91 -26 166 -26q191 0 191 159z" />
    <glyph glyph-name="eng" unicode="&#x14b;" horiz-adv-x="1361" 
d="M111 0v1077h286v-135q62 70 163.5 113t230.5 43q217 0 343 -136t126 -362v-563q0 -215 -119.5 -317.5t-335.5 -102.5q-127 0 -232 37l41 225q91 -26 168 -26q97 0 144 40t47 140v499q0 142 -71 225t-206 83q-143 0 -221 -83t-78 -229v-528h-286z" />
    <glyph glyph-name="Omacron" unicode="&#x14c;" horiz-adv-x="1830" 
d="M915 1493q248 0 446.5 -98t310.5 -271.5t112 -388.5t-112 -388.5t-310.5 -271.5t-446.5 -98q-186 0 -347.5 57.5t-276 157.5t-179.5 241t-65 302t65 302t179.5 241t276 157.5t347.5 57.5zM915 1229q-249 0 -404 -136t-155 -358t155 -357.5t404 -135.5t404.5 135.5
t155.5 357.5t-155.5 358t-404.5 136zM1317 1571h-803v223h803v-223z" />
    <glyph glyph-name="omacron" unicode="&#x14d;" horiz-adv-x="1353" 
d="M678 1098q175 0 317.5 -69t226 -197.5t83.5 -292.5q0 -124 -49 -230t-133 -178.5t-199.5 -113t-245.5 -40.5q-176 0 -319 69t-227.5 198.5t-84.5 294.5q0 164 84.5 292.5t227.5 197.5t319 69zM678 217q150 0 250 86.5t100 235.5q0 148 -100 233.5t-250 85.5
q-153 0 -252.5 -85.5t-99.5 -233.5q0 -149 99.5 -235.5t252.5 -86.5zM1051 1208h-750v217h750v-217z" />
    <glyph glyph-name="Obreve" unicode="&#x14e;" horiz-adv-x="1830" 
d="M915 1493q248 0 446.5 -98t310.5 -271.5t112 -388.5t-112 -388.5t-310.5 -271.5t-446.5 -98q-186 0 -347.5 57.5t-276 157.5t-179.5 241t-65 302t65 302t179.5 241t276 157.5t347.5 57.5zM915 1229q-249 0 -404 -136t-155 -358t155 -357.5t404 -135.5t404.5 135.5
t155.5 357.5t-155.5 358t-404.5 136zM915 1739q87 0 143 35t56 90h211q0 -142 -110 -230t-300 -88t-299.5 88t-109.5 230h211q0 -55 55.5 -90t142.5 -35z" />
    <glyph glyph-name="obreve" unicode="&#x14f;" horiz-adv-x="1353" 
d="M678 1098q175 0 317.5 -69t226 -197.5t83.5 -292.5q0 -124 -49 -230t-133 -178.5t-199.5 -113t-245.5 -40.5q-176 0 -319 69t-227.5 198.5t-84.5 294.5q0 164 84.5 292.5t227.5 197.5t319 69zM678 217q150 0 250 86.5t100 235.5q0 148 -100 233.5t-250 85.5
q-153 0 -252.5 -85.5t-99.5 -233.5q0 -149 99.5 -235.5t252.5 -86.5zM676 1356q174 0 186 114h197q-2 -143 -101.5 -223t-281.5 -80t-281.5 80t-101.5 223h196q12 -114 187 -114z" />
    <glyph glyph-name="Ohungarumlaut" unicode="&#x150;" horiz-adv-x="1830" 
d="M915 1493q248 0 446.5 -98t310.5 -271.5t112 -388.5t-112 -388.5t-310.5 -271.5t-446.5 -98q-186 0 -347.5 57.5t-276 157.5t-179.5 241t-65 302t65 302t179.5 241t276 157.5t347.5 57.5zM915 1229q-249 0 -404 -136t-155 -358t155 -357.5t404 -135.5t404.5 135.5
t155.5 357.5t-155.5 358t-404.5 136zM1040 1554l195 310h336l-309 -310h-222zM559 1554l180 310h351l-310 -310h-221z" />
    <glyph glyph-name="ohungarumlaut" unicode="&#x151;" horiz-adv-x="1353" 
d="M678 1098q175 0 317.5 -69t226 -197.5t83.5 -292.5q0 -124 -49 -230t-133 -178.5t-199.5 -113t-245.5 -40.5q-176 0 -319 69t-227.5 198.5t-84.5 294.5q0 164 84.5 292.5t227.5 197.5t319 69zM678 217q150 0 250 86.5t100 235.5q0 148 -100 233.5t-250 85.5
q-153 0 -252.5 -85.5t-99.5 -233.5q0 -149 99.5 -235.5t252.5 -86.5zM758 1174l190 296h316l-289 -296h-217zM322 1174l190 296h313l-286 -296h-217z" />
    <glyph glyph-name="OE" unicode="&#x152;" horiz-adv-x="2760" 
d="M55 735q0 337 227.5 536t612.5 199h1800v-260h-1085v-327h968v-258h-968v-365h1085v-260h-1800q-385 0 -612.5 199t-227.5 536zM1313 258v954h-416q-252 0 -394.5 -128.5t-142.5 -348.5q0 -219 142.5 -348t392.5 -129h418z" />
    <glyph glyph-name="oe" unicode="&#x153;" horiz-adv-x="2301" 
d="M1661 -20q-155 0 -283.5 55t-212.5 155q-84 -102 -210.5 -157.5t-278.5 -55.5q-175 0 -317.5 69t-227 198.5t-84.5 294.5q0 164 84.5 292.5t227 197.5t317.5 69q151 0 277 -55t212 -154q86 100 214 156.5t284 56.5q135 0 247.5 -43t187.5 -117.5t116 -175t41 -215.5v-88
h-952q26 -116 121.5 -182t234.5 -66q120 0 208.5 53t125.5 144l243 -105q-56 -141 -211.5 -234t-363.5 -93zM1649 872q-118 0 -210 -56.5t-126 -160.5h659q-11 81 -102.5 149t-220.5 68zM678 217q150 0 250 86.5t100 235.5q0 148 -100 233.5t-252 85.5q-151 0 -250.5 -85.5
t-99.5 -233.5q0 -149 99.5 -235.5t252.5 -86.5z" />
    <glyph glyph-name="Racute" unicode="&#x154;" horiz-adv-x="1654" 
d="M430 547v-547h-301v1470h924q257 0 408 -120t151 -342q0 -166 -90 -277.5t-250 -155.5l375 -575h-347l-346 547h-524zM430 799h606q132 0 204.5 54.5t72.5 152.5q0 100 -72.5 154t-204.5 54h-606v-415zM655 1554l240 310h408l-390 -310h-258z" />
    <glyph glyph-name="racute" unicode="&#x155;" horiz-adv-x="944" 
d="M922 1069v-283q-69 17 -129 17q-396 0 -396 -344v-459h-286v1077h286v-190q128 196 406 196q65 0 119 -14zM358 1174l213 296h369l-340 -296h-242z" />
    <glyph glyph-name="Rcommaaccent" unicode="&#x156;" horiz-adv-x="1654" 
d="M430 547v-547h-301v1470h924q257 0 408 -120t151 -342q0 -166 -90 -277.5t-250 -155.5l375 -575h-347l-346 547h-524zM430 799h606q132 0 204.5 54.5t72.5 152.5q0 100 -72.5 154t-204.5 54h-606v-415zM657 -244v174h287v-116q0 -118 -78 -178t-209 -60v115q54 0 78 16
t29 49h-107z" />
    <glyph glyph-name="rcommaaccent" unicode="&#x157;" horiz-adv-x="944" 
d="M922 1069v-283q-69 17 -129 17q-396 0 -396 -344v-459h-286v1077h286v-190q128 196 406 196q65 0 119 -14zM111 -244v174h286v-116q0 -118 -78 -178t-208 -60v115q54 0 77.5 16t28.5 49h-106z" />
    <glyph glyph-name="Rcaron" unicode="&#x158;" horiz-adv-x="1654" 
d="M430 547v-547h-301v1470h924q257 0 408 -120t151 -342q0 -166 -90 -277.5t-250 -155.5l375 -575h-347l-346 547h-524zM430 799h606q132 0 204.5 54.5t72.5 152.5q0 100 -72.5 154t-204.5 54h-606v-415zM975 1554h-320l-295 310h238l217 -138l217 138h238z" />
    <glyph glyph-name="rcaron" unicode="&#x159;" horiz-adv-x="944" 
d="M922 1069v-283q-69 17 -129 17q-396 0 -396 -344v-459h-286v1077h286v-190q128 196 406 196q65 0 119 -14zM664 1174h-291l-264 296h223l186 -118l187 118h223z" />
    <glyph glyph-name="Sacute" unicode="&#x15a;" horiz-adv-x="1589" 
d="M-25 319l203 211q60 -81 140.5 -140.5t168 -91.5t172 -47t170.5 -15q187 0 303.5 52t116.5 140q0 98 -96.5 129t-437.5 68q-85 10 -149.5 20t-133.5 26t-119 36.5t-97 50.5t-75.5 67t-45.5 87.5t-17 111.5q0 210 189 339.5t501 129.5q245 0 450.5 -80t305.5 -213
l-201 -192q-85 109 -234.5 169t-336.5 60t-284 -51.5t-97 -130.5q0 -27 8.5 -46.5t31.5 -36t54.5 -28t89 -23t122 -20t165.5 -20.5q78 -9 135 -16.5t123 -19t113 -24t97.5 -30.5t84.5 -39.5t66.5 -51t51.5 -64t30 -79t11 -96.5q0 -118 -56.5 -211t-156.5 -152t-233 -90
t-291 -31q-265 0 -500.5 94t-341.5 248zM653 1554l240 310h407l-389 -310h-258z" />
    <glyph glyph-name="sacute" unicode="&#x15b;" horiz-adv-x="1198" 
d="M-8 203l164 188q175 -190 469 -190q262 0 262 114q0 21 -9.5 36t-29 25t-50.5 17t-73 12.5t-99 12.5q-54 6 -85 10q-77 10 -130.5 19.5t-114.5 25.5t-100.5 38t-73.5 53t-50.5 75t-16.5 100q0 161 144.5 260t388.5 99q185 0 331.5 -56.5t225.5 -146.5l-164 -174
q-68 74 -173.5 115t-234.5 41q-116 0 -176.5 -29t-60.5 -78q0 -46 53.5 -62.5t231.5 -38.5l24 -3q72 -8 119.5 -15t108 -20t99.5 -28t80.5 -39t65 -54t38.5 -72t15 -94q0 -119 -77 -203.5t-201 -124t-281 -39.5q-197 0 -363 60t-257 166zM477 1174l213 296h369l-340 -296
h-242z" />
    <glyph glyph-name="Scircumflex" unicode="&#x15c;" horiz-adv-x="1589" 
d="M-25 319l203 211q60 -81 140.5 -140.5t168 -91.5t172 -47t170.5 -15q187 0 303.5 52t116.5 140q0 98 -96.5 129t-437.5 68q-85 10 -149.5 20t-133.5 26t-119 36.5t-97 50.5t-75.5 67t-45.5 87.5t-17 111.5q0 210 189 339.5t501 129.5q245 0 450.5 -80t305.5 -213
l-201 -192q-85 109 -234.5 169t-336.5 60t-284 -51.5t-97 -130.5q0 -27 8.5 -46.5t31.5 -36t54.5 -28t89 -23t122 -20t165.5 -20.5q78 -9 135 -16.5t123 -19t113 -24t97.5 -30.5t84.5 -39.5t66.5 -51t51.5 -64t30 -79t11 -96.5q0 -118 -56.5 -211t-156.5 -152t-233 -90
t-291 -31q-265 0 -500.5 94t-341.5 248zM942 1864l295 -310h-238l-217 138l-217 -138h-237l295 310h319z" />
    <glyph glyph-name="scircumflex" unicode="&#x15d;" horiz-adv-x="1198" 
d="M-8 203l164 188q175 -190 469 -190q262 0 262 114q0 21 -9.5 36t-29 25t-50.5 17t-73 12.5t-99 12.5q-54 6 -85 10q-77 10 -130.5 19.5t-114.5 25.5t-100.5 38t-73.5 53t-50.5 75t-16.5 100q0 161 144.5 260t388.5 99q185 0 331.5 -56.5t225.5 -146.5l-164 -174
q-68 74 -173.5 115t-234.5 41q-116 0 -176.5 -29t-60.5 -78q0 -46 53.5 -62.5t231.5 -38.5l24 -3q72 -8 119.5 -15t108 -20t99.5 -28t80.5 -39t65 -54t38.5 -72t15 -94q0 -119 -77 -203.5t-201 -124t-281 -39.5q-197 0 -363 60t-257 166zM737 1470l264 -296h-223l-186 118
l-186 -118h-224l264 296h291z" />
    <glyph glyph-name="Scedilla" unicode="&#x15e;" horiz-adv-x="1589" 
d="M-25 319l203 211q60 -81 140.5 -140.5t168 -91.5t172 -47t170.5 -15q187 0 303.5 52t116.5 140q0 98 -96.5 129t-437.5 68q-85 10 -149.5 20t-133.5 26t-119 36.5t-97 50.5t-75.5 67t-45.5 87.5t-17 111.5q0 210 189 339.5t501 129.5q245 0 450.5 -80t305.5 -213
l-201 -192q-85 109 -234.5 169t-336.5 60t-284 -51.5t-97 -130.5q0 -27 8.5 -46.5t31.5 -36t54.5 -28t89 -23t122 -20t165.5 -20.5q78 -9 135 -16.5t123 -19t113 -24t97.5 -30.5t84.5 -39.5t66.5 -51t51.5 -64t30 -79t11 -96.5q0 -118 -56.5 -211t-155.5 -152t-229.5 -90
t-283.5 -31l-6 -20q100 -5 164 -47.5t64 -114.5q0 -83 -82.5 -131.5t-208.5 -48.5q-183 0 -279 74l88 131q75 -58 179 -58q108 0 108 50q0 31 -49.5 43t-147.5 14l35 115q-234 21 -429.5 110.5t-289.5 224.5z" />
    <glyph glyph-name="scedilla" unicode="&#x15f;" horiz-adv-x="1198" 
d="M-8 203l164 188q175 -190 469 -190q262 0 262 114q0 21 -9.5 36t-29 25t-50.5 17t-73 12.5t-99 12.5q-54 6 -85 10q-77 10 -130.5 19.5t-114.5 25.5t-100.5 38t-73.5 53t-50.5 75t-16.5 100q0 161 144.5 260t388.5 99q185 0 331.5 -56.5t225.5 -146.5l-164 -174
q-68 74 -173.5 115t-234.5 41q-116 0 -176.5 -29t-60.5 -78q0 -46 53.5 -62.5t231.5 -38.5l24 -3q72 -8 119.5 -15t108 -20t99.5 -28t80.5 -39t65 -54t38.5 -72t15 -94q0 -119 -77 -203.5t-201 -124t-281 -39.5h-6l-6 -20q100 -5 163.5 -47.5t63.5 -114.5q0 -83 -82 -131.5
t-208 -48.5q-183 0 -279 74l88 131q75 -58 178 -58q109 0 109 50q0 31 -49.5 43t-147.5 14l35 117q-155 19 -280 75t-199 142z" />
    <glyph glyph-name="Scaron" unicode="&#x160;" horiz-adv-x="1589" 
d="M-25 319l203 211q60 -81 140.5 -140.5t168 -91.5t172 -47t170.5 -15q187 0 303.5 52t116.5 140q0 98 -96.5 129t-437.5 68q-85 10 -149.5 20t-133.5 26t-119 36.5t-97 50.5t-75.5 67t-45.5 87.5t-17 111.5q0 210 189 339.5t501 129.5q245 0 450.5 -80t305.5 -213
l-201 -192q-85 109 -234.5 169t-336.5 60t-284 -51.5t-97 -130.5q0 -27 8.5 -46.5t31.5 -36t54.5 -28t89 -23t122 -20t165.5 -20.5q78 -9 135 -16.5t123 -19t113 -24t97.5 -30.5t84.5 -39.5t66.5 -51t51.5 -64t30 -79t11 -96.5q0 -118 -56.5 -211t-156.5 -152t-233 -90
t-291 -31q-265 0 -500.5 94t-341.5 248zM946 1554h-319l-295 310h237l217 -138l218 138h237z" />
    <glyph glyph-name="scaron" unicode="&#x161;" horiz-adv-x="1198" 
d="M-8 203l164 188q175 -190 469 -190q262 0 262 114q0 21 -9.5 36t-29 25t-50.5 17t-73 12.5t-99 12.5q-54 6 -85 10q-77 10 -130.5 19.5t-114.5 25.5t-100.5 38t-73.5 53t-50.5 75t-16.5 100q0 161 144.5 260t388.5 99q185 0 331.5 -56.5t225.5 -146.5l-164 -174
q-68 74 -173.5 115t-234.5 41q-116 0 -176.5 -29t-60.5 -78q0 -46 53.5 -62.5t231.5 -38.5l24 -3q72 -8 119.5 -15t108 -20t99.5 -28t80.5 -39t65 -54t38.5 -72t15 -94q0 -119 -77 -203.5t-201 -124t-281 -39.5q-197 0 -363 60t-257 166zM745 1174h-290l-265 296h224
l186 -118l186 118h224z" />
    <glyph glyph-name="Tcommaaccent" unicode="&#x162;" horiz-adv-x="1675" 
d="M1112 -205q0 -83 -82.5 -131.5t-208.5 -48.5q-182 0 -278 74l88 131q75 -58 178 -58q109 0 109 50q0 31 -49.5 43t-147.5 14l39 131h-74v1210h-649v260h1601v-260h-649v-1210h-92l-12 -43q100 -5 163.5 -47.5t63.5 -114.5z" />
    <glyph glyph-name="tcommaaccent" unicode="&#x163;" horiz-adv-x="1071" 
d="M256 360v478h-258v239h258v307h283v-307h458v-239h-458v-430q0 -93 52 -131.5t167 -38.5q105 0 235 45l49 -236q-159 -61 -348 -61q-33 0 -51 2l-8 -31q100 -5 163.5 -47.5t63.5 -114.5q0 -83 -82.5 -131.5t-208.5 -48.5q-182 0 -278 74l88 131q75 -58 178 -58
q109 0 109 50q0 31 -49.5 43t-147.5 14l43 139q-258 73 -258 352z" />
    <glyph glyph-name="Tcaron" unicode="&#x164;" horiz-adv-x="1675" 
d="M1638 1210h-649v-1210h-303v1210h-649v260h1601v-260zM997 1554h-319l-295 310h238l217 -138l217 138h237z" />
    <glyph glyph-name="tcaron" unicode="&#x165;" horiz-adv-x="1071" 
d="M256 360v478h-258v239h258v307h283v-307h458v-239h-458v-430q0 -93 52 -131.5t167 -38.5q105 0 235 45l49 -236q-159 -61 -348 -61q-93 0 -169.5 20t-138 63t-96 117t-34.5 174zM633 1171l51 340h313l-170 -340h-194z" />
    <glyph glyph-name="Tbar" unicode="&#x166;" horiz-adv-x="1675" 
d="M1321 614h-332v-614h-303v614h-332v260h332v336h-649v260h1601v-260h-649v-336h332v-260z" />
    <glyph glyph-name="tbar" unicode="&#x167;" horiz-adv-x="1071" 
d="M256 360v115h-254v227h254v148h-258v227h258v307h283v-307h458v-227h-458v-148h458v-227h-458v-72q0 -93 52 -131.5t167 -38.5q103 0 235 46l49 -232q-159 -61 -348 -61q-93 0 -169.5 20t-138 63t-96 117t-34.5 174z" />
    <glyph glyph-name="Utilde" unicode="&#x168;" horiz-adv-x="1687" 
d="M844 -20q-190 0 -335 51t-237 146t-138 225t-46 292v776h301v-759q0 -467 455 -467q452 0 452 467v759h303v-776q0 -162 -46.5 -292.5t-138 -225t-236.5 -145.5t-334 -51zM641 1890q61 0 119.5 -17t96.5 -38t83 -38t82 -17t57 27t31 83h190q-8 -154 -74 -245t-177 -91
q-60 0 -118.5 17.5t-96.5 39t-83 39t-81 17.5q-37 0 -58 -28t-30 -85h-191q6 154 72.5 245t177.5 91z" />
    <glyph glyph-name="utilde" unicode="&#x169;" horiz-adv-x="1351" 
d="M1243 1077v-1077h-287v135q-64 -72 -162 -115t-225 -43q-214 0 -340.5 133t-126.5 357v610h287v-561q0 -139 67.5 -213t202.5 -74q141 0 219 81t78 225v542h287zM502 1487q66 0 124.5 -26.5t104.5 -52.5t82 -26q33 0 51 26t27 79h176q-6 -143 -65.5 -228t-157.5 -85
q-66 0 -125 26t-105.5 52t-81.5 26q-33 0 -50.5 -25.5t-26.5 -78.5h-176q6 143 65.5 228t157.5 85z" />
    <glyph glyph-name="Umacron" unicode="&#x16a;" horiz-adv-x="1687" 
d="M844 -20q-190 0 -335 51t-237 146t-138 225t-46 292v776h301v-759q0 -467 455 -467q452 0 452 467v759h303v-776q0 -162 -46.5 -292.5t-138 -225t-236.5 -145.5t-334 -51zM1245 1571h-803v223h803v-223z" />
    <glyph glyph-name="umacron" unicode="&#x16b;" horiz-adv-x="1351" 
d="M1243 1077v-1077h-287v135q-64 -72 -162 -115t-225 -43q-214 0 -340.5 133t-126.5 357v610h287v-561q0 -139 67.5 -213t202.5 -74q141 0 219 81t78 225v542h287zM1047 1208h-750v217h750v-217z" />
    <glyph glyph-name="Ubreve" unicode="&#x16c;" horiz-adv-x="1687" 
d="M844 -20q-190 0 -335 51t-237 146t-138 225t-46 292v776h301v-759q0 -467 455 -467q452 0 452 467v759h303v-776q0 -162 -46.5 -292.5t-138 -225t-236.5 -145.5t-334 -51zM844 1739q87 0 142.5 35t55.5 90h211q0 -142 -109.5 -230t-299.5 -88t-300 88t-110 230h211
q0 -55 56 -90t143 -35z" />
    <glyph glyph-name="ubreve" unicode="&#x16d;" horiz-adv-x="1351" 
d="M1243 1077v-1077h-287v135q-64 -72 -162 -115t-225 -43q-214 0 -340.5 133t-126.5 357v610h287v-561q0 -139 67.5 -213t202.5 -74q141 0 219 81t78 225v542h287zM672 1356q174 0 186 114h197q-2 -143 -101.5 -223t-281.5 -80t-281.5 80t-101.5 223h196q12 -114 187 -114z
" />
    <glyph glyph-name="Uring" unicode="&#x16e;" horiz-adv-x="1687" 
d="M844 -20q-190 0 -335 51t-237 146t-138 225t-46 292v776h301v-759q0 -467 455 -467q452 0 452 467v759h303v-776q0 -162 -46.5 -292.5t-138 -225t-236.5 -145.5t-334 -51zM567 1757q0 109 78 185.5t199 76.5t198.5 -76t77.5 -186t-78 -188t-198 -78t-198.5 78t-78.5 188z
M739 1757q0 -49 29 -77.5t76 -28.5q46 0 75 28.5t29 77.5q0 46 -29.5 76.5t-74.5 30.5q-46 0 -75.5 -30.5t-29.5 -76.5z" />
    <glyph glyph-name="uring" unicode="&#x16f;" horiz-adv-x="1351" 
d="M1243 1077v-1077h-287v135q-64 -72 -162 -115t-225 -43q-214 0 -340.5 133t-126.5 357v610h287v-561q0 -139 67.5 -213t202.5 -74q141 0 219 81t78 225v542h287zM438 1372q0 91 66.5 156t167.5 65t167 -65t66 -156q0 -93 -66 -158t-167 -65t-167.5 65.5t-66.5 157.5z
M582 1372q0 -38 26 -65t64 -27q39 0 64.5 26.5t25.5 65.5q0 37 -25.5 64.5t-64.5 27.5q-37 0 -63.5 -28t-26.5 -64z" />
    <glyph glyph-name="Uhungarumlaut" unicode="&#x170;" horiz-adv-x="1687" 
d="M844 -20q-190 0 -335 51t-237 146t-138 225t-46 292v776h301v-759q0 -467 455 -467q452 0 452 467v759h303v-776q0 -162 -46.5 -292.5t-138 -225t-236.5 -145.5t-334 -51zM950 1554l195 310h336l-310 -310h-221zM469 1554l180 310h350l-309 -310h-221z" />
    <glyph glyph-name="uhungarumlaut" unicode="&#x171;" horiz-adv-x="1351" 
d="M1243 1077v-1077h-287v135q-64 -72 -162 -115t-225 -43q-214 0 -340.5 133t-126.5 357v610h287v-561q0 -139 67.5 -213t202.5 -74q141 0 219 81t78 225v542h287zM735 1174l191 296h315l-289 -296h-217zM299 1174l190 296h314l-287 -296h-217z" />
    <glyph glyph-name="Uogonek" unicode="&#x172;" horiz-adv-x="1687" 
d="M1092 4q-123 -27 -175.5 -65t-52.5 -76q0 -31 34 -49.5t93 -18.5q54 0 101 12v-167q-97 -17 -152 -17q-113 0 -190.5 48.5t-77.5 135.5q0 100 80 177q-330 23 -497 210t-167 500v776h303v-759q0 -109 24.5 -192t76.5 -146t140.5 -96t211.5 -33t212 33t141.5 96t76.5 146
t24 192v759h301v-776q0 -274 -126.5 -453.5t-380.5 -236.5z" />
    <glyph glyph-name="uogonek" unicode="&#x173;" horiz-adv-x="1351" 
d="M797 -195q0 64 40 121.5t119 100.5v108q-64 -72 -162 -115t-225 -43q-214 0 -340.5 133t-126.5 357v610h287v-561q0 -139 67.5 -213t202.5 -74q141 0 219 81t78 225v542h287v-1077h-24q-128 -39 -178 -72.5t-50 -68.5q0 -29 33.5 -46.5t91.5 -17.5q54 0 103 12v-167
q-97 -17 -154 -17q-113 0 -190.5 48t-77.5 134z" />
    <glyph glyph-name="Wcircumflex" unicode="&#x174;" horiz-adv-x="2420" 
d="M1057 1470h313l367 -1138l387 1138h309l-514 -1470h-350l-359 1124l-362 -1124h-348l-514 1470h315l387 -1138zM1374 1864l295 -310h-237l-218 138l-217 -138h-237l295 310h319z" />
    <glyph glyph-name="wcircumflex" unicode="&#x175;" horiz-adv-x="1886" 
d="M825 1077h250l258 -729l262 729h295l-424 -1077h-258l-264 717l-264 -717h-258l-426 1077h305l268 -729zM1087 1470l265 -296h-224l-186 118l-186 -118h-224l265 296h290z" />
    <glyph glyph-name="Ycircumflex" unicode="&#x176;" horiz-adv-x="1736" 
d="M872 868l527 602h358l-737 -845v-625h-301v625l-739 845h366zM1034 1864l295 -310h-237l-218 138l-217 -138h-237l295 310h319z" />
    <glyph glyph-name="ycircumflex" unicode="&#x177;" horiz-adv-x="1347" 
d="M788 -76q-82 -169 -188.5 -238t-275.5 -69q-61 0 -130 13.5t-104 31.5l51 234q80 -41 158 -41q76 0 131 29.5t86 109.5l10 33l-530 1050h319l369 -768l360 768h308zM819 1470l264 -296h-223l-186 118l-187 -118h-223l264 296h291z" />
    <glyph glyph-name="Ydieresis" unicode="&#x178;" horiz-adv-x="1736" 
d="M872 868l527 602h358l-737 -845v-625h-301v625l-739 845h366zM467 1554v271h295v-271h-295zM987 1554v271h295v-271h-295z" />
    <glyph glyph-name="Zacute" unicode="&#x179;" horiz-adv-x="1628" 
d="M1550 260v-260h-1476v229l1038 981h-1030v260h1460v-229l-1040 -981h1048zM645 1554l240 310h407l-389 -310h-258z" />
    <glyph glyph-name="zacute" unicode="&#x17a;" horiz-adv-x="1280" 
d="M1212 240v-240h-1142v213l737 625h-731v239h1130v-215l-733 -622h739zM489 1174l213 296h369l-340 -296h-242z" />
    <glyph glyph-name="Zdotaccent" unicode="&#x17b;" horiz-adv-x="1628" 
d="M1550 260v-260h-1476v229l1038 981h-1030v260h1460v-229l-1040 -981h1048zM657 1554v271h308v-271h-308z" />
    <glyph glyph-name="zdotaccent" unicode="&#x17c;" horiz-adv-x="1280" 
d="M1212 240v-240h-1142v213l737 625h-731v239h1130v-215l-733 -622h739zM492 1204v266h294v-266h-294z" />
    <glyph glyph-name="Zcaron" unicode="&#x17d;" horiz-adv-x="1628" 
d="M1550 260v-260h-1476v229l1038 981h-1030v260h1460v-229l-1040 -981h1048zM971 1554h-320l-295 310h238l217 -138l217 138h238z" />
    <glyph glyph-name="zcaron" unicode="&#x17e;" horiz-adv-x="1280" 
d="M1212 240v-240h-1142v213l737 625h-731v239h1130v-215l-733 -622h739zM784 1174h-290l-265 296h224l186 -118l186 118h224z" />
    <glyph glyph-name="florin" unicode="&#x192;" horiz-adv-x="1675" 
d="M383 680v201h330l28 159q41 224 172 338.5t365 114.5q124 0 228.5 -31t168.5 -82l-121 -211q-50 39 -119 61.5t-139 22.5q-212 0 -256 -227l-26 -145h323v-201h-360l-45 -250q-79 -453 -535 -453q-125 0 -229 31t-168 82l121 211q48 -38 117.5 -61t138.5 -23
q215 0 256 227l43 236h-293z" />
    <glyph glyph-name="AEacute" unicode="&#x1fc;" horiz-adv-x="2906" 
d="M1290 1470h1553v-260h-1127v-327h1010v-258h-1010v-365h1127v-260h-1424v338h-766l-299 -338h-379zM879 592h540v610zM1843 1554l240 310h407l-389 -310h-258z" />
    <glyph glyph-name="aeacute" unicode="&#x1fd;" horiz-adv-x="2195" 
d="M532 649h390v53q0 72 -67.5 118t-201.5 46q-117 0 -206 -46t-117 -118l-248 84q51 140 212.5 226t369.5 86q315 0 446 -158q176 158 444 158q136 0 249 -42.5t188 -116.5t116 -174.5t41 -215.5v-90h-952q26 -116 121 -182t233 -66q121 0 210 53t126 144l244 -105
q-56 -139 -213 -232.5t-363 -93.5q-166 0 -301.5 60.5t-220.5 167.5q-89 -117 -225.5 -172.5t-302.5 -55.5q-204 0 -331.5 88t-127.5 246q0 152 124.5 245t362.5 93zM1542 870q-121 0 -213 -57.5t-125 -163.5h666q-16 87 -108.5 154t-219.5 67zM922 416v43h-359
q-239 0 -239 -135q0 -61 56 -94t157 -33q93 0 179 24t146 75.5t60 119.5zM995 1174l213 296h369l-340 -296h-242z" />
    <glyph glyph-name="Oslashacute" unicode="&#x1fe;" horiz-adv-x="1828" 
d="M915 1493q298 0 521 -139l155 149l170 -168l-143 -137q166 -203 166 -463q0 -215 -112 -388.5t-310.5 -271.5t-446.5 -98q-283 0 -505 129l-170 -165l-172 170l155 149q-176 205 -176 475q0 161 65 302t179.5 241t276 157.5t347.5 57.5zM915 1237q-255 0 -411 -137.5
t-156 -364.5q0 -170 94 -297l781 729q-134 70 -308 70zM1481 735q0 159 -84 283l-774 -723q134 -62 292 -62q254 0 410 137.5t156 364.5zM758 1554l239 310h408l-389 -310h-258z" />
    <glyph glyph-name="oslashacute" unicode="&#x1ff;" horiz-adv-x="1353" 
d="M678 1098q199 0 350 -88l127 127l141 -138l-114 -114q123 -145 123 -346q0 -124 -49 -230t-133 -178.5t-199.5 -113t-245.5 -40.5q-196 0 -352 89l-125 -125l-144 135l115 117q-123 142 -123 346q0 164 84 292.5t226.5 197.5t318.5 69zM315 539q0 -104 50 -183l481 482
q-72 34 -168 34q-156 0 -259.5 -89.5t-103.5 -243.5zM1038 539q0 101 -49 178l-481 -479q73 -33 170 -33q155 0 257.5 89.5t102.5 244.5zM541 1174l213 296h368l-340 -296h-241z" />
    <glyph glyph-name="Scommaaccent" unicode="&#x218;" horiz-adv-x="1589" 
d="M-25 319l203 211q60 -81 140.5 -140.5t168 -91.5t172 -47t170.5 -15q187 0 303.5 52t116.5 140q0 98 -96.5 129t-437.5 68q-85 10 -149.5 20t-133.5 26t-119 36.5t-97 50.5t-75.5 67t-45.5 87.5t-17 111.5q0 210 189 339.5t501 129.5q245 0 450.5 -80t305.5 -213
l-201 -192q-85 109 -234.5 169t-336.5 60t-284 -51.5t-97 -130.5q0 -27 8.5 -46.5t31.5 -36t54.5 -28t89 -23t122 -20t165.5 -20.5q78 -9 135 -16.5t123 -19t113 -24t97.5 -30.5t84.5 -39.5t66.5 -51t51.5 -64t30 -79t11 -96.5q0 -118 -56.5 -211t-156.5 -152t-233 -90
t-291 -31q-265 0 -500.5 94t-341.5 248zM635 -244v174h287v-116q0 -118 -78 -178t-209 -60v115q54 0 77.5 16t28.5 49h-106z" />
    <glyph glyph-name="scommaaccent" unicode="&#x219;" horiz-adv-x="1198" 
d="M-8 203l164 188q175 -190 469 -190q262 0 262 114q0 21 -9.5 36t-29 25t-50.5 17t-73 12.5t-99 12.5q-54 6 -85 10q-77 10 -130.5 19.5t-114.5 25.5t-100.5 38t-73.5 53t-50.5 75t-16.5 100q0 161 144.5 260t388.5 99q185 0 331.5 -56.5t225.5 -146.5l-164 -174
q-68 74 -173.5 115t-234.5 41q-116 0 -176.5 -29t-60.5 -78q0 -46 53.5 -62.5t231.5 -38.5l24 -3q72 -8 119.5 -15t108 -20t99.5 -28t80.5 -39t65 -54t38.5 -72t15 -94q0 -119 -77 -203.5t-201 -124t-281 -39.5q-197 0 -363 60t-257 166zM453 -244v174h286v-116
q0 -118 -78 -178t-208 -60v115q54 0 77.5 16t28.5 49h-106z" />
    <glyph glyph-name="uni021A" unicode="&#x21a;" horiz-adv-x="1675" 
d="M1638 1210h-649v-1210h-303v1210h-649v260h1601v-260zM694 -244v174h287v-116q0 -118 -78 -178t-209 -60v115q54 0 78 16t29 49h-107z" />
    <glyph glyph-name="uni021B" unicode="&#x21b;" horiz-adv-x="1071" 
d="M256 360v478h-258v239h258v307h283v-307h458v-239h-458v-430q0 -93 52 -131.5t167 -38.5q105 0 235 45l49 -236q-159 -61 -348 -61q-93 0 -169.5 20t-138 63t-96 117t-34.5 174zM467 -244v174h287v-116q0 -118 -78 -178t-209 -60v115q54 0 77.5 16t28.5 49h-106z" />
    <glyph glyph-name="uni0237" unicode="&#x237;" horiz-adv-x="505" 
d="M397 37q0 -215 -120 -317.5t-336 -102.5q-127 0 -232 37l43 223q95 -27 168 -27q97 0 144 40.5t47 140.5v1046h286v-1040z" />
    <glyph glyph-name="circumflex" unicode="&#x2c6;" horiz-adv-x="1228" 
d="M760 1470l264 -296h-223l-187 118l-186 -118h-223l264 296h291z" />
    <glyph glyph-name="caron" unicode="&#x2c7;" horiz-adv-x="1228" 
d="M760 1174h-291l-264 296h223l186 -118l187 118h223z" />
    <glyph glyph-name="breve" unicode="&#x2d8;" horiz-adv-x="1228" 
d="M614 1356q175 0 187 114h196q-2 -143 -101.5 -223t-281.5 -80t-281.5 80t-101.5 223h197q12 -114 186 -114z" />
    <glyph glyph-name="dotaccent" unicode="&#x2d9;" horiz-adv-x="1228" 
d="M467 1204v266h295v-266h-295z" />
    <glyph glyph-name="ring" unicode="&#x2da;" horiz-adv-x="1228" 
d="M381 1372q0 91 66 156t167 65t167.5 -65t66.5 -156q0 -92 -66.5 -157.5t-167.5 -65.5t-167 65t-66 158zM524 1372q0 -38 26 -65t64 -27q39 0 65 26.5t26 65.5q0 36 -26 64t-65 28q-37 0 -63.5 -28t-26.5 -64z" />
    <glyph glyph-name="ogonek" unicode="&#x2db;" horiz-adv-x="1228" 
d="M360 -195q0 93 84.5 170t253.5 121l84 -96q-128 -39 -177.5 -72.5t-49.5 -68.5q0 -29 33.5 -46.5t91.5 -17.5q53 0 102 12v-167q-97 -17 -153 -17q-113 0 -191 48.5t-78 133.5z" />
    <glyph glyph-name="tilde" unicode="&#x2dc;" horiz-adv-x="1228" 
d="M442 1487q66 0 125 -26.5t105 -52.5t82 -26q32 0 50 25.5t27 79.5h177q-6 -143 -65.5 -228t-158.5 -85q-52 0 -101 16t-79.5 36t-66 36t-64.5 16q-33 0 -51 -25.5t-27 -78.5h-176q6 143 65.5 228t157.5 85z" />
    <glyph glyph-name="hungarumlaut" unicode="&#x2dd;" horiz-adv-x="1228" 
d="M580 1174l190 296h315l-288 -296h-217zM143 1174l191 296h313l-287 -296h-217z" />
    <glyph glyph-name="gravecmb" unicode="&#x300;" horiz-adv-x="0" 
d="M291 1174h-242l-340 296h369z" />
    <glyph glyph-name="acutecmb" unicode="&#x301;" horiz-adv-x="0" 
d="M-291 1174l213 296h369l-340 -296h-242z" />
    <glyph glyph-name="circumflexcmb" unicode="&#x302;" horiz-adv-x="0" 
d="M145 1470l265 -296h-224l-186 118l-186 -118h-224l265 296h290z" />
    <glyph glyph-name="tildecmb" unicode="&#x303;" horiz-adv-x="0" 
d="M-172 1487q67 0 125.5 -26.5t104 -52.5t81.5 -26q33 0 51 26t27 79h176q-6 -143 -65 -228t-156 -85q-53 0 -102 16t-80 36t-66 36t-63 16q-33 0 -51 -25.5t-27 -78.5h-176q6 143 65 228t156 85z" />
    <glyph glyph-name="macroncmb" unicode="&#x304;" horiz-adv-x="0" 
d="M375 1208h-750v217h750v-217z" />
    <glyph glyph-name="brevecmb" unicode="&#x306;" horiz-adv-x="0" 
d="M0 1356q174 0 186 114h197q-2 -143 -101.5 -223t-281.5 -80t-281.5 80t-101.5 223h197q12 -114 186 -114z" />
    <glyph glyph-name="dotaccentcmb" unicode="&#x307;" horiz-adv-x="0" 
d="M-147 1204v266h294v-266h-294z" />
    <glyph glyph-name="dieresiscmb" unicode="&#x308;" horiz-adv-x="0" 
d="M-399 1204v266h295v-266h-295zM104 1204v266h295v-266h-295z" />
    <glyph glyph-name="ringcmb" unicode="&#x30a;" horiz-adv-x="0" 
d="M-233 1372q0 91 66 156t167 65t167 -65t66 -156q0 -93 -66 -158t-167 -65t-167 65t-66 158zM-90 1372q0 -38 26 -65t64 -27q39 0 64.5 26.5t25.5 65.5q0 37 -25.5 64.5t-64.5 27.5q-37 0 -63.5 -28t-26.5 -64z" />
    <glyph glyph-name="hungarumlautcmb" unicode="&#x30b;" horiz-adv-x="0" 
d="M-35 1174l191 296h315l-289 -296h-217zM-471 1174l190 296h314l-287 -296h-217z" />
    <glyph glyph-name="caroncmb" unicode="&#x30c;" horiz-adv-x="0" 
d="M145 1174h-290l-265 296h224l186 -118l186 118h224z" />
    <glyph glyph-name="commaturncmb" unicode="&#x312;" horiz-adv-x="0" 
d="M143 1348v-174h-286v116q0 118 78 178t208 60v-115q-54 0 -77.5 -16t-28.5 -49h106z" />
    <glyph glyph-name="commaaccentcmb" unicode="&#x326;" horiz-adv-x="0" 
d="M-143 -244v174h286v-116q0 -118 -78 -178t-208 -60v115q54 0 77.5 16t28.5 49h-106z" />
    <glyph glyph-name="cedillacmb" unicode="&#x327;" horiz-adv-x="0" 
d="M285 -205q0 -83 -82.5 -131.5t-208.5 -48.5q-183 0 -279 74l88 131q75 -58 179 -58q108 0 108 50q0 31 -49 43t-147 14l47 156h137l-21 -68q100 -5 164 -47.5t64 -114.5z" />
    <glyph glyph-name="ogonekcmb" unicode="&#x328;" horiz-adv-x="0" 
d="M-211 -195q0 93 84.5 170t253.5 121l84 -96q-128 -39 -177.5 -72.5t-49.5 -68.5q0 -29 33.5 -46.5t91.5 -17.5q53 0 102 12v-167q-97 -17 -154 -17q-113 0 -190.5 48t-77.5 134z" />
    <glyph glyph-name="Wgrave" unicode="&#x1e80;" horiz-adv-x="2420" 
d="M1057 1470h313l367 -1138l387 1138h309l-514 -1470h-350l-359 1124l-362 -1124h-348l-514 1470h315l387 -1138zM1358 1554h-258l-389 310h407z" />
    <glyph glyph-name="wgrave" unicode="&#x1e81;" horiz-adv-x="1886" 
d="M825 1077h250l258 -729l262 729h295l-424 -1077h-258l-264 717l-264 -717h-258l-426 1077h305l268 -729zM1083 1174h-241l-340 296h368z" />
    <glyph glyph-name="Wacute" unicode="&#x1e82;" horiz-adv-x="2420" 
d="M1057 1470h313l367 -1138l387 1138h309l-514 -1470h-350l-359 1124l-362 -1124h-348l-514 1470h315l387 -1138zM1077 1554l240 310h407l-389 -310h-258z" />
    <glyph glyph-name="wacute" unicode="&#x1e83;" horiz-adv-x="1886" 
d="M825 1077h250l258 -729l262 729h295l-424 -1077h-258l-264 717l-264 -717h-258l-426 1077h305l268 -729zM823 1174l213 296h369l-340 -296h-242z" />
    <glyph glyph-name="Wdieresis" unicode="&#x1e84;" horiz-adv-x="2420" 
d="M1057 1470h313l367 -1138l387 1138h309l-514 -1470h-350l-359 1124l-362 -1124h-348l-514 1470h315l387 -1138zM803 1554v271h295v-271h-295zM1323 1554v271h295v-271h-295z" />
    <glyph glyph-name="wdieresis" unicode="&#x1e85;" horiz-adv-x="1886" 
d="M825 1077h250l258 -729l262 729h295l-424 -1077h-258l-264 717l-264 -717h-258l-426 1077h305l268 -729zM543 1204v266h295v-266h-295zM1047 1204v266h294v-266h-294z" />
    <glyph glyph-name="Ygrave" unicode="&#x1ef2;" horiz-adv-x="1736" 
d="M872 868l527 602h358l-737 -845v-625h-301v625l-739 845h366zM1073 1554h-258l-389 310h408z" />
    <glyph glyph-name="ygrave" unicode="&#x1ef3;" horiz-adv-x="1347" 
d="M788 -76q-82 -169 -188.5 -238t-275.5 -69q-61 0 -130 13.5t-104 31.5l51 234q80 -41 158 -41q76 0 131 29.5t86 109.5l10 33l-530 1050h319l369 -768l360 768h308zM844 1174h-242l-340 296h369z" />
    <glyph glyph-name="thinspace" unicode="&#x2009;" horiz-adv-x="204" 
 />
    <glyph glyph-name="endash" unicode="&#x2013;" horiz-adv-x="1110" 
d="M82 481v234h946v-234h-946z" />
    <glyph glyph-name="emdash" unicode="&#x2014;" horiz-adv-x="1998" 
d="M82 481v234h1835v-234h-1835z" />
    <glyph glyph-name="quoteleft" unicode="&#x2018;" horiz-adv-x="425" 
d="M381 1171v-317h-336v322q0 136 91.5 214t244.5 80v-151q-73 -6 -107 -37t-34 -90v-21h141z" />
    <glyph glyph-name="quoteright" unicode="&#x2019;" horiz-adv-x="425" 
d="M45 1153v317h336v-321q0 -136 -91.5 -214.5t-244.5 -80.5v152q73 6 107 37t34 90v20h-141z" />
    <glyph glyph-name="quotesinglbase" unicode="&#x201a;" horiz-adv-x="425" 
d="M45 23v317h336v-322q0 -136 -91.5 -214t-244.5 -80v151q73 6 107 37t34 90v21h-141z" />
    <glyph glyph-name="quotedblleft" unicode="&#x201c;" horiz-adv-x="866" 
d="M381 1171v-317h-336v322q0 136 91.5 214t244.5 80v-151q-73 -6 -107 -37t-34 -90v-21h141zM823 1171v-317h-336v322q0 136 91.5 214t244.5 80v-151q-73 -6 -107 -37t-34 -90v-21h141z" />
    <glyph glyph-name="quotedblright" unicode="&#x201d;" horiz-adv-x="866" 
d="M485 1153v317h336v-321q0 -136 -91.5 -214.5t-244.5 -80.5v152q73 6 107.5 37t34.5 90v20h-142zM43 1153v317h336v-321q0 -136 -91.5 -214.5t-244.5 -80.5v152q73 6 107 37t34 90v20h-141z" />
    <glyph glyph-name="quotedblbase" unicode="&#x201e;" horiz-adv-x="866" 
d="M485 23v317h336v-322q0 -136 -91.5 -214t-244.5 -80v151q73 6 107.5 37t34.5 90v21h-142zM43 23v317h336v-322q0 -136 -91.5 -214t-244.5 -80v151q73 6 107 37t34 90v21h-141z" />
    <glyph glyph-name="dagger" unicode="&#x2020;" horiz-adv-x="837" 
d="M309 578v462h-272v217h272v254h219v-254h273v-217h-273v-462h-219z" />
    <glyph glyph-name="daggerdbl" unicode="&#x2021;" horiz-adv-x="829" 
d="M303 578v182h-264v201h264v167h-264v203h264v180h223v-180h267v-203h-267v-167h267v-201h-267v-182h-223z" />
    <glyph glyph-name="bullet" unicode="&#x2022;" horiz-adv-x="888" 
d="M446 967q156 0 261.5 -104.5t105.5 -266.5q0 -158 -106 -262.5t-261 -104.5q-157 0 -263.5 104.5t-106.5 262.5q0 162 106.5 266.5t263.5 104.5z" />
    <glyph glyph-name="ellipsis" unicode="&#x2026;" horiz-adv-x="1423" 
d="M78 0v332h336v-332h-336zM545 0v332h336v-332h-336zM1010 0v332h336v-332h-336z" />
    <glyph glyph-name="guilsinglleft" unicode="&#x2039;" horiz-adv-x="610" 
d="M78 399v267l454 278v-276l-208 -136l208 -135v-276z" />
    <glyph glyph-name="guilsinglright" unicode="&#x203a;" horiz-adv-x="610" 
d="M532 399l-454 -278v276l209 135l-209 136v276l454 -278v-267z" />
    <glyph glyph-name="fraction" unicode="&#x2044;" horiz-adv-x="311" 
d="M612 1470h252l-1165 -1470h-252z" />
    <glyph glyph-name="uni2070" unicode="&#x2070;" horiz-adv-x="1044" 
d="M522 1483q205 0 339 -118t134 -300q0 -183 -134 -302.5t-339 -119.5t-339 119.5t-134 302.5q0 182 134 300t339 118zM522 1294q-107 0 -174 -63t-67 -166q0 -106 67 -170t174 -64q106 0 173 64t67 170q0 103 -67.5 166t-172.5 63z" />
    <glyph glyph-name="uni2074" unicode="&#x2074;" horiz-adv-x="964" 
d="M756 655h-217v179h-516v165l444 471h289v-460h186v-176h-186v-179zM272 1010h267v280z" />
    <glyph glyph-name="uni2075" unicode="&#x2075;" horiz-adv-x="907" 
d="M248 989l-197 29l60 452h708v-184h-536l-17 -123q92 47 226 47q173 0 279 -73.5t106 -202.5q0 -130 -121.5 -210.5t-304.5 -80.5q-162 0 -285 60t-166 169l205 80q27 -58 93 -93.5t155 -35.5q85 0 140.5 29t55.5 80t-54 80.5t-146 29.5q-121 0 -201 -53z" />
    <glyph glyph-name="uni2076" unicode="&#x2076;" horiz-adv-x="1001" 
d="M948 1331l-139 -131q-44 52 -113.5 79.5t-150.5 27.5q-125 0 -201 -56t-76 -129q104 84 287 84q177 0 289 -77t112 -195q0 -131 -122.5 -211t-321.5 -80q-218 0 -340.5 111.5t-122.5 292.5q0 195 136.5 315.5t363.5 120.5q138 0 240 -40.5t159 -111.5zM727 926
q0 53 -60 82.5t-159 29.5q-98 0 -157.5 -29.5t-59.5 -82.5q0 -51 60 -81t159 -30q96 0 156.5 30.5t60.5 80.5z" />
    <glyph glyph-name="uni2077" unicode="&#x2077;" horiz-adv-x="907" 
d="M635 1286h-422v-151h-190v335h862v-196q-158 -129 -232.5 -279.5t-74.5 -339.5h-238q0 375 295 631z" />
    <glyph glyph-name="uni2078" unicode="&#x2078;" horiz-adv-x="970" 
d="M485 1483q111 0 201.5 -26t147.5 -81.5t57 -132.5q0 -107 -127 -166q174 -57 174 -190q0 -118 -126.5 -181t-326.5 -63t-326 63t-126 181q0 132 176 190q-129 58 -129 166q0 77 57 132.5t147 81.5t201 26zM485 1161q82 0 131.5 20t49.5 60q0 80 -181 80q-178 0 -178 -80
q0 -40 48.5 -60t129.5 -20zM485 995q-103 0 -163 -23t-60 -69q0 -94 223 -94q104 0 165 23.5t61 70.5q0 46 -61.5 69t-164.5 23z" />
    <glyph glyph-name="uni2079" unicode="&#x2079;" horiz-adv-x="1001" 
d="M55 797l140 129q90 -107 264 -107q124 0 199 56t75 126q-106 -79 -284 -79q-177 0 -290.5 77t-113.5 193q0 131 122.5 211t321.5 80q218 0 340.5 -110.5t122.5 -291.5q0 -197 -135 -317.5t-362 -120.5q-138 0 -240 41t-160 113zM274 1200q0 -52 61.5 -82.5t158.5 -30.5
t158 30.5t61 82.5q0 51 -60.5 81t-158.5 30t-159 -30.5t-61 -80.5z" />
    <glyph glyph-name="uni2080" unicode="&#x2080;" horiz-adv-x="1044" 
d="M522 582q205 0 339 -118t134 -300q0 -183 -134 -302.5t-339 -119.5t-339 119.5t-134 302.5q0 182 134 300t339 118zM522 393q-107 0 -174 -63t-67 -166q0 -106 67 -170t174 -64q106 0 173 64t67 170q0 103 -67.5 166t-172.5 63z" />
    <glyph glyph-name="uni2081" unicode="&#x2081;" horiz-adv-x="763" 
d="M27 -246v189h262v319h-262v168l123 4q94 3 137.5 35t54.5 100h174v-626h234v-189h-723z" />
    <glyph glyph-name="uni2082" unicode="&#x2082;" horiz-adv-x="909" 
d="M55 -84l346 188q127 66 174.5 102.5t47.5 86.5q0 44 -40.5 73t-111.5 29q-90 0 -152.5 -49t-76.5 -129l-205 43q20 136 137 229t307 93q164 0 268.5 -73t104.5 -198q0 -93 -57.5 -159.5t-182.5 -124.5l-170 -86h428v-187h-817v162z" />
    <glyph glyph-name="uni2083" unicode="&#x2083;" horiz-adv-x="950" 
d="M479 -258q-177 0 -296 60t-175 169l199 90q30 -61 103.5 -100t168.5 -39q80 0 134.5 22.5t54.5 63.5q0 76 -181 76h-151v168h141q174 0 174 72q0 35 -46.5 55t-125.5 20q-91 0 -157.5 -35t-92.5 -90l-188 88q48 98 170.5 159t284.5 61q185 0 293 -67t108 -171
q0 -60 -39.5 -106.5t-103.5 -67.5q161 -50 161 -182q0 -105 -119 -175.5t-317 -70.5z" />
    <glyph glyph-name="uni2084" unicode="&#x2084;" horiz-adv-x="964" 
d="M756 -246h-217v178h-516v166l444 471h289v-460h186v-177h-186v-178zM272 109h267v280z" />
    <glyph glyph-name="uni2085" unicode="&#x2085;" horiz-adv-x="907" 
d="M248 88l-197 29l60 452h708v-184h-536l-17 -123q92 47 226 47q173 0 279 -73.5t106 -202.5q0 -130 -121.5 -210.5t-304.5 -80.5q-162 0 -285 60t-166 169l205 80q27 -58 93 -93.5t155 -35.5q85 0 140.5 29t55.5 80t-54 80.5t-146 29.5q-121 0 -201 -53z" />
    <glyph glyph-name="uni2086" unicode="&#x2086;" horiz-adv-x="1001" 
d="M948 430l-139 -131q-44 52 -113.5 79.5t-150.5 27.5q-125 0 -201 -56t-76 -129q104 84 287 84q177 0 289 -77t112 -195q0 -131 -122.5 -211t-321.5 -80q-218 0 -340.5 111t-122.5 292q0 195 136.5 316t363.5 121q138 0 240 -40.5t159 -111.5zM727 25q0 53 -60 82.5
t-159 29.5q-98 0 -157.5 -29.5t-59.5 -82.5q0 -51 60 -81t159 -30q96 0 156.5 30.5t60.5 80.5z" />
    <glyph glyph-name="uni2087" unicode="&#x2087;" horiz-adv-x="907" 
d="M635 385h-422v-152h-190v336h862v-196q-158 -129 -232.5 -279.5t-74.5 -339.5h-238q0 375 295 631z" />
    <glyph glyph-name="uni2088" unicode="&#x2088;" horiz-adv-x="970" 
d="M485 582q111 0 201.5 -26t147.5 -81.5t57 -132.5q0 -107 -127 -166q174 -57 174 -190q0 -118 -126.5 -181t-326.5 -63t-326 63t-126 181q0 132 176 190q-129 58 -129 166q0 77 57 132.5t147 81.5t201 26zM485 260q82 0 131.5 20t49.5 60q0 80 -181 80q-178 0 -178 -80
q0 -40 48.5 -60t129.5 -20zM485 94q-103 0 -163 -23t-60 -69q0 -94 223 -94q104 0 165 23.5t61 70.5q0 46 -61.5 69t-164.5 23z" />
    <glyph glyph-name="uni2089" unicode="&#x2089;" horiz-adv-x="1001" 
d="M53 -104l140 129q90 -107 264 -107q124 0 199 56t75 126q-108 -80 -285 -80t-290 77t-113 194q0 131 122.5 211t321.5 80q218 0 340.5 -110.5t122.5 -291.5q0 -197 -135 -317.5t-362 -120.5q-138 0 -240 41t-160 113zM272 299q0 -52 61.5 -82.5t158.5 -30.5t158 30.5
t61 82.5q0 51 -60.5 81t-158.5 30t-159 -30.5t-61 -80.5z" />
    <glyph glyph-name="Euro" unicode="&#x20ac;" horiz-adv-x="1826" 
d="M39 483v197h190q-2 18 -2 55q0 44 2 64h-190v194h233q86 227 299.5 363.5t493.5 136.5q273 0 469 -120.5t276 -332.5l-249 -131q-61 154 -189.5 239t-312.5 85q-159 0 -283 -63.5t-192 -176.5h622l-45 -194h-641q-4 -40 -4 -64q0 -37 2 -55h617l-43 -197h-510
q66 -116 191 -180.5t286 -64.5q184 0 312.5 84.5t189.5 238.5l249 -131q-80 -212 -276 -332.5t-469 -120.5q-282 0 -496.5 138.5t-298.5 367.5h-231z" />
    <glyph glyph-name="trademark" unicode="&#x2122;" horiz-adv-x="1902" 
d="M518 778h-217v500h-260v192h735v-192h-258v-500zM1417 778h-119l-208 439v-439h-195v692h279l188 -383l186 383h275v-692h-197v439z" />
    <glyph glyph-name="uni2153" unicode="&#x2153;" horiz-adv-x="2170" 
d="M27 655v189h262v319h-262v168l123 4q94 3 137.5 35t54.5 100h174v-626h234v-189h-723zM1520 1470h252l-1166 -1470h-252zM1698 -12q-177 0 -296 60t-175 169l198 90q30 -61 104 -100t169 -39q80 0 134 22.5t54 63.5q0 76 -180 76h-152v168h142q174 0 174 71
q0 35 -47 55.5t-125 20.5q-91 0 -157.5 -35t-92.5 -90l-188 88q48 98 170 158.5t284 60.5q185 0 293.5 -66.5t108.5 -170.5q0 -60 -39.5 -106.5t-104.5 -67.5q162 -50 162 -183q0 -104 -118.5 -174.5t-317.5 -70.5z" />
    <glyph glyph-name="uni2154" unicode="&#x2154;" horiz-adv-x="2283" 
d="M51 817l346 189q127 66 174 102t47 86q0 44 -40 73t-111 29q-90 0 -152.5 -49t-76.5 -129l-205 43q20 136 137 229t307 93q164 0 268.5 -73t104.5 -198q0 -93 -57.5 -159.5t-182.5 -124.5l-170 -86h428v-187h-817v162zM1632 1470h252l-1165 -1470h-252zM1812 -12
q-177 0 -296 60t-175 169l199 90q30 -61 103.5 -100t168.5 -39q80 0 134.5 22.5t54.5 63.5q0 76 -180 76h-152v168h141q175 0 175 71q0 35 -47 55.5t-126 20.5q-91 0 -157 -35t-92 -90l-189 88q48 98 170.5 158.5t284.5 60.5q185 0 293 -66.5t108 -170.5q0 -60 -39.5 -106.5
t-103.5 -67.5q162 -50 162 -183q0 -104 -119 -174.5t-318 -70.5z" />
    <glyph glyph-name="uni215B" unicode="&#x215b;" horiz-adv-x="2189" 
d="M27 655v189h262v319h-262v168l123 4q94 3 137.5 35t54.5 100h174v-626h234v-189h-723zM1520 1470h252l-1166 -1470h-252zM1704 827q112 0 201.5 -25.5t146.5 -81t57 -132.5q0 -107 -127 -166q175 -58 175 -191q0 -118 -126.5 -180.5t-326.5 -62.5t-326.5 62.5
t-126.5 180.5q0 133 176 191q-129 58 -129 166q0 114 116.5 176.5t289.5 62.5zM1704 506q82 0 131 20t49 60q0 80 -180 80q-178 0 -178 -80q0 -40 48 -60t130 -20zM1704 340q-103 0 -163 -23t-60 -69q0 -94 223 -94q103 0 164 23t61 71q0 46 -61 69t-164 23z" />
    <glyph glyph-name="uni215C" unicode="&#x215c;" horiz-adv-x="2234" 
d="M479 643q-177 0 -296 60t-175 169l199 91q30 -62 103.5 -101t168.5 -39q80 0 134.5 22.5t54.5 63.5q0 76 -181 76h-151v168h141q174 0 174 72q0 35 -46.5 55t-125.5 20q-91 0 -157.5 -34.5t-92.5 -89.5l-188 88q48 98 170.5 158.5t284.5 60.5q185 0 293 -67t108 -171
q0 -60 -39.5 -106.5t-103.5 -67.5q161 -50 161 -182q0 -105 -119 -175.5t-317 -70.5zM1563 1470h252l-1166 -1470h-252zM1749 827q112 0 201.5 -25.5t146.5 -81t57 -132.5q0 -108 -126 -166q174 -57 174 -191q0 -118 -126.5 -180.5t-326.5 -62.5t-326.5 62.5t-126.5 180.5
q0 133 177 191q-130 59 -130 166q0 114 116.5 176.5t289.5 62.5zM1749 506q82 0 131 20t49 60q0 80 -180 80q-178 0 -178 -80q0 -40 48.5 -60t129.5 -20zM1749 340q-103 0 -163 -23t-60 -69q0 -94 223 -94q103 0 164 23t61 71q0 46 -61 69t-164 23z" />
    <glyph glyph-name="uni215D" unicode="&#x215d;" horiz-adv-x="2191" 
d="M248 989l-197 29l60 452h708v-184h-536l-17 -123q92 47 226 47q173 0 279 -73.5t106 -202.5q0 -130 -121.5 -210.5t-304.5 -80.5q-162 0 -285 60t-166 169l205 80q27 -58 93 -93.5t155 -35.5q85 0 140.5 29t55.5 80t-54 80.5t-146 29.5q-121 0 -201 -53zM1520 1470h252
l-1166 -1470h-252zM1706 827q112 0 201.5 -25.5t146.5 -81t57 -132.5q0 -108 -126 -166q174 -57 174 -191q0 -118 -126.5 -180.5t-326.5 -62.5t-326.5 62.5t-126.5 180.5q0 133 177 191q-130 59 -130 166q0 114 116.5 176.5t289.5 62.5zM1706 506q82 0 131 20t49 60
q0 80 -180 80q-178 0 -178 -80q0 -40 48 -60t130 -20zM1706 340q-103 0 -163 -23t-60 -69q0 -94 223 -94q103 0 164 23t61 71q0 46 -61 69t-164 23z" />
    <glyph glyph-name="uni215E" unicode="&#x215e;" horiz-adv-x="2121" 
d="M635 1286h-422v-151h-190v335h862v-196q-158 -129 -232.5 -279.5t-74.5 -339.5h-238q0 375 295 631zM1450 1470h252l-1165 -1470h-252zM1636 827q173 0 289.5 -62.5t116.5 -176.5q0 -107 -127 -166q174 -57 174 -191q0 -118 -126.5 -180.5t-326.5 -62.5t-326 62.5
t-126 180.5q0 133 176 191q-129 58 -129 166q0 77 57 132.5t146.5 81t201.5 25.5zM1636 506q82 0 131.5 20t49.5 60q0 80 -181 80q-178 0 -178 -80q0 -40 48 -60t130 -20zM1636 340q-103 0 -163 -23t-60 -69q0 -94 223 -94q104 0 165 23.5t61 70.5q0 46 -61.5 69t-164.5 23z
" />
    <glyph glyph-name="minus" unicode="&#x2212;" 
d="M123 602v246h1393v-246h-1393z" />
    <glyph glyph-name="commaaccent" unicode="&#xf6c3;" horiz-adv-x="1228" 
d="M469 -244v174h287v-116q0 -118 -78 -178t-209 -60v115q54 0 77.5 16t28.5 49h-106z" />
    <glyph glyph-name="CR" horiz-adv-x="548" 
 />
    <glyph glyph-name="space.tab" horiz-adv-x="819" 
 />
    <glyph glyph-name="idotaccent" horiz-adv-x="505" 
d="M106 1204v266h293v-266h-293zM397 1077v-1077h-286v1077h286z" />
    <glyph glyph-name="a.ord" horiz-adv-x="997" 
d="M369 684q-145 0 -235.5 63.5t-90.5 174.5q0 108 84.5 168t228.5 73l312 31v4q0 48 -45 78.5t-136 30.5q-78 0 -136.5 -30t-76.5 -77l-202 57q35 104 152 166t274 62q187 0 288 -73t101 -216v-287q0 -33 20 -43.5t80 0.5v-166q-228 -44 -299 86q-54 -47 -137 -74.5
t-182 -27.5zM668 995v45l-279 -28q-65 -6 -95 -24.5t-30 -57.5q0 -38 38 -59t108 -21q99 0 178.5 40t79.5 105z" />
    <glyph glyph-name="b.ord" horiz-adv-x="1081" 
d="M336 788v-88h-227v1051h227v-369q43 45 116 74t166 29q191 0 303.5 -115t112.5 -287q0 -170 -112.5 -285.5t-303.5 -115.5q-93 0 -166 30t-116 76zM328 1085v-4q0 -94 70 -154.5t175 -60.5q102 0 172 58.5t70 158.5q0 102 -70 161t-172 59q-105 0 -175 -61t-70 -157z" />
    <glyph glyph-name="c.ord" horiz-adv-x="937" 
d="M47 1083q0 179 130.5 290.5t332.5 111.5q159 0 271 -74.5t145 -177.5l-195 -84q-22 64 -81.5 107.5t-141.5 43.5q-105 0 -172.5 -59t-67.5 -158q0 -98 67.5 -156.5t172.5 -58.5q82 0 141.5 44.5t81.5 109.5l195 -88q-37 -103 -147.5 -177.5t-268.5 -74.5
q-202 0 -332.5 112.5t-130.5 288.5z" />
    <glyph glyph-name="d.ord" horiz-adv-x="1081" 
d="M745 788q-41 -46 -114.5 -76t-167.5 -30q-189 0 -302.5 115.5t-113.5 285.5q0 171 113 286.5t303 115.5q94 0 167 -29t115 -74v369h228v-1051h-228v88zM754 1085q0 96 -70 157t-174 61q-103 0 -172.5 -59t-69.5 -161q0 -101 69.5 -159t172.5 -58q104 0 174 60.5t70 154.5
v4z" />
    <glyph glyph-name="e.ord" horiz-adv-x="989" 
d="M508 864q79 0 138.5 34.5t84.5 94.5l199 -75q-42 -104 -156.5 -170t-263.5 -66q-205 0 -334 112t-129 291q0 172 130 286t331 114q200 0 317 -112.5t117 -282.5v-64h-676q20 -76 84.5 -119t157.5 -43zM502 1311q-82 0 -144 -37.5t-86 -106.5h445q-9 57 -70 100.5
t-145 43.5z" />
    <glyph glyph-name="f.ord" horiz-adv-x="688" 
d="M174 1483q0 142 93 213t265 71q110 0 189 -28l-29 -178q-63 18 -147 18q-78 0 -114 -23.5t-36 -76.5v-9h289v-186h-287v-584h-223v584h-178v186h178v13z" />
    <glyph glyph-name="g.ord" horiz-adv-x="1073" 
d="M965 813q0 -181 -136 -285t-350 -104q-157 0 -271 50.5t-163 146.5l182 106q31 -60 96.5 -93.5t155.5 -33.5q107 0 182.5 50.5t75.5 140.5v26q-42 -45 -113 -73.5t-165 -28.5q-192 0 -305 110.5t-113 274.5q0 163 113 274t305 111q181 0 278 -101v86h228v-657zM748 1104
q0 91 -70.5 148t-173.5 57q-102 0 -172 -57t-70 -152t70 -151t172 -56q103 0 173.5 56t70.5 149v6z" />
    <glyph glyph-name="h.ord" horiz-adv-x="1054" 
d="M109 700v1051h227v-375q102 109 280 109q153 0 245.5 -94.5t92.5 -253.5v-437h-227v373q0 100 -47.5 155.5t-138.5 55.5q-98 0 -151.5 -56.5t-53.5 -156.5v-371h-227z" />
    <glyph glyph-name="i.ord" horiz-adv-x="442" 
d="M106 1552v199h230v-199h-230zM334 1470v-770h-228v770h228z" />
    <glyph glyph-name="j.ord" horiz-adv-x="442" 
d="M106 1552v199h230v-199h-230zM334 729q0 -301 -334 -301q-95 0 -172 25l33 174q64 -21 116 -21q67 0 98 28t31 97v739h228v-741z" />
    <glyph glyph-name="k.ord" horiz-adv-x="1009" 
d="M336 1751v-614l387 333h309l-389 -325l399 -445h-282l-279 310l-145 -123v-187h-227v1051h227z" />
    <glyph glyph-name="l.ord" horiz-adv-x="444" 
d="M336 1751v-1051h-227v1051h227z" />
    <glyph glyph-name="m.ord" horiz-adv-x="1626" 
d="M109 700v770h227v-92q100 107 266 107q87 0 156.5 -35.5t109.5 -99.5q124 135 316 135q160 0 250 -95t90 -260v-430h-228v379q0 98 -43.5 152.5t-130.5 54.5q-94 0 -143 -54.5t-49 -154.5v-377h-228v379q0 98 -43.5 152.5t-130.5 54.5q-94 0 -143 -54.5t-49 -154.5v-377
h-227z" />
    <glyph glyph-name="n.ord" horiz-adv-x="1054" 
d="M109 700v770h227v-94q102 109 280 109q153 0 245.5 -94.5t92.5 -253.5v-437h-227v373q0 100 -47.5 155.5t-138.5 55.5q-98 0 -151.5 -56.5t-53.5 -156.5v-371h-227z" />
    <glyph glyph-name="o.ord" horiz-adv-x="1007" 
d="M504 1485q197 0 327 -111t130 -291q0 -179 -130 -290t-327 -111t-327 111t-130 290q0 180 130 291t327 111zM504 868q102 0 169.5 57.5t67.5 157.5t-67.5 158.5t-169.5 58.5t-169 -58.5t-67 -158.5t67 -157.5t169 -57.5z" />
    <glyph glyph-name="p.ord" horiz-adv-x="1081" 
d="M336 788v-348h-227v1030h227v-88q43 45 116 74t166 29q191 0 303.5 -115t112.5 -287q0 -170 -112.5 -285.5t-303.5 -115.5q-93 0 -166 30t-116 76zM328 1085v-4q0 -94 70 -154.5t175 -60.5q102 0 172 58.5t70 158.5q0 102 -70 161t-172 59q-105 0 -175 -61t-70 -157z" />
    <glyph glyph-name="q.ord" horiz-adv-x="1081" 
d="M745 788q-41 -46 -114.5 -76t-167.5 -30q-189 0 -302.5 115.5t-113.5 285.5q0 171 113 286.5t303 115.5q94 0 167 -29t115 -74v88h228v-1030h-228v348zM754 1085q0 96 -70 157t-174 61q-103 0 -172.5 -59t-69.5 -161q0 -101 69.5 -159t172.5 -58q104 0 174 60.5t70 154.5
v4z" />
    <glyph glyph-name="r.ord" horiz-adv-x="729" 
d="M709 1466v-221q-58 10 -95 10q-278 0 -278 -239v-316h-227v770h227v-133q93 138 287 138q30 0 86 -9z" />
    <glyph glyph-name="s.ord" horiz-adv-x="874" 
d="M-8 831l112 152q132 -129 342 -129q175 0 175 72q0 32 -45 46q-27 8 -183 25l-18 2q-65 9 -108 17.5t-91 25t-76 39.5t-46.5 59.5t-18.5 84.5q0 119 105 189.5t286 70.5q130 0 236 -36.5t167 -96.5l-120 -138q-109 103 -293 103q-158 0 -158 -68q0 -29 37 -40
q28 -9 182 -27q50 -6 83.5 -11.5t76 -15t70.5 -20t57 -28t46 -39t27.5 -51.5t10.5 -67q0 -129 -115.5 -198.5t-300.5 -69.5q-138 0 -256.5 39.5t-183.5 109.5z" />
    <glyph glyph-name="t.ord" horiz-adv-x="780" 
d="M174 952v332h-176v186h176v216h223v-216h322v-186h-322v-285q0 -63 36.5 -89.5t113.5 -26.5q68 0 166 32l41 -182q-113 -45 -265 -45q-141 0 -228 64.5t-87 199.5z" />
    <glyph glyph-name="u.ord" horiz-adv-x="1046" 
d="M936 1470v-770h-225v93q-104 -111 -277 -111q-150 0 -241 93.5t-91 252.5v442h226v-397q0 -192 184 -192q95 0 147 53.5t52 150.5v385h225z" />
    <glyph glyph-name="v.ord" horiz-adv-x="978" 
d="M608 700h-235l-377 770h250l250 -528l245 528h244z" />
    <glyph glyph-name="w.ord" horiz-adv-x="1374" 
d="M592 1470h201l174 -497l178 497h235l-305 -770h-207l-182 494l-178 -494h-207l-305 770h242l182 -497z" />
    <glyph glyph-name="x.ord" horiz-adv-x="999" 
d="M293 1470l207 -231l213 231h276l-350 -374l365 -396h-285l-219 244l-226 -244h-276l364 387l-352 383h283z" />
    <glyph glyph-name="y.ord" horiz-adv-x="978" 
d="M592 659q-63 -127 -142.5 -179t-209.5 -52q-44 0 -93.5 9.5t-76.5 21.5l36 180q63 -29 113 -29q109 0 141 88l9 23l-373 749h252l250 -530l245 530h240z" />
    <glyph glyph-name="z.ord" horiz-adv-x="964" 
d="M897 887v-187h-829v166l505 418h-499v186h819v-170l-500 -413h504z" />
    <glyph glyph-name="caron.Slovak" horiz-adv-x="1228" 
d="M430 1130l51 340h314l-170 -340h-195z" />
    <glyph glyph-name="commaturn" horiz-adv-x="1228" 
d="M758 1348v-174h-287v116q0 118 78 178t209 60v-115q-54 0 -78 -16t-29 -49h107z" />
    <glyph glyph-name="period.tab" horiz-adv-x="819" 
d="M244 0v332h336v-332h-336z" />
    <glyph glyph-name="comma.tab" horiz-adv-x="819" 
d="M244 0v332h336v-326q0 -143 -91 -225t-245 -82v151q141 9 141 136v14h-141z" />
    <glyph glyph-name="colon.tab" horiz-adv-x="819" 
d="M244 0v332h336v-332h-336zM244 694v332h336v-332h-336z" />
    <glyph glyph-name="semicolon.tab" horiz-adv-x="819" 
d="M244 0v332h336v-326q0 -143 -91 -225t-245 -82v151q141 9 141 136v14h-141zM244 694v332h336v-332h-336z" />
    <glyph glyph-name="colon.mid" horiz-adv-x="821" 
d="M244 223v332h336v-332h-336zM244 918v331h336v-331h-336z" />
    <glyph glyph-name="guilsinglleft.cap" horiz-adv-x="610" 
d="M78 600v266l454 279v-277l-208 -135l208 -135v-276z" />
    <glyph glyph-name="guilsinglright.cap" horiz-adv-x="610" 
d="M532 600l-454 -278v276l209 135l-209 135v277l454 -279v-266z" />
    <glyph glyph-name="guillemotleft.cap" horiz-adv-x="1116" 
d="M78 600v266l454 279v-277l-208 -135l208 -135v-276zM584 600v266l454 279v-277l-209 -135l209 -135v-276z" />
    <glyph glyph-name="guillemotright.cap" horiz-adv-x="1116" 
d="M1038 600l-454 -278v276l209 135l-209 135v277l454 -279v-266zM532 600l-454 -278v276l209 135l-209 135v277l454 -279v-266z" />
    <glyph glyph-name="slash.cap" horiz-adv-x="1146" 
d="M25 -125l792 1712h305l-792 -1712h-305z" />
    <glyph glyph-name="backslash.cap" horiz-adv-x="1146" 
d="M1122 -125h-305l-792 1712h305z" />
    <glyph glyph-name="bar.cap" horiz-adv-x="552" 
d="M135 -125v1712h283v-1712h-283z" />
    <glyph glyph-name="periodcentered.cap" horiz-adv-x="499" 
d="M82 573v332h336v-332h-336z" />
    <glyph glyph-name="bullet.cap" horiz-adv-x="888" 
d="M446 1102q156 0 261.5 -104.5t105.5 -266.5q0 -158 -106 -262t-261 -104q-157 0 -263.5 104t-106.5 262q0 162 106.5 266.5t263.5 104.5z" />
    <glyph glyph-name="hyphen.cap" horiz-adv-x="753" 
d="M82 606v256h590v-256h-590z" />
    <glyph glyph-name="endash.cap" horiz-adv-x="1110" 
d="M82 616v234h946v-234h-946z" />
    <glyph glyph-name="emdash.cap" horiz-adv-x="1998" 
d="M82 616v234h1835v-234h-1835z" />
    <glyph glyph-name="parenleft.cap" horiz-adv-x="802" 
d="M340 700q0 -490 463 -856h-299q-215 139 -340 364.5t-125 491.5t125 491.5t340 364.5h299q-463 -369 -463 -856z" />
    <glyph glyph-name="parenright.cap" horiz-adv-x="802" 
d="M463 700q0 487 -463 856h299q215 -139 340 -364.5t125 -491.5t-125 -491.5t-340 -364.5h-299q463 366 463 856z" />
    <glyph glyph-name="bracketleft.cap" horiz-adv-x="745" 
d="M358 1331v-1263h367v-224h-643v1712h643v-225h-367z" />
    <glyph glyph-name="bracketright.cap" horiz-adv-x="745" 
d="M387 1331h-367v225h644v-1712h-644v224h367v1263z" />
    <glyph glyph-name="braceleft.cap" horiz-adv-x="864" 
d="M41 586v229h100q113 0 113 154v233q0 167 103 260.5t292 93.5h195v-225h-146q-98 0 -142 -46t-44 -144v-183q0 -112 -39.5 -170.5t-107.5 -87.5q68 -29 107.5 -87.5t39.5 -170.5v-182q0 -98 44 -144t142 -46h146v-226h-195q-189 0 -292 94t-103 261v233q0 154 -113 154
h-100z" />
    <glyph glyph-name="braceright.cap" horiz-adv-x="864" 
d="M823 586h-100q-113 0 -113 -154v-233q0 -167 -103 -261t-292 -94h-195v226h146q98 0 142 46t44 144v182q0 111 40 170t108 88q-68 29 -108 88t-40 170v183q0 98 -44 144t-142 46h-146v225h195q189 0 292 -93.5t103 -260.5v-233q0 -154 113 -154h100v-229z" />
    <glyph glyph-name="at.cap" horiz-adv-x="2174" 
d="M1538 592q-22 -121 92 -121q111 0 191 94t80 250q0 243 -198.5 379.5t-539.5 136.5q-203 0 -369.5 -52t-276.5 -144t-170 -217.5t-60 -272.5q0 -281 214 -436.5t601 -155.5q198 0 386.5 42t319.5 114l107 -180q-152 -92 -366 -141.5t-449 -49.5q-317 0 -553.5 93.5
t-368 277t-131.5 436.5q0 190 79 354.5t221.5 284.5t353.5 189t462 69q281 0 499 -85.5t342 -249t124 -382.5q0 -131 -43.5 -238.5t-118.5 -176.5t-174 -106t-211 -36q-97 0 -171 32.5t-112 86.5q-52 -58 -145 -87.5t-190 -29.5q-197 0 -312.5 102.5t-115.5 272.5
q0 98 38 186.5t104.5 154.5t164.5 105t211 39q101 0 181.5 -30.5t129.5 -83.5l20 96h256zM1030 483q120 0 196.5 73.5t76.5 176.5q0 86 -55.5 135.5t-155.5 49.5q-120 0 -196.5 -73.5t-76.5 -176.5q0 -85 56 -135t155 -50z" />
    <glyph glyph-name="florin.lt" horiz-adv-x="1636" 
d="M362 680v201h332l29 159q82 453 530 453q124 0 224 -31.5t165 -83.5l-124 -211q-106 86 -244 86q-211 0 -252 -227l-27 -145h322v-201h-359l-45 -250q-82 -453 -532 -453q-244 0 -387 115l123 211q111 -86 243 -86q210 0 254 227l43 236h-295z" />
    <glyph glyph-name="Euro.lt" 
d="M51 483v197h101q-2 18 -2 55q0 44 2 64h-101v194h139q74 227 268 363.5t453 136.5q253 0 427.5 -119t252.5 -334l-250 -120q-59 152 -169 232.5t-267 80.5q-141 0 -250 -63.5t-166 -176.5h543l-41 -194h-559q0 -10 -1 -31t-1 -33q0 -37 2 -55h533l-39 -197h-441
q58 -115 167.5 -180t252.5 -65q157 0 267 80.5t169 232.5l250 -121q-78 -215 -252.5 -334t-427.5 -119q-262 0 -456 138t-267 368h-137z" />
    <glyph glyph-name="dollar.lt" 
d="M-2 336l203 196q92 -114 229 -185t299 -93v379q-85 10 -149.5 20.5t-133 27t-118.5 36.5t-95.5 49.5t-73.5 66t-44.5 85.5t-16.5 108q0 190 171.5 308.5t459.5 133.5v211h240v-217q203 -22 365 -95.5t247 -182.5l-201 -187q-126 164 -411 213v-346q91 -11 158.5 -22
t138.5 -28t121 -37.5t95.5 -50.5t73.5 -67t44 -87t16 -111q0 -204 -172 -320t-475 -137v-217h-240v217q-237 21 -436.5 110t-294.5 222zM381 1053q0 -47 29 -74.5t102.5 -48t216.5 -39.5v334q-348 -11 -348 -172zM1323 430q0 81 -71 115t-283 61v-356q172 10 263 57t91 123z
" />
    <glyph glyph-name="cent.lt" 
d="M190 553q0 227 157 382.5t405 186.5v219h227v-219q181 -24 310 -116.5t179 -217.5l-211 -122q-35 83 -105.5 141.5t-172.5 79.5v-670q101 23 173 82.5t105 142.5l209 -129q-50 -123 -177.5 -214t-309.5 -115v-195h-227v195q-248 31 -405 186.5t-157 382.5zM453 553
q0 -129 82 -218.5t217 -117.5v672q-135 -28 -217 -117.5t-82 -218.5z" />
    <glyph glyph-name="sterling.lt" 
d="M215 578v204h186q-79 123 -79 252q0 195 169.5 327t434.5 132q270 0 430 -136.5t160 -369.5q0 -67 -11 -123h-266q6 35 6 70q0 154 -87 229.5t-238 75.5q-139 0 -223.5 -68.5t-84.5 -177.5q0 -57 20 -103t60 -108h432v-204h-325q14 -46 14 -107q0 -67 -18 -135
q80 -47 146.5 -72.5t137.5 -25.5q111 0 183.5 64t78.5 175h267q1 -220 -138.5 -360t-353.5 -140q-119 0 -216 44t-200 122q-132 -166 -333 -166q-133 0 -218.5 74t-85.5 195q0 116 87 185t225 69q106 0 203 -43q-5 55 -37 121h-326zM276 246q0 -34 28 -54t77 -20
q99 0 156 96q-87 56 -154 56q-49 0 -78 -21.5t-29 -56.5z" />
    <glyph glyph-name="yen.lt" horiz-adv-x="1636" 
d="M233 360v199h441v107l-12 14h-429v199h273l-467 591h373l411 -567l410 567h364l-467 -591h275v-199h-430l-12 -14v-107h442v-199h-442v-360h-289v360h-441z" />
    <glyph glyph-name="zero.lt" 
d="M819 1493q210 0 381 -98t268 -271.5t97 -388.5t-97 -388.5t-268 -271.5t-381 -98t-380.5 98t-267.5 271.5t-97 388.5t97 388.5t267.5 271.5t380.5 98zM819 1229q-194 0 -316 -136t-122 -358t121.5 -357.5t316.5 -135.5q194 0 315 135.5t121 357.5t-121 358t-315 136z" />
    <glyph glyph-name="one.lt" 
d="M147 0v252h588v733h-579v229l356 13q148 6 214.5 64.5t80.5 187.5h229v-1227h520v-252h-1409z" />
    <glyph glyph-name="two.lt" 
d="M115 240l682 372q62 34 94.5 52t80 46t71.5 45t55.5 42t46.5 45t30.5 45t21 51t5.5 55q0 109 -98 175.5t-258 66.5q-194 0 -321.5 -103.5t-159.5 -271.5l-275 70q23 118 85.5 219.5t158 178.5t231.5 121t295 44q282 0 462.5 -135t180.5 -354q0 -85 -28.5 -157.5
t-89.5 -136t-140.5 -118t-195.5 -115.5l-404 -217h895v-260h-1425v240z" />
    <glyph glyph-name="three.lt" 
d="M829 -23q-300 0 -508 120.5t-274 318.5l270 116q49 -133 186.5 -218t325.5 -85q186 0 304 57.5t118 157.5q0 66 -54.5 109t-138.5 60.5t-196 17.5h-254v246h248q165 0 257.5 44t92.5 132q0 86 -100 136t-268 50q-181 0 -309 -77.5t-171 -198.5l-264 100
q64 187 265.5 308.5t492.5 121.5q307 0 487.5 -116.5t180.5 -301.5q0 -111 -76.5 -196t-200.5 -119q151 -37 236.5 -120.5t85.5 -217.5q0 -89 -51.5 -170t-144.5 -142t-233 -97t-307 -36z" />
    <glyph glyph-name="four.lt" 
d="M1286 0h-289v352h-938v234l834 884h397v-872h305v-246h-309v-352zM408 598h585v627z" />
    <glyph glyph-name="five.lt" 
d="M387 629l-233 59l96 782h1223v-260h-996l-41 -309q74 44 192 71.5t263 26.5q195 -2 350 -63.5t244.5 -176t89.5 -263.5q0 -152 -96 -271t-262.5 -183.5t-372.5 -64.5q-303 0 -519.5 119.5t-277.5 321.5l272 112q47 -131 189.5 -216t337.5 -85q184 0 305 70.5t121 192.5
q0 118 -120.5 191t-317.5 73q-273 0 -447 -127z" />
    <glyph glyph-name="six.lt" 
d="M1554 1180l-211 -183q-62 114 -186 181t-276 67q-226 0 -370 -131t-144 -317q82 92 215.5 144t306.5 52q297 0 484.5 -141.5t187.5 -353.5q0 -149 -90 -268t-253 -186t-370 -67q-187 0 -334 55.5t-240 154t-141.5 230.5t-48.5 290q0 171 56 315.5t158.5 249t255 163
t337.5 58.5q224 0 397 -85.5t266 -227.5zM1262 483q0 118 -117.5 191.5t-302.5 73.5q-188 0 -306 -73.5t-118 -191.5q0 -119 115.5 -190.5t304.5 -71.5q188 0 306 71.5t118 190.5z" />
    <glyph glyph-name="seven.lt" 
d="M1260 1214h-926v-288h-258v544h1505v-268q-294 -273 -433.5 -557.5t-139.5 -644.5h-308q0 197 43.5 376.5t123.5 329.5t175.5 271.5t217.5 236.5z" />
    <glyph glyph-name="eight.lt" 
d="M819 1493q188 0 336.5 -45.5t239 -140.5t90.5 -228q0 -115 -66 -188t-196 -123q71 -19 130 -49.5t108 -73.5t76.5 -103.5t27.5 -131.5q0 -141 -99.5 -240.5t-265 -146t-381.5 -46.5t-381 46.5t-264.5 146t-99.5 240.5q0 138 95.5 227.5t246.5 130.5q-130 50 -196 123
t-66 188q0 133 90.5 228t238.5 140.5t336 45.5zM819 887q172 0 271.5 46.5t99.5 141.5q0 94 -100 141.5t-271 47.5t-270.5 -47.5t-99.5 -141.5q0 -95 99 -141.5t271 -46.5zM819 649q-204 0 -323 -55t-119 -162q0 -111 118 -165t324 -54t323.5 54t117.5 165q0 107 -119 162
t-322 55z" />
    <glyph glyph-name="nine.lt" 
d="M84 291l211 182q62 -113 186 -180.5t277 -67.5q226 0 370 131.5t144 317.5q-82 -92 -216 -144.5t-306 -52.5q-297 0 -484.5 142t-187.5 354q0 149 90 267.5t253 185.5t370 67q187 0 333.5 -55t240 -153.5t141.5 -230.5t48 -290q0 -171 -56 -316t-158.5 -249t-254.5 -163
t-337 -59q-224 0 -397.5 86t-266.5 228zM377 987q0 -118 117.5 -191t302.5 -73q188 0 306 73t118 191q0 119 -115.5 190.5t-304.5 71.5q-188 0 -306 -71.5t-118 -190.5z" />
    <glyph glyph-name="zero.dnom" horiz-adv-x="1044" 
d="M522 827q206 0 339.5 -118t133.5 -299q0 -183 -134 -302.5t-339 -119.5t-339 119.5t-134 302.5q0 181 133.5 299t339.5 118zM522 639q-107 0 -174 -63t-67 -166q0 -106 67 -170t174 -64q106 0 173 64t67 170q0 103 -67.5 166t-172.5 63z" />
    <glyph glyph-name="one.dnom" horiz-adv-x="763" 
d="M27 0v188h262v320h-262v168l123 4q94 3 137.5 35t54.5 100h174v-627h234v-188h-723z" />
    <glyph glyph-name="two.dnom" horiz-adv-x="909" 
d="M55 162l346 188q127 66 174.5 102.5t47.5 86.5q0 44 -40.5 73t-111.5 29q-90 0 -152.5 -49t-76.5 -129l-205 43q20 136 137 228.5t307 92.5q164 0 268.5 -72.5t104.5 -197.5q0 -93 -58 -160t-182 -125l-170 -86h428v-186h-817v162z" />
    <glyph glyph-name="three.dnom" horiz-adv-x="950" 
d="M479 -12q-177 0 -296 60t-175 169l199 90q30 -61 103.5 -100t168.5 -39q80 0 134.5 22.5t54.5 63.5q0 76 -181 76h-151v168h141q174 0 174 71q0 35 -47 55.5t-125 20.5q-91 0 -157.5 -35t-92.5 -90l-188 88q48 98 170.5 158.5t284.5 60.5q185 0 293 -66.5t108 -170.5
q0 -60 -39.5 -106.5t-103.5 -67.5q161 -50 161 -183q0 -104 -118.5 -174.5t-317.5 -70.5z" />
    <glyph glyph-name="four.dnom" horiz-adv-x="964" 
d="M756 0h-217v178h-516v166l444 471h289v-461h186v-176h-186v-178zM272 354h267v281z" />
    <glyph glyph-name="five.dnom" horiz-adv-x="907" 
d="M248 334l-197 28l60 453h708v-184h-536l-17 -123q92 47 226 47q173 0 279 -73.5t106 -202.5q0 -130 -121.5 -210.5t-304.5 -80.5q-162 0 -285 60t-166 169l205 80q27 -58 93 -93.5t155 -35.5q85 0 140.5 28.5t55.5 79.5t-54 81t-146 30q-121 0 -201 -53z" />
    <glyph glyph-name="six.dnom" horiz-adv-x="1001" 
d="M948 676l-139 -131q-43 51 -113 78.5t-151 27.5q-125 0 -201 -56t-76 -128q104 84 287 84q177 0 289 -77t112 -195q0 -131 -122.5 -211t-321.5 -80q-218 0 -340.5 111t-122.5 292q0 195 136.5 315.5t363.5 120.5q139 0 240.5 -40t158.5 -111zM727 270q0 53 -60 83
t-159 30q-97 0 -157 -30t-60 -83q0 -51 60 -80.5t159 -29.5q97 0 157 30t60 80z" />
    <glyph glyph-name="seven.dnom" horiz-adv-x="907" 
d="M635 631h-422v-152h-190v336h862v-197q-158 -129 -232.5 -279t-74.5 -339h-238q0 375 295 631z" />
    <glyph glyph-name="eight.dnom" horiz-adv-x="970" 
d="M485 827q173 0 289.5 -62.5t116.5 -176.5q0 -107 -127 -166q174 -57 174 -191q0 -118 -126.5 -180.5t-326.5 -62.5t-326 62.5t-126 180.5q0 133 176 191q-129 58 -129 166q0 77 57 132.5t146.5 81t201.5 25.5zM485 506q82 0 131.5 20t49.5 60q0 80 -181 80
q-178 0 -178 -80q0 -40 48.5 -60t129.5 -20zM485 340q-103 0 -163 -23t-60 -69q0 -94 223 -94q104 0 165 23.5t61 70.5q0 46 -61.5 69t-164.5 23z" />
    <glyph glyph-name="nine.dnom" horiz-adv-x="1001" 
d="M53 141l140 129q89 -106 264 -106q124 0 199 56t75 126q-108 -80 -285 -80t-290 77t-113 194q0 130 122 210t322 80q218 0 340.5 -110t122.5 -291q0 -197 -135 -317.5t-362 -120.5q-138 0 -240.5 41t-159.5 112zM272 545q0 -52 61.5 -82.5t158.5 -30.5t158 30.5t61 82.5
q0 50 -60.5 80t-158.5 30t-159 -30t-61 -80z" />
    <glyph glyph-name="percent.lt" 
d="M33 1130q0 158 103.5 260.5t262.5 102.5q157 0 261 -102.5t104 -260.5t-104 -260t-261 -102q-159 0 -262.5 102t-103.5 260zM166 0l1057 1470h250l-1057 -1470h-250zM555 1130q0 83 -43.5 133t-112.5 50t-112 -50t-43 -133q0 -84 42.5 -133t112.5 -49q69 0 112.5 49.5
t43.5 132.5zM1593 340q0 -158 -103.5 -260.5t-260.5 -102.5q-158 0 -262.5 102.5t-104.5 260.5q0 157 104.5 259.5t262.5 102.5q157 0 260.5 -102t103.5 -260zM1073 340q0 -83 43 -132.5t113 -49.5q68 0 111.5 50t43.5 132q0 83 -43 132.5t-112 49.5q-70 0 -113 -49.5
t-43 -132.5z" />
    <glyph glyph-name="commaaboverightcmb" horiz-adv-x="0" 
d="M-182 1130l51 340h313l-170 -340h-194z" />
    </font>
</defs>
</svg>
