<svg width="609" height="375" viewBox="0 0 609 375" fill="none" xmlns="http://www.w3.org/2000/svg">
<path fill-rule="evenodd" clip-rule="evenodd" d="M31.9599 125.025L125.219 31.9083V0H93.2589L0 93.1167V125.025H31.9599ZM252.817 0L127.623 125H95.5459L2.40381 217.983V250H34.4723L159.666 125H191.743L284.885 32.0083V0H252.817ZM287.281 125L412.483 0H444.543V32.0083L351.401 125H319.34L194.138 250H162.062L36.8678 375H4.79932V342.983L97.9414 250H130.01L255.212 125H287.281ZM446.938 125L572.141 0H604.201V32.0083L511.067 125H478.99L353.788 250H321.728L196.525 375H164.457V342.983L257.599 250H289.659L414.861 125H446.938ZM449.334 250L574.536 125H606.596V157.008L513.462 250H481.385L356.183 375H324.123V342.983L417.257 250H449.334ZM609 281.883L515.741 375H483.781V343.092L577.049 249.983H609V281.883Z" fill="url(#paint0_linear_997_226669)"/>
<defs>
<linearGradient id="paint0_linear_997_226669" x1="609" y1="0" x2="274.143" y2="543.807" gradientUnits="userSpaceOnUse">
<stop stop-color="#2A3548"/>
<stop offset="1" stop-color="#0E1219"/>
</linearGradient>
</defs>
</svg>
